ISO-10303-21;
HEADER;
FILE_DESCRIPTION (( 'STEP AP214' ),
    '1' );
FILE_NAME ('LQ25-11FCMB-01-02.STEP',
    '2026-05-07T08:55:13',
    ( '' ),
    ( '' ),
    'SwSTEP 2.0',
    'SolidWorks 2025',
    '' );
FILE_SCHEMA (( 'AUTOMOTIVE_DESIGN' ));
ENDSEC;

DATA;
#1 = PRODUCT ( 'LuoKe-M12Y011-12MP', 'LuoKe-M12Y011-12MP', '', ( #29 ) ) ;
#2 = DIRECTION ( 'NONE',  ( 1.000000000000000000, 0.000000000000000000, 0.000000000000000000 ) ) ;
#3 = DIRECTION ( 'NONE',  ( 3.398761299653096636E-15, -0.9999999999999998890, 3.330669073875469621E-16 ) ) ;
#4 = DOCUMENT_TYPE ( 'geometry' ) ;
#5 =( GEOMETRIC_REPRESENTATION_CONTEXT ( 3 ) GLOBAL_UNCERTAINTY_ASSIGNED_CONTEXT ( ( #10 ) ) GLOBAL_UNIT_ASSIGNED_CONTEXT ( ( #31, #55, #38 ) ) REPRESENTATION_CONTEXT ( 'NONE', 'WORKASPACE' ) );
#6 = APPLICATION_PROTOCOL_DEFINITION ( 'draft international standard', 'automotive_design', 1998, #15 ) ;
#7 = PRODUCT ( 'LQ25-11FCMB-01-02', 'LQ25-11FCMB-01-02', '', ( #64 ) ) ;
#8 = OBJECT_ROLE ('mandatory',$ ) ;
#9 = CONTEXT_DEPENDENT_SHAPE_REPRESENTATION ( #62, #27 ) ;
#10 = UNCERTAINTY_MEASURE_WITH_UNIT (LENGTH_MEASURE( 1.000000000000000082E-05 ), #31, 'distance_accuracy_value', 'NONE');
#11 = PRODUCT_RELATED_PRODUCT_CATEGORY ( 'part', '', ( #1 ) ) ;
#12 = APPLICATION_CONTEXT ( 'automotive_design' ) ;
#13 = SHAPE_REPRESENTATION ( 'LuoKe-M12Y011-12MP', ( #60 ), #5 ) ;
#14 = PROPERTY_DEFINITION ('document property','', #30 ) ;
#15 = APPLICATION_CONTEXT ( 'automotive_design' ) ;
#16 = DIRECTION ( 'NONE',  ( 0.000000000000000000, 0.000000000000000000, 1.000000000000000000 ) ) ;
#17 = PRODUCT_DEFINITION_FORMATION_WITH_SPECIFIED_SOURCE ( '对称', '', #7, .NOT_KNOWN. ) ;
#18 = EXTERNAL_SOURCE (IDENTIFIER('') ) ;
#19 = SHAPE_DEFINITION_REPRESENTATION ( #47, #13 ) ;
#20 =( GEOMETRIC_REPRESENTATION_CONTEXT ( 3 ) GLOBAL_UNCERTAINTY_ASSIGNED_CONTEXT ( ( #25 ) ) GLOBAL_UNIT_ASSIGNED_CONTEXT ( ( #57, #42, #23 ) ) REPRESENTATION_CONTEXT ( 'NONE', 'WORKASPACE' ) );
#21 = PROPERTY_DEFINITION ('external definition','', #30 ) ;
#22 = PRODUCT_RELATED_PRODUCT_CATEGORY ( 'part', '', ( #7 ) ) ;
#23 =( NAMED_UNIT ( * ) SI_UNIT ( $, .STERADIAN. ) SOLID_ANGLE_UNIT ( ) );
#24 = CARTESIAN_POINT ( 'NONE',  ( 0.000000000000000000, 0.000000000000000000, 0.000000000000000000 ) ) ;
#25 = UNCERTAINTY_MEASURE_WITH_UNIT (LENGTH_MEASURE( 1.000000000000000082E-05 ), #57, 'distance_accuracy_value', 'NONE');
#26 = PROPERTY_DEFINITION_REPRESENTATION ( #21, #13 ) ;
#27 = PRODUCT_DEFINITION_SHAPE ( 'NONE', 'NONE',  #65 ) ;
#28 = PRODUCT_DEFINITION ( '普通', '', #45, #36 ) ;
#29 = PRODUCT_CONTEXT ( 'NONE', #15, 'mechanical' ) ;
#30 = DOCUMENT_FILE ( 'LuoKe-M12Y011-12MP.STEP' , '', '', #4, '' ,$ ) ;
#31 =( LENGTH_UNIT ( ) NAMED_UNIT ( * ) SI_UNIT ( .MILLI., .METRE. ) );
#32 = APPLIED_EXTERNAL_IDENTIFICATION_ASSIGNMENT ( 'LuoKe-M12Y011-12MP.STEP' , #33, #18,( #30) ) ;
#33 = IDENTIFICATION_ROLE ( 'external document id and location', $) ;
#34 = CARTESIAN_POINT ( 'NONE',  ( 1.643657899944388415E-16, 6.938893903907228378E-15, 5.220000000000022844 ) ) ;
#35 = SHAPE_DEFINITION_REPRESENTATION ( #61, #59 ) ;
#36 = PRODUCT_DEFINITION_CONTEXT ( 'detailed design', #49, 'design' ) ;
#37 = ITEM_DEFINED_TRANSFORMATION ( 'NONE', 'NONE', #44,  #60 ) ;
#38 =( NAMED_UNIT ( * ) SI_UNIT ( $, .STERADIAN. ) SOLID_ANGLE_UNIT ( ) );
#39 = PRODUCT_DEFINITION ( '普通', '', #17, #63 ) ;
#40 = APPLICATION_PROTOCOL_DEFINITION ( 'draft international standard', 'automotive_design', 1998, #49 ) ;
#41 = ROLE_ASSOCIATION ( #8, #48 ) ;
#42 =( NAMED_UNIT ( * ) PLANE_ANGLE_UNIT ( ) SI_UNIT ( $, .RADIAN. ) );
#43 = CARTESIAN_POINT ( 'NONE',  ( 0.000000000000000000, 0.000000000000000000, 0.000000000000000000 ) ) ;
#44 = AXIS2_PLACEMENT_3D ( 'NONE', #34, #3, #52 ) ;
#45 = PRODUCT_DEFINITION_FORMATION_WITH_SPECIFIED_SOURCE ( '对称', '', #1, .NOT_KNOWN. ) ;
#46 = APPLICATION_CONTEXT ( 'automotive_design' ) ;
#47 = PRODUCT_DEFINITION_SHAPE ( 'NONE', 'NONE',  #28 ) ;
#48 = APPLIED_DOCUMENT_REFERENCE ( #30,'',( #28) ) ;
#49 = APPLICATION_CONTEXT ( 'automotive_design' ) ;
#50 = DIRECTION ( 'NONE',  ( 1.000000000000000000, 0.000000000000000000, 0.000000000000000000 ) ) ;
#51 = APPLICATION_PROTOCOL_DEFINITION ( 'draft international standard', 'automotive_design', 1998, #12 ) ;
#52 = DIRECTION ( 'NONE',  ( 1.000000000000000000, 3.398761299653095058E-15, -3.461736698118434926E-15 ) ) ;
#53 = AXIS2_PLACEMENT_3D ( 'NONE', #24, #54, #2 ) ;
#54 = DIRECTION ( 'NONE',  ( 0.000000000000000000, 0.000000000000000000, 1.000000000000000000 ) ) ;
#55 =( NAMED_UNIT ( * ) PLANE_ANGLE_UNIT ( ) SI_UNIT ( $, .RADIAN. ) );
#56 = PROPERTY_DEFINITION_REPRESENTATION ( #14, #13 ) ;
#57 =( LENGTH_UNIT ( ) NAMED_UNIT ( * ) SI_UNIT ( .MILLI., .METRE. ) );
#58 = APPLICATION_PROTOCOL_DEFINITION ( 'draft international standard', 'automotive_design', 1998, #46 ) ;
#59 = SHAPE_REPRESENTATION ( 'LQ25-11FCMB-01-02', ( #53, #44 ), #20 ) ;
#60 = AXIS2_PLACEMENT_3D ( 'NONE', #43, #16, #50 ) ;
#61 = PRODUCT_DEFINITION_SHAPE ( 'NONE', 'NONE',  #39 ) ;
#62 =( REPRESENTATION_RELATIONSHIP ('NONE','NONE', #59, #13 ) REPRESENTATION_RELATIONSHIP_WITH_TRANSFORMATION ( #37 )SHAPE_REPRESENTATION_RELATIONSHIP( ) );
#63 = PRODUCT_DEFINITION_CONTEXT ( 'detailed design', #46, 'design' ) ;
#64 = PRODUCT_CONTEXT ( 'NONE', #12, 'mechanical' ) ;
#65 = NEXT_ASSEMBLY_USAGE_OCCURRENCE ( 'NAUO1', ' ', ' ', #39, #28, $ ) ;
ENDSEC;
END-ISO-10303-21;
