ISO-10303-21;
HEADER;
FILE_DESCRIPTION (( 'STEP AP214' ),
    '1' );
FILE_NAME ('LQ26-05HGI-01.STEP',
    '2026-05-07T08:55:13',
    ( '' ),
    ( '' ),
    'SwSTEP 2.0',
    'SolidWorks 2025',
    '' );
FILE_SCHEMA (( 'AUTOMOTIVE_DESIGN' ));
ENDSEC;

DATA;
#1 = PROPERTY_DEFINITION_REPRESENTATION ( #110, #556 ) ;
#2 = PRODUCT_DEFINITION ( '普通', '', #719, #202 ) ;
#3 =( NAMED_UNIT ( * ) PLANE_ANGLE_UNIT ( ) SI_UNIT ( $, .RADIAN. ) );
#4 = EXTERNAL_SOURCE (IDENTIFIER('') ) ;
#5 = DOCUMENT_FILE ( 'LQ26-05HGI-01-002.STEP' , '', '', #387, '' ,$ ) ;
#6 =( LENGTH_UNIT ( ) NAMED_UNIT ( * ) SI_UNIT ( .MILLI., .METRE. ) );
#7 = PRODUCT_DEFINITION_FORMATION_WITH_SPECIFIED_SOURCE ( '对称', '', #477, .NOT_KNOWN. ) ;
#8 = AXIS2_PLACEMENT_3D ( 'NONE', #583, #385, #87 ) ;
#9 = DOCUMENT_TYPE ( 'geometry' ) ;
#10 = ITEM_DEFINED_TRANSFORMATION ( 'NONE', 'NONE', #397,  #340 ) ;
#11 = OBJECT_ROLE ('mandatory',$ ) ;
#12 = PROPERTY_DEFINITION_REPRESENTATION ( #722, #402 ) ;
#13 = DOCUMENT_TYPE ( 'geometry' ) ;
#14 = PROPERTY_DEFINITION ('external definition','', #283 ) ;
#15 = APPLICATION_CONTEXT ( 'automotive_design' ) ;
#16 = PRODUCT_DEFINITION_SHAPE ( 'NONE', 'NONE',  #717 ) ;
#17 =( NAMED_UNIT ( * ) PLANE_ANGLE_UNIT ( ) SI_UNIT ( $, .RADIAN. ) );
#18 = CONTEXT_DEPENDENT_SHAPE_REPRESENTATION ( #166, #343 ) ;
#19 =( LENGTH_UNIT ( ) NAMED_UNIT ( * ) SI_UNIT ( .MILLI., .METRE. ) );
#20 =( GEOMETRIC_REPRESENTATION_CONTEXT ( 3 ) GLOBAL_UNCERTAINTY_ASSIGNED_CONTEXT ( ( #629 ) ) GLOBAL_UNIT_ASSIGNED_CONTEXT ( ( #700, #393, #188 ) ) REPRESENTATION_CONTEXT ( 'NONE', 'WORKASPACE' ) );
#21 = PROPERTY_DEFINITION ('document property','', #329 ) ;
#22 = AXIS2_PLACEMENT_3D ( 'NONE', #486, #769, #630 ) ;
#23 = ITEM_DEFINED_TRANSFORMATION ( 'NONE', 'NONE', #252,  #606 ) ;
#24 = PROPERTY_DEFINITION ('document property','', #231 ) ;
#25 = CARTESIAN_POINT ( 'NONE',  ( 49.89132741421117601, 2.283048490173605671, 2.048647546961660775E-18 ) ) ;
#26 = APPLICATION_CONTEXT ( 'automotive_design' ) ;
#27 = ROLE_ASSOCIATION ( #141, #611 ) ;
#28 =( LENGTH_UNIT ( ) NAMED_UNIT ( * ) SI_UNIT ( .MILLI., .METRE. ) );
#29 = PRODUCT_DEFINITION ( '普通', '', #686, #270 ) ;
#30 = PRODUCT_DEFINITION_SHAPE ( 'NONE', 'NONE',  #2 ) ;
#31 =( REPRESENTATION_RELATIONSHIP ('NONE','NONE', #93, #402 ) REPRESENTATION_RELATIONSHIP_WITH_TRANSFORMATION ( #669 )SHAPE_REPRESENTATION_RELATIONSHIP( ) );
#32 = DIRECTION ( 'NONE',  ( 1.000000000000000000, 0.000000000000000000, 0.000000000000000000 ) ) ;
#33 = PROPERTY_DEFINITION_REPRESENTATION ( #294, #884 ) ;
#34 = CONTEXT_DEPENDENT_SHAPE_REPRESENTATION ( #694, #511 ) ;
#35 =( NAMED_UNIT ( * ) PLANE_ANGLE_UNIT ( ) SI_UNIT ( $, .RADIAN. ) );
#36 = PROPERTY_DEFINITION ('document property','', #594 ) ;
#37 = PRODUCT_DEFINITION_CONTEXT ( 'detailed design', #875, 'design' ) ;
#38 = UNCERTAINTY_MEASURE_WITH_UNIT (LENGTH_MEASURE( 1.000000000000000082E-05 ), #19, 'distance_accuracy_value', 'NONE');
#39 = PRODUCT_DEFINITION ( '普通', '', #491, #489 ) ;
#40 = CARTESIAN_POINT ( 'NONE',  ( -35.75000000281856671, 19.13602623779427603, 2.408747624530557629E-16 ) ) ;
#41 = ITEM_DEFINED_TRANSFORMATION ( 'NONE', 'NONE', #138,  #598 ) ;
#42 = PRODUCT_CONTEXT ( 'NONE', #227, 'mechanical' ) ;
#43 =( NAMED_UNIT ( * ) PLANE_ANGLE_UNIT ( ) SI_UNIT ( $, .RADIAN. ) );
#44 = EXTERNAL_SOURCE (IDENTIFIER('') ) ;
#45 = APPLICATION_CONTEXT ( 'automotive_design' ) ;
#46 = DIRECTION ( 'NONE',  ( -1.000000000000000000, 2.220446050805140669E-16, 3.619323948888764665E-15 ) ) ;
#47 = PROPERTY_DEFINITION_REPRESENTATION ( #713, #65 ) ;
#48 = PRODUCT_DEFINITION_SHAPE ( 'NONE', 'NONE',  #934 ) ;
#49 = OBJECT_ROLE ('mandatory',$ ) ;
#50 = APPLICATION_PROTOCOL_DEFINITION ( 'draft international standard', 'automotive_design', 1998, #541 ) ;
#51 = DIRECTION ( 'NONE',  ( 0.000000000000000000, 0.000000000000000000, 1.000000000000000000 ) ) ;
#52 =( REPRESENTATION_RELATIONSHIP ('NONE','NONE', #93, #884 ) REPRESENTATION_RELATIONSHIP_WITH_TRANSFORMATION ( #600 )SHAPE_REPRESENTATION_RELATIONSHIP( ) );
#53 = APPLIED_DOCUMENT_REFERENCE ( #735,'',( #39) ) ;
#54 = AXIS2_PLACEMENT_3D ( 'NONE', #607, #508, #503 ) ;
#55 = PROPERTY_DEFINITION_REPRESENTATION ( #698, #195 ) ;
#56 =( GEOMETRIC_REPRESENTATION_CONTEXT ( 3 ) GLOBAL_UNCERTAINTY_ASSIGNED_CONTEXT ( ( #126 ) ) GLOBAL_UNIT_ASSIGNED_CONTEXT ( ( #685, #106, #839 ) ) REPRESENTATION_CONTEXT ( 'NONE', 'WORKASPACE' ) );
#57 = PRODUCT_RELATED_PRODUCT_CATEGORY ( 'part', '', ( #477 ) ) ;
#58 = AXIS2_PLACEMENT_3D ( 'NONE', #646, #143, #634 ) ;
#59 = PROPERTY_DEFINITION ('external definition','', #335 ) ;
#60 = DIRECTION ( 'NONE',  ( 3.494332759605207899E-17, -1.000000000000000000, -1.173735987482890741E-16 ) ) ;
#61 = APPLICATION_PROTOCOL_DEFINITION ( 'draft international standard', 'automotive_design', 1998, #136 ) ;
#62 = UNCERTAINTY_MEASURE_WITH_UNIT (LENGTH_MEASURE( 1.000000000000000082E-05 ), #315, 'distance_accuracy_value', 'NONE');
#63 = PRODUCT_CONTEXT ( 'NONE', #179, 'mechanical' ) ;
#64 =( REPRESENTATION_RELATIONSHIP ('NONE','NONE', #93, #889 ) REPRESENTATION_RELATIONSHIP_WITH_TRANSFORMATION ( #10 )SHAPE_REPRESENTATION_RELATIONSHIP( ) );
#65 = SHAPE_REPRESENTATION ( 'LQ26-05HGI-01-017', ( #656 ), #290 ) ;
#66 = DIRECTION ( 'NONE',  ( -3.022363816162700089E-16, 1.864328690387432680E-17, 1.000000000000000000 ) ) ;
#67 = CONTEXT_DEPENDENT_SHAPE_REPRESENTATION ( #497, #675 ) ;
#68 = ITEM_DEFINED_TRANSFORMATION ( 'NONE', 'NONE', #638,  #249 ) ;
#69 = PRODUCT_DEFINITION_SHAPE ( 'NONE', 'NONE',  #928 ) ;
#70 = IDENTIFICATION_ROLE ( 'external document id and location', $) ;
#71 = CARTESIAN_POINT ( 'NONE',  ( 0.000000000000000000, 0.000000000000000000, 0.000000000000000000 ) ) ;
#72 = APPLICATION_CONTEXT ( 'automotive_design' ) ;
#73 = DIRECTION ( 'NONE',  ( 0.9999718104977467492, -0.007508542458985504979, -3.430249072049939713E-15 ) ) ;
#74 = PROPERTY_DEFINITION_REPRESENTATION ( #795, #271 ) ;
#75 = APPLIED_DOCUMENT_REFERENCE ( #515,'',( #499) ) ;
#76 = AXIS2_PLACEMENT_3D ( 'NONE', #272, #841, #190 ) ;
#77 = AXIS2_PLACEMENT_3D ( 'NONE', #468, #893, #553 ) ;
#78 = SHAPE_DEFINITION_REPRESENTATION ( #835, #195 ) ;
#79 = DOCUMENT_TYPE ( 'geometry' ) ;
#80 = DIRECTION ( 'NONE',  ( -1.000000000000000000, -4.857225732735060850E-16, -3.275157922644212583E-15 ) ) ;
#81 = PRODUCT_RELATED_PRODUCT_CATEGORY ( 'part', '', ( #824 ) ) ;
#82 = CONTEXT_DEPENDENT_SHAPE_REPRESENTATION ( #298, #253 ) ;
#83 = APPLIED_DOCUMENT_REFERENCE ( #594,'',( #29) ) ;
#84 = EXTERNAL_SOURCE (IDENTIFIER('') ) ;
#85 = PROPERTY_DEFINITION_REPRESENTATION ( #879, #884 ) ;
#86 = DOCUMENT_TYPE ( 'geometry' ) ;
#87 = DIRECTION ( 'NONE',  ( 1.000000000000000000, 0.000000000000000000, 0.000000000000000000 ) ) ;
#88 = PRODUCT_DEFINITION_SHAPE ( 'NONE', 'NONE',  #622 ) ;
#89 = PROPERTY_DEFINITION_REPRESENTATION ( #267, #889 ) ;
#90 =( NAMED_UNIT ( * ) PLANE_ANGLE_UNIT ( ) SI_UNIT ( $, .RADIAN. ) );
#91 = OBJECT_ROLE ('mandatory',$ ) ;
#92 = DOCUMENT_FILE ( 'LQ26-05HGI-01-004.STEP' , '', '', #243, '' ,$ ) ;
#93 = SHAPE_REPRESENTATION ( 'LQ26-05HGI-01', ( #679, #250, #165, #704, #638, #397, #453, #76, #22, #524, #198, #54, #475, #604, #102, #830, #895, #138, #238, #252, #806, #451, #567, #156, #154, #235 ), #850 ) ;
#94 = PROPERTY_DEFINITION ('external definition','', #739 ) ;
#95 = EXTERNAL_SOURCE (IDENTIFIER('') ) ;
#96 =( LENGTH_UNIT ( ) NAMED_UNIT ( * ) SI_UNIT ( .MILLI., .METRE. ) );
#97 = APPLICATION_CONTEXT ( 'automotive_design' ) ;
#98 = PROPERTY_DEFINITION_REPRESENTATION ( #485, #699 ) ;
#99 = APPLIED_EXTERNAL_IDENTIFICATION_ASSIGNMENT ( 'LQ26-05HGI-01-002.STEP' , #882, #383,( #5) ) ;
#100 =( REPRESENTATION_RELATIONSHIP ('NONE','NONE', #93, #562 ) REPRESENTATION_RELATIONSHIP_WITH_TRANSFORMATION ( #171 )SHAPE_REPRESENTATION_RELATIONSHIP( ) );
#101 = APPLICATION_PROTOCOL_DEFINITION ( 'draft international standard', 'automotive_design', 1998, #432 ) ;
#102 = AXIS2_PLACEMENT_3D ( 'NONE', #308, #775, #721 ) ;
#103 = CONTEXT_DEPENDENT_SHAPE_REPRESENTATION ( #847, #540 ) ;
#104 = PRODUCT ( 'LQ26-05HGI-01-016', 'LQ26-05HGI-01-016', '', ( #63 ) ) ;
#105 = PRODUCT_CONTEXT ( 'NONE', #72, 'mechanical' ) ;
#106 =( NAMED_UNIT ( * ) PLANE_ANGLE_UNIT ( ) SI_UNIT ( $, .RADIAN. ) );
#107 = DIRECTION ( 'NONE',  ( 0.000000000000000000, 0.000000000000000000, 1.000000000000000000 ) ) ;
#108 = PROPERTY_DEFINITION_REPRESENTATION ( #158, #626 ) ;
#109 = APPLICATION_CONTEXT ( 'automotive_design' ) ;
#110 = PROPERTY_DEFINITION ('external definition','', #231 ) ;
#111 = CARTESIAN_POINT ( 'NONE',  ( -49.89132741550071160, 2.283048488822895461, -6.013934951516307589E-15 ) ) ;
#112 = APPLIED_DOCUMENT_REFERENCE ( #915,'',( #819) ) ;
#113 = PRODUCT_DEFINITION_CONTEXT ( 'detailed design', #668, 'design' ) ;
#114 = DIRECTION ( 'NONE',  ( 1.000000000000000000, 0.000000000000000000, 0.000000000000000000 ) ) ;
#115 =( REPRESENTATION_RELATIONSHIP ('NONE','NONE', #93, #626 ) REPRESENTATION_RELATIONSHIP_WITH_TRANSFORMATION ( #691 )SHAPE_REPRESENTATION_RELATIONSHIP( ) );
#116 = APPLICATION_CONTEXT ( 'automotive_design' ) ;
#117 =( GEOMETRIC_REPRESENTATION_CONTEXT ( 3 ) GLOBAL_UNCERTAINTY_ASSIGNED_CONTEXT ( ( #62 ) ) GLOBAL_UNIT_ASSIGNED_CONTEXT ( ( #315, #666, #457 ) ) REPRESENTATION_CONTEXT ( 'NONE', 'WORKASPACE' ) );
#118 = CARTESIAN_POINT ( 'NONE',  ( -17.98148599807493753, -17.09484443588586444, -26.50000000000003908 ) ) ;
#119 = CONTEXT_DEPENDENT_SHAPE_REPRESENTATION ( #620, #232 ) ;
#120 = DOCUMENT_FILE ( '\X2\9c7c773c76f8673a\X0\.STEP' , '', '', #584, '' ,$ ) ;
#121 = SHAPE_DEFINITION_REPRESENTATION ( #908, #626 ) ;
#122 =( LENGTH_UNIT ( ) NAMED_UNIT ( * ) SI_UNIT ( .MILLI., .METRE. ) );
#123 = PRODUCT_DEFINITION_SHAPE ( 'NONE', 'NONE',  #927 ) ;
#124 = PRODUCT_DEFINITION_CONTEXT ( 'detailed design', #541, 'design' ) ;
#125 =( GEOMETRIC_REPRESENTATION_CONTEXT ( 3 ) GLOBAL_UNCERTAINTY_ASSIGNED_CONTEXT ( ( #846 ) ) GLOBAL_UNIT_ASSIGNED_CONTEXT ( ( #530, #90, #229 ) ) REPRESENTATION_CONTEXT ( 'NONE', 'WORKASPACE' ) );
#126 = UNCERTAINTY_MEASURE_WITH_UNIT (LENGTH_MEASURE( 1.000000000000000082E-05 ), #685, 'distance_accuracy_value', 'NONE');
#127 = PRODUCT_DEFINITION ( '普通', '', #548, #703 ) ;
#128 = CARTESIAN_POINT ( 'NONE',  ( -1.299122237039839887E-09, -13.62585091751385846, -4.584417826609274404E-14 ) ) ;
#129 = PROPERTY_DEFINITION_REPRESENTATION ( #876, #812 ) ;
#130 = PRODUCT_CONTEXT ( 'NONE', #639, 'mechanical' ) ;
#131 =( LENGTH_UNIT ( ) NAMED_UNIT ( * ) SI_UNIT ( .MILLI., .METRE. ) );
#132 = APPLIED_EXTERNAL_IDENTIFICATION_ASSIGNMENT ( 'LQ26-05HGI-01-015.STEP' , #867, #833,( #900) ) ;
#133 = ITEM_DEFINED_TRANSFORMATION ( 'NONE', 'NONE', #806,  #341 ) ;
#134 = PROPERTY_DEFINITION ('document property','', #915 ) ;
#135 = APPLICATION_PROTOCOL_DEFINITION ( 'draft international standard', 'automotive_design', 1998, #709 ) ;
#136 = APPLICATION_CONTEXT ( 'automotive_design' ) ;
#137 = DOCUMENT_FILE ( 'LQ26-05HGI-01-010.STEP' , '', '', #783, '' ,$ ) ;
#138 = AXIS2_PLACEMENT_3D ( 'NONE', #579, #288, #568 ) ;
#139 = DOCUMENT_FILE ( 'LQ26-05HGI-01-003.STEP' , '', '', #560, '' ,$ ) ;
#140 = PRODUCT_DEFINITION ( '普通', '', #522, #633 ) ;
#141 = OBJECT_ROLE ('mandatory',$ ) ;
#142 =( GEOMETRIC_REPRESENTATION_CONTEXT ( 3 ) GLOBAL_UNCERTAINTY_ASSIGNED_CONTEXT ( ( #792 ) ) GLOBAL_UNIT_ASSIGNED_CONTEXT ( ( #424, #725, #860 ) ) REPRESENTATION_CONTEXT ( 'NONE', 'WORKASPACE' ) );
#143 = DIRECTION ( 'NONE',  ( 0.000000000000000000, 0.000000000000000000, 1.000000000000000000 ) ) ;
#144 = PROPERTY_DEFINITION ('external definition','', #254 ) ;
#145 = DIRECTION ( 'NONE',  ( -1.175759092858283036E-15, 1.398665940881452318E-15, 1.000000000000000000 ) ) ;
#146 = APPLICATION_PROTOCOL_DEFINITION ( 'draft international standard', 'automotive_design', 1998, #615 ) ;
#147 = CARTESIAN_POINT ( 'NONE',  ( 9.029467234602884736E-16, -20.38357151417664426, 41.99999999999984368 ) ) ;
#148 = APPLIED_DOCUMENT_REFERENCE ( #330,'',( #732) ) ;
#149 = PROPERTY_DEFINITION ('external definition','', #120 ) ;
#150 = APPLIED_EXTERNAL_IDENTIFICATION_ASSIGNMENT ( 'LQ26-05HGI-01-008.STEP' , #767, #706,( #283) ) ;
#151 = APPLIED_DOCUMENT_REFERENCE ( #120,'',( #755) ) ;
#152 = IDENTIFICATION_ROLE ( 'external document id and location', $) ;
#153 = ROLE_ASSOCIATION ( #11, #804 ) ;
#154 = AXIS2_PLACEMENT_3D ( 'NONE', #419, #711, #46 ) ;
#155 = APPLICATION_CONTEXT ( 'automotive_design' ) ;
#156 = AXIS2_PLACEMENT_3D ( 'NONE', #128, #372, #657 ) ;
#157 = PRODUCT_RELATED_PRODUCT_CATEGORY ( 'part', '', ( #621 ) ) ;
#158 = PROPERTY_DEFINITION ('external definition','', #915 ) ;
#159 = PROPERTY_DEFINITION_REPRESENTATION ( #766, #699 ) ;
#160 = OBJECT_ROLE ('mandatory',$ ) ;
#161 =( LENGTH_UNIT ( ) NAMED_UNIT ( * ) SI_UNIT ( .MILLI., .METRE. ) );
#162 = OBJECT_ROLE ('mandatory',$ ) ;
#163 = PRODUCT_DEFINITION ( '普通', '', #854, #565 ) ;
#164 = DIRECTION ( 'NONE',  ( 1.000000000000000000, 0.000000000000000000, 0.000000000000000000 ) ) ;
#165 = AXIS2_PLACEMENT_3D ( 'NONE', #25, #762, #334 ) ;
#166 =( REPRESENTATION_RELATIONSHIP ('NONE','NONE', #93, #699 ) REPRESENTATION_RELATIONSHIP_WITH_TRANSFORMATION ( #323 )SHAPE_REPRESENTATION_RELATIONSHIP( ) );
#167 = PRODUCT ( 'LQ26-05HGI-01-011', 'LQ26-05HGI-01-011', '', ( #42 ) ) ;
#168 = APPLICATION_CONTEXT ( 'automotive_design' ) ;
#169 = ITEM_DEFINED_TRANSFORMATION ( 'NONE', 'NONE', #22,  #774 ) ;
#170 =( NAMED_UNIT ( * ) SI_UNIT ( $, .STERADIAN. ) SOLID_ANGLE_UNIT ( ) );
#171 = ITEM_DEFINED_TRANSFORMATION ( 'NONE', 'NONE', #54,  #237 ) ;
#172 = PRODUCT_DEFINITION_SHAPE ( 'NONE', 'NONE',  #942 ) ;
#173 = DIRECTION ( 'NONE',  ( 0.000000000000000000, 0.000000000000000000, 1.000000000000000000 ) ) ;
#174 = PRODUCT_DEFINITION_SHAPE ( 'NONE', 'NONE',  #922 ) ;
#175 =( LENGTH_UNIT ( ) NAMED_UNIT ( * ) SI_UNIT ( .MILLI., .METRE. ) );
#176 = APPLIED_DOCUMENT_REFERENCE ( #335,'',( #622) ) ;
#177 = CARTESIAN_POINT ( 'NONE',  ( 0.000000000000000000, 0.000000000000000000, 0.000000000000000000 ) ) ;
#178 = APPLIED_EXTERNAL_IDENTIFICATION_ASSIGNMENT ( 'LQ26-05HGI-01-006.STEP' , #336, #595,( #515) ) ;
#179 = APPLICATION_CONTEXT ( 'automotive_design' ) ;
#180 = CARTESIAN_POINT ( 'NONE',  ( -1.299107262118434643E-09, -16.84999999389717473, 6.999999999999943157 ) ) ;
#181 = DOCUMENT_FILE ( 'LQ26-05HGI-01-014.STEP' , '', '', #255, '' ,$ ) ;
#182 = PRODUCT ( 'LQ26-05HGI-01-009', 'LQ26-05HGI-01-009', '', ( #791 ) ) ;
#183 = EXTERNAL_SOURCE (IDENTIFIER('') ) ;
#184 = DIRECTION ( 'NONE',  ( -1.000000000000000000, 2.220446050805140669E-16, 3.619323948888764665E-15 ) ) ;
#185 = PROPERTY_DEFINITION_REPRESENTATION ( #14, #247 ) ;
#186 = PRODUCT_CONTEXT ( 'NONE', #741, 'mechanical' ) ;
#187 = PRODUCT_RELATED_PRODUCT_CATEGORY ( 'part', '', ( #494 ) ) ;
#188 =( NAMED_UNIT ( * ) SI_UNIT ( $, .STERADIAN. ) SOLID_ANGLE_UNIT ( ) );
#189 = PROPERTY_DEFINITION ('external definition','', #594 ) ;
#190 = DIRECTION ( 'NONE',  ( 1.000000000000000000, -2.502555726921982171E-11, 0.000000000000000000 ) ) ;
#191 = ITEM_DEFINED_TRANSFORMATION ( 'NONE', 'NONE', #238,  #341 ) ;
#192 = PRODUCT_RELATED_PRODUCT_CATEGORY ( 'part', '', ( #676 ) ) ;
#193 = PRODUCT_DEFINITION_CONTEXT ( 'detailed design', #709, 'design' ) ;
#194 = APPLIED_EXTERNAL_IDENTIFICATION_ASSIGNMENT ( 'LQ26-05HGI-01-001.STEP' , #353, #765,( #739) ) ;
#195 = SHAPE_REPRESENTATION ( 'LQ26-05HGI-01-003', ( #58 ), #142 ) ;
#196 = DIRECTION ( 'NONE',  ( -0.7414452291680394547, -0.6710133919259386737, -2.115818280483772942E-16 ) ) ;
#197 = APPLIED_DOCUMENT_REFERENCE ( #900,'',( #363) ) ;
#198 = AXIS2_PLACEMENT_3D ( 'NONE', #212, #433, #427 ) ;
#199 = OBJECT_ROLE ('mandatory',$ ) ;
#200 = SHAPE_DEFINITION_REPRESENTATION ( #688, #562 ) ;
#201 = PRODUCT_DEFINITION_SHAPE ( 'NONE', 'NONE',  #140 ) ;
#202 = PRODUCT_DEFINITION_CONTEXT ( 'detailed design', #328, 'design' ) ;
#203 = APPLICATION_CONTEXT ( 'automotive_design' ) ;
#204 = UNCERTAINTY_MEASURE_WITH_UNIT (LENGTH_MEASURE( 1.000000000000000082E-05 ), #175, 'distance_accuracy_value', 'NONE');
#205 = PROPERTY_DEFINITION_REPRESENTATION ( #251, #314 ) ;
#206 = SHAPE_DEFINITION_REPRESENTATION ( #337, #402 ) ;
#207 =( NAMED_UNIT ( * ) SI_UNIT ( $, .STERADIAN. ) SOLID_ANGLE_UNIT ( ) );
#208 = APPLIED_EXTERNAL_IDENTIFICATION_ASSIGNMENT ( 'LQ26-05HGI-01-014.STEP' , #776, #233,( #715) ) ;
#209 = OBJECT_ROLE ('mandatory',$ ) ;
#210 = EXTERNAL_SOURCE (IDENTIFIER('') ) ;
#211 = PRODUCT_RELATED_PRODUCT_CATEGORY ( 'part', '', ( #749 ) ) ;
#212 = CARTESIAN_POINT ( 'NONE',  ( -1.299172988749754610E-09, -60.07269074122040564, -14.00000000000020250 ) ) ;
#213 =( GEOMETRIC_REPRESENTATION_CONTEXT ( 3 ) GLOBAL_UNCERTAINTY_ASSIGNED_CONTEXT ( ( #437 ) ) GLOBAL_UNIT_ASSIGNED_CONTEXT ( ( #589, #496, #880 ) ) REPRESENTATION_CONTEXT ( 'NONE', 'WORKASPACE' ) );
#214 = ITEM_DEFINED_TRANSFORMATION ( 'NONE', 'NONE', #567,  #656 ) ;
#215 = PRODUCT_DEFINITION_SHAPE ( 'NONE', 'NONE',  #929 ) ;
#216 = PRODUCT_CONTEXT ( 'NONE', #417, 'mechanical' ) ;
#217 = UNCERTAINTY_MEASURE_WITH_UNIT (LENGTH_MEASURE( 1.000000000000000082E-05 ), #131, 'distance_accuracy_value', 'NONE');
#218 = PRODUCT_CONTEXT ( 'NONE', #576, 'mechanical' ) ;
#219 = ROLE_ASSOCIATION ( #407, #225 ) ;
#220 = CONTEXT_DEPENDENT_SHAPE_REPRESENTATION ( #628, #916 ) ;
#221 = AXIS2_PLACEMENT_3D ( 'NONE', #476, #680, #32 ) ;
#222 = DIRECTION ( 'NONE',  ( 0.000000000000000000, 0.000000000000000000, 1.000000000000000000 ) ) ;
#223 = PRODUCT_DEFINITION_SHAPE ( 'NONE', 'NONE',  #936 ) ;
#224 = DIRECTION ( 'NONE',  ( 1.000000000000000000, 2.502555726921982817E-11, -7.733856730012287403E-24 ) ) ;
#225 = APPLIED_DOCUMENT_REFERENCE ( #446,'',( #797) ) ;
#226 = IDENTIFICATION_ROLE ( 'external document id and location', $) ;
#227 = APPLICATION_CONTEXT ( 'automotive_design' ) ;
#228 = APPLICATION_PROTOCOL_DEFINITION ( 'draft international standard', 'automotive_design', 1998, #179 ) ;
#229 =( NAMED_UNIT ( * ) SI_UNIT ( $, .STERADIAN. ) SOLID_ANGLE_UNIT ( ) );
#230 = ITEM_DEFINED_TRANSFORMATION ( 'NONE', 'NONE', #156,  #463 ) ;
#231 = DOCUMENT_FILE ( 'LQ26-05HGI-01-001.STEP' , '', '', #689, '' ,$ ) ;
#232 = PRODUCT_DEFINITION_SHAPE ( 'NONE', 'NONE',  #930 ) ;
#233 = EXTERNAL_SOURCE (IDENTIFIER('') ) ;
#234 = ROLE_ASSOCIATION ( #209, #241 ) ;
#235 = AXIS2_PLACEMENT_3D ( 'NONE', #351, #635, #80 ) ;
#236 = APPLICATION_PROTOCOL_DEFINITION ( 'draft international standard', 'automotive_design', 1998, #576 ) ;
#237 = AXIS2_PLACEMENT_3D ( 'NONE', #242, #248, #693 ) ;
#238 = AXIS2_PLACEMENT_3D ( 'NONE', #869, #440, #726 ) ;
#239 = PRODUCT_RELATED_PRODUCT_CATEGORY ( 'part', '', ( #401 ) ) ;
#240 = APPLICATION_CONTEXT ( 'automotive_design' ) ;
#241 = APPLIED_DOCUMENT_REFERENCE ( #92,'',( #29) ) ;
#242 = CARTESIAN_POINT ( 'NONE',  ( 0.000000000000000000, 0.000000000000000000, 0.000000000000000000 ) ) ;
#243 = DOCUMENT_TYPE ( 'geometry' ) ;
#244 = PRODUCT_RELATED_PRODUCT_CATEGORY ( 'part', '', ( #898 ) ) ;
#245 = OBJECT_ROLE ('mandatory',$ ) ;
#246 = PRODUCT ( 'LQ26-05HGI-01-012', 'LQ26-05HGI-01-012', '', ( #105 ) ) ;
#247 = SHAPE_REPRESENTATION ( 'LQ26-05HGI-01-008', ( #773 ), #321 ) ;
#248 = DIRECTION ( 'NONE',  ( 0.000000000000000000, 0.000000000000000000, 1.000000000000000000 ) ) ;
#249 = AXIS2_PLACEMENT_3D ( 'NONE', #71, #222, #355 ) ;
#250 = AXIS2_PLACEMENT_3D ( 'NONE', #623, #836, #690 ) ;
#251 = PROPERTY_DEFINITION ('document property','', #120 ) ;
#252 = AXIS2_PLACEMENT_3D ( 'NONE', #364, #653, #585 ) ;
#253 = PRODUCT_DEFINITION_SHAPE ( 'NONE', 'NONE',  #919 ) ;
#254 = DOCUMENT_FILE ( 'LQ26-05HGI-01-011.STEP' , '', '', #338, '' ,$ ) ;
#255 = DOCUMENT_TYPE ( 'geometry' ) ;
#256 = PRODUCT_RELATED_PRODUCT_CATEGORY ( 'part', '', ( #890 ) ) ;
#257 = APPLICATION_CONTEXT ( 'automotive_design' ) ;
#258 = APPLIED_EXTERNAL_IDENTIFICATION_ASSIGNMENT ( 'LQ26-05HGI-01-017.STEP' , #648, #672,( #735) ) ;
#259 =( NAMED_UNIT ( * ) SI_UNIT ( $, .STERADIAN. ) SOLID_ANGLE_UNIT ( ) );
#260 = PROPERTY_DEFINITION_REPRESENTATION ( #331, #562 ) ;
#261 = DIRECTION ( 'NONE',  ( 1.000000000000000000, 0.000000000000000000, 0.000000000000000000 ) ) ;
#262 = PRODUCT ( 'LQ26-05HGI-01-014', 'LQ26-05HGI-01-014', '', ( #292 ) ) ;
#263 = IDENTIFICATION_ROLE ( 'external document id and location', $) ;
#264 = SHAPE_DEFINITION_REPRESENTATION ( #16, #618 ) ;
#265 = APPLIED_EXTERNAL_IDENTIFICATION_ASSIGNMENT ( 'LQ26-05HGI-01-005.STEP' , #226, #502,( #456) ) ;
#266 = CONTEXT_DEPENDENT_SHAPE_REPRESENTATION ( #645, #652 ) ;
#267 = PROPERTY_DEFINITION ('document property','', #5 ) ;
#268 = APPLICATION_PROTOCOL_DEFINITION ( 'draft international standard', 'automotive_design', 1998, #918 ) ;
#269 =( NAMED_UNIT ( * ) PLANE_ANGLE_UNIT ( ) SI_UNIT ( $, .RADIAN. ) );
#270 = PRODUCT_DEFINITION_CONTEXT ( 'detailed design', #615, 'design' ) ;
#271 = SHAPE_REPRESENTATION ( 'LQ26-05HGI-01-012', ( #463 ), #549 ) ;
#272 = CARTESIAN_POINT ( 'NONE',  ( 55.50000000173975678, 38.27205247218714845, 5.169153796232993636E-16 ) ) ;
#273 = OBJECT_ROLE ('mandatory',$ ) ;
#274 = APPLICATION_PROTOCOL_DEFINITION ( 'draft international standard', 'automotive_design', 1998, #45 ) ;
#275 =( NAMED_UNIT ( * ) SI_UNIT ( $, .STERADIAN. ) SOLID_ANGLE_UNIT ( ) );
#276 = PRODUCT_DEFINITION_CONTEXT ( 'detailed design', #97, 'design' ) ;
#277 = APPLICATION_CONTEXT ( 'automotive_design' ) ;
#278 = PROPERTY_DEFINITION ('document property','', #456 ) ;
#279 = UNCERTAINTY_MEASURE_WITH_UNIT (LENGTH_MEASURE( 1.000000000000000082E-05 ), #96, 'distance_accuracy_value', 'NONE');
#280 = APPLIED_EXTERNAL_IDENTIFICATION_ASSIGNMENT ( 'LQ26-05HGI-01-011.STEP' , #481, #405,( #342) ) ;
#281 = SHAPE_REPRESENTATION ( 'LQ26-05HGI-01-006', ( #388 ), #746 ) ;
#282 = DIRECTION ( 'NONE',  ( -0.6846563427459125828, -0.7288660318177763164, 2.144491737023370633E-16 ) ) ;
#283 = DOCUMENT_FILE ( 'LQ26-05HGI-01-008.STEP' , '', '', #814, '' ,$ ) ;
#284 = PRODUCT_CONTEXT ( 'NONE', #26, 'mechanical' ) ;
#285 = DIRECTION ( 'NONE',  ( 1.000000000000000000, 0.000000000000000000, 0.000000000000000000 ) ) ;
#286 = IDENTIFICATION_ROLE ( 'external document id and location', $) ;
#287 = PRODUCT_DEFINITION_FORMATION_WITH_SPECIFIED_SOURCE ( '对称', '', #104, .NOT_KNOWN. ) ;
#288 = DIRECTION ( 'NONE',  ( 7.940387236615720212E-11, -0.9999999999999997780, 4.792693680096860711E-18 ) ) ;
#289 = ROLE_ASSOCIATION ( #757, #309 ) ;
#290 =( GEOMETRIC_REPRESENTATION_CONTEXT ( 3 ) GLOBAL_UNCERTAINTY_ASSIGNED_CONTEXT ( ( #781 ) ) GLOBAL_UNIT_ASSIGNED_CONTEXT ( ( #718, #418, #207 ) ) REPRESENTATION_CONTEXT ( 'NONE', 'WORKASPACE' ) );
#291 = PRODUCT_DEFINITION_FORMATION_WITH_SPECIFIED_SOURCE ( '对称', '', #621, .NOT_KNOWN. ) ;
#292 = PRODUCT_CONTEXT ( 'NONE', #912, 'mechanical' ) ;
#293 =( NAMED_UNIT ( * ) SI_UNIT ( $, .STERADIAN. ) SOLID_ANGLE_UNIT ( ) );
#294 = PROPERTY_DEFINITION ('external definition','', #911 ) ;
#295 = CARTESIAN_POINT ( 'NONE',  ( 0.000000000000000000, 0.000000000000000000, 0.000000000000000000 ) ) ;
#296 = PRODUCT_DEFINITION ( '普通', '', #881, #276 ) ;
#297 = PROPERTY_DEFINITION_REPRESENTATION ( #391, #368 ) ;
#298 =( REPRESENTATION_RELATIONSHIP ('NONE','NONE', #93, #556 ) REPRESENTATION_RELATIONSHIP_WITH_TRANSFORMATION ( #442 )SHAPE_REPRESENTATION_RELATIONSHIP( ) );
#299 = SHAPE_DEFINITION_REPRESENTATION ( #30, #884 ) ;
#300 = APPLIED_EXTERNAL_IDENTIFICATION_ASSIGNMENT ( 'LQ26-05HGI-01-012.STEP' , #286, #389,( #446) ) ;
#301 = DIRECTION ( 'NONE',  ( 0.9489693056858748976, 0.3153684462118370724, -7.370553220793779370E-23 ) ) ;
#302 = PROPERTY_DEFINITION_REPRESENTATION ( #684, #626 ) ;
#303 = PROPERTY_DEFINITION ('document property','', #590 ) ;
#304 = DOCUMENT_TYPE ( 'geometry' ) ;
#305 = APPLICATION_PROTOCOL_DEFINITION ( 'draft international standard', 'automotive_design', 1998, #785 ) ;
#306 = SHAPE_DEFINITION_REPRESENTATION ( #612, #314 ) ;
#307 = CARTESIAN_POINT ( 'NONE',  ( 0.000000000000000000, 0.000000000000000000, 0.000000000000000000 ) ) ;
#308 = CARTESIAN_POINT ( 'NONE',  ( -1.299189902303645384E-09, -60.07269074122041985, -14.00000000000020250 ) ) ;
#309 = APPLIED_DOCUMENT_REFERENCE ( #590,'',( #363) ) ;
#310 = PRODUCT_CONTEXT ( 'NONE', #15, 'mechanical' ) ;
#311 =( NAMED_UNIT ( * ) SI_UNIT ( $, .STERADIAN. ) SOLID_ANGLE_UNIT ( ) );
#312 = PRODUCT_DEFINITION_SHAPE ( 'NONE', 'NONE',  #943 ) ;
#313 = APPLICATION_PROTOCOL_DEFINITION ( 'draft international standard', 'automotive_design', 1998, #517 ) ;
#314 = SHAPE_REPRESENTATION ( '\X2\9c7c773c76f8673a\X0\', ( #221 ), #374 ) ;
#315 =( LENGTH_UNIT ( ) NAMED_UNIT ( * ) SI_UNIT ( .MILLI., .METRE. ) );
#316 =( REPRESENTATION_RELATIONSHIP ('NONE','NONE', #93, #556 ) REPRESENTATION_RELATIONSHIP_WITH_TRANSFORMATION ( #68 )SHAPE_REPRESENTATION_RELATIONSHIP( ) );
#317 = PROPERTY_DEFINITION_REPRESENTATION ( #578, #562 ) ;
#318 = IDENTIFICATION_ROLE ( 'external document id and location', $) ;
#319 = ROLE_ASSOCIATION ( #582, #83 ) ;
#320 = APPLICATION_PROTOCOL_DEFINITION ( 'draft international standard', 'automotive_design', 1998, #155 ) ;
#321 =( GEOMETRIC_REPRESENTATION_CONTEXT ( 3 ) GLOBAL_UNCERTAINTY_ASSIGNED_CONTEXT ( ( #38 ) ) GLOBAL_UNIT_ASSIGNED_CONTEXT ( ( #19, #35, #828 ) ) REPRESENTATION_CONTEXT ( 'NONE', 'WORKASPACE' ) );
#322 = PRODUCT_RELATED_PRODUCT_CATEGORY ( 'part', '', ( #246 ) ) ;
#323 = ITEM_DEFINED_TRANSFORMATION ( 'NONE', 'NONE', #76,  #533 ) ;
#324 = PROPERTY_DEFINITION_REPRESENTATION ( #21, #402 ) ;
#325 = PRODUCT_DEFINITION_SHAPE ( 'NONE', 'NONE',  #499 ) ;
#326 =( NAMED_UNIT ( * ) PLANE_ANGLE_UNIT ( ) SI_UNIT ( $, .RADIAN. ) );
#327 = IDENTIFICATION_ROLE ( 'external document id and location', $) ;
#328 = APPLICATION_CONTEXT ( 'automotive_design' ) ;
#329 = DOCUMENT_FILE ( 'LQ26-05HGI-01-007.STEP' , '', '', #86, '' ,$ ) ;
#330 = DOCUMENT_FILE ( 'LQ26-05HGI-01-016.STEP' , '', '', #547, '' ,$ ) ;
#331 = PROPERTY_DEFINITION ('external definition','', #342 ) ;
#332 = PROPERTY_DEFINITION ('document property','', #139 ) ;
#333 = PROPERTY_DEFINITION_REPRESENTATION ( #59, #733 ) ;
#334 = DIRECTION ( 'NONE',  ( -0.7181818181894799036, -0.6958554993833510061, -5.327321208266796264E-23 ) ) ;
#335 = DOCUMENT_FILE ( 'LQ26-05HGI-01-013.STEP' , '', '', #752, '' ,$ ) ;
#336 = IDENTIFICATION_ROLE ( 'external document id and location', $) ;
#337 = PRODUCT_DEFINITION_SHAPE ( 'NONE', 'NONE',  #856 ) ;
#338 = DOCUMENT_TYPE ( 'geometry' ) ;
#339 = SHAPE_DEFINITION_REPRESENTATION ( #88, #733 ) ;
#340 = AXIS2_PLACEMENT_3D ( 'NONE', #871, #347, #444 ) ;
#341 = AXIS2_PLACEMENT_3D ( 'NONE', #344, #51, #637 ) ;
#342 = DOCUMENT_FILE ( 'LQ26-05HGI-01-011.STEP' , '', '', #872, '' ,$ ) ;
#343 = PRODUCT_DEFINITION_SHAPE ( 'NONE', 'NONE',  #925 ) ;
#344 = CARTESIAN_POINT ( 'NONE',  ( 0.000000000000000000, 0.000000000000000000, 0.000000000000000000 ) ) ;
#345 = DIRECTION ( 'NONE',  ( 1.547614820808247774E-23, -5.551115111802895309E-16, -1.000000000000000000 ) ) ;
#346 = PRODUCT_DEFINITION_CONTEXT ( 'detailed design', #723, 'design' ) ;
#347 = DIRECTION ( 'NONE',  ( 0.000000000000000000, 0.000000000000000000, 1.000000000000000000 ) ) ;
#348 = PRODUCT_DEFINITION_SHAPE ( 'NONE', 'NONE',  #797 ) ;
#349 = UNCERTAINTY_MEASURE_WITH_UNIT (LENGTH_MEASURE( 1.000000000000000082E-05 ), #6, 'distance_accuracy_value', 'NONE');
#350 = EXTERNAL_SOURCE (IDENTIFIER('') ) ;
#351 = CARTESIAN_POINT ( 'NONE',  ( 7.632783294297951215E-14, -3.631532789565586228, 47.91995865010601108 ) ) ;
#352 = PROPERTY_DEFINITION_REPRESENTATION ( #149, #314 ) ;
#353 = IDENTIFICATION_ROLE ( 'external document id and location', $) ;
#354 = APPLICATION_PROTOCOL_DEFINITION ( 'draft international standard', 'automotive_design', 1998, #455 ) ;
#355 = DIRECTION ( 'NONE',  ( 1.000000000000000000, 0.000000000000000000, 0.000000000000000000 ) ) ;
#356 = APPLIED_EXTERNAL_IDENTIFICATION_ASSIGNMENT ( 'LQ26-05HGI-01-003.STEP' , #811, #753,( #139) ) ;
#357 = OBJECT_ROLE ('mandatory',$ ) ;
#358 = PROPERTY_DEFINITION_REPRESENTATION ( #754, #556 ) ;
#359 =( LENGTH_UNIT ( ) NAMED_UNIT ( * ) SI_UNIT ( .MILLI., .METRE. ) );
#360 = PROPERTY_DEFINITION_REPRESENTATION ( #501, #812 ) ;
#361 = DIRECTION ( 'NONE',  ( 0.000000000000000000, 0.000000000000000000, 1.000000000000000000 ) ) ;
#362 = PRODUCT_DEFINITION_SHAPE ( 'NONE', 'NONE',  #941 ) ;
#363 = PRODUCT_DEFINITION ( '普通', '', #760, #124 ) ;
#364 = CARTESIAN_POINT ( 'NONE',  ( -39.92714970517571516, -1.028320194525886411, -15.95000000000000639 ) ) ;
#365 = CONTEXT_DEPENDENT_SHAPE_REPRESENTATION ( #820, #172 ) ;
#366 = PROPERTY_DEFINITION ('document property','', #911 ) ;
#367 = ROLE_ASSOCIATION ( #498, #664 ) ;
#368 = SHAPE_REPRESENTATION ( 'LQ26-05HGI-01-016', ( #509 ), #906 ) ;
#369 = SHAPE_DEFINITION_REPRESENTATION ( #761, #93 ) ;
#370 = IDENTIFICATION_ROLE ( 'external document id and location', $) ;
#371 = ITEM_DEFINED_TRANSFORMATION ( 'NONE', 'NONE', #704,  #388 ) ;
#372 = DIRECTION ( 'NONE',  ( 0.000000000000000000, 0.000000000000000000, 1.000000000000000000 ) ) ;
#373 = APPLICATION_CONTEXT ( 'automotive_design' ) ;
#374 =( GEOMETRIC_REPRESENTATION_CONTEXT ( 3 ) GLOBAL_UNCERTAINTY_ASSIGNED_CONTEXT ( ( #204 ) ) GLOBAL_UNIT_ASSIGNED_CONTEXT ( ( #175, #546, #170 ) ) REPRESENTATION_CONTEXT ( 'NONE', 'WORKASPACE' ) );
#375 = ROLE_ASSOCIATION ( #899, #75 ) ;
#376 = APPLIED_EXTERNAL_IDENTIFICATION_ASSIGNMENT ( 'LQ26-05HGI-01-004.STEP' , #507, #887,( #92) ) ;
#377 = DIRECTION ( 'NONE',  ( 0.000000000000000000, 0.000000000000000000, 1.000000000000000000 ) ) ;
#378 = PROPERTY_DEFINITION ('document property','', #715 ) ;
#379 = IDENTIFICATION_ROLE ( 'external document id and location', $) ;
#380 =( NAMED_UNIT ( * ) SI_UNIT ( $, .STERADIAN. ) SOLID_ANGLE_UNIT ( ) );
#381 = ITEM_DEFINED_TRANSFORMATION ( 'NONE', 'NONE', #453,  #533 ) ;
#382 =( REPRESENTATION_RELATIONSHIP ('NONE','NONE', #93, #626 ) REPRESENTATION_RELATIONSHIP_WITH_TRANSFORMATION ( #23 )SHAPE_REPRESENTATION_RELATIONSHIP( ) );
#383 = EXTERNAL_SOURCE (IDENTIFIER('') ) ;
#384 = CONTEXT_DEPENDENT_SHAPE_REPRESENTATION ( #413, #843 ) ;
#385 = DIRECTION ( 'NONE',  ( 0.000000000000000000, 0.000000000000000000, 1.000000000000000000 ) ) ;
#386 =( GEOMETRIC_REPRESENTATION_CONTEXT ( 3 ) GLOBAL_UNCERTAINTY_ASSIGNED_CONTEXT ( ( #490 ) ) GLOBAL_UNIT_ASSIGNED_CONTEXT ( ( #28, #269, #484 ) ) REPRESENTATION_CONTEXT ( 'NONE', 'WORKASPACE' ) );
#387 = DOCUMENT_TYPE ( 'geometry' ) ;
#388 = AXIS2_PLACEMENT_3D ( 'NONE', #714, #572, #285 ) ;
#389 = EXTERNAL_SOURCE (IDENTIFIER('') ) ;
#390 = APPLIED_DOCUMENT_REFERENCE ( #461,'',( #2) ) ;
#391 = PROPERTY_DEFINITION ('external definition','', #330 ) ;
#392 = PRODUCT_DEFINITION_SHAPE ( 'NONE', 'NONE',  #647 ) ;
#393 =( NAMED_UNIT ( * ) PLANE_ANGLE_UNIT ( ) SI_UNIT ( $, .RADIAN. ) );
#394 = APPLIED_EXTERNAL_IDENTIFICATION_ASSIGNMENT ( 'LQ26-05HGI-01-015.STEP' , #593, #539,( #590) ) ;
#395 =( NAMED_UNIT ( * ) PLANE_ANGLE_UNIT ( ) SI_UNIT ( $, .RADIAN. ) );
#396 = PROPERTY_DEFINITION_REPRESENTATION ( #425, #884 ) ;
#397 = AXIS2_PLACEMENT_3D ( 'NONE', #111, #345, #554 ) ;
#398 = APPLICATION_CONTEXT ( 'automotive_design' ) ;
#399 = PRODUCT_DEFINITION_SHAPE ( 'NONE', 'NONE',  #939 ) ;
#400 = PRODUCT_DEFINITION_FORMATION_WITH_SPECIFIED_SOURCE ( '对称', '', #262, .NOT_KNOWN. ) ;
#401 = PRODUCT ( 'LQ26-05HGI-01', 'LQ26-05HGI-01', '', ( #403 ) ) ;
#402 = SHAPE_REPRESENTATION ( 'LQ26-05HGI-01-007', ( #640 ), #125 ) ;
#403 = PRODUCT_CONTEXT ( 'NONE', #432, 'mechanical' ) ;
#404 = PROPERTY_DEFINITION_REPRESENTATION ( #788, #562 ) ;
#405 = EXTERNAL_SOURCE (IDENTIFIER('') ) ;
#406 = APPLICATION_PROTOCOL_DEFINITION ( 'draft international standard', 'automotive_design', 1998, #203 ) ;
#407 = OBJECT_ROLE ('mandatory',$ ) ;
#408 = DIRECTION ( 'NONE',  ( -3.619323948888764665E-15, 3.377748995488954424E-15, -1.000000000000000000 ) ) ;
#409 = APPLICATION_PROTOCOL_DEFINITION ( 'draft international standard', 'automotive_design', 1998, #398 ) ;
#410 = PROPERTY_DEFINITION ('document property','', #515 ) ;
#411 = CARTESIAN_POINT ( 'NONE',  ( -55.50000000433800551, 38.27205246948570760, -4.181229880230967434E-14 ) ) ;
#412 = APPLIED_DOCUMENT_REFERENCE ( #283,'',( #163) ) ;
#413 =( REPRESENTATION_RELATIONSHIP ('NONE','NONE', #93, #699 ) REPRESENTATION_RELATIONSHIP_WITH_TRANSFORMATION ( #381 )SHAPE_REPRESENTATION_RELATIONSHIP( ) );
#414 = DIRECTION ( 'NONE',  ( -3.273746843744870825E-17, 1.947289770225963859E-15, 1.000000000000000000 ) ) ;
#415 = ITEM_DEFINED_TRANSFORMATION ( 'NONE', 'NONE', #895,  #77 ) ;
#416 = PRODUCT_DEFINITION_SHAPE ( 'NONE', 'NONE',  #39 ) ;
#417 = APPLICATION_CONTEXT ( 'automotive_design' ) ;
#418 =( NAMED_UNIT ( * ) PLANE_ANGLE_UNIT ( ) SI_UNIT ( $, .RADIAN. ) );
#419 = CARTESIAN_POINT ( 'NONE',  ( -1.299062266389073771E-09, -16.84999999389722092, 19.24999999999994316 ) ) ;
#420 = PROPERTY_DEFINITION_REPRESENTATION ( #865, #812 ) ;
#421 = APPLICATION_PROTOCOL_DEFINITION ( 'draft international standard', 'automotive_design', 1998, #109 ) ;
#422 = DIRECTION ( 'NONE',  ( 0.000000000000000000, 0.000000000000000000, 1.000000000000000000 ) ) ;
#423 = PRODUCT_DEFINITION_CONTEXT ( 'detailed design', #168, 'design' ) ;
#424 =( LENGTH_UNIT ( ) NAMED_UNIT ( * ) SI_UNIT ( .MILLI., .METRE. ) );
#425 = PROPERTY_DEFINITION ('external definition','', #461 ) ;
#426 = UNCERTAINTY_MEASURE_WITH_UNIT (LENGTH_MEASURE( 1.000000000000000082E-05 ), #674, 'distance_accuracy_value', 'NONE');
#427 = DIRECTION ( 'NONE',  ( -1.520245619747957781E-25, -1.000000000000000000, -3.377748995488954424E-15 ) ) ;
#428 = APPLIED_DOCUMENT_REFERENCE ( #137,'',( #819) ) ;
#429 = APPLICATION_PROTOCOL_DEFINITION ( 'draft international standard', 'automotive_design', 1998, #328 ) ;
#430 = DIRECTION ( 'NONE',  ( 1.000000000000000000, 0.000000000000000000, 0.000000000000000000 ) ) ;
#431 = PRODUCT_DEFINITION_FORMATION_WITH_SPECIFIED_SOURCE ( '对称', '', #818, .NOT_KNOWN. ) ;
#432 = APPLICATION_CONTEXT ( 'automotive_design' ) ;
#433 = DIRECTION ( 'NONE',  ( -1.000000000000000000, 1.554827913914912454E-25, 3.619323948888764665E-15 ) ) ;
#434 = CONTEXT_DEPENDENT_SHAPE_REPRESENTATION ( #678, #362 ) ;
#435 = APPLICATION_PROTOCOL_DEFINITION ( 'draft international standard', 'automotive_design', 1998, #257 ) ;
#436 = PROPERTY_DEFINITION ('external definition','', #735 ) ;
#437 = UNCERTAINTY_MEASURE_WITH_UNIT (LENGTH_MEASURE( 1.000000000000000082E-05 ), #589, 'distance_accuracy_value', 'NONE');
#438 = PRODUCT_RELATED_PRODUCT_CATEGORY ( 'part', '', ( #167 ) ) ;
#439 =( REPRESENTATION_RELATIONSHIP ('NONE','NONE', #93, #750 ) REPRESENTATION_RELATIONSHIP_WITH_TRANSFORMATION ( #169 )SHAPE_REPRESENTATION_RELATIONSHIP( ) );
#440 = DIRECTION ( 'NONE',  ( -1.000000000000000000, 2.502555726921982171E-11, -1.940939352467707284E-27 ) ) ;
#441 = ROLE_ASSOCIATION ( #454, #428 ) ;
#442 = ITEM_DEFINED_TRANSFORMATION ( 'NONE', 'NONE', #250,  #249 ) ;
#443 = APPLIED_EXTERNAL_IDENTIFICATION_ASSIGNMENT ( '\X2\9c7c773c76f8673a\X0\.STEP' , #859, #807,( #120) ) ;
#444 = DIRECTION ( 'NONE',  ( 1.000000000000000000, 0.000000000000000000, 0.000000000000000000 ) ) ;
#445 = DIRECTION ( 'NONE',  ( -1.000000000000000000, -1.224646799147355179E-16, 3.944304526105059027E-31 ) ) ;
#446 = DOCUMENT_FILE ( 'LQ26-05HGI-01-012.STEP' , '', '', #521, '' ,$ ) ;
#447 = PROPERTY_DEFINITION ('document property','', #330 ) ;
#448 = OBJECT_ROLE ('mandatory',$ ) ;
#449 = SHAPE_DEFINITION_REPRESENTATION ( #777, #556 ) ;
#450 = DIRECTION ( 'NONE',  ( 0.000000000000000000, 0.000000000000000000, 1.000000000000000000 ) ) ;
#451 = AXIS2_PLACEMENT_3D ( 'NONE', #798, #778, #73 ) ;
#452 = APPLICATION_PROTOCOL_DEFINITION ( 'draft international standard', 'automotive_design', 1998, #240 ) ;
#453 = AXIS2_PLACEMENT_3D ( 'NONE', #411, #702, #910 ) ;
#454 = OBJECT_ROLE ('mandatory',$ ) ;
#455 = APPLICATION_CONTEXT ( 'automotive_design' ) ;
#456 = DOCUMENT_FILE ( 'LQ26-05HGI-01-005.STEP' , '', '', #467, '' ,$ ) ;
#457 =( NAMED_UNIT ( * ) SI_UNIT ( $, .STERADIAN. ) SOLID_ANGLE_UNIT ( ) );
#458 =( REPRESENTATION_RELATIONSHIP ('NONE','NONE', #93, #812 ) REPRESENTATION_RELATIONSHIP_WITH_TRANSFORMATION ( #191 )SHAPE_REPRESENTATION_RELATIONSHIP( ) );
#459 = ROLE_ASSOCIATION ( #660, #531 ) ;
#460 = PROPERTY_DEFINITION_REPRESENTATION ( #588, #271 ) ;
#461 = DOCUMENT_FILE ( 'LQ26-05HGI-01-009.STEP' , '', '', #545, '' ,$ ) ;
#462 =( NAMED_UNIT ( * ) SI_UNIT ( $, .STERADIAN. ) SOLID_ANGLE_UNIT ( ) );
#463 = AXIS2_PLACEMENT_3D ( 'NONE', #787, #361, #644 ) ;
#464 = PRODUCT ( 'LQ26-05HGI-01-004', 'LQ26-05HGI-01-004', '', ( #504 ) ) ;
#465 = PRODUCT_RELATED_PRODUCT_CATEGORY ( 'part', '', ( #104 ) ) ;
#466 = ROLE_ASSOCIATION ( #516, #602 ) ;
#467 = DOCUMENT_TYPE ( 'geometry' ) ;
#468 = CARTESIAN_POINT ( 'NONE',  ( 0.000000000000000000, 0.000000000000000000, 0.000000000000000000 ) ) ;
#469 =( REPRESENTATION_RELATIONSHIP ('NONE','NONE', #93, #195 ) REPRESENTATION_RELATIONSHIP_WITH_TRANSFORMATION ( #587 )SHAPE_REPRESENTATION_RELATIONSHIP( ) );
#470 =( NAMED_UNIT ( * ) SI_UNIT ( $, .STERADIAN. ) SOLID_ANGLE_UNIT ( ) );
#471 = PRODUCT_DEFINITION ( '普通', '', #291, #840 ) ;
#472 = PROPERTY_DEFINITION_REPRESENTATION ( #36, #699 ) ;
#473 = PRODUCT_DEFINITION_SHAPE ( 'NONE', 'NONE',  #920 ) ;
#474 = PROPERTY_DEFINITION_REPRESENTATION ( #800, #733 ) ;
#475 = AXIS2_PLACEMENT_3D ( 'NONE', #793, #145, #282 ) ;
#476 = CARTESIAN_POINT ( 'NONE',  ( 0.000000000000000000, 0.000000000000000000, 0.000000000000000000 ) ) ;
#477 = PRODUCT ( 'LQ26-05HGI-01-013', 'LQ26-05HGI-01-013', '', ( #186 ) ) ;
#478 = APPLICATION_CONTEXT ( 'automotive_design' ) ;
#479 = APPLIED_DOCUMENT_REFERENCE ( #181,'',( #717) ) ;
#480 = PRODUCT_RELATED_PRODUCT_CATEGORY ( 'part', '', ( #818 ) ) ;
#481 = IDENTIFICATION_ROLE ( 'external document id and location', $) ;
#482 = ITEM_DEFINED_TRANSFORMATION ( 'NONE', 'NONE', #830,  #237 ) ;
#483 = APPLICATION_PROTOCOL_DEFINITION ( 'draft international standard', 'automotive_design', 1998, #605 ) ;
#484 =( NAMED_UNIT ( * ) SI_UNIT ( $, .STERADIAN. ) SOLID_ANGLE_UNIT ( ) );
#485 = PROPERTY_DEFINITION ('document property','', #92 ) ;
#486 = CARTESIAN_POINT ( 'NONE',  ( -1.299128159235950135E-09, -16.84999999389713921, -7.000000000000000000 ) ) ;
#487 = ROLE_ASSOCIATION ( #49, #112 ) ;
#488 = PRODUCT_DEFINITION_FORMATION_WITH_SPECIFIED_SOURCE ( '对称', '', #246, .NOT_KNOWN. ) ;
#489 = PRODUCT_DEFINITION_CONTEXT ( 'detailed design', #918, 'design' ) ;
#490 = UNCERTAINTY_MEASURE_WITH_UNIT (LENGTH_MEASURE( 1.000000000000000082E-05 ), #28, 'distance_accuracy_value', 'NONE');
#491 = PRODUCT_DEFINITION_FORMATION_WITH_SPECIFIED_SOURCE ( '对称', '', #890, .NOT_KNOWN. ) ;
#492 = CARTESIAN_POINT ( 'NONE',  ( -1.299149713221874231E-09, -16.74999999389714489, 1.609221195609334236E-15 ) ) ;
#493 = ROLE_ASSOCIATION ( #91, #197 ) ;
#494 = PRODUCT ( '\X2\9c7c773c76f8673a\X0\', '\X2\9c7c773c76f8673a\X0\', '', ( #218 ) ) ;
#495 = APPLICATION_PROTOCOL_DEFINITION ( 'draft international standard', 'automotive_design', 1998, #639 ) ;
#496 =( NAMED_UNIT ( * ) PLANE_ANGLE_UNIT ( ) SI_UNIT ( $, .RADIAN. ) );
#497 =( REPRESENTATION_RELATIONSHIP ('NONE','NONE', #93, #812 ) REPRESENTATION_RELATIONSHIP_WITH_TRANSFORMATION ( #133 )SHAPE_REPRESENTATION_RELATIONSHIP( ) );
#498 = OBJECT_ROLE ('mandatory',$ ) ;
#499 = PRODUCT_DEFINITION ( '普通', '', #597, #193 ) ;
#500 = APPLICATION_PROTOCOL_DEFINITION ( 'draft international standard', 'automotive_design', 1998, #668 ) ;
#501 = PROPERTY_DEFINITION ('external definition','', #590 ) ;
#502 = EXTERNAL_SOURCE (IDENTIFIER('') ) ;
#503 = DIRECTION ( 'NONE',  ( 0.7414452291680391216, -0.6710133919259391178, 3.724872694240834311E-16 ) ) ;
#504 = PRODUCT_CONTEXT ( 'NONE', #517, 'mechanical' ) ;
#505 =( NAMED_UNIT ( * ) PLANE_ANGLE_UNIT ( ) SI_UNIT ( $, .RADIAN. ) );
#506 = APPLICATION_PROTOCOL_DEFINITION ( 'draft international standard', 'automotive_design', 1998, #875 ) ;
#507 = IDENTIFICATION_ROLE ( 'external document id and location', $) ;
#508 = DIRECTION ( 'NONE',  ( -1.534881075447263349E-23, 5.551115112164241921E-16, 1.000000000000000000 ) ) ;
#509 = AXIS2_PLACEMENT_3D ( 'NONE', #177, #107, #832 ) ;
#510 = APPLICATION_PROTOCOL_DEFINITION ( 'draft international standard', 'automotive_design', 1998, #15 ) ;
#511 = PRODUCT_DEFINITION_SHAPE ( 'NONE', 'NONE',  #933 ) ;
#512 = APPLIED_EXTERNAL_IDENTIFICATION_ASSIGNMENT ( 'LQ26-05HGI-01-014.STEP' , #744, #897,( #181) ) ;
#513 = DIRECTION ( 'NONE',  ( 2.502555726921981525E-11, -1.000000000000000000, 1.110223024625156540E-16 ) ) ;
#514 = ITEM_DEFINED_TRANSFORMATION ( 'NONE', 'NONE', #235,  #221 ) ;
#515 = DOCUMENT_FILE ( 'LQ26-05HGI-01-006.STEP' , '', '', #905, '' ,$ ) ;
#516 = OBJECT_ROLE ('mandatory',$ ) ;
#517 = APPLICATION_CONTEXT ( 'automotive_design' ) ;
#518 = CONTEXT_DEPENDENT_SHAPE_REPRESENTATION ( #695, #399 ) ;
#519 = UNCERTAINTY_MEASURE_WITH_UNIT (LENGTH_MEASURE( 1.000000000000000082E-05 ), #161, 'distance_accuracy_value', 'NONE');
#520 = PRODUCT_CONTEXT ( 'NONE', #240, 'mechanical' ) ;
#521 = DOCUMENT_TYPE ( 'geometry' ) ;
#522 = PRODUCT_DEFINITION_FORMATION_WITH_SPECIFIED_SOURCE ( '对称', '', #749, .NOT_KNOWN. ) ;
#523 = PROPERTY_DEFINITION_REPRESENTATION ( #24, #556 ) ;
#524 = AXIS2_PLACEMENT_3D ( 'NONE', #118, #414, #914 ) ;
#525 = APPLICATION_CONTEXT ( 'automotive_design' ) ;
#526 = PRODUCT ( 'LQ26-05HGI-01-015', 'LQ26-05HGI-01-015', '', ( #692 ) ) ;
#527 = CONTEXT_DEPENDENT_SHAPE_REPRESENTATION ( #31, #69 ) ;
#528 = OBJECT_ROLE ('mandatory',$ ) ;
#529 = PRODUCT_RELATED_PRODUCT_CATEGORY ( 'part', '', ( #464 ) ) ;
#530 =( LENGTH_UNIT ( ) NAMED_UNIT ( * ) SI_UNIT ( .MILLI., .METRE. ) );
#531 = APPLIED_DOCUMENT_REFERENCE ( #456,'',( #140) ) ;
#532 = PROPERTY_DEFINITION ('external definition','', #715 ) ;
#533 = AXIS2_PLACEMENT_3D ( 'NONE', #307, #450, #743 ) ;
#534 = PRODUCT_DEFINITION_SHAPE ( 'NONE', 'NONE',  #163 ) ;
#535 = APPLIED_EXTERNAL_IDENTIFICATION_ASSIGNMENT ( 'LQ26-05HGI-01-013.STEP' , #370, #183,( #335) ) ;
#536 = APPLIED_DOCUMENT_REFERENCE ( #254,'',( #661) ) ;
#537 = CARTESIAN_POINT ( 'NONE',  ( 0.000000000000000000, 0.000000000000000000, 0.000000000000000000 ) ) ;
#538 = DIRECTION ( 'NONE',  ( 0.000000000000000000, 0.000000000000000000, 1.000000000000000000 ) ) ;
#539 = EXTERNAL_SOURCE (IDENTIFIER('') ) ;
#540 = PRODUCT_DEFINITION_SHAPE ( 'NONE', 'NONE',  #935 ) ;
#541 = APPLICATION_CONTEXT ( 'automotive_design' ) ;
#542 = PROPERTY_DEFINITION_REPRESENTATION ( #134, #626 ) ;
#543 = PRODUCT_DEFINITION_SHAPE ( 'NONE', 'NONE',  #923 ) ;
#544 = DIRECTION ( 'NONE',  ( 1.000000000000000000, 0.000000000000000000, 0.000000000000000000 ) ) ;
#545 = DOCUMENT_TYPE ( 'geometry' ) ;
#546 =( NAMED_UNIT ( * ) PLANE_ANGLE_UNIT ( ) SI_UNIT ( $, .RADIAN. ) );
#547 = DOCUMENT_TYPE ( 'geometry' ) ;
#548 = PRODUCT_DEFINITION_FORMATION_WITH_SPECIFIED_SOURCE ( '对称', '', #676, .NOT_KNOWN. ) ;
#549 =( GEOMETRIC_REPRESENTATION_CONTEXT ( 3 ) GLOBAL_UNCERTAINTY_ASSIGNED_CONTEXT ( ( #566 ) ) GLOBAL_UNIT_ASSIGNED_CONTEXT ( ( #359, #505, #259 ) ) REPRESENTATION_CONTEXT ( 'NONE', 'WORKASPACE' ) );
#550 = PROPERTY_DEFINITION ('external definition','', #515 ) ;
#551 = PROPERTY_DEFINITION_REPRESENTATION ( #366, #884 ) ;
#552 = SHAPE_DEFINITION_REPRESENTATION ( #670, #368 ) ;
#553 = DIRECTION ( 'NONE',  ( 1.000000000000000000, 0.000000000000000000, 0.000000000000000000 ) ) ;
#554 = DIRECTION ( 'NONE',  ( 0.7181818182370703907, -0.6958554993342332962, 3.862774089132296298E-16 ) ) ;
#555 = ROLE_ASSOCIATION ( #802, #176 ) ;
#556 = SHAPE_REPRESENTATION ( 'LQ26-05HGI-01-001', ( #249 ), #805 ) ;
#557 = APPLICATION_PROTOCOL_DEFINITION ( 'draft international standard', 'automotive_design', 1998, #912 ) ;
#558 = PROPERTY_DEFINITION ('external definition','', #456 ) ;
#559 = EXTERNAL_SOURCE (IDENTIFIER('') ) ;
#560 = DOCUMENT_TYPE ( 'geometry' ) ;
#561 = DIRECTION ( 'NONE',  ( 1.000000000000000000, 3.494332759603703517E-17, -1.909363028154845838E-16 ) ) ;
#562 = SHAPE_REPRESENTATION ( 'LQ26-05HGI-01-011', ( #237 ), #386 ) ;
#563 = CARTESIAN_POINT ( 'NONE',  ( 0.000000000000000000, 0.000000000000000000, 0.000000000000000000 ) ) ;
#564 = PRODUCT_DEFINITION_FORMATION_WITH_SPECIFIED_SOURCE ( '对称', '', #167, .NOT_KNOWN. ) ;
#565 = PRODUCT_DEFINITION_CONTEXT ( 'detailed design', #203, 'design' ) ;
#566 = UNCERTAINTY_MEASURE_WITH_UNIT (LENGTH_MEASURE( 1.000000000000000082E-05 ), #359, 'distance_accuracy_value', 'NONE');
#567 = AXIS2_PLACEMENT_3D ( 'NONE', #147, #445, #734 ) ;
#568 = DIRECTION ( 'NONE',  ( 1.000000000000000000, 7.940387236615722797E-11, -3.447088017522698419E-15 ) ) ;
#569 = PROPERTY_DEFINITION_REPRESENTATION ( #378, #618 ) ;
#570 = SHAPE_DEFINITION_REPRESENTATION ( #608, #699 ) ;
#571 = DIRECTION ( 'NONE',  ( 1.000000000000000000, 0.000000000000000000, 0.000000000000000000 ) ) ;
#572 = DIRECTION ( 'NONE',  ( 0.000000000000000000, 0.000000000000000000, 1.000000000000000000 ) ) ;
#573 = DIRECTION ( 'NONE',  ( 9.974149021515831725E-23, -6.641780673119635921E-23, 0.9999999999999998890 ) ) ;
#574 = PROPERTY_DEFINITION_REPRESENTATION ( #94, #556 ) ;
#575 = UNCERTAINTY_MEASURE_WITH_UNIT (LENGTH_MEASURE( 1.000000000000000082E-05 ), #577, 'distance_accuracy_value', 'NONE');
#576 = APPLICATION_CONTEXT ( 'automotive_design' ) ;
#577 =( LENGTH_UNIT ( ) NAMED_UNIT ( * ) SI_UNIT ( .MILLI., .METRE. ) );
#578 = PROPERTY_DEFINITION ('document property','', #254 ) ;
#579 = CARTESIAN_POINT ( 'NONE',  ( -16.00000000129912792, 6.102853986234733474E-09, -11.99999999999998757 ) ) ;
#580 = ROLE_ASSOCIATION ( #162, #794 ) ;
#581 = SHAPE_DEFINITION_REPRESENTATION ( #325, #281 ) ;
#582 = OBJECT_ROLE ('mandatory',$ ) ;
#583 = CARTESIAN_POINT ( 'NONE',  ( 0.000000000000000000, 0.000000000000000000, 0.000000000000000000 ) ) ;
#584 = DOCUMENT_TYPE ( 'geometry' ) ;
#585 = DIRECTION ( 'NONE',  ( -0.9489693057452357472, 0.3153684460332155104, 1.333898208228977062E-16 ) ) ;
#586 = PROPERTY_DEFINITION_REPRESENTATION ( #447, #368 ) ;
#587 = ITEM_DEFINED_TRANSFORMATION ( 'NONE', 'NONE', #165,  #58 ) ;
#588 = PROPERTY_DEFINITION ('document property','', #446 ) ;
#589 =( LENGTH_UNIT ( ) NAMED_UNIT ( * ) SI_UNIT ( .MILLI., .METRE. ) );
#590 = DOCUMENT_FILE ( 'LQ26-05HGI-01-015.STEP' , '', '', #687, '' ,$ ) ;
#591 = APPLICATION_PROTOCOL_DEFINITION ( 'draft international standard', 'automotive_design', 1998, #373 ) ;
#592 = PROPERTY_DEFINITION_REPRESENTATION ( #532, #618 ) ;
#593 = IDENTIFICATION_ROLE ( 'external document id and location', $) ;
#594 = DOCUMENT_FILE ( 'LQ26-05HGI-01-004.STEP' , '', '', #304, '' ,$ ) ;
#595 = EXTERNAL_SOURCE (IDENTIFIER('') ) ;
#596 = CARTESIAN_POINT ( 'NONE',  ( 0.000000000000000000, 0.000000000000000000, 0.000000000000000000 ) ) ;
#597 = PRODUCT_DEFINITION_FORMATION_WITH_SPECIFIED_SOURCE ( '对称', '', #898, .NOT_KNOWN. ) ;
#598 = AXIS2_PLACEMENT_3D ( 'NONE', #295, #173, #571 ) ;
#599 = OBJECT_ROLE ('mandatory',$ ) ;
#600 = ITEM_DEFINED_TRANSFORMATION ( 'NONE', 'NONE', #524,  #8 ) ;
#601 = PRODUCT ( 'LQ26-05HGI-01-007', 'LQ26-05HGI-01-007', '', ( #130 ) ) ;
#602 = APPLIED_DOCUMENT_REFERENCE ( #5,'',( #647) ) ;
#603 = EXTERNAL_SOURCE (IDENTIFIER('') ) ;
#604 = AXIS2_PLACEMENT_3D ( 'NONE', #848, #573, #301 ) ;
#605 = APPLICATION_CONTEXT ( 'automotive_design' ) ;
#606 = AXIS2_PLACEMENT_3D ( 'NONE', #665, #756, #544 ) ;
#607 = CARTESIAN_POINT ( 'NONE',  ( -19.70722614713931975, -10.27078395788416465, 3.600619394000877522E-14 ) ) ;
#608 = PRODUCT_DEFINITION_SHAPE ( 'NONE', 'NONE',  #29 ) ;
#609 = ROLE_ASSOCIATION ( #357, #479 ) ;
#610 = DOCUMENT_TYPE ( 'geometry' ) ;
#611 = APPLIED_DOCUMENT_REFERENCE ( #342,'',( #661) ) ;
#612 = PRODUCT_DEFINITION_SHAPE ( 'NONE', 'NONE',  #755 ) ;
#613 = SHAPE_DEFINITION_REPRESENTATION ( #810, #812 ) ;
#614 = IDENTIFICATION_ROLE ( 'external document id and location', $) ;
#615 = APPLICATION_CONTEXT ( 'automotive_design' ) ;
#616 = DIRECTION ( 'NONE',  ( 0.7181818182370701686, -0.6958554993342336292, -8.758421227899148432E-18 ) ) ;
#617 = ITEM_DEFINED_TRANSFORMATION ( 'NONE', 'NONE', #102,  #773 ) ;
#618 = SHAPE_REPRESENTATION ( 'LQ26-05HGI-01-014', ( #598 ), #720 ) ;
#619 = APPLICATION_PROTOCOL_DEFINITION ( 'draft international standard', 'automotive_design', 1998, #525 ) ;
#620 =( REPRESENTATION_RELATIONSHIP ('NONE','NONE', #93, #884 ) REPRESENTATION_RELATIONSHIP_WITH_TRANSFORMATION ( #697 )SHAPE_REPRESENTATION_RELATIONSHIP( ) );
#621 = PRODUCT ( 'LQ26-05HGI-01-001', 'LQ26-05HGI-01-001', '', ( #310 ) ) ;
#622 = PRODUCT_DEFINITION ( '普通', '', #7, #708 ) ;
#623 = CARTESIAN_POINT ( 'NONE',  ( 35.75000000152905244, 19.13602623914500356, -1.734903412714375935E-15 ) ) ;
#624 = CONTEXT_DEPENDENT_SHAPE_REPRESENTATION ( #909, #48 ) ;
#625 = APPLICATION_PROTOCOL_DEFINITION ( 'draft international standard', 'automotive_design', 1998, #116 ) ;
#626 = SHAPE_REPRESENTATION ( 'LQ26-05HGI-01-010', ( #606 ), #56 ) ;
#627 = PRODUCT_DEFINITION_CONTEXT ( 'detailed design', #109, 'design' ) ;
#628 =( REPRESENTATION_RELATIONSHIP ('NONE','NONE', #93, #281 ) REPRESENTATION_RELATIONSHIP_WITH_TRANSFORMATION ( #371 )SHAPE_REPRESENTATION_RELATIONSHIP( ) );
#629 = UNCERTAINTY_MEASURE_WITH_UNIT (LENGTH_MEASURE( 1.000000000000000082E-05 ), #700, 'distance_accuracy_value', 'NONE');
#630 = DIRECTION ( 'NONE',  ( 1.000000000000000000, 0.000000000000000000, 0.000000000000000000 ) ) ;
#631 = PROPERTY_DEFINITION_REPRESENTATION ( #816, #618 ) ;
#632 = PROPERTY_DEFINITION ('external definition','', #5 ) ;
#633 = PRODUCT_DEFINITION_CONTEXT ( 'detailed design', #257, 'design' ) ;
#634 = DIRECTION ( 'NONE',  ( 1.000000000000000000, 0.000000000000000000, 0.000000000000000000 ) ) ;
#635 = DIRECTION ( 'NONE',  ( 5.501298389354087957E-16, 0.9510565162951520879, -0.3090169943749520032 ) ) ;
#636 = APPLICATION_PROTOCOL_DEFINITION ( 'draft international standard', 'automotive_design', 1998, #478 ) ;
#637 = DIRECTION ( 'NONE',  ( 1.000000000000000000, 0.000000000000000000, 0.000000000000000000 ) ) ;
#638 = AXIS2_PLACEMENT_3D ( 'NONE', #40, #696, #616 ) ;
#639 = APPLICATION_CONTEXT ( 'automotive_design' ) ;
#640 = AXIS2_PLACEMENT_3D ( 'NONE', #596, #809, #164 ) ;
#641 = PRODUCT_DEFINITION_FORMATION_WITH_SPECIFIED_SOURCE ( '对称', '', #494, .NOT_KNOWN. ) ;
#642 = CONTEXT_DEPENDENT_SHAPE_REPRESENTATION ( #382, #730 ) ;
#643 = APPLICATION_PROTOCOL_DEFINITION ( 'draft international standard', 'automotive_design', 1998, #277 ) ;
#644 = DIRECTION ( 'NONE',  ( 1.000000000000000000, 0.000000000000000000, 0.000000000000000000 ) ) ;
#645 =( REPRESENTATION_RELATIONSHIP ('NONE','NONE', #93, #247 ) REPRESENTATION_RELATIONSHIP_WITH_TRANSFORMATION ( #617 )SHAPE_REPRESENTATION_RELATIONSHIP( ) );
#646 = CARTESIAN_POINT ( 'NONE',  ( 0.000000000000000000, 0.000000000000000000, 0.000000000000000000 ) ) ;
#647 = PRODUCT_DEFINITION ( '普通', '', #431, #113 ) ;
#648 = IDENTIFICATION_ROLE ( 'external document id and location', $) ;
#649 = PROPERTY_DEFINITION_REPRESENTATION ( #436, #65 ) ;
#650 = ROLE_ASSOCIATION ( #851, #728 ) ;
#651 = CARTESIAN_POINT ( 'NONE',  ( 0.000000000000000000, 0.000000000000000000, 0.000000000000000000 ) ) ;
#652 = PRODUCT_DEFINITION_SHAPE ( 'NONE', 'NONE',  #932 ) ;
#653 = DIRECTION ( 'NONE',  ( 6.179972867490607519E-17, -2.370046088858107017E-16, 0.9999999999999996669 ) ) ;
#654 = CONTEXT_DEPENDENT_SHAPE_REPRESENTATION ( #729, #857 ) ;
#655 = SHAPE_DEFINITION_REPRESENTATION ( #201, #750 ) ;
#656 = AXIS2_PLACEMENT_3D ( 'NONE', #563, #422, #430 ) ;
#657 = DIRECTION ( 'NONE',  ( 1.000000000000000000, 0.000000000000000000, 0.000000000000000000 ) ) ;
#658 = CONTEXT_DEPENDENT_SHAPE_REPRESENTATION ( #768, #312 ) ;
#659 = APPLIED_EXTERNAL_IDENTIFICATION_ASSIGNMENT ( 'LQ26-05HGI-01-009.STEP' , #327, #44,( #461) ) ;
#660 = OBJECT_ROLE ('mandatory',$ ) ;
#661 = PRODUCT_DEFINITION ( '普通', '', #564, #346 ) ;
#662 = PROPERTY_DEFINITION ('external definition','', #181 ) ;
#663 = DIRECTION ( 'NONE',  ( 1.000000000000000000, 0.000000000000000000, 0.000000000000000000 ) ) ;
#664 = APPLIED_DOCUMENT_REFERENCE ( #739,'',( #471) ) ;
#665 = CARTESIAN_POINT ( 'NONE',  ( 0.000000000000000000, 0.000000000000000000, 0.000000000000000000 ) ) ;
#666 =( NAMED_UNIT ( * ) PLANE_ANGLE_UNIT ( ) SI_UNIT ( $, .RADIAN. ) );
#667 = APPLIED_EXTERNAL_IDENTIFICATION_ASSIGNMENT ( 'LQ26-05HGI-01-004.STEP' , #263, #790,( #594) ) ;
#668 = APPLICATION_CONTEXT ( 'automotive_design' ) ;
#669 = ITEM_DEFINED_TRANSFORMATION ( 'NONE', 'NONE', #198,  #640 ) ;
#670 = PRODUCT_DEFINITION_SHAPE ( 'NONE', 'NONE',  #732 ) ;
#671 = IDENTIFICATION_ROLE ( 'external document id and location', $) ;
#672 = EXTERNAL_SOURCE (IDENTIFIER('') ) ;
#673 = CONTEXT_DEPENDENT_SHAPE_REPRESENTATION ( #64, #543 ) ;
#674 =( LENGTH_UNIT ( ) NAMED_UNIT ( * ) SI_UNIT ( .MILLI., .METRE. ) );
#675 = PRODUCT_DEFINITION_SHAPE ( 'NONE', 'NONE',  #938 ) ;
#676 = PRODUCT ( 'LQ26-05HGI-01-003', 'LQ26-05HGI-01-003', '', ( #216 ) ) ;
#677 = PROPERTY_DEFINITION ('document property','', #283 ) ;
#678 =( REPRESENTATION_RELATIONSHIP ('NONE','NONE', #93, #271 ) REPRESENTATION_RELATIONSHIP_WITH_TRANSFORMATION ( #230 )SHAPE_REPRESENTATION_RELATIONSHIP( ) );
#679 = AXIS2_PLACEMENT_3D ( 'NONE', #537, #538, #114 ) ;
#680 = DIRECTION ( 'NONE',  ( 0.000000000000000000, 0.000000000000000000, 1.000000000000000000 ) ) ;
#681 = PROPERTY_DEFINITION_REPRESENTATION ( #144, #562 ) ;
#682 = PRODUCT_RELATED_PRODUCT_CATEGORY ( 'part', '', ( #601 ) ) ;
#683 =( GEOMETRIC_REPRESENTATION_CONTEXT ( 3 ) GLOBAL_UNCERTAINTY_ASSIGNED_CONTEXT ( ( #782 ) ) GLOBAL_UNIT_ASSIGNED_CONTEXT ( ( #122, #864, #293 ) ) REPRESENTATION_CONTEXT ( 'NONE', 'WORKASPACE' ) );
#684 = PROPERTY_DEFINITION ('document property','', #137 ) ;
#685 =( LENGTH_UNIT ( ) NAMED_UNIT ( * ) SI_UNIT ( .MILLI., .METRE. ) );
#686 = PRODUCT_DEFINITION_FORMATION_WITH_SPECIFIED_SOURCE ( '对称', '', #464, .NOT_KNOWN. ) ;
#687 = DOCUMENT_TYPE ( 'geometry' ) ;
#688 = PRODUCT_DEFINITION_SHAPE ( 'NONE', 'NONE',  #661 ) ;
#689 = DOCUMENT_TYPE ( 'geometry' ) ;
#690 = DIRECTION ( 'NONE',  ( -0.7181818181894800146, -0.6958554993833506730, 3.494505699942013246E-22 ) ) ;
#691 = ITEM_DEFINED_TRANSFORMATION ( 'NONE', 'NONE', #604,  #606 ) ;
#692 = PRODUCT_CONTEXT ( 'NONE', #45, 'mechanical' ) ;
#693 = DIRECTION ( 'NONE',  ( 1.000000000000000000, 0.000000000000000000, 0.000000000000000000 ) ) ;
#694 =( REPRESENTATION_RELATIONSHIP ('NONE','NONE', #93, #562 ) REPRESENTATION_RELATIONSHIP_WITH_TRANSFORMATION ( #482 )SHAPE_REPRESENTATION_RELATIONSHIP( ) );
#695 =( REPRESENTATION_RELATIONSHIP ('NONE','NONE', #93, #618 ) REPRESENTATION_RELATIONSHIP_WITH_TRANSFORMATION ( #870 )SHAPE_REPRESENTATION_RELATIONSHIP( ) );
#696 = DIRECTION ( 'NONE',  ( 1.683901863661342677E-17, 4.792741879690023152E-18, 1.000000000000000000 ) ) ;
#697 = ITEM_DEFINED_TRANSFORMATION ( 'NONE', 'NONE', #475,  #8 ) ;
#698 = PROPERTY_DEFINITION ('external definition','', #139 ) ;
#699 = SHAPE_REPRESENTATION ( 'LQ26-05HGI-01-004', ( #533 ), #853 ) ;
#700 =( LENGTH_UNIT ( ) NAMED_UNIT ( * ) SI_UNIT ( .MILLI., .METRE. ) );
#701 = PRODUCT_RELATED_PRODUCT_CATEGORY ( 'part', '', ( #262 ) ) ;
#702 = DIRECTION ( 'NONE',  ( 1.547979645288400293E-23, -5.551115111806748895E-16, -1.000000000000000000 ) ) ;
#703 = PRODUCT_DEFINITION_CONTEXT ( 'detailed design', #155, 'design' ) ;
#704 = AXIS2_PLACEMENT_3D ( 'NONE', #180, #408, #184 ) ;
#705 = PRODUCT_DEFINITION_SHAPE ( 'NONE', 'NONE',  #926 ) ;
#706 = EXTERNAL_SOURCE (IDENTIFIER('') ) ;
#707 = APPLICATION_PROTOCOL_DEFINITION ( 'draft international standard', 'automotive_design', 1998, #227 ) ;
#708 = PRODUCT_DEFINITION_CONTEXT ( 'detailed design', #398, 'design' ) ;
#709 = APPLICATION_CONTEXT ( 'automotive_design' ) ;
#710 = UNCERTAINTY_MEASURE_WITH_UNIT (LENGTH_MEASURE( 1.000000000000000082E-05 ), #772, 'distance_accuracy_value', 'NONE');
#711 = DIRECTION ( 'NONE',  ( -3.619323948888764665E-15, 3.377748995488954424E-15, -1.000000000000000000 ) ) ;
#712 = ROLE_ASSOCIATION ( #245, #151 ) ;
#713 = PROPERTY_DEFINITION ('document property','', #735 ) ;
#714 = CARTESIAN_POINT ( 'NONE',  ( 0.000000000000000000, 0.000000000000000000, 0.000000000000000000 ) ) ;
#715 = DOCUMENT_FILE ( 'LQ26-05HGI-01-014.STEP' , '', '', #79, '' ,$ ) ;
#716 = PRODUCT_CONTEXT ( 'NONE', #785, 'mechanical' ) ;
#717 = PRODUCT_DEFINITION ( '普通', '', #400, #627 ) ;
#718 =( LENGTH_UNIT ( ) NAMED_UNIT ( * ) SI_UNIT ( .MILLI., .METRE. ) );
#719 = PRODUCT_DEFINITION_FORMATION_WITH_SPECIFIED_SOURCE ( '对称', '', #182, .NOT_KNOWN. ) ;
#720 =( GEOMETRIC_REPRESENTATION_CONTEXT ( 3 ) GLOBAL_UNCERTAINTY_ASSIGNED_CONTEXT ( ( #710 ) ) GLOBAL_UNIT_ASSIGNED_CONTEXT ( ( #772, #779, #275 ) ) REPRESENTATION_CONTEXT ( 'NONE', 'WORKASPACE' ) );
#721 = DIRECTION ( 'NONE',  ( -1.520245619747957781E-25, -1.000000000000000000, -3.377748995488954424E-15 ) ) ;
#722 = PROPERTY_DEFINITION ('external definition','', #329 ) ;
#723 = APPLICATION_CONTEXT ( 'automotive_design' ) ;
#724 = APPLICATION_PROTOCOL_DEFINITION ( 'draft international standard', 'automotive_design', 1998, #417 ) ;
#725 =( NAMED_UNIT ( * ) PLANE_ANGLE_UNIT ( ) SI_UNIT ( $, .RADIAN. ) );
#726 = DIRECTION ( 'NONE',  ( -2.502555726921982171E-11, -1.000000000000000000, -5.059516573658899629E-16 ) ) ;
#727 = DOCUMENT_TYPE ( 'geometry' ) ;
#728 = APPLIED_DOCUMENT_REFERENCE ( #139,'',( #127) ) ;
#729 =( REPRESENTATION_RELATIONSHIP ('NONE','NONE', #93, #65 ) REPRESENTATION_RELATIONSHIP_WITH_TRANSFORMATION ( #214 )SHAPE_REPRESENTATION_RELATIONSHIP( ) );
#730 = PRODUCT_DEFINITION_SHAPE ( 'NONE', 'NONE',  #937 ) ;
#731 = APPLIED_EXTERNAL_IDENTIFICATION_ASSIGNMENT ( 'LQ26-05HGI-01-011.STEP' , #152, #559,( #254) ) ;
#732 = PRODUCT_DEFINITION ( '普通', '', #287, #825 ) ;
#733 = SHAPE_REPRESENTATION ( 'LQ26-05HGI-01-013', ( #77 ), #20 ) ;
#734 = DIRECTION ( 'NONE',  ( 1.224646799147352468E-16, -1.000000000000000000, -2.068429995664876789E-16 ) ) ;
#735 = DOCUMENT_FILE ( 'LQ26-05HGI-01-017.STEP' , '', '', #610, '' ,$ ) ;
#736 = OBJECT_ROLE ('mandatory',$ ) ;
#737 = PRODUCT_DEFINITION_FORMATION_WITH_SPECIFIED_SOURCE ( '对称', '', #824, .NOT_KNOWN. ) ;
#738 = APPLIED_EXTERNAL_IDENTIFICATION_ASSIGNMENT ( 'LQ26-05HGI-01-001.STEP' , #829, #84,( #231) ) ;
#739 = DOCUMENT_FILE ( 'LQ26-05HGI-01-001.STEP' , '', '', #868, '' ,$ ) ;
#740 = PROPERTY_DEFINITION ('external definition','', #137 ) ;
#741 = APPLICATION_CONTEXT ( 'automotive_design' ) ;
#742 = PROPERTY_DEFINITION_REPRESENTATION ( #558, #750 ) ;
#743 = DIRECTION ( 'NONE',  ( 1.000000000000000000, 0.000000000000000000, 0.000000000000000000 ) ) ;
#744 = IDENTIFICATION_ROLE ( 'external document id and location', $) ;
#745 = CONTEXT_DEPENDENT_SHAPE_REPRESENTATION ( #52, #123 ) ;
#746 =( GEOMETRIC_REPRESENTATION_CONTEXT ( 3 ) GLOBAL_UNCERTAINTY_ASSIGNED_CONTEXT ( ( #575 ) ) GLOBAL_UNIT_ASSIGNED_CONTEXT ( ( #577, #855, #866 ) ) REPRESENTATION_CONTEXT ( 'NONE', 'WORKASPACE' ) );
#747 =( GEOMETRIC_REPRESENTATION_CONTEXT ( 3 ) GLOBAL_UNCERTAINTY_ASSIGNED_CONTEXT ( ( #349 ) ) GLOBAL_UNIT_ASSIGNED_CONTEXT ( ( #6, #3, #462 ) ) REPRESENTATION_CONTEXT ( 'NONE', 'WORKASPACE' ) );
#748 = ROLE_ASSOCIATION ( #160, #888 ) ;
#749 = PRODUCT ( 'LQ26-05HGI-01-005', 'LQ26-05HGI-01-005', '', ( #716 ) ) ;
#750 = SHAPE_REPRESENTATION ( 'LQ26-05HGI-01-005', ( #774 ), #117 ) ;
#751 = CONTEXT_DEPENDENT_SHAPE_REPRESENTATION ( #439, #705 ) ;
#752 = DOCUMENT_TYPE ( 'geometry' ) ;
#753 = EXTERNAL_SOURCE (IDENTIFIER('') ) ;
#754 = PROPERTY_DEFINITION ('document property','', #739 ) ;
#755 = PRODUCT_DEFINITION ( '普通', '', #641, #37 ) ;
#756 = DIRECTION ( 'NONE',  ( 0.000000000000000000, 0.000000000000000000, 1.000000000000000000 ) ) ;
#757 = OBJECT_ROLE ('mandatory',$ ) ;
#758 = PRODUCT_DEFINITION_FORMATION_WITH_SPECIFIED_SOURCE ( '对称', '', #601, .NOT_KNOWN. ) ;
#759 = SHAPE_DEFINITION_REPRESENTATION ( #534, #247 ) ;
#760 = PRODUCT_DEFINITION_FORMATION_WITH_SPECIFIED_SOURCE ( '对称', '', #526, .NOT_KNOWN. ) ;
#761 = PRODUCT_DEFINITION_SHAPE ( 'NONE', 'NONE',  #296 ) ;
#762 = DIRECTION ( 'NONE',  ( 4.357119372951167794E-23, -1.215270286589014870E-22, 1.000000000000000000 ) ) ;
#763 = APPLIED_DOCUMENT_REFERENCE ( #911,'',( #2) ) ;
#764 = APPLICATION_PROTOCOL_DEFINITION ( 'draft international standard', 'automotive_design', 1998, #72 ) ;
#765 = EXTERNAL_SOURCE (IDENTIFIER('') ) ;
#766 = PROPERTY_DEFINITION ('external definition','', #92 ) ;
#767 = IDENTIFICATION_ROLE ( 'external document id and location', $) ;
#768 =( REPRESENTATION_RELATIONSHIP ('NONE','NONE', #93, #314 ) REPRESENTATION_RELATIONSHIP_WITH_TRANSFORMATION ( #514 )SHAPE_REPRESENTATION_RELATIONSHIP( ) );
#769 = DIRECTION ( 'NONE',  ( 0.000000000000000000, 0.000000000000000000, 1.000000000000000000 ) ) ;
#770 = ROLE_ASSOCIATION ( #199, #412 ) ;
#771 = PRODUCT_CONTEXT ( 'NONE', #525, 'mechanical' ) ;
#772 =( LENGTH_UNIT ( ) NAMED_UNIT ( * ) SI_UNIT ( .MILLI., .METRE. ) );
#773 = AXIS2_PLACEMENT_3D ( 'NONE', #886, #903, #261 ) ;
#774 = AXIS2_PLACEMENT_3D ( 'NONE', #651, #377, #663 ) ;
#775 = DIRECTION ( 'NONE',  ( -1.000000000000000000, 1.554827913914912454E-25, 3.619323948888764665E-15 ) ) ;
#776 = IDENTIFICATION_ROLE ( 'external document id and location', $) ;
#777 = PRODUCT_DEFINITION_SHAPE ( 'NONE', 'NONE',  #471 ) ;
#778 = DIRECTION ( 'NONE',  ( -0.007508542458985504979, -0.9999718104977467492, -2.040335724770977708E-24 ) ) ;
#779 =( NAMED_UNIT ( * ) PLANE_ANGLE_UNIT ( ) SI_UNIT ( $, .RADIAN. ) );
#780 = PRODUCT_DEFINITION_CONTEXT ( 'detailed design', #455, 'design' ) ;
#781 = UNCERTAINTY_MEASURE_WITH_UNIT (LENGTH_MEASURE( 1.000000000000000082E-05 ), #718, 'distance_accuracy_value', 'NONE');
#782 = UNCERTAINTY_MEASURE_WITH_UNIT (LENGTH_MEASURE( 1.000000000000000082E-05 ), #122, 'distance_accuracy_value', 'NONE');
#783 = DOCUMENT_TYPE ( 'geometry' ) ;
#784 = PROPERTY_DEFINITION_REPRESENTATION ( #303, #812 ) ;
#785 = APPLICATION_CONTEXT ( 'automotive_design' ) ;
#786 = SHAPE_DEFINITION_REPRESENTATION ( #392, #889 ) ;
#787 = CARTESIAN_POINT ( 'NONE',  ( 0.000000000000000000, 0.000000000000000000, 0.000000000000000000 ) ) ;
#788 = PROPERTY_DEFINITION ('document property','', #342 ) ;
#789 = ITEM_DEFINED_TRANSFORMATION ( 'NONE', 'NONE', #154,  #509 ) ;
#790 = EXTERNAL_SOURCE (IDENTIFIER('') ) ;
#791 = PRODUCT_CONTEXT ( 'NONE', #277, 'mechanical' ) ;
#792 = UNCERTAINTY_MEASURE_WITH_UNIT (LENGTH_MEASURE( 1.000000000000000082E-05 ), #424, 'distance_accuracy_value', 'NONE');
#793 = CARTESIAN_POINT ( 'NONE',  ( 17.98148599675432635, -17.09484443708604218, -26.50000000000000355 ) ) ;
#794 = APPLIED_DOCUMENT_REFERENCE ( #715,'',( #717) ) ;
#795 = PROPERTY_DEFINITION ('external definition','', #446 ) ;
#796 = PROPERTY_DEFINITION_REPRESENTATION ( #550, #281 ) ;
#797 = PRODUCT_DEFINITION ( '普通', '', #488, #845 ) ;
#798 = CARTESIAN_POINT ( 'NONE',  ( 16.00000000131835876, 6.102854721569307835E-09, -12.00000000000000000 ) ) ;
#799 = PROPERTY_DEFINITION_REPRESENTATION ( #410, #281 ) ;
#800 = PROPERTY_DEFINITION ('document property','', #335 ) ;
#801 = APPLIED_EXTERNAL_IDENTIFICATION_ASSIGNMENT ( 'LQ26-05HGI-01-007.STEP' , #70, #95,( #329) ) ;
#802 = OBJECT_ROLE ('mandatory',$ ) ;
#803 = ROLE_ASSOCIATION ( #448, #148 ) ;
#804 = APPLIED_DOCUMENT_REFERENCE ( #231,'',( #471) ) ;
#805 =( GEOMETRIC_REPRESENTATION_CONTEXT ( 3 ) GLOBAL_UNCERTAINTY_ASSIGNED_CONTEXT ( ( #217 ) ) GLOBAL_UNIT_ASSIGNED_CONTEXT ( ( #131, #43, #311 ) ) REPRESENTATION_CONTEXT ( 'NONE', 'WORKASPACE' ) );
#806 = AXIS2_PLACEMENT_3D ( 'NONE', #873, #224, #513 ) ;
#807 = EXTERNAL_SOURCE (IDENTIFIER('') ) ;
#808 = APPLIED_EXTERNAL_IDENTIFICATION_ASSIGNMENT ( 'LQ26-05HGI-01-016.STEP' , #379, #210,( #330) ) ;
#809 = DIRECTION ( 'NONE',  ( 0.000000000000000000, 0.000000000000000000, 1.000000000000000000 ) ) ;
#810 = PRODUCT_DEFINITION_SHAPE ( 'NONE', 'NONE',  #363 ) ;
#811 = IDENTIFICATION_ROLE ( 'external document id and location', $) ;
#812 = SHAPE_REPRESENTATION ( 'LQ26-05HGI-01-015', ( #341 ), #683 ) ;
#813 = PROPERTY_DEFINITION_REPRESENTATION ( #632, #889 ) ;
#814 = DOCUMENT_TYPE ( 'geometry' ) ;
#815 = APPLIED_EXTERNAL_IDENTIFICATION_ASSIGNMENT ( 'LQ26-05HGI-01-010.STEP' , #614, #350,( #137) ) ;
#816 = PROPERTY_DEFINITION ('document property','', #181 ) ;
#817 = ROLE_ASSOCIATION ( #599, #390 ) ;
#818 = PRODUCT ( 'LQ26-05HGI-01-002', 'LQ26-05HGI-01-002', '', ( #858 ) ) ;
#819 = PRODUCT_DEFINITION ( '普通', '', #737, #423 ) ;
#820 =( REPRESENTATION_RELATIONSHIP ('NONE','NONE', #93, #368 ) REPRESENTATION_RELATIONSHIP_WITH_TRANSFORMATION ( #789 )SHAPE_REPRESENTATION_RELATIONSHIP( ) );
#821 =( NAMED_UNIT ( * ) SI_UNIT ( $, .STERADIAN. ) SOLID_ANGLE_UNIT ( ) );
#822 = ROLE_ASSOCIATION ( #273, #536 ) ;
#823 = PRODUCT_DEFINITION_SHAPE ( 'NONE', 'NONE',  #931 ) ;
#824 = PRODUCT ( 'LQ26-05HGI-01-010', 'LQ26-05HGI-01-010', '', ( #771 ) ) ;
#825 = PRODUCT_DEFINITION_CONTEXT ( 'detailed design', #478, 'design' ) ;
#826 = PROPERTY_DEFINITION_REPRESENTATION ( #677, #247 ) ;
#827 = APPLICATION_PROTOCOL_DEFINITION ( 'draft international standard', 'automotive_design', 1998, #26 ) ;
#828 =( NAMED_UNIT ( * ) SI_UNIT ( $, .STERADIAN. ) SOLID_ANGLE_UNIT ( ) );
#829 = IDENTIFICATION_ROLE ( 'external document id and location', $) ;
#830 = AXIS2_PLACEMENT_3D ( 'NONE', #861, #66, #196 ) ;
#831 = PRODUCT_RELATED_PRODUCT_CATEGORY ( 'part', '', ( #182 ) ) ;
#832 = DIRECTION ( 'NONE',  ( 1.000000000000000000, 0.000000000000000000, 0.000000000000000000 ) ) ;
#833 = EXTERNAL_SOURCE (IDENTIFIER('') ) ;
#834 = APPLICATION_PROTOCOL_DEFINITION ( 'draft international standard', 'automotive_design', 1998, #741 ) ;
#835 = PRODUCT_DEFINITION_SHAPE ( 'NONE', 'NONE',  #127 ) ;
#836 = DIRECTION ( 'NONE',  ( 3.752708449923782316E-22, 1.148771149971674002E-22, 1.000000000000000000 ) ) ;
#837 = CONTEXT_DEPENDENT_SHAPE_REPRESENTATION ( #115, #823 ) ;
#838 = PRODUCT_CONTEXT ( 'NONE', #116, 'mechanical' ) ;
#839 =( NAMED_UNIT ( * ) SI_UNIT ( $, .STERADIAN. ) SOLID_ANGLE_UNIT ( ) );
#840 = PRODUCT_DEFINITION_CONTEXT ( 'detailed design', #373, 'design' ) ;
#841 = DIRECTION ( 'NONE',  ( 0.000000000000000000, 0.000000000000000000, 1.000000000000000000 ) ) ;
#842 = PROPERTY_DEFINITION_REPRESENTATION ( #662, #618 ) ;
#843 = PRODUCT_DEFINITION_SHAPE ( 'NONE', 'NONE',  #924 ) ;
#844 = APPLIED_EXTERNAL_IDENTIFICATION_ASSIGNMENT ( 'LQ26-05HGI-01-010.STEP' , #671, #603,( #915) ) ;
#845 = PRODUCT_DEFINITION_CONTEXT ( 'detailed design', #605, 'design' ) ;
#846 = UNCERTAINTY_MEASURE_WITH_UNIT (LENGTH_MEASURE( 1.000000000000000082E-05 ), #530, 'distance_accuracy_value', 'NONE');
#847 =( REPRESENTATION_RELATIONSHIP ('NONE','NONE', #93, #618 ) REPRESENTATION_RELATIONSHIP_WITH_TRANSFORMATION ( #41 )SHAPE_REPRESENTATION_RELATIONSHIP( ) );
#848 = CARTESIAN_POINT ( 'NONE',  ( 39.92714970450949608, -1.028320195050680619, -15.94999999999999929 ) ) ;
#849 = CONTEXT_DEPENDENT_SHAPE_REPRESENTATION ( #458, #223 ) ;
#850 =( GEOMETRIC_REPRESENTATION_CONTEXT ( 3 ) GLOBAL_UNCERTAINTY_ASSIGNED_CONTEXT ( ( #426 ) ) GLOBAL_UNIT_ASSIGNED_CONTEXT ( ( #674, #17, #470 ) ) REPRESENTATION_CONTEXT ( 'NONE', 'WORKASPACE' ) );
#851 = OBJECT_ROLE ('mandatory',$ ) ;
#852 = APPLICATION_PROTOCOL_DEFINITION ( 'draft international standard', 'automotive_design', 1998, #723 ) ;
#853 =( GEOMETRIC_REPRESENTATION_CONTEXT ( 3 ) GLOBAL_UNCERTAINTY_ASSIGNED_CONTEXT ( ( #519 ) ) GLOBAL_UNIT_ASSIGNED_CONTEXT ( ( #161, #326, #380 ) ) REPRESENTATION_CONTEXT ( 'NONE', 'WORKASPACE' ) );
#854 = PRODUCT_DEFINITION_FORMATION_WITH_SPECIFIED_SOURCE ( '对称', '', #901, .NOT_KNOWN. ) ;
#855 =( NAMED_UNIT ( * ) PLANE_ANGLE_UNIT ( ) SI_UNIT ( $, .RADIAN. ) );
#856 = PRODUCT_DEFINITION ( '普通', '', #758, #780 ) ;
#857 = PRODUCT_DEFINITION_SHAPE ( 'NONE', 'NONE',  #940 ) ;
#858 = PRODUCT_CONTEXT ( 'NONE', #136, 'mechanical' ) ;
#859 = IDENTIFICATION_ROLE ( 'external document id and location', $) ;
#860 =( NAMED_UNIT ( * ) SI_UNIT ( $, .STERADIAN. ) SOLID_ANGLE_UNIT ( ) );
#861 = CARTESIAN_POINT ( 'NONE',  ( 19.70722614454107102, -10.27078395788415754, 3.857395789194401097E-14 ) ) ;
#862 = ROLE_ASSOCIATION ( #736, #53 ) ;
#863 = PROPERTY_DEFINITION_REPRESENTATION ( #332, #195 ) ;
#864 =( NAMED_UNIT ( * ) PLANE_ANGLE_UNIT ( ) SI_UNIT ( $, .RADIAN. ) );
#865 = PROPERTY_DEFINITION ('document property','', #900 ) ;
#866 =( NAMED_UNIT ( * ) SI_UNIT ( $, .STERADIAN. ) SOLID_ANGLE_UNIT ( ) );
#867 = IDENTIFICATION_ROLE ( 'external document id and location', $) ;
#868 = DOCUMENT_TYPE ( 'geometry' ) ;
#869 = CARTESIAN_POINT ( 'NONE',  ( 52.00000000243422704, 66.02205247227477969, 1.489607053977379048E-16 ) ) ;
#870 = ITEM_DEFINED_TRANSFORMATION ( 'NONE', 'NONE', #451,  #598 ) ;
#871 = CARTESIAN_POINT ( 'NONE',  ( 0.000000000000000000, 0.000000000000000000, 0.000000000000000000 ) ) ;
#872 = DOCUMENT_TYPE ( 'geometry' ) ;
#873 = CARTESIAN_POINT ( 'NONE',  ( -52.00000000503246866, 66.02205246957335305, -5.296575659301177239E-14 ) ) ;
#874 = PROPERTY_DEFINITION_REPRESENTATION ( #740, #626 ) ;
#875 = APPLICATION_CONTEXT ( 'automotive_design' ) ;
#876 = PROPERTY_DEFINITION ('external definition','', #900 ) ;
#877 = CONTEXT_DEPENDENT_SHAPE_REPRESENTATION ( #469, #473 ) ;
#878 = CONTEXT_DEPENDENT_SHAPE_REPRESENTATION ( #316, #174 ) ;
#879 = PROPERTY_DEFINITION ('document property','', #461 ) ;
#880 =( NAMED_UNIT ( * ) SI_UNIT ( $, .STERADIAN. ) SOLID_ANGLE_UNIT ( ) );
#881 = PRODUCT_DEFINITION_FORMATION_WITH_SPECIFIED_SOURCE ( '对称', '', #401, .NOT_KNOWN. ) ;
#882 = IDENTIFICATION_ROLE ( 'external document id and location', $) ;
#883 = PRODUCT_RELATED_PRODUCT_CATEGORY ( 'part', '', ( #526 ) ) ;
#884 = SHAPE_REPRESENTATION ( 'LQ26-05HGI-01-009', ( #8 ), #747 ) ;
#885 = PROPERTY_DEFINITION_REPRESENTATION ( #278, #750 ) ;
#886 = CARTESIAN_POINT ( 'NONE',  ( 0.000000000000000000, 0.000000000000000000, 0.000000000000000000 ) ) ;
#887 = EXTERNAL_SOURCE (IDENTIFIER('') ) ;
#888 = APPLIED_DOCUMENT_REFERENCE ( #329,'',( #856) ) ;
#889 = SHAPE_REPRESENTATION ( 'LQ26-05HGI-01-002', ( #340 ), #213 ) ;
#890 = PRODUCT ( 'LQ26-05HGI-01-017', 'LQ26-05HGI-01-017', '', ( #838 ) ) ;
#891 = PROPERTY_DEFINITION_REPRESENTATION ( #189, #699 ) ;
#892 = PRODUCT_RELATED_PRODUCT_CATEGORY ( 'part', '', ( #901 ) ) ;
#893 = DIRECTION ( 'NONE',  ( 0.000000000000000000, 0.000000000000000000, 1.000000000000000000 ) ) ;
#894 = SHAPE_DEFINITION_REPRESENTATION ( #348, #271 ) ;
#895 = AXIS2_PLACEMENT_3D ( 'NONE', #492, #60, #561 ) ;
#896 = CONTEXT_DEPENDENT_SHAPE_REPRESENTATION ( #100, #215 ) ;
#897 = EXTERNAL_SOURCE (IDENTIFIER('') ) ;
#898 = PRODUCT ( 'LQ26-05HGI-01-006', 'LQ26-05HGI-01-006', '', ( #520 ) ) ;
#899 = OBJECT_ROLE ('mandatory',$ ) ;
#900 = DOCUMENT_FILE ( 'LQ26-05HGI-01-015.STEP' , '', '', #9, '' ,$ ) ;
#901 = PRODUCT ( 'LQ26-05HGI-01-008', 'LQ26-05HGI-01-008', '', ( #284 ) ) ;
#902 = ROLE_ASSOCIATION ( #528, #763 ) ;
#903 = DIRECTION ( 'NONE',  ( 0.000000000000000000, 0.000000000000000000, 1.000000000000000000 ) ) ;
#904 = APPLICATION_PROTOCOL_DEFINITION ( 'draft international standard', 'automotive_design', 1998, #97 ) ;
#905 = DOCUMENT_TYPE ( 'geometry' ) ;
#906 =( GEOMETRIC_REPRESENTATION_CONTEXT ( 3 ) GLOBAL_UNCERTAINTY_ASSIGNED_CONTEXT ( ( #279 ) ) GLOBAL_UNIT_ASSIGNED_CONTEXT ( ( #96, #395, #821 ) ) REPRESENTATION_CONTEXT ( 'NONE', 'WORKASPACE' ) );
#907 = APPLICATION_PROTOCOL_DEFINITION ( 'draft international standard', 'automotive_design', 1998, #168 ) ;
#908 = PRODUCT_DEFINITION_SHAPE ( 'NONE', 'NONE',  #819 ) ;
#909 =( REPRESENTATION_RELATIONSHIP ('NONE','NONE', #93, #733 ) REPRESENTATION_RELATIONSHIP_WITH_TRANSFORMATION ( #415 )SHAPE_REPRESENTATION_RELATIONSHIP( ) );
#910 = DIRECTION ( 'NONE',  ( -1.000000000000000000, -2.502555726921982817E-11, 7.732952238985075257E-24 ) ) ;
#911 = DOCUMENT_FILE ( 'LQ26-05HGI-01-009.STEP' , '', '', #13, '' ,$ ) ;
#912 = APPLICATION_CONTEXT ( 'automotive_design' ) ;
#913 = SHAPE_DEFINITION_REPRESENTATION ( #416, #65 ) ;
#914 = DIRECTION ( 'NONE',  ( 0.6846563426729035395, -0.7288660318863571241, 1.441727283166247225E-15 ) ) ;
#915 = DOCUMENT_FILE ( 'LQ26-05HGI-01-010.STEP' , '', '', #727, '' ,$ ) ;
#916 = PRODUCT_DEFINITION_SHAPE ( 'NONE', 'NONE',  #921 ) ;
#917 = APPLIED_EXTERNAL_IDENTIFICATION_ASSIGNMENT ( 'LQ26-05HGI-01-009.STEP' , #318, #4,( #911) ) ;
#918 = APPLICATION_CONTEXT ( 'automotive_design' ) ;
#919 = NEXT_ASSEMBLY_USAGE_OCCURRENCE ( 'NAUO4', ' ', ' ', #296, #471, $ ) ;
#920 = NEXT_ASSEMBLY_USAGE_OCCURRENCE ( 'NAUO5', ' ', ' ', #296, #127, $ ) ;
#921 = NEXT_ASSEMBLY_USAGE_OCCURRENCE ( 'NAUO6', ' ', ' ', #296, #499, $ ) ;
#922 = NEXT_ASSEMBLY_USAGE_OCCURRENCE ( 'NAUO7', ' ', ' ', #296, #471, $ ) ;
#923 = NEXT_ASSEMBLY_USAGE_OCCURRENCE ( 'NAUO8', ' ', ' ', #296, #647, $ ) ;
#924 = NEXT_ASSEMBLY_USAGE_OCCURRENCE ( 'NAUO9', ' ', ' ', #296, #29, $ ) ;
#925 = NEXT_ASSEMBLY_USAGE_OCCURRENCE ( 'NAUO10', ' ', ' ', #296, #29, $ ) ;
#926 = NEXT_ASSEMBLY_USAGE_OCCURRENCE ( 'NAUO11', ' ', ' ', #296, #140, $ ) ;
#927 = NEXT_ASSEMBLY_USAGE_OCCURRENCE ( 'NAUO12', ' ', ' ', #296, #2, $ ) ;
#928 = NEXT_ASSEMBLY_USAGE_OCCURRENCE ( 'NAUO13', ' ', ' ', #296, #856, $ ) ;
#929 = NEXT_ASSEMBLY_USAGE_OCCURRENCE ( 'NAUO14', ' ', ' ', #296, #661, $ ) ;
#930 = NEXT_ASSEMBLY_USAGE_OCCURRENCE ( 'NAUO15', ' ', ' ', #296, #2, $ ) ;
#931 = NEXT_ASSEMBLY_USAGE_OCCURRENCE ( 'NAUO16', ' ', ' ', #296, #819, $ ) ;
#932 = NEXT_ASSEMBLY_USAGE_OCCURRENCE ( 'NAUO17', ' ', ' ', #296, #163, $ ) ;
#933 = NEXT_ASSEMBLY_USAGE_OCCURRENCE ( 'NAUO18', ' ', ' ', #296, #661, $ ) ;
#934 = NEXT_ASSEMBLY_USAGE_OCCURRENCE ( 'NAUO19', ' ', ' ', #296, #622, $ ) ;
#935 = NEXT_ASSEMBLY_USAGE_OCCURRENCE ( 'NAUO20', ' ', ' ', #296, #717, $ ) ;
#936 = NEXT_ASSEMBLY_USAGE_OCCURRENCE ( 'NAUO21', ' ', ' ', #296, #363, $ ) ;
#937 = NEXT_ASSEMBLY_USAGE_OCCURRENCE ( 'NAUO22', ' ', ' ', #296, #819, $ ) ;
#938 = NEXT_ASSEMBLY_USAGE_OCCURRENCE ( 'NAUO23', ' ', ' ', #296, #363, $ ) ;
#939 = NEXT_ASSEMBLY_USAGE_OCCURRENCE ( 'NAUO24', ' ', ' ', #296, #717, $ ) ;
#940 = NEXT_ASSEMBLY_USAGE_OCCURRENCE ( 'NAUO25', ' ', ' ', #296, #39, $ ) ;
#941 = NEXT_ASSEMBLY_USAGE_OCCURRENCE ( 'NAUO26', ' ', ' ', #296, #797, $ ) ;
#942 = NEXT_ASSEMBLY_USAGE_OCCURRENCE ( 'NAUO27', ' ', ' ', #296, #732, $ ) ;
#943 = NEXT_ASSEMBLY_USAGE_OCCURRENCE ( 'NAUO28', ' ', ' ', #296, #755, $ ) ;
ENDSEC;
END-ISO-10303-21;
