ISO-10303-21;
HEADER;
FILE_DESCRIPTION (( 'STEP AP214' ),
    '1' );
FILE_NAME ('LQ26-05HGI-01-011.STEP',
    '2026-05-07T08:55:12',
    ( '' ),
    ( '' ),
    'SwSTEP 2.0',
    'SolidWorks 2025',
    '' );
FILE_SCHEMA (( 'AUTOMOTIVE_DESIGN' ));
ENDSEC;

DATA;
#1 = DIRECTION ( 'NONE',  ( 0.000000000000000000, 0.000000000000000000, 1.000000000000000000 ) ) ;
#2 = PRODUCT_DEFINITION ( '普通', '', #276, #307 ) ;
#3 = ORIENTED_EDGE ( 'NONE', *, *, #241, .F. ) ;
#4 = CARTESIAN_POINT ( 'NONE',  ( 5.000000000000000000, 1.714505518806294441E-15, 2.399999999999999911 ) ) ;
#5 = EDGE_LOOP ( 'NONE', ( #350, #121, #182, #62 ) ) ;
#6 = AXIS2_PLACEMENT_3D ( 'NONE', #351, #163, #161 ) ;
#7 = ORIENTED_EDGE ( 'NONE', *, *, #43, .T. ) ;
#8 = ORIENTED_EDGE ( 'NONE', *, *, #192, .T. ) ;
#9 = ORIENTED_EDGE ( 'NONE', *, *, #90, .T. ) ;
#10 = AXIS2_PLACEMENT_3D ( 'NONE', #97, #321, #203 ) ;
#11 = ORIENTED_EDGE ( 'NONE', *, *, #269, .T. ) ;
#12 = FACE_OUTER_BOUND ( 'NONE', #25, .T. ) ;
#13 = EDGE_CURVE ( 'NONE', #342, #293, #133, .T. ) ;
#14 = CARTESIAN_POINT ( 'NONE',  ( 5.000000000000000000, 1.714505518806294441E-15, 2.399999999999999911 ) ) ;
#15 = AXIS2_PLACEMENT_3D ( 'NONE', #249, #367, #309 ) ;
#16 = CARTESIAN_POINT ( 'NONE',  ( 2.950000000000000622, 1.714505518806294441E-15, -2.399999999999999911 ) ) ;
#17 = EDGE_CURVE ( 'NONE', #271, #353, #238, .T. ) ;
#18 = CARTESIAN_POINT ( 'NONE',  ( -4.999999999999998224, -4.000000000000001776, 2.399999999999999911 ) ) ;
#19 = APPLICATION_CONTEXT ( 'automotive_design' ) ;
#20 = DIRECTION ( 'NONE',  ( -0.000000000000000000, -0.000000000000000000, -1.000000000000000000 ) ) ;
#21 = DIRECTION ( 'NONE',  ( -0.000000000000000000, -0.000000000000000000, -1.000000000000000000 ) ) ;
#22 =( GEOMETRIC_REPRESENTATION_CONTEXT ( 3 ) GLOBAL_UNCERTAINTY_ASSIGNED_CONTEXT ( ( #85 ) ) GLOBAL_UNIT_ASSIGNED_CONTEXT ( ( #46, #50, #55 ) ) REPRESENTATION_CONTEXT ( 'NONE', 'WORKASPACE' ) );
#23 = CIRCLE ( 'NONE', #151, 4.000000000000000000 ) ;
#24 = LINE ( 'NONE', #228, #364 ) ;
#25 = EDGE_LOOP ( 'NONE', ( #68, #150, #252, #105, #287 ) ) ;
#26 = DIRECTION ( 'NONE',  ( -0.000000000000000000, -0.000000000000000000, -1.000000000000000000 ) ) ;
#27 = ORIENTED_EDGE ( 'NONE', *, *, #211, .T. ) ;
#28 =( LENGTH_UNIT ( ) NAMED_UNIT ( * ) SI_UNIT ( .MILLI., .METRE. ) );
#29 = DIRECTION ( 'NONE',  ( 1.000000000000000000, 0.000000000000000000, 0.000000000000000000 ) ) ;
#30 = VECTOR ( 'NONE', #268, 1000.000000000000000 ) ;
#31 = COLOUR_RGB ( '',0.7921568627450980005, 0.8196078431372548767, 0.9333333333333333481 ) ;
#32 = ORIENTED_EDGE ( 'NONE', *, *, #187, .T. ) ;
#33 = ORIENTED_EDGE ( 'NONE', *, *, #361, .T. ) ;
#34 = DIRECTION ( 'NONE',  ( -0.000000000000000000, -0.000000000000000000, -1.000000000000000000 ) ) ;
#35 = ORIENTED_EDGE ( 'NONE', *, *, #66, .F. ) ;
#36 = DIRECTION ( 'NONE',  ( 1.000000000000000000, 0.000000000000000000, -0.000000000000000000 ) ) ;
#37 = PRODUCT_RELATED_PRODUCT_CATEGORY ( 'part', '', ( #336 ) ) ;
#38 = SHAPE_DEFINITION_REPRESENTATION ( #359, #335 ) ;
#39 = FACE_OUTER_BOUND ( 'NONE', #5, .T. ) ;
#40 = DIRECTION ( 'NONE',  ( 0.000000000000000000, 0.000000000000000000, 1.000000000000000000 ) ) ;
#41 = CARTESIAN_POINT ( 'NONE',  ( 5.000000000000000000, -3.999999999999998224, 2.399999999999999911 ) ) ;
#42 = AXIS2_PLACEMENT_3D ( 'NONE', #181, #232, #63 ) ;
#43 = EDGE_CURVE ( 'NONE', #205, #285, #23, .T. ) ;
#44 = PLANE ( 'NONE',  #235 ) ;
#45 = DIRECTION ( 'NONE',  ( -1.000000000000000000, 0.000000000000000000, 0.000000000000000000 ) ) ;
#46 =( LENGTH_UNIT ( ) NAMED_UNIT ( * ) SI_UNIT ( .MILLI., .METRE. ) );
#47 = EDGE_CURVE ( 'NONE', #229, #371, #355, .T. ) ;
#48 = CIRCLE ( 'NONE', #253, 2.049999999999998934 ) ;
#49 = AXIS2_PLACEMENT_3D ( 'NONE', #14, #109, #362 ) ;
#50 =( NAMED_UNIT ( * ) PLANE_ANGLE_UNIT ( ) SI_UNIT ( $, .RADIAN. ) );
#51 = CARTESIAN_POINT ( 'NONE',  ( -9.000000000000001776, -1.347111479062088405E-15, -2.399999999999999911 ) ) ;
#52 = PRESENTATION_STYLE_ASSIGNMENT (( #280 ) ) ;
#53 = CYLINDRICAL_SURFACE ( 'NONE', #15, 4.000000000000000888 ) ;
#54 = CIRCLE ( 'NONE', #216, 2.049999999999999822 ) ;
#55 =( NAMED_UNIT ( * ) SI_UNIT ( $, .STERADIAN. ) SOLID_ANGLE_UNIT ( ) );
#56 = VERTEX_POINT ( 'NONE', #183 ) ;
#57 = CARTESIAN_POINT ( 'NONE',  ( -5.000000000000000000, -1.347111479062088405E-15, 2.399999999999999911 ) ) ;
#58 = EDGE_LOOP ( 'NONE', ( #237, #91, #319, #322 ) ) ;
#59 = EDGE_CURVE ( 'NONE', #65, #234, #104, .T. ) ;
#60 = CARTESIAN_POINT ( 'NONE',  ( 5.000000000000000000, -3.999999999999998224, -2.399999999999999911 ) ) ;
#61 = AXIS2_PLACEMENT_3D ( 'NONE', #173, #84, #286 ) ;
#62 = ORIENTED_EDGE ( 'NONE', *, *, #114, .T. ) ;
#63 = DIRECTION ( 'NONE',  ( 1.000000000000000000, 0.000000000000000000, 0.000000000000000000 ) ) ;
#64 = DIRECTION ( 'NONE',  ( 1.000000000000000000, 0.000000000000000000, 0.000000000000000000 ) ) ;
#65 = VERTEX_POINT ( 'NONE', #75 ) ;
#66 = EDGE_CURVE ( 'NONE', #257, #174, #327, .T. ) ;
#67 = FACE_OUTER_BOUND ( 'NONE', #223, .T. ) ;
#68 = ORIENTED_EDGE ( 'NONE', *, *, #192, .F. ) ;
#69 = PRODUCT_CONTEXT ( 'NONE', #264, 'mechanical' ) ;
#70 = CARTESIAN_POINT ( 'NONE',  ( 4.999999999999997335, 4.000000000000001776, 2.399999999999999911 ) ) ;
#71 = AXIS2_PLACEMENT_3D ( 'NONE', #57, #306, #86 ) ;
#72 = EDGE_LOOP ( 'NONE', ( #346, #33 ) ) ;
#73 = DIRECTION ( 'NONE',  ( -1.000000000000000000, -3.469446951953614682E-16, 0.000000000000000000 ) ) ;
#74 = ADVANCED_FACE ( 'NONE', ( #39 ), #44, .F. ) ;
#75 = CARTESIAN_POINT ( 'NONE',  ( 2.950000000000000622, 1.714505518806294441E-15, 2.399999999999999911 ) ) ;
#76 = CIRCLE ( 'NONE', #289, 2.049999999999999822 ) ;
#77 = PLANE ( 'NONE',  #348 ) ;
#78 = EDGE_CURVE ( 'NONE', #100, #262, #303, .T. ) ;
#79 = CARTESIAN_POINT ( 'NONE',  ( 5.000000000000000000, 1.714505518806294441E-15, -2.399999999999999911 ) ) ;
#80 = CARTESIAN_POINT ( 'NONE',  ( 7.049999999999998934, 1.965558112631501810E-15, -2.399999999999999911 ) ) ;
#81 = DIRECTION ( 'NONE',  ( 1.000000000000000000, 0.000000000000000000, 0.000000000000000000 ) ) ;
#82 = CARTESIAN_POINT ( 'NONE',  ( -5.000000000000000000, -1.347111479062088405E-15, -2.399999999999999911 ) ) ;
#83 = ADVANCED_FACE ( 'NONE', ( #12, #162, #138 ), #208, .F. ) ;
#84 = DIRECTION ( 'NONE',  ( 3.469446951953615175E-16, -1.000000000000000000, 0.000000000000000000 ) ) ;
#85 = UNCERTAINTY_MEASURE_WITH_UNIT (LENGTH_MEASURE( 1.000000000000000082E-05 ), #46, 'distance_accuracy_value', 'NONE');
#86 = DIRECTION ( 'NONE',  ( 1.000000000000000000, 0.000000000000000000, 0.000000000000000000 ) ) ;
#87 = CIRCLE ( 'NONE', #141, 4.000000000000000888 ) ;
#88 = ORIENTED_EDGE ( 'NONE', *, *, #96, .T. ) ;
#89 = FACE_OUTER_BOUND ( 'NONE', #259, .T. ) ;
#90 = EDGE_CURVE ( 'NONE', #323, #271, #54, .T. ) ;
#91 = ORIENTED_EDGE ( 'NONE', *, *, #347, .T. ) ;
#92 = DIRECTION ( 'NONE',  ( -1.000000000000000000, 0.000000000000000000, 0.000000000000000000 ) ) ;
#93 = ORIENTED_EDGE ( 'NONE', *, *, #298, .T. ) ;
#94 = CARTESIAN_POINT ( 'NONE',  ( -5.000000000000000000, -1.347111479062088405E-15, 2.399999999999999911 ) ) ;
#95 = EDGE_LOOP ( 'NONE', ( #3, #300, #149, #202 ) ) ;
#96 = EDGE_CURVE ( 'NONE', #174, #205, #158, .T. ) ;
#97 = CARTESIAN_POINT ( 'NONE',  ( -5.000000000000000000, -1.347111479062088405E-15, -2.399999999999999911 ) ) ;
#98 = ORIENTED_EDGE ( 'NONE', *, *, #326, .F. ) ;
#99 = APPLICATION_PROTOCOL_DEFINITION ( 'draft international standard', 'automotive_design', 1998, #19 ) ;
#100 = VERTEX_POINT ( 'NONE', #115 ) ;
#101 = DIRECTION ( 'NONE',  ( -0.000000000000000000, -0.000000000000000000, -1.000000000000000000 ) ) ;
#102 = VECTOR ( 'NONE', #106, 1000.000000000000000 ) ;
#103 = VECTOR ( 'NONE', #21, 1000.000000000000000 ) ;
#104 = LINE ( 'NONE', #357, #324 ) ;
#105 = ORIENTED_EDGE ( 'NONE', *, *, #96, .F. ) ;
#106 = DIRECTION ( 'NONE',  ( -0.000000000000000000, -0.000000000000000000, -1.000000000000000000 ) ) ;
#107 = CIRCLE ( 'NONE', #316, 2.049999999999998934 ) ;
#108 = EDGE_CURVE ( 'NONE', #100, #205, #277, .T. ) ;
#109 = DIRECTION ( 'NONE',  ( -0.000000000000000000, -0.000000000000000000, -1.000000000000000000 ) ) ;
#110 = DIRECTION ( 'NONE',  ( 0.000000000000000000, 0.000000000000000000, 1.000000000000000000 ) ) ;
#111 = CARTESIAN_POINT ( 'NONE',  ( -7.049999999999999822, -1.347111479062088405E-15, 2.399999999999999911 ) ) ;
#112 =( GEOMETRIC_REPRESENTATION_CONTEXT ( 3 ) GLOBAL_UNCERTAINTY_ASSIGNED_CONTEXT ( ( #219 ) ) GLOBAL_UNIT_ASSIGNED_CONTEXT ( ( #28, #288, #131 ) ) REPRESENTATION_CONTEXT ( 'NONE', 'WORKASPACE' ) );
#113 = CARTESIAN_POINT ( 'NONE',  ( 5.000000000000000000, 1.714505518806294441E-15, 2.399999999999999911 ) ) ;
#114 = EDGE_CURVE ( 'NONE', #262, #285, #244, .T. ) ;
#115 = CARTESIAN_POINT ( 'NONE',  ( -9.000000000000001776, -1.347111479062088405E-15, 2.399999999999999911 ) ) ;
#116 = DIRECTION ( 'NONE',  ( -1.000000000000000000, -3.469446951953615175E-16, 0.000000000000000000 ) ) ;
#117 = EDGE_LOOP ( 'NONE', ( #209, #177 ) ) ;
#118 = ADVANCED_FACE ( 'NONE', ( #360 ), #147, .F. ) ;
#119 = CARTESIAN_POINT ( 'NONE',  ( 5.000000000000000000, -3.999999999999998224, 2.399999999999999911 ) ) ;
#120 = AXIS2_PLACEMENT_3D ( 'NONE', #260, #344, #159 ) ;
#121 = ORIENTED_EDGE ( 'NONE', *, *, #13, .F. ) ;
#122 = CARTESIAN_POINT ( 'NONE',  ( 5.000000000000000000, 1.714505518806294441E-15, 2.399999999999999911 ) ) ;
#123 = ORIENTED_EDGE ( 'NONE', *, *, #78, .F. ) ;
#124 = APPLICATION_PROTOCOL_DEFINITION ( 'draft international standard', 'automotive_design', 1998, #264 ) ;
#125 = CYLINDRICAL_SURFACE ( 'NONE', #308, 2.049999999999999378 ) ;
#126 = CARTESIAN_POINT ( 'NONE',  ( 5.000000000000000000, 1.714505518806294441E-15, 2.399999999999999911 ) ) ;
#127 = AXIS2_PLACEMENT_3D ( 'NONE', #196, #312, #292 ) ;
#128 = ORIENTED_EDGE ( 'NONE', *, *, #241, .T. ) ;
#129 = VECTOR ( 'NONE', #132, 1000.000000000000000 ) ;
#130 = EDGE_CURVE ( 'NONE', #342, #229, #87, .T. ) ;
#131 =( NAMED_UNIT ( * ) SI_UNIT ( $, .STERADIAN. ) SOLID_ANGLE_UNIT ( ) );
#132 = DIRECTION ( 'NONE',  ( -0.000000000000000000, -0.000000000000000000, -1.000000000000000000 ) ) ;
#133 = LINE ( 'NONE', #180, #102 ) ;
#134 = EDGE_LOOP ( 'NONE', ( #123, #299, #7, #343 ) ) ;
#135 = VECTOR ( 'NONE', #217, 1000.000000000000000 ) ;
#136 = AXIS2_PLACEMENT_3D ( 'NONE', #331, #110, #337 ) ;
#137 = ORIENTED_EDGE ( 'NONE', *, *, #326, .T. ) ;
#138 = FACE_BOUND ( 'NONE', #368, .T. ) ;
#139 = ADVANCED_FACE ( 'NONE', ( #245 ), #365, .F. ) ;
#140 = DIRECTION ( 'NONE',  ( 0.000000000000000000, 0.000000000000000000, 1.000000000000000000 ) ) ;
#141 = AXIS2_PLACEMENT_3D ( 'NONE', #113, #304, #273 ) ;
#142 = AXIS2_PLACEMENT_3D ( 'NONE', #122, #26, #92 ) ;
#143 = SURFACE_SIDE_STYLE ('',( #305 ) ) ;
#144 = DIRECTION ( 'NONE',  ( 1.000000000000000000, 0.000000000000000000, 0.000000000000000000 ) ) ;
#145 = LINE ( 'NONE', #363, #135 ) ;
#146 = MECHANICAL_DESIGN_GEOMETRIC_PRESENTATION_REPRESENTATION (  '', ( #246 ), #22 ) ;
#147 = CYLINDRICAL_SURFACE ( 'NONE', #295, 2.049999999999999822 ) ;
#148 = CARTESIAN_POINT ( 'NONE',  ( 4.999999999999997335, 4.000000000000001776, -2.399999999999999911 ) ) ;
#149 = ORIENTED_EDGE ( 'NONE', *, *, #59, .T. ) ;
#150 = ORIENTED_EDGE ( 'NONE', *, *, #301, .F. ) ;
#151 = AXIS2_PLACEMENT_3D ( 'NONE', #212, #210, #272 ) ;
#152 = EDGE_LOOP ( 'NONE', ( #179, #313 ) ) ;
#153 = EDGE_LOOP ( 'NONE', ( #231, #199, #137, #311, #221 ) ) ;
#154 = CYLINDRICAL_SURFACE ( 'NONE', #142, 4.000000000000000000 ) ;
#155 = VERTEX_POINT ( 'NONE', #214 ) ;
#156 = VECTOR ( 'NONE', #198, 1000.000000000000000 ) ;
#157 = DIRECTION ( 'NONE',  ( 1.000000000000000000, 0.000000000000000000, 0.000000000000000000 ) ) ;
#158 = CIRCLE ( 'NONE', #317, 4.000000000000000000 ) ;
#159 = DIRECTION ( 'NONE',  ( -1.000000000000000000, 0.000000000000000000, 0.000000000000000000 ) ) ;
#160 = DIRECTION ( 'NONE',  ( 0.000000000000000000, 0.000000000000000000, 1.000000000000000000 ) ) ;
#161 = DIRECTION ( 'NONE',  ( 1.000000000000000000, 0.000000000000000000, 0.000000000000000000 ) ) ;
#162 = FACE_BOUND ( 'NONE', #72, .T. ) ;
#163 = DIRECTION ( 'NONE',  ( 0.000000000000000000, 0.000000000000000000, 1.000000000000000000 ) ) ;
#164 = LINE ( 'NONE', #111, #206 ) ;
#165 = AXIS2_PLACEMENT_3D ( 'NONE', #329, #294, #36 ) ;
#166 = AXIS2_PLACEMENT_3D ( 'NONE', #94, #341, #338 ) ;
#167 = DIRECTION ( 'NONE',  ( -0.000000000000000000, -0.000000000000000000, -1.000000000000000000 ) ) ;
#168 = EDGE_CURVE ( 'NONE', #323, #155, #164, .T. ) ;
#169 = FACE_BOUND ( 'NONE', #117, .T. ) ;
#170 = CARTESIAN_POINT ( 'NONE',  ( 5.000000000000000000, 1.714505518806294441E-15, 2.399999999999999911 ) ) ;
#171 = DIRECTION ( 'NONE',  ( 1.000000000000000000, 0.000000000000000000, 0.000000000000000000 ) ) ;
#172 = ORIENTED_EDGE ( 'NONE', *, *, #211, .F. ) ;
#173 = CARTESIAN_POINT ( 'NONE',  ( 4.999999999999997335, 4.000000000000001776, 2.399999999999999911 ) ) ;
#174 = VERTEX_POINT ( 'NONE', #213 ) ;
#175 = CIRCLE ( 'NONE', #127, 2.049999999999999822 ) ;
#176 = LINE ( 'NONE', #148, #270 ) ;
#177 = ORIENTED_EDGE ( 'NONE', *, *, #347, .F. ) ;
#178 = CARTESIAN_POINT ( 'NONE',  ( 5.000000000000000000, -3.999999999999998224, 2.399999999999999911 ) ) ;
#179 = ORIENTED_EDGE ( 'NONE', *, *, #269, .F. ) ;
#180 = CARTESIAN_POINT ( 'NONE',  ( 5.000000000000000000, -3.999999999999998224, 2.399999999999999911 ) ) ;
#181 = CARTESIAN_POINT ( 'NONE',  ( 0.000000000000000000, 0.000000000000000000, 0.000000000000000000 ) ) ;
#182 = ORIENTED_EDGE ( 'NONE', *, *, #263, .F. ) ;
#183 = CARTESIAN_POINT ( 'NONE',  ( 7.049999999999998934, 1.965558112631501810E-15, 2.399999999999999911 ) ) ;
#184 = CARTESIAN_POINT ( 'NONE',  ( -4.999999999999999112, 3.999999999999998224, 2.399999999999999911 ) ) ;
#185 = ORIENTED_EDGE ( 'NONE', *, *, #168, .F. ) ;
#186 = PRESENTATION_LAYER_ASSIGNMENT (  '', '', ( #246 ) ) ;
#187 = EDGE_CURVE ( 'NONE', #197, #234, #254, .T. ) ;
#188 = DIRECTION ( 'NONE',  ( -0.000000000000000000, -0.000000000000000000, -1.000000000000000000 ) ) ;
#189 = DIRECTION ( 'NONE',  ( 1.000000000000000000, 0.000000000000000000, 0.000000000000000000 ) ) ;
#190 = FACE_BOUND ( 'NONE', #152, .T. ) ;
#191 = CARTESIAN_POINT ( 'NONE',  ( -9.000000000000001776, -1.347111479062088405E-15, 2.399999999999999911 ) ) ;
#192 = EDGE_CURVE ( 'NONE', #293, #371, #333, .T. ) ;
#193 = FACE_OUTER_BOUND ( 'NONE', #134, .T. ) ;
#194 = FACE_OUTER_BOUND ( 'NONE', #58, .T. ) ;
#195 = ORIENTED_EDGE ( 'NONE', *, *, #248, .F. ) ;
#196 = CARTESIAN_POINT ( 'NONE',  ( -5.000000000000000000, -1.347111479062088405E-15, 2.399999999999999911 ) ) ;
#197 = VERTEX_POINT ( 'NONE', #80 ) ;
#198 = DIRECTION ( 'NONE',  ( 1.000000000000000000, 3.469446951953614682E-16, -0.000000000000000000 ) ) ;
#199 = ORIENTED_EDGE ( 'NONE', *, *, #274, .T. ) ;
#200 = VECTOR ( 'NONE', #369, 1000.000000000000000 ) ;
#201 = CARTESIAN_POINT ( 'NONE',  ( -7.049999999999999822, -1.347111479062088405E-15, 2.399999999999999911 ) ) ;
#202 = ORIENTED_EDGE ( 'NONE', *, *, #187, .F. ) ;
#203 = DIRECTION ( 'NONE',  ( 1.000000000000000000, 0.000000000000000000, 0.000000000000000000 ) ) ;
#204 = ORIENTED_EDGE ( 'NONE', *, *, #59, .F. ) ;
#205 = VERTEX_POINT ( 'NONE', #51 ) ;
#206 = VECTOR ( 'NONE', #20, 1000.000000000000000 ) ;
#207 = AXIS2_PLACEMENT_3D ( 'NONE', #170, #373, #29 ) ;
#208 = PLANE ( 'NONE',  #165 ) ;
#209 = ORIENTED_EDGE ( 'NONE', *, *, #90, .F. ) ;
#210 = DIRECTION ( 'NONE',  ( 0.000000000000000000, 0.000000000000000000, 1.000000000000000000 ) ) ;
#211 = EDGE_CURVE ( 'NONE', #234, #197, #48, .T. ) ;
#212 = CARTESIAN_POINT ( 'NONE',  ( -5.000000000000000000, -1.347111479062088405E-15, -2.399999999999999911 ) ) ;
#213 = CARTESIAN_POINT ( 'NONE',  ( -4.999999999999999112, 3.999999999999998224, -2.399999999999999911 ) ) ;
#214 = CARTESIAN_POINT ( 'NONE',  ( -7.049999999999999822, -1.347111479062088405E-15, -2.399999999999999911 ) ) ;
#215 = CARTESIAN_POINT ( 'NONE',  ( 5.000000000000000000, 1.714505518806294441E-15, -2.399999999999999911 ) ) ;
#216 = AXIS2_PLACEMENT_3D ( 'NONE', #297, #40, #157 ) ;
#217 = DIRECTION ( 'NONE',  ( -0.000000000000000000, -0.000000000000000000, -1.000000000000000000 ) ) ;
#218 = FACE_OUTER_BOUND ( 'NONE', #153, .T. ) ;
#219 = UNCERTAINTY_MEASURE_WITH_UNIT (LENGTH_MEASURE( 1.000000000000000082E-05 ), #28, 'distance_accuracy_value', 'NONE');
#220 = LINE ( 'NONE', #119, #156 ) ;
#221 = ORIENTED_EDGE ( 'NONE', *, *, #263, .T. ) ;
#222 = CYLINDRICAL_SURFACE ( 'NONE', #166, 2.049999999999999822 ) ;
#223 = EDGE_LOOP ( 'NONE', ( #374, #98, #315, #88 ) ) ;
#224 = CARTESIAN_POINT ( 'NONE',  ( 4.999999999999997335, 4.000000000000001776, -2.399999999999999911 ) ) ;
#225 = CARTESIAN_POINT ( 'NONE',  ( -2.950000000000000178, -1.096058885236881035E-15, 2.399999999999999911 ) ) ;
#226 = ADVANCED_FACE ( 'NONE', ( #169, #218, #190 ), #77, .T. ) ;
#227 = ORIENTED_EDGE ( 'NONE', *, *, #47, .T. ) ;
#228 = CARTESIAN_POINT ( 'NONE',  ( 4.999999999999997335, 4.000000000000001776, 2.399999999999999911 ) ) ;
#229 = VERTEX_POINT ( 'NONE', #278 ) ;
#230 = CARTESIAN_POINT ( 'NONE',  ( -2.950000000000000178, -1.096058885236881035E-15, -2.399999999999999911 ) ) ;
#231 = ORIENTED_EDGE ( 'NONE', *, *, #130, .T. ) ;
#232 = DIRECTION ( 'NONE',  ( 0.000000000000000000, 0.000000000000000000, 1.000000000000000000 ) ) ;
#233 = DIRECTION ( 'NONE',  ( -3.469446951953614682E-16, 1.000000000000000000, 0.000000000000000000 ) ) ;
#234 = VERTEX_POINT ( 'NONE', #16 ) ;
#235 = AXIS2_PLACEMENT_3D ( 'NONE', #41, #233, #73 ) ;
#236 = ORIENTED_EDGE ( 'NONE', *, *, #17, .T. ) ;
#237 = ORIENTED_EDGE ( 'NONE', *, *, #17, .F. ) ;
#238 = LINE ( 'NONE', #356, #30 ) ;
#239 = DIRECTION ( 'NONE',  ( 1.000000000000000000, 0.000000000000000000, -0.000000000000000000 ) ) ;
#240 = CIRCLE ( 'NONE', #10, 2.049999999999999822 ) ;
#241 = EDGE_CURVE ( 'NONE', #56, #197, #145, .T. ) ;
#242 = FILL_AREA_STYLE ('',( #330 ) ) ;
#243 = MANIFOLD_SOLID_BREP ( '\X2\51f853f0\X0\-\X2\62c94f38\X0\1', #354 ) ;
#244 = LINE ( 'NONE', #18, #103 ) ;
#245 = FACE_OUTER_BOUND ( 'NONE', #95, .T. ) ;
#246 = STYLED_ITEM ( 'NONE', ( #52 ), #243 ) ;
#247 = CARTESIAN_POINT ( 'NONE',  ( -5.000000000000000000, -1.347111479062088405E-15, 2.399999999999999911 ) ) ;
#248 = EDGE_CURVE ( 'NONE', #155, #353, #76, .T. ) ;
#249 = CARTESIAN_POINT ( 'NONE',  ( -5.000000000000000000, -1.347111479062088405E-15, 2.399999999999999911 ) ) ;
#250 = ORIENTED_EDGE ( 'NONE', *, *, #130, .F. ) ;
#251 = PLANE ( 'NONE',  #61 ) ;
#252 = ORIENTED_EDGE ( 'NONE', *, *, #43, .F. ) ;
#253 = AXIS2_PLACEMENT_3D ( 'NONE', #79, #332, #81 ) ;
#254 = CIRCLE ( 'NONE', #136, 2.049999999999998934 ) ;
#255 = ADVANCED_FACE ( 'NONE', ( #284 ), #154, .T. ) ;
#256 = CARTESIAN_POINT ( 'NONE',  ( -4.999999999999998224, -4.000000000000001776, 2.399999999999999911 ) ) ;
#257 = VERTEX_POINT ( 'NONE', #282 ) ;
#258 = DIRECTION ( 'NONE',  ( 0.000000000000000000, 0.000000000000000000, 1.000000000000000000 ) ) ;
#259 = EDGE_LOOP ( 'NONE', ( #11, #128, #172, #204 ) ) ;
#260 = CARTESIAN_POINT ( 'NONE',  ( -5.000000000000000000, -1.347111479062088405E-15, 2.399999999999999911 ) ) ;
#261 = LINE ( 'NONE', #345, #200 ) ;
#262 = VERTEX_POINT ( 'NONE', #256 ) ;
#263 = EDGE_CURVE ( 'NONE', #262, #342, #220, .T. ) ;
#264 = APPLICATION_CONTEXT ( 'automotive_design' ) ;
#265 = CIRCLE ( 'NONE', #207, 2.049999999999998934 ) ;
#266 = EDGE_LOOP ( 'NONE', ( #9, #236, #195, #185 ) ) ;
#267 = ORIENTED_EDGE ( 'NONE', *, *, #13, .T. ) ;
#268 = DIRECTION ( 'NONE',  ( -0.000000000000000000, -0.000000000000000000, -1.000000000000000000 ) ) ;
#269 = EDGE_CURVE ( 'NONE', #65, #56, #265, .T. ) ;
#270 = VECTOR ( 'NONE', #290, 1000.000000000000000 ) ;
#271 = VERTEX_POINT ( 'NONE', #225 ) ;
#272 = DIRECTION ( 'NONE',  ( 1.000000000000000000, 0.000000000000000000, 0.000000000000000000 ) ) ;
#273 = DIRECTION ( 'NONE',  ( 1.000000000000000000, 0.000000000000000000, 0.000000000000000000 ) ) ;
#274 = EDGE_CURVE ( 'NONE', #229, #257, #24, .T. ) ;
#275 = VECTOR ( 'NONE', #188, 1000.000000000000000 ) ;
#276 = PRODUCT_DEFINITION_FORMATION_WITH_SPECIFIED_SOURCE ( '对称', '', #336, .NOT_KNOWN. ) ;
#277 = LINE ( 'NONE', #191, #275 ) ;
#278 = CARTESIAN_POINT ( 'NONE',  ( 4.999999999999997335, 4.000000000000001776, 2.399999999999999911 ) ) ;
#279 = ADVANCED_FACE ( 'NONE', ( #339 ), #251, .F. ) ;
#280 = SURFACE_STYLE_USAGE ( .BOTH. , #143 ) ;
#281 = VECTOR ( 'NONE', #328, 1000.000000000000000 ) ;
#282 = CARTESIAN_POINT ( 'NONE',  ( -4.999999999999999112, 3.999999999999998224, 2.399999999999999911 ) ) ;
#283 = ORIENTED_EDGE ( 'NONE', *, *, #274, .F. ) ;
#284 = FACE_OUTER_BOUND ( 'NONE', #340, .T. ) ;
#285 = VERTEX_POINT ( 'NONE', #314 ) ;
#286 = DIRECTION ( 'NONE',  ( 1.000000000000000000, 3.469446951953615175E-16, 0.000000000000000000 ) ) ;
#287 = ORIENTED_EDGE ( 'NONE', *, *, #298, .F. ) ;
#288 =( NAMED_UNIT ( * ) PLANE_ANGLE_UNIT ( ) SI_UNIT ( $, .RADIAN. ) );
#289 = AXIS2_PLACEMENT_3D ( 'NONE', #82, #258, #171 ) ;
#290 = DIRECTION ( 'NONE',  ( -1.000000000000000000, -3.469446951953615175E-16, 0.000000000000000000 ) ) ;
#291 = EDGE_LOOP ( 'NONE', ( #93, #35, #283, #227 ) ) ;
#292 = DIRECTION ( 'NONE',  ( 1.000000000000000000, 0.000000000000000000, 0.000000000000000000 ) ) ;
#293 = VERTEX_POINT ( 'NONE', #60 ) ;
#294 = DIRECTION ( 'NONE',  ( 0.000000000000000000, 0.000000000000000000, 1.000000000000000000 ) ) ;
#295 = AXIS2_PLACEMENT_3D ( 'NONE', #247, #167, #45 ) ;
#296 = CARTESIAN_POINT ( 'NONE',  ( -5.000000000000000000, -1.347111479062088405E-15, -2.399999999999999911 ) ) ;
#297 = CARTESIAN_POINT ( 'NONE',  ( -5.000000000000000000, -1.347111479062088405E-15, 2.399999999999999911 ) ) ;
#298 = EDGE_CURVE ( 'NONE', #371, #174, #176, .T. ) ;
#299 = ORIENTED_EDGE ( 'NONE', *, *, #108, .T. ) ;
#300 = ORIENTED_EDGE ( 'NONE', *, *, #310, .T. ) ;
#301 = EDGE_CURVE ( 'NONE', #285, #293, #261, .T. ) ;
#302 = CARTESIAN_POINT ( 'NONE',  ( 5.000000000000000000, 1.714505518806294441E-15, 2.399999999999999911 ) ) ;
#303 = CIRCLE ( 'NONE', #6, 4.000000000000000000 ) ;
#304 = DIRECTION ( 'NONE',  ( 0.000000000000000000, 0.000000000000000000, 1.000000000000000000 ) ) ;
#305 = SURFACE_STYLE_FILL_AREA ( #242 ) ;
#306 = DIRECTION ( 'NONE',  ( 0.000000000000000000, 0.000000000000000000, 1.000000000000000000 ) ) ;
#307 = PRODUCT_DEFINITION_CONTEXT ( 'detailed design', #19, 'design' ) ;
#308 = AXIS2_PLACEMENT_3D ( 'NONE', #126, #34, #318 ) ;
#309 = DIRECTION ( 'NONE',  ( -1.000000000000000000, 0.000000000000000000, 0.000000000000000000 ) ) ;
#310 = EDGE_CURVE ( 'NONE', #56, #65, #107, .T. ) ;
#311 = ORIENTED_EDGE ( 'NONE', *, *, #78, .T. ) ;
#312 = DIRECTION ( 'NONE',  ( 0.000000000000000000, 0.000000000000000000, 1.000000000000000000 ) ) ;
#313 = ORIENTED_EDGE ( 'NONE', *, *, #310, .F. ) ;
#314 = CARTESIAN_POINT ( 'NONE',  ( -4.999999999999998224, -4.000000000000001776, -2.399999999999999911 ) ) ;
#315 = ORIENTED_EDGE ( 'NONE', *, *, #66, .T. ) ;
#316 = AXIS2_PLACEMENT_3D ( 'NONE', #4, #1, #64 ) ;
#317 = AXIS2_PLACEMENT_3D ( 'NONE', #296, #160, #144 ) ;
#318 = DIRECTION ( 'NONE',  ( -1.000000000000000000, 0.000000000000000000, 0.000000000000000000 ) ) ;
#319 = ORIENTED_EDGE ( 'NONE', *, *, #168, .T. ) ;
#320 = ADVANCED_FACE ( 'NONE', ( #194 ), #222, .F. ) ;
#321 = DIRECTION ( 'NONE',  ( 0.000000000000000000, 0.000000000000000000, 1.000000000000000000 ) ) ;
#322 = ORIENTED_EDGE ( 'NONE', *, *, #361, .F. ) ;
#323 = VERTEX_POINT ( 'NONE', #201 ) ;
#324 = VECTOR ( 'NONE', #101, 1000.000000000000000 ) ;
#325 = ORIENTED_EDGE ( 'NONE', *, *, #47, .F. ) ;
#326 = EDGE_CURVE ( 'NONE', #257, #100, #372, .T. ) ;
#327 = LINE ( 'NONE', #184, #129 ) ;
#328 = DIRECTION ( 'NONE',  ( -0.000000000000000000, -0.000000000000000000, -1.000000000000000000 ) ) ;
#329 = CARTESIAN_POINT ( 'NONE',  ( 5.000000000000000000, 1.714505518806294441E-15, -2.399999999999999911 ) ) ;
#330 = FILL_AREA_STYLE_COLOUR ( '', #31 ) ;
#331 = CARTESIAN_POINT ( 'NONE',  ( 5.000000000000000000, 1.714505518806294441E-15, -2.399999999999999911 ) ) ;
#332 = DIRECTION ( 'NONE',  ( 0.000000000000000000, 0.000000000000000000, 1.000000000000000000 ) ) ;
#333 = CIRCLE ( 'NONE', #370, 4.000000000000000888 ) ;
#334 = ADVANCED_FACE ( 'NONE', ( #89 ), #125, .F. ) ;
#335 = ADVANCED_BREP_SHAPE_REPRESENTATION ( 'LQ26-05HGI-01-011', ( #243, #42 ), #112 ) ;
#336 = PRODUCT ( 'LQ26-05HGI-01-011', 'LQ26-05HGI-01-011', '', ( #69 ) ) ;
#337 = DIRECTION ( 'NONE',  ( 1.000000000000000000, 0.000000000000000000, 0.000000000000000000 ) ) ;
#338 = DIRECTION ( 'NONE',  ( -1.000000000000000000, 0.000000000000000000, 0.000000000000000000 ) ) ;
#339 = FACE_OUTER_BOUND ( 'NONE', #291, .T. ) ;
#340 = EDGE_LOOP ( 'NONE', ( #8, #325, #250, #267 ) ) ;
#341 = DIRECTION ( 'NONE',  ( -0.000000000000000000, -0.000000000000000000, -1.000000000000000000 ) ) ;
#342 = VERTEX_POINT ( 'NONE', #178 ) ;
#343 = ORIENTED_EDGE ( 'NONE', *, *, #114, .F. ) ;
#344 = DIRECTION ( 'NONE',  ( -0.000000000000000000, -0.000000000000000000, -1.000000000000000000 ) ) ;
#345 = CARTESIAN_POINT ( 'NONE',  ( 5.000000000000000000, -3.999999999999998224, -2.399999999999999911 ) ) ;
#346 = ORIENTED_EDGE ( 'NONE', *, *, #248, .T. ) ;
#347 = EDGE_CURVE ( 'NONE', #271, #323, #175, .T. ) ;
#348 = AXIS2_PLACEMENT_3D ( 'NONE', #302, #358, #239 ) ;
#349 = CYLINDRICAL_SURFACE ( 'NONE', #120, 4.000000000000000888 ) ;
#350 = ORIENTED_EDGE ( 'NONE', *, *, #301, .T. ) ;
#351 = CARTESIAN_POINT ( 'NONE',  ( -5.000000000000000000, -1.347111479062088405E-15, 2.399999999999999911 ) ) ;
#352 = ADVANCED_FACE ( 'NONE', ( #193 ), #53, .T. ) ;
#353 = VERTEX_POINT ( 'NONE', #230 ) ;
#354 = CLOSED_SHELL ( 'NONE', ( #334, #118, #352, #226, #83, #255, #279, #366, #74, #320, #139 ) ) ;
#355 = LINE ( 'NONE', #70, #281 ) ;
#356 = CARTESIAN_POINT ( 'NONE',  ( -2.950000000000000178, -1.096058885236881035E-15, 2.399999999999999911 ) ) ;
#357 = CARTESIAN_POINT ( 'NONE',  ( 2.950000000000000622, 1.714505518806294441E-15, 2.399999999999999911 ) ) ;
#358 = DIRECTION ( 'NONE',  ( 0.000000000000000000, 0.000000000000000000, 1.000000000000000000 ) ) ;
#359 = PRODUCT_DEFINITION_SHAPE ( 'NONE', 'NONE',  #2 ) ;
#360 = FACE_OUTER_BOUND ( 'NONE', #266, .T. ) ;
#361 = EDGE_CURVE ( 'NONE', #353, #155, #240, .T. ) ;
#362 = DIRECTION ( 'NONE',  ( -1.000000000000000000, 0.000000000000000000, 0.000000000000000000 ) ) ;
#363 = CARTESIAN_POINT ( 'NONE',  ( 7.049999999999998934, 1.965558112631501810E-15, 2.399999999999999911 ) ) ;
#364 = VECTOR ( 'NONE', #116, 1000.000000000000000 ) ;
#365 = CYLINDRICAL_SURFACE ( 'NONE', #49, 2.049999999999999378 ) ;
#366 = ADVANCED_FACE ( 'NONE', ( #67 ), #349, .T. ) ;
#367 = DIRECTION ( 'NONE',  ( -0.000000000000000000, -0.000000000000000000, -1.000000000000000000 ) ) ;
#368 = EDGE_LOOP ( 'NONE', ( #27, #32 ) ) ;
#369 = DIRECTION ( 'NONE',  ( 1.000000000000000000, 3.469446951953614682E-16, -0.000000000000000000 ) ) ;
#370 = AXIS2_PLACEMENT_3D ( 'NONE', #215, #140, #189 ) ;
#371 = VERTEX_POINT ( 'NONE', #224 ) ;
#372 = CIRCLE ( 'NONE', #71, 4.000000000000000000 ) ;
#373 = DIRECTION ( 'NONE',  ( 0.000000000000000000, 0.000000000000000000, 1.000000000000000000 ) ) ;
#374 = ORIENTED_EDGE ( 'NONE', *, *, #108, .F. ) ;
ENDSEC;
END-ISO-10303-21;
