ISO-10303-21;
HEADER;
FILE_DESCRIPTION (( 'STEP AP214' ),
    '1' );
FILE_NAME ('LQ26-05HGI-01-015.STEP',
    '2026-05-07T08:55:13',
    ( '' ),
    ( '' ),
    'SwSTEP 2.0',
    'SolidWorks 2025',
    '' );
FILE_SCHEMA (( 'AUTOMOTIVE_DESIGN' ));
ENDSEC;

DATA;
#1 = EDGE_LOOP ( 'NONE', ( #401, #36, #372, #382 ) ) ;
#2 = CARTESIAN_POINT ( 'NONE',  ( 0.000000000000000000, 0.000000000000000000, -9.500000000000000000 ) ) ;
#3 = EDGE_CURVE ( 'NONE', #848, #240, #675, .T. ) ;
#4 = FACE_OUTER_BOUND ( 'NONE', #543, .T. ) ;
#5 = CARTESIAN_POINT ( 'NONE',  ( -18.75000000000000355, -11.50000000000000533, 8.844449625432007522 ) ) ;
#6 = VERTEX_POINT ( 'NONE', #812 ) ;
#7 = AXIS2_PLACEMENT_3D ( 'NONE', #2, #69, #136 ) ;
#8 = CARTESIAN_POINT ( 'NONE',  ( -1.249999999999969802, 3.673940397442075645E-16, 8.233336159326549719 ) ) ;
#9 = AXIS2_PLACEMENT_3D ( 'NONE', #643, #96, #574 ) ;
#10 = AXIS2_PLACEMENT_3D ( 'NONE', #118, #328, #337 ) ;
#11 = ORIENTED_EDGE ( 'NONE', *, *, #258, .F. ) ;
#12 = CARTESIAN_POINT ( 'NONE',  ( -19.75000000000000355, 10.49999999999999467, 6.500000000000000000 ) ) ;
#13 = CARTESIAN_POINT ( 'NONE',  ( 13.75000000000004619, 0.000000000000000000, 4.879370394923747689 ) ) ;
#14 = EDGE_CURVE ( 'NONE', #804, #528, #893, .T. ) ;
#15 = ORIENTED_EDGE ( 'NONE', *, *, #345, .F. ) ;
#16 = LINE ( 'NONE', #232, #603 ) ;
#17 = CARTESIAN_POINT ( 'NONE',  ( 1.750000000000043077, 0.000000000000000000, -9.499999999999998224 ) ) ;
#18 = ORIENTED_EDGE ( 'NONE', *, *, #513, .F. ) ;
#19 = VERTEX_POINT ( 'NONE', #833 ) ;
#20 = CARTESIAN_POINT ( 'NONE',  ( -1.065449703681252913, 1.205387356596784370E-16, -9.500000000000000000 ) ) ;
#21 = VECTOR ( 'NONE', #120, 1000.000000000000000 ) ;
#22 = CARTESIAN_POINT ( 'NONE',  ( -1.065449703681251803, 11.49999999999999822, -9.500000000000000000 ) ) ;
#23 = ORIENTED_EDGE ( 'NONE', *, *, #566, .F. ) ;
#24 = VECTOR ( 'NONE', #883, 1000.000000000000000 ) ;
#25 = VERTEX_POINT ( 'NONE', #112 ) ;
#26 = DIRECTION ( 'NONE',  ( 1.000000000000000000, 0.000000000000000000, 0.000000000000000000 ) ) ;
#27 = DIRECTION ( 'NONE',  ( 0.000000000000000000, -1.000000000000000000, 0.000000000000000000 ) ) ;
#28 = ORIENTED_EDGE ( 'NONE', *, *, #314, .T. ) ;
#29 = CARTESIAN_POINT ( 'NONE',  ( 13.75000000000004619, 0.000000000000000000, 8.879370394923746801 ) ) ;
#30 = ADVANCED_FACE ( 'NONE', ( #187 ), #395, .F. ) ;
#31 = DIRECTION ( 'NONE',  ( 1.000000000000000000, 0.000000000000000000, 0.000000000000000000 ) ) ;
#32 = VERTEX_POINT ( 'NONE', #907 ) ;
#33 = PLANE ( 'NONE',  #303 ) ;
#34 = ADVANCED_FACE ( 'NONE', ( #274, #541 ), #50, .F. ) ;
#35 = CARTESIAN_POINT ( 'NONE',  ( 15.25000000000005507, 0.000000000000000000, -9.499999999999998224 ) ) ;
#36 = ORIENTED_EDGE ( 'NONE', *, *, #501, .T. ) ;
#37 = ORIENTED_EDGE ( 'NONE', *, *, #710, .F. ) ;
#38 = VECTOR ( 'NONE', #65, 1000.000000000000000 ) ;
#39 = LINE ( 'NONE', #673, #21 ) ;
#40 = DIRECTION ( 'NONE',  ( -0.000000000000000000, -0.000000000000000000, 1.000000000000000000 ) ) ;
#41 = CARTESIAN_POINT ( 'NONE',  ( 13.75000000000004619, 0.000000000000000000, 8.879370394923746801 ) ) ;
#42 = ADVANCED_FACE ( 'NONE', ( #202 ), #587, .F. ) ;
#43 = ORIENTED_EDGE ( 'NONE', *, *, #253, .F. ) ;
#44 = DIRECTION ( 'NONE',  ( -0.000000000000000000, -0.000000000000000000, 1.000000000000000000 ) ) ;
#45 = CARTESIAN_POINT ( 'NONE',  ( 1.750000000000043077, 0.000000000000000000, 4.879370394923747689 ) ) ;
#46 = DIRECTION ( 'NONE',  ( 0.000000000000000000, 0.000000000000000000, -1.000000000000000000 ) ) ;
#47 = ORIENTED_EDGE ( 'NONE', *, *, #652, .F. ) ;
#48 = CARTESIAN_POINT ( 'NONE',  ( 16.75000000000006040, 0.000000000000000000, 7.604762308475218724 ) ) ;
#49 = CARTESIAN_POINT ( 'NONE',  ( 16.75000000000006040, 0.000000000000000000, 7.604762308475218724 ) ) ;
#50 = PLANE ( 'NONE',  #821 ) ;
#51 =( BOUNDED_CURVE ( )  B_SPLINE_CURVE ( 3, ( #750, #398, #677, #48 ),
 .UNSPECIFIED., .F., .F. ) 
 B_SPLINE_CURVE_WITH_KNOTS ( ( 4, 4 ),
 ( 0.000000000000000000, 3.141592653589793116 ),
 .UNSPECIFIED. ) 
 CURVE ( )  GEOMETRIC_REPRESENTATION_ITEM ( )  RATIONAL_B_SPLINE_CURVE ( ( 1.000000000000000000, 0.3333333333333333703, 0.3333333333333333703, 1.000000000000000000 ) ) 
 REPRESENTATION_ITEM ( '' )  );
#52 = ORIENTED_EDGE ( 'NONE', *, *, #663, .F. ) ;
#53 = LINE ( 'NONE', #403, #147 ) ;
#54 = EDGE_CURVE ( 'NONE', #804, #604, #299, .T. ) ;
#55 = VECTOR ( 'NONE', #456, 1000.000000000000000 ) ;
#56 = CARTESIAN_POINT ( 'NONE',  ( 19.74999999999999645, 3.900000000000000355, 0.5000000000000004441 ) ) ;
#57 = CARTESIAN_POINT ( 'NONE',  ( -19.75000000000000000, -11.50000000000001066, 6.500000000000000000 ) ) ;
#58 = EDGE_LOOP ( 'NONE', ( #441, #278 ) ) ;
#59 = UNCERTAINTY_MEASURE_WITH_UNIT (LENGTH_MEASURE( 1.000000000000000082E-05 ), #781, 'distance_accuracy_value', 'NONE');
#60 = FILL_AREA_STYLE ('',( #488 ) ) ;
#61 = EDGE_CURVE ( 'NONE', #660, #294, #596, .T. ) ;
#62 = DIRECTION ( 'NONE',  ( 1.000000000000000000, 0.000000000000000000, 0.000000000000000000 ) ) ;
#63 = EDGE_LOOP ( 'NONE', ( #216, #880 ) ) ;
#64 = APPLICATION_PROTOCOL_DEFINITION ( 'draft international standard', 'automotive_design', 1998, #772 ) ;
#65 = DIRECTION ( 'NONE',  ( 1.000000000000000000, 0.000000000000000000, 0.000000000000000000 ) ) ;
#66 = CARTESIAN_POINT ( 'NONE',  ( -1.249999999999968914, -6.000000000000024869, 8.233336159326549719 ) ) ;
#67 = PRODUCT_RELATED_PRODUCT_CATEGORY ( 'part', '', ( #109 ) ) ;
#68 = ORIENTED_EDGE ( 'NONE', *, *, #612, .T. ) ;
#69 = DIRECTION ( 'NONE',  ( 0.000000000000000000, 0.000000000000000000, 1.000000000000000000 ) ) ;
#70 = VECTOR ( 'NONE', #257, 1000.000000000000114 ) ;
#71 = CIRCLE ( 'NONE', #420, 1.500000000000008216 ) ;
#72 = DIRECTION ( 'NONE',  ( 0.000000000000000000, 0.000000000000000000, 1.000000000000000000 ) ) ;
#73 = ORIENTED_EDGE ( 'NONE', *, *, #710, .T. ) ;
#74 = FACE_OUTER_BOUND ( 'NONE', #813, .T. ) ;
#75 = DIRECTION ( 'NONE',  ( -1.097926250618234491E-17, 1.000000000000000000, 0.000000000000000000 ) ) ;
#76 = PLANE ( 'NONE',  #348 ) ;
#77 = VERTEX_POINT ( 'NONE', #757 ) ;
#78 = EDGE_CURVE ( 'NONE', #25, #660, #533, .T. ) ;
#79 = CARTESIAN_POINT ( 'NONE',  ( 10.75000000000003375, 3.673940397442075645E-16, 4.879370394923747689 ) ) ;
#80 = ORIENTED_EDGE ( 'NONE', *, *, #61, .F. ) ;
#81 = CARTESIAN_POINT ( 'NONE',  ( 13.75000000000004619, 0.000000000000000000, -9.499999999999998224 ) ) ;
#82 = EDGE_CURVE ( 'NONE', #283, #578, #686, .T. ) ;
#83 = CARTESIAN_POINT ( 'NONE',  ( -1.249999999999969802, 3.673940397442075645E-16, 8.233336159326549719 ) ) ;
#84 = VECTOR ( 'NONE', #153, 1000.000000000000000 ) ;
#85 = ORIENTED_EDGE ( 'NONE', *, *, #862, .F. ) ;
#86 = DIRECTION ( 'NONE',  ( 1.000000000000000000, 0.000000000000000000, 0.000000000000000000 ) ) ;
#87 = EDGE_CURVE ( 'NONE', #119, #432, #829, .T. ) ;
#88 = CARTESIAN_POINT ( 'NONE',  ( 3.250000000000050626, 0.000000000000000000, 8.879370394923746801 ) ) ;
#89 = VERTEX_POINT ( 'NONE', #591 ) ;
#90 = VERTEX_POINT ( 'NONE', #127 ) ;
#91 = DIRECTION ( 'NONE',  ( -8.783410004945859907E-17, 1.000000000000000000, -0.000000000000000000 ) ) ;
#92 = CARTESIAN_POINT ( 'NONE',  ( 19.74999999999999645, 11.49999999999999822, -9.500000000000000000 ) ) ;
#93 = ORIENTED_EDGE ( 'NONE', *, *, #373, .T. ) ;
#94 = LINE ( 'NONE', #295, #129 ) ;
#95 = VECTOR ( 'NONE', #827, 1000.000000000000000 ) ;
#96 = DIRECTION ( 'NONE',  ( 0.000000000000000000, 0.000000000000000000, 1.000000000000000000 ) ) ;
#97 = ORIENTED_EDGE ( 'NONE', *, *, #439, .F. ) ;
#98 = CIRCLE ( 'NONE', #280, 1.500000000000008216 ) ;
#99 = PRODUCT_DEFINITION_FORMATION_WITH_SPECIFIED_SOURCE ( '对称', '', #109, .NOT_KNOWN. ) ;
#100 = EDGE_CURVE ( 'NONE', #368, #128, #791, .T. ) ;
#101 = CARTESIAN_POINT ( 'NONE',  ( 19.74999999999999645, 11.50000000000000000, 7.500000000000000000 ) ) ;
#102 = CARTESIAN_POINT ( 'NONE',  ( 15.25000000000006040, 0.000000000000000000, 4.879370394923747689 ) ) ;
#103 = EDGE_LOOP ( 'NONE', ( #500, #198, #487, #203, #114, #297 ) ) ;
#104 = ORIENTED_EDGE ( 'NONE', *, *, #852, .F. ) ;
#105 = LINE ( 'NONE', #529, #95 ) ;
#106 = DIRECTION ( 'NONE',  ( 0.000000000000000000, 0.000000000000000000, -1.000000000000000000 ) ) ;
#107 = EDGE_LOOP ( 'NONE', ( #703, #464, #705, #369 ) ) ;
#108 = DIRECTION ( 'NONE',  ( -8.783410004945859907E-17, 1.000000000000000000, -0.000000000000000000 ) ) ;
#109 = PRODUCT ( 'LQ26-05HGI-01-015', 'LQ26-05HGI-01-015', '', ( #909 ) ) ;
#110 = LINE ( 'NONE', #887, #761 ) ;
#111 = ADVANCED_FACE ( 'NONE', ( #671 ), #523, .F. ) ;
#112 = CARTESIAN_POINT ( 'NONE',  ( 19.74999999999999645, -3.899999999999999023, -7.500000000000000000 ) ) ;
#113 = VECTOR ( 'NONE', #422, 1000.000000000000000 ) ;
#114 = ORIENTED_EDGE ( 'NONE', *, *, #467, .F. ) ;
#115 = CIRCLE ( 'NONE', #320, 1.500000000000008216 ) ;
#116 = VECTOR ( 'NONE', #447, 1000.000000000000000 ) ;
#117 = DIRECTION ( 'NONE',  ( -0.000000000000000000, -0.000000000000000000, 1.000000000000000000 ) ) ;
#118 = CARTESIAN_POINT ( 'NONE',  ( 19.74999999999999645, -3.900000000000000355, 0.5000000000000004441 ) ) ;
#119 = VERTEX_POINT ( 'NONE', #527 ) ;
#120 = DIRECTION ( 'NONE',  ( 1.317511500741878924E-16, -1.000000000000000000, 0.000000000000000000 ) ) ;
#121 = DIRECTION ( 'NONE',  ( 1.000000000000000000, 0.000000000000000000, 0.000000000000000000 ) ) ;
#122 = ORIENTED_EDGE ( 'NONE', *, *, #87, .F. ) ;
#123 = ORIENTED_EDGE ( 'NONE', *, *, #340, .F. ) ;
#124 = ADVANCED_BREP_SHAPE_REPRESENTATION ( 'LQ26-05HGI-01-015', ( #630, #746 ), #851 ) ;
#125 = CARTESIAN_POINT ( 'NONE',  ( 1.750000000000043077, 0.000000000000000000, 0.5000000000000004441 ) ) ;
#126 = CARTESIAN_POINT ( 'NONE',  ( 19.74999999999999645, 11.50000000000000000, 7.500000000000000000 ) ) ;
#127 = CARTESIAN_POINT ( 'NONE',  ( -19.75000000000000000, -10.50000000000000355, 6.500000000000000000 ) ) ;
#128 = VERTEX_POINT ( 'NONE', #816 ) ;
#129 = VECTOR ( 'NONE', #798, 1000.000000000000000 ) ;
#130 = CARTESIAN_POINT ( 'NONE',  ( 1.750000000000043077, 0.000000000000000000, 8.879370394923746801 ) ) ;
#131 = AXIS2_PLACEMENT_3D ( 'NONE', #17, #378, #800 ) ;
#132 = VECTOR ( 'NONE', #472, 1000.000000000000000 ) ;
#133 = SURFACE_STYLE_FILL_AREA ( #60 ) ;
#134 = CARTESIAN_POINT ( 'NONE',  ( -19.75000000000000355, 10.49999999999999467, 8.879370394923746801 ) ) ;
#135 = ORIENTED_EDGE ( 'NONE', *, *, #501, .F. ) ;
#136 = DIRECTION ( 'NONE',  ( 1.000000000000000000, 0.000000000000000000, -0.000000000000000000 ) ) ;
#137 = LINE ( 'NONE', #549, #461 ) ;
#138 = DIRECTION ( 'NONE',  ( -0.000000000000000000, -0.000000000000000000, 1.000000000000000000 ) ) ;
#139 = VERTEX_POINT ( 'NONE', #5 ) ;
#140 = CARTESIAN_POINT ( 'NONE',  ( 19.74999999999999645, 3.900000000000000355, 0.5000000000000004441 ) ) ;
#141 = ADVANCED_FACE ( 'NONE', ( #357, #344, #633 ), #76, .T. ) ;
#142 = DIRECTION ( 'NONE',  ( -1.000000000000000000, 0.000000000000000000, 0.000000000000000000 ) ) ;
#143 = ORIENTED_EDGE ( 'NONE', *, *, #3, .F. ) ;
#144 = AXIS2_PLACEMENT_3D ( 'NONE', #29, #661, #451 ) ;
#145 = FACE_OUTER_BOUND ( 'NONE', #629, .T. ) ;
#146 = CARTESIAN_POINT ( 'NONE',  ( 1.750000000000043077, 0.000000000000000000, 8.879370394923746801 ) ) ;
#147 = VECTOR ( 'NONE', #108, 1000.000000000000000 ) ;
#148 = DIRECTION ( 'NONE',  ( 1.000000000000000000, 1.097926250618234491E-17, -0.000000000000000000 ) ) ;
#149 = EDGE_CURVE ( 'NONE', #737, #423, #206, .T. ) ;
#150 = ORIENTED_EDGE ( 'NONE', *, *, #292, .F. ) ;
#151 = DIRECTION ( 'NONE',  ( 1.000000000000000000, 0.000000000000000000, 0.000000000000000000 ) ) ;
#152 = DIRECTION ( 'NONE',  ( 1.000000000000000000, 0.000000000000000000, 0.000000000000000000 ) ) ;
#153 = DIRECTION ( 'NONE',  ( -0.000000000000000000, -0.000000000000000000, 1.000000000000000000 ) ) ;
#154 = EDGE_LOOP ( 'NONE', ( #559, #80, #407, #665 ) ) ;
#155 = EDGE_CURVE ( 'NONE', #575, #547, #613, .T. ) ;
#156 = LINE ( 'NONE', #873, #418 ) ;
#157 = FACE_OUTER_BOUND ( 'NONE', #691, .T. ) ;
#158 = ORIENTED_EDGE ( 'NONE', *, *, #155, .T. ) ;
#159 = CARTESIAN_POINT ( 'NONE',  ( -18.75000000000000355, 11.49999999999999645, 5.660900368822709083 ) ) ;
#160 = FACE_OUTER_BOUND ( 'NONE', #681, .T. ) ;
#161 = ORIENTED_EDGE ( 'NONE', *, *, #82, .F. ) ;
#162 = CARTESIAN_POINT ( 'NONE',  ( 1.750000000000043077, 0.000000000000000000, -9.499999999999998224 ) ) ;
#163 = CARTESIAN_POINT ( 'NONE',  ( 13.75000000000004619, 0.000000000000000000, 8.879370394923746801 ) ) ;
#164 = ORIENTED_EDGE ( 'NONE', *, *, #269, .T. ) ;
#165 = ORIENTED_EDGE ( 'NONE', *, *, #771, .F. ) ;
#166 = DIRECTION ( 'NONE',  ( 1.131341397376178819E-16, 1.000000000000000000, -0.000000000000000000 ) ) ;
#167 = CYLINDRICAL_SURFACE ( 'NONE', #505, 1.500000000000007327 ) ;
#168 = EDGE_CURVE ( 'NONE', #733, #713, #115, .T. ) ;
#169 = ORIENTED_EDGE ( 'NONE', *, *, #862, .T. ) ;
#170 = CARTESIAN_POINT ( 'NONE',  ( -12.59947844443482268, -3.900000000000000799, 0.5000000000000004441 ) ) ;
#171 = FACE_OUTER_BOUND ( 'NONE', #508, .T. ) ;
#172 = ORIENTED_EDGE ( 'NONE', *, *, #100, .F. ) ;
#173 = AXIS2_PLACEMENT_3D ( 'NONE', #13, #246, #366 ) ;
#174 = ORIENTED_EDGE ( 'NONE', *, *, #284, .T. ) ;
#175 = DIRECTION ( 'NONE',  ( -0.000000000000000000, 0.000000000000000000, -1.000000000000000000 ) ) ;
#176 = DIRECTION ( 'NONE',  ( -0.000000000000000000, -0.000000000000000000, -1.000000000000000000 ) ) ;
#177 = EDGE_LOOP ( 'NONE', ( #597, #790 ) ) ;
#178 = EDGE_CURVE ( 'NONE', #287, #275, #391, .T. ) ;
#179 = LINE ( 'NONE', #666, #530 ) ;
#180 = CARTESIAN_POINT ( 'NONE',  ( -3.065449703681256022, -11.49999999999999822, -7.500000000000000000 ) ) ;
#181 = ORIENTED_EDGE ( 'NONE', *, *, #149, .T. ) ;
#182 = ORIENTED_EDGE ( 'NONE', *, *, #694, .T. ) ;
#183 = DIRECTION ( 'NONE',  ( 1.000000000000000000, 0.000000000000000000, 0.000000000000000000 ) ) ;
#184 = ADVANCED_FACE ( 'NONE', ( #911 ), #628, .F. ) ;
#185 = LINE ( 'NONE', #669, #881 ) ;
#186 = AXIS2_PLACEMENT_3D ( 'NONE', #20, #788, #166 ) ;
#187 = FACE_OUTER_BOUND ( 'NONE', #351, .T. ) ;
#188 = AXIS2_PLACEMENT_3D ( 'NONE', #146, #288, #486 ) ;
#189 = ORIENTED_EDGE ( 'NONE', *, *, #852, .T. ) ;
#190 = FACE_BOUND ( 'NONE', #497, .T. ) ;
#191 = CARTESIAN_POINT ( 'NONE',  ( 16.75000000000006040, 6.000000000000024869, 7.604762308475218724 ) ) ;
#192 = ORIENTED_EDGE ( 'NONE', *, *, #253, .T. ) ;
#193 = EDGE_LOOP ( 'NONE', ( #855, #311, #379, #448 ) ) ;
#194 = DIRECTION ( 'NONE',  ( 0.9993908270190958731, 0.000000000000000000, -0.03489949670249371111 ) ) ;
#195 = FACE_BOUND ( 'NONE', #801, .T. ) ;
#196 = DIRECTION ( 'NONE',  ( -1.000000000000000000, 0.000000000000000000, -0.000000000000000000 ) ) ;
#197 = ADVANCED_FACE ( 'NONE', ( #157 ), #230, .F. ) ;
#198 = ORIENTED_EDGE ( 'NONE', *, *, #787, .T. ) ;
#199 = CARTESIAN_POINT ( 'NONE',  ( 0.2500000000000360267, 1.836970198721038562E-16, 8.879370394923746801 ) ) ;
#200 = UNCERTAINTY_MEASURE_WITH_UNIT (LENGTH_MEASURE( 1.000000000000000082E-05 ), #769, 'distance_accuracy_value', 'NONE');
#201 = CARTESIAN_POINT ( 'NONE',  ( -1.249999999999969802, 3.673940397442075645E-16, 8.879370394923746801 ) ) ;
#202 = FACE_OUTER_BOUND ( 'NONE', #193, .T. ) ;
#203 = ORIENTED_EDGE ( 'NONE', *, *, #890, .T. ) ;
#204 = ADVANCED_FACE ( 'NONE', ( #699, #776 ), #282, .F. ) ;
#205 = DIRECTION ( 'NONE',  ( -1.000000000000000000, 0.000000000000000000, 0.000000000000000000 ) ) ;
#206 = CIRCLE ( 'NONE', #714, 1.500000000000007327 ) ;
#207 = CIRCLE ( 'NONE', #291, 1.500000000000013101 ) ;
#208 = CARTESIAN_POINT ( 'NONE',  ( -12.59947844443482268, -11.50000000000001066, 0.5000000000000004441 ) ) ;
#209 = DIRECTION ( 'NONE',  ( 0.000000000000000000, 0.000000000000000000, 1.000000000000000000 ) ) ;
#210 = ORIENTED_EDGE ( 'NONE', *, *, #734, .F. ) ;
#211 = APPLICATION_CONTEXT ( 'automotive_design' ) ;
#212 = FACE_BOUND ( 'NONE', #315, .T. ) ;
#213 = EDGE_CURVE ( 'NONE', #262, #741, #350, .T. ) ;
#214 = PRODUCT_DEFINITION_SHAPE ( 'NONE', 'NONE',  #858 ) ;
#215 = DIRECTION ( 'NONE',  ( -1.000000000000000000, 1.097926250618234491E-17, 0.000000000000000000 ) ) ;
#216 = ORIENTED_EDGE ( 'NONE', *, *, #367, .F. ) ;
#217 = CARTESIAN_POINT ( 'NONE',  ( 0.2500000000000360267, 1.836970198721038562E-16, 0.5000000000000004441 ) ) ;
#218 =( BOUNDED_CURVE ( )  B_SPLINE_CURVE ( 3, ( #510, #874, #381, #242 ),
 .UNSPECIFIED., .F., .F. ) 
 B_SPLINE_CURVE_WITH_KNOTS ( ( 4, 4 ),
 ( 3.141592653589791340, 4.712388980384689674 ),
 .UNSPECIFIED. ) 
 CURVE ( )  GEOMETRIC_REPRESENTATION_ITEM ( )  RATIONAL_B_SPLINE_CURVE ( ( 1.000000000000000000, 0.8047378541243646044, 0.8047378541243646044, 1.000000000000000000 ) ) 
 REPRESENTATION_ITEM ( '' )  );
#219 = LINE ( 'NONE', #285, #38 ) ;
#220 = EDGE_CURVE ( 'NONE', #504, #660, #624, .T. ) ;
#221 = DIRECTION ( 'NONE',  ( -1.000000000000000000, 0.000000000000000000, 0.000000000000000000 ) ) ;
#222 = ORIENTED_EDGE ( 'NONE', *, *, #513, .T. ) ;
#223 = VECTOR ( 'NONE', #335, 1000.000000000000000 ) ;
#224 = CARTESIAN_POINT ( 'NONE',  ( 0.000000000000000000, 0.000000000000000000, 0.000000000000000000 ) ) ;
#225 = VECTOR ( 'NONE', #637, 1000.000000000000000 ) ;
#226 = LINE ( 'NONE', #496, #84 ) ;
#227 = EDGE_CURVE ( 'NONE', #478, #432, #645, .T. ) ;
#228 = ORIENTED_EDGE ( 'NONE', *, *, #3, .T. ) ;
#229 = CARTESIAN_POINT ( 'NONE',  ( -19.33578643762690774, 11.49999999999999822, 6.152433552584104959 ) ) ;
#230 = CYLINDRICAL_SURFACE ( 'NONE', #239, 1.500000000000008216 ) ;
#231 = EDGE_LOOP ( 'NONE', ( #908, #397, #732, #222 ) ) ;
#232 = CARTESIAN_POINT ( 'NONE',  ( -1.065449703681252913, 1.205387356596784370E-16, -9.500000000000000000 ) ) ;
#233 = CARTESIAN_POINT ( 'NONE',  ( -1.249999999999970690, 6.000000000000024869, 8.233336159326549719 ) ) ;
#234 = ORIENTED_EDGE ( 'NONE', *, *, #220, .T. ) ;
#235 = PLANE ( 'NONE',  #186 ) ;
#236 = VECTOR ( 'NONE', #468, 1000.000000000000000 ) ;
#237 = VECTOR ( 'NONE', #828, 1000.000000000000000 ) ;
#238 = CYLINDRICAL_SURFACE ( 'NONE', #867, 1.000000000000000888 ) ;
#239 = AXIS2_PLACEMENT_3D ( 'NONE', #417, #917, #431 ) ;
#240 = VERTEX_POINT ( 'NONE', #616 ) ;
#241 = CARTESIAN_POINT ( 'NONE',  ( -19.75000000000000711, -11.08578643762690952, 6.500000000000000888 ) ) ;
#242 = CARTESIAN_POINT ( 'NONE',  ( -18.75000000000000355, -11.50000000000000533, 8.844449625432007522 ) ) ;
#243 = ORIENTED_EDGE ( 'NONE', *, *, #330, .F. ) ;
#244 = CARTESIAN_POINT ( 'NONE',  ( -19.75000000000000355, 11.08578643762689886, 6.500000000000001776 ) ) ;
#245 = EDGE_CURVE ( 'NONE', #254, #519, #286, .T. ) ;
#246 = DIRECTION ( 'NONE',  ( -0.000000000000000000, -0.000000000000000000, 1.000000000000000000 ) ) ;
#247 = ORIENTED_EDGE ( 'NONE', *, *, #434, .T. ) ;
#248 = VERTEX_POINT ( 'NONE', #293 ) ;
#249 = CARTESIAN_POINT ( 'NONE',  ( 19.74999999999999645, 11.50000000000000000, 7.500000000000000000 ) ) ;
#250 = CYLINDRICAL_SURFACE ( 'NONE', #359, 3.000000000000012879 ) ;
#251 = EDGE_LOOP ( 'NONE', ( #52, #164, #165, #374 ) ) ;
#252 = AXIS2_PLACEMENT_3D ( 'NONE', #388, #121, #595 ) ;
#253 = EDGE_CURVE ( 'NONE', #754, #411, #98, .T. ) ;
#254 = VERTEX_POINT ( 'NONE', #704 ) ;
#255 = PLANE ( 'NONE',  #494 ) ;
#256 = CARTESIAN_POINT ( 'NONE',  ( -1.249999999999969802, 3.673940397442075645E-16, 8.233336159326549719 ) ) ;
#257 = DIRECTION ( 'NONE',  ( 0.9993908270190958731, 8.778059388890642222E-17, -0.03489949670249371111 ) ) ;
#258 = EDGE_CURVE ( 'NONE', #604, #77, #341, .T. ) ;
#259 = FACE_BOUND ( 'NONE', #338, .T. ) ;
#260 = DIRECTION ( 'NONE',  ( 1.000000000000000000, 0.000000000000000000, 0.000000000000000000 ) ) ;
#261 = DIRECTION ( 'NONE',  ( 1.000000000000000000, 0.000000000000000000, 0.000000000000000000 ) ) ;
#262 = VERTEX_POINT ( 'NONE', #853 ) ;
#263 = VECTOR ( 'NONE', #842, 1000.000000000000000 ) ;
#264 = CARTESIAN_POINT ( 'NONE',  ( 3.250000000000056399, 0.000000000000000000, 4.879370394923747689 ) ) ;
#265 = MECHANICAL_DESIGN_GEOMETRIC_PRESENTATION_REPRESENTATION (  '', ( #446 ), #560 ) ;
#266 = ORIENTED_EDGE ( 'NONE', *, *, #552, .T. ) ;
#267 = FACE_OUTER_BOUND ( 'NONE', #535, .T. ) ;
#268 = CARTESIAN_POINT ( 'NONE',  ( 1.750000000000043077, 0.000000000000000000, 8.879370394923746801 ) ) ;
#269 = EDGE_CURVE ( 'NONE', #90, #672, #226, .T. ) ;
#270 = DIRECTION ( 'NONE',  ( 0.6427876096865436928, 5.645867121976022711E-17, 0.7660444431189744607 ) ) ;
#271 = ORIENTED_EDGE ( 'NONE', *, *, #474, .F. ) ;
#272 = DIRECTION ( 'NONE',  ( -0.000000000000000000, -0.000000000000000000, -1.000000000000000000 ) ) ;
#273 = CARTESIAN_POINT ( 'NONE',  ( 15.25000000000005507, 0.000000000000000000, 8.879370394923746801 ) ) ;
#274 = FACE_BOUND ( 'NONE', #63, .T. ) ;
#275 = VERTEX_POINT ( 'NONE', #79 ) ;
#276 = CARTESIAN_POINT ( 'NONE',  ( -18.75000000000000355, -10.50000000000000355, 7.500000000000000000 ) ) ;
#277 = CARTESIAN_POINT ( 'NONE',  ( -19.75000000000000355, 10.49999999999999645, 7.500000000000000000 ) ) ;
#278 = ORIENTED_EDGE ( 'NONE', *, *, #608, .T. ) ;
#279 = ADVANCED_FACE ( 'NONE', ( #160 ), #238, .T. ) ;
#280 = AXIS2_PLACEMENT_3D ( 'NONE', #489, #785, #62 ) ;
#281 = LINE ( 'NONE', #356, #333 ) ;
#282 = PLANE ( 'NONE',  #507 ) ;
#283 = VERTEX_POINT ( 'NONE', #102 ) ;
#284 = EDGE_CURVE ( 'NONE', #432, #478, #641, .T. ) ;
#285 = CARTESIAN_POINT ( 'NONE',  ( -3.065449703681253357, 11.49999999999999822, -9.500000000000000000 ) ) ;
#286 = LINE ( 'NONE', #708, #113 ) ;
#287 = VERTEX_POINT ( 'NONE', #795 ) ;
#288 = DIRECTION ( 'NONE',  ( -0.000000000000000000, -0.000000000000000000, 1.000000000000000000 ) ) ;
#289 = CARTESIAN_POINT ( 'NONE',  ( 19.74999999999999645, -11.50000000000000000, 7.500000000000000000 ) ) ;
#290 = ORIENTED_EDGE ( 'NONE', *, *, #688, .F. ) ;
#291 = AXIS2_PLACEMENT_3D ( 'NONE', #674, #815, #586 ) ;
#292 = EDGE_CURVE ( 'NONE', #334, #19, #865, .T. ) ;
#293 = CARTESIAN_POINT ( 'NONE',  ( 0.2500000000000360267, 1.836970198721038562E-16, -9.499999999999998224 ) ) ;
#294 = VERTEX_POINT ( 'NONE', #363 ) ;
#295 = CARTESIAN_POINT ( 'NONE',  ( 19.74999999999999645, 3.900000000000000355, 0.5000000000000004441 ) ) ;
#296 = CARTESIAN_POINT ( 'NONE',  ( -19.75000000000000000, -11.50000000000001066, 6.500000000000000000 ) ) ;
#297 = ORIENTED_EDGE ( 'NONE', *, *, #245, .F. ) ;
#298 = CARTESIAN_POINT ( 'NONE',  ( -19.75000000000000355, -11.50000000000000533, 8.879370394923746801 ) ) ;
#299 =( BOUNDED_CURVE ( )  B_SPLINE_CURVE ( 3, ( #690, #476, #319, #134 ),
 .UNSPECIFIED., .F., .F. ) 
 B_SPLINE_CURVE_WITH_KNOTS ( ( 4, 4 ),
 ( 1.570796326794896558, 3.141592653589794448 ),
 .UNSPECIFIED. ) 
 CURVE ( )  GEOMETRIC_REPRESENTATION_ITEM ( )  RATIONAL_B_SPLINE_CURVE ( ( 1.000000000000000000, 0.8047378541243646044, 0.8047378541243646044, 1.000000000000000000 ) ) 
 REPRESENTATION_ITEM ( '' )  );
#300 = LINE ( 'NONE', #878, #116 ) ;
#301 = ORIENTED_EDGE ( 'NONE', *, *, #480, .F. ) ;
#302 = ADVANCED_FACE ( 'NONE', ( #871 ), #313, .F. ) ;
#303 = AXIS2_PLACEMENT_3D ( 'NONE', #249, #322, #594 ) ;
#304 = CARTESIAN_POINT ( 'NONE',  ( 1.750000000000043077, 0.000000000000000000, 4.879370394923747689 ) ) ;
#305 =( BOUNDED_CURVE ( )  B_SPLINE_CURVE ( 3, ( #12, #244, #229, #159 ),
 .UNSPECIFIED., .F., .F. ) 
 B_SPLINE_CURVE_WITH_KNOTS ( ( 4, 4 ),
 ( 3.141592653589791784, 4.712388980384689674 ),
 .UNSPECIFIED. ) 
 CURVE ( )  GEOMETRIC_REPRESENTATION_ITEM ( )  RATIONAL_B_SPLINE_CURVE ( ( 1.000000000000000000, 0.8047378541243646044, 0.8047378541243646044, 1.000000000000000000 ) ) 
 REPRESENTATION_ITEM ( '' )  );
#306 = ORIENTED_EDGE ( 'NONE', *, *, #220, .F. ) ;
#307 = ORIENTED_EDGE ( 'NONE', *, *, #588, .T. ) ;
#308 = EDGE_CURVE ( 'NONE', #866, #25, #440, .T. ) ;
#309 = CARTESIAN_POINT ( 'NONE',  ( 15.25000000000005507, 0.000000000000000000, 0.5000000000000004441 ) ) ;
#310 = CARTESIAN_POINT ( 'NONE',  ( 4.750000000000055067, 6.000000000000024869, 8.023811542376105166 ) ) ;
#311 = ORIENTED_EDGE ( 'NONE', *, *, #652, .T. ) ;
#312 = ORIENTED_EDGE ( 'NONE', *, *, #14, .F. ) ;
#313 = CYLINDRICAL_SURFACE ( 'NONE', #729, 3.000000000000012879 ) ;
#314 = EDGE_CURVE ( 'NONE', #848, #804, #300, .T. ) ;
#315 = EDGE_LOOP ( 'NONE', ( #657, #444 ) ) ;
#316 = CARTESIAN_POINT ( 'NONE',  ( -18.75000000000000355, 11.49999999999999645, 8.844449625432007522 ) ) ;
#317 = DIRECTION ( 'NONE',  ( 1.000000000000000000, 0.000000000000000000, 0.000000000000000000 ) ) ;
#318 = EDGE_CURVE ( 'NONE', #423, #737, #406, .T. ) ;
#319 = CARTESIAN_POINT ( 'NONE',  ( -19.75000000000000355, 11.08578643762689886, 8.879370394923746801 ) ) ;
#320 = AXIS2_PLACEMENT_3D ( 'NONE', #354, #847, #142 ) ;
#321 = VECTOR ( 'NONE', #850, 1000.000000000000000 ) ;
#322 = DIRECTION ( 'NONE',  ( 8.783410004945858675E-17, -1.000000000000000000, 0.000000000000000000 ) ) ;
#323 = CYLINDRICAL_SURFACE ( 'NONE', #532, 3.000000000000012879 ) ;
#324 = DIRECTION ( 'NONE',  ( -0.000000000000000000, -0.000000000000000000, 1.000000000000000000 ) ) ;
#325 = ORIENTED_EDGE ( 'NONE', *, *, #367, .T. ) ;
#326 = DIRECTION ( 'NONE',  ( 0.000000000000000000, 0.000000000000000000, -1.000000000000000000 ) ) ;
#327 = LINE ( 'NONE', #823, #24 ) ;
#328 = DIRECTION ( 'NONE',  ( -1.097926250618234491E-17, -1.000000000000000000, 0.000000000000000000 ) ) ;
#329 = ORIENTED_EDGE ( 'NONE', *, *, #373, .F. ) ;
#330 = EDGE_CURVE ( 'NONE', #672, #139, #218, .T. ) ;
#331 = DIRECTION ( 'NONE',  ( -0.000000000000000000, -0.000000000000000000, 1.000000000000000000 ) ) ;
#332 = LINE ( 'NONE', #273, #838 ) ;
#333 = VECTOR ( 'NONE', #843, 1000.000000000000000 ) ;
#334 = VERTEX_POINT ( 'NONE', #720 ) ;
#335 = DIRECTION ( 'NONE',  ( 0.7660444431189744607, -8.410603032405489849E-18, -0.6427876096865436928 ) ) ;
#336 = FACE_OUTER_BOUND ( 'NONE', #58, .T. ) ;
#337 = DIRECTION ( 'NONE',  ( 1.000000000000000000, -1.097926250618234491E-17, 0.000000000000000000 ) ) ;
#338 = EDGE_LOOP ( 'NONE', ( #783, #918 ) ) ;
#339 = LINE ( 'NONE', #605, #868 ) ;
#340 = EDGE_CURVE ( 'NONE', #713, #733, #71, .T. ) ;
#341 = LINE ( 'NONE', #277, #700 ) ;
#342 = ORIENTED_EDGE ( 'NONE', *, *, #612, .F. ) ;
#343 = SURFACE_STYLE_USAGE ( .BOTH. , #556 ) ;
#344 = FACE_BOUND ( 'NONE', #177, .T. ) ;
#345 = EDGE_CURVE ( 'NONE', #6, #248, #517, .T. ) ;
#346 = ORIENTED_EDGE ( 'NONE', *, *, #308, .T. ) ;
#347 = AXIS2_PLACEMENT_3D ( 'NONE', #56, #75, #349 ) ;
#348 = AXIS2_PLACEMENT_3D ( 'NONE', #545, #839, #550 ) ;
#349 = DIRECTION ( 'NONE',  ( -1.000000000000000000, -1.097926250618234491E-17, 0.000000000000000000 ) ) ;
#350 = LINE ( 'NONE', #414, #745 ) ;
#351 = EDGE_LOOP ( 'NONE', ( #583, #885, #415, #182, #228, #614, #266, #342, #676, #306 ) ) ;
#352 = FACE_BOUND ( 'NONE', #419, .T. ) ;
#353 = CARTESIAN_POINT ( 'NONE',  ( 12.25000000000003375, 1.836970198721045465E-16, 4.879370394923747689 ) ) ;
#354 = CARTESIAN_POINT ( 'NONE',  ( 13.75000000000004619, 0.000000000000000000, 0.5000000000000004441 ) ) ;
#355 = ORIENTED_EDGE ( 'NONE', *, *, #694, .F. ) ;
#356 = CARTESIAN_POINT ( 'NONE',  ( -19.75000000000000000, 3.900000000000000799, 6.499999999999999112 ) ) ;
#357 = FACE_BOUND ( 'NONE', #484, .T. ) ;
#358 = VERTEX_POINT ( 'NONE', #92 ) ;
#359 = AXIS2_PLACEMENT_3D ( 'NONE', #518, #564, #789 ) ;
#360 = DIRECTION ( 'NONE',  ( 0.000000000000000000, 0.000000000000000000, 1.000000000000000000 ) ) ;
#361 = ADVANCED_FACE ( 'NONE', ( #371 ), #167, .F. ) ;
#362 = VECTOR ( 'NONE', #762, 1000.000000000000000 ) ;
#363 = CARTESIAN_POINT ( 'NONE',  ( -3.065449703681254245, 3.899999999999999911, -7.500000000000000000 ) ) ;
#364 = VERTEX_POINT ( 'NONE', #22 ) ;
#365 = LINE ( 'NONE', #711, #895 ) ;
#366 = DIRECTION ( 'NONE',  ( 1.000000000000000000, 0.000000000000000000, 0.000000000000000000 ) ) ;
#367 = EDGE_CURVE ( 'NONE', #19, #32, #601, .T. ) ;
#368 = VERTEX_POINT ( 'NONE', #503 ) ;
#369 = ORIENTED_EDGE ( 'NONE', *, *, #552, .F. ) ;
#370 = CARTESIAN_POINT ( 'NONE',  ( 16.75000000000006040, 0.000000000000000000, 8.879370394923746801 ) ) ;
#371 = FACE_OUTER_BOUND ( 'NONE', #872, .T. ) ;
#372 = ORIENTED_EDGE ( 'NONE', *, *, #841, .T. ) ;
#373 = EDGE_CURVE ( 'NONE', #578, #283, #392, .T. ) ;
#374 = ORIENTED_EDGE ( 'NONE', *, *, #258, .T. ) ;
#375 = CIRCLE ( 'NONE', #599, 1.500000000000007105 ) ;
#376 = CARTESIAN_POINT ( 'NONE',  ( 13.75000000000004619, 0.000000000000000000, 8.879370394923746801 ) ) ;
#377 = VECTOR ( 'NONE', #27, 1000.000000000000000 ) ;
#378 = DIRECTION ( 'NONE',  ( 0.000000000000000000, 0.000000000000000000, 1.000000000000000000 ) ) ;
#379 = ORIENTED_EDGE ( 'NONE', *, *, #78, .T. ) ;
#380 = ORIENTED_EDGE ( 'NONE', *, *, #784, .F. ) ;
#381 = CARTESIAN_POINT ( 'NONE',  ( -19.33578643762690774, -11.50000000000000355, 8.864905738591764006 ) ) ;
#382 = ORIENTED_EDGE ( 'NONE', *, *, #701, .F. ) ;
#383 = FACE_OUTER_BOUND ( 'NONE', #565, .T. ) ;
#384 = EDGE_CURVE ( 'NONE', #89, #504, #512, .T. ) ;
#385 = DIRECTION ( 'NONE',  ( 0.000000000000000000, 0.000000000000000000, 1.000000000000000000 ) ) ;
#386 = ORIENTED_EDGE ( 'NONE', *, *, #626, .F. ) ;
#387 = EDGE_LOOP ( 'NONE', ( #644, #579, #551, #462 ) ) ;
#388 = CARTESIAN_POINT ( 'NONE',  ( -19.75000000000000355, -11.50000000000000533, 7.500000000000000000 ) ) ;
#389 = CLOSED_SHELL ( 'NONE', ( #753, #765, #739, #361, #520, #898, #450, #184, #204, #794, #30, #542, #42, #824, #141, #879, #721, #810, #805, #34, #396, #593, #197, #524, #302, #111, #557, #279 ) ) ;
#390 = DIRECTION ( 'NONE',  ( 1.000000000000000000, 0.000000000000000000, 0.000000000000000000 ) ) ;
#391 = CIRCLE ( 'NONE', #915, 3.000000000000012879 ) ;
#392 = CIRCLE ( 'NONE', #173, 1.500000000000013545 ) ;
#393 = ORIENTED_EDGE ( 'NONE', *, *, #213, .T. ) ;
#394 = CARTESIAN_POINT ( 'NONE',  ( 19.74999999999999645, -11.50000000000000000, -9.500000000000000000 ) ) ;
#395 = PLANE ( 'NONE',  #777 ) ;
#396 = ADVANCED_FACE ( 'NONE', ( #171 ), #250, .F. ) ;
#397 = ORIENTED_EDGE ( 'NONE', *, *, #670, .F. ) ;
#398 = CARTESIAN_POINT ( 'NONE',  ( 10.75000000000003375, -6.000000000000024869, 7.814286925425662389 ) ) ;
#399 = LINE ( 'NONE', #452, #820 ) ;
#400 = CARTESIAN_POINT ( 'NONE',  ( -19.75000000000000711, 11.49999999999999645, 8.879370394923746801 ) ) ;
#401 = ORIENTED_EDGE ( 'NONE', *, *, #608, .F. ) ;
#402 = EDGE_CURVE ( 'NONE', #411, #128, #332, .T. ) ;
#403 = CARTESIAN_POINT ( 'NONE',  ( -3.065449703681252469, -11.50000000000000888, -7.500000000000001776 ) ) ;
#404 = FACE_OUTER_BOUND ( 'NONE', #107, .T. ) ;
#405 = CARTESIAN_POINT ( 'NONE',  ( 13.75000000000004619, 0.000000000000000000, -7.500000000000000000 ) ) ;
#406 = CIRCLE ( 'NONE', #9, 1.500000000000007327 ) ;
#407 = ORIENTED_EDGE ( 'NONE', *, *, #78, .F. ) ;
#408 = LINE ( 'NONE', #475, #223 ) ;
#409 = CARTESIAN_POINT ( 'NONE',  ( -18.75000000000000355, -11.50000000000001066, 5.660900368822711748 ) ) ;
#410 = DIRECTION ( 'NONE',  ( 0.7660444431189744607, 0.000000000000000000, -0.6427876096865436928 ) ) ;
#411 = VERTEX_POINT ( 'NONE', #35 ) ;
#412 = APPLICATION_PROTOCOL_DEFINITION ( 'draft international standard', 'automotive_design', 1998, #211 ) ;
#413 = CARTESIAN_POINT ( 'NONE',  ( -19.33578643762690419, -11.50000000000000178, 6.152433552584105847 ) ) ;
#414 = CARTESIAN_POINT ( 'NONE',  ( 19.74999999999999645, -3.900000000000000355, 0.5000000000000004441 ) ) ;
#415 = ORIENTED_EDGE ( 'NONE', *, *, #663, .T. ) ;
#416 = LINE ( 'NONE', #201, #715 ) ;
#417 = CARTESIAN_POINT ( 'NONE',  ( 13.75000000000004619, 0.000000000000000000, 8.879370394923746801 ) ) ;
#418 = VECTOR ( 'NONE', #91, 1000.000000000000000 ) ;
#419 = EDGE_LOOP ( 'NONE', ( #511, #192 ) ) ;
#420 = AXIS2_PLACEMENT_3D ( 'NONE', #659, #176, #725 ) ;
#421 = DIRECTION ( 'NONE',  ( 0.000000000000000000, 1.000000000000000000, 0.000000000000000000 ) ) ;
#422 = DIRECTION ( 'NONE',  ( -0.000000000000000000, -0.000000000000000000, -1.000000000000000000 ) ) ;
#423 = VERTEX_POINT ( 'NONE', #526 ) ;
#424 = EDGE_CURVE ( 'NONE', #32, #19, #207, .T. ) ;
#425 = DIRECTION ( 'NONE',  ( -0.000000000000000000, -0.000000000000000000, -1.000000000000000000 ) ) ;
#426 = DIRECTION ( 'NONE',  ( 0.000000000000000000, 0.000000000000000000, -1.000000000000000000 ) ) ;
#427 = DIRECTION ( 'NONE',  ( 1.000000000000000000, 0.000000000000000000, 0.000000000000000000 ) ) ;
#428 = EDGE_LOOP ( 'NONE', ( #779, #651 ) ) ;
#429 = EDGE_CURVE ( 'NONE', #754, #368, #327, .T. ) ;
#430 = CARTESIAN_POINT ( 'NONE',  ( -19.75000000000000000, -10.50000000000000355, 6.500000000000000000 ) ) ;
#431 = DIRECTION ( 'NONE',  ( 1.000000000000000000, 0.000000000000000000, 0.000000000000000000 ) ) ;
#432 = VERTEX_POINT ( 'NONE', #905 ) ;
#433 = VECTOR ( 'NONE', #421, 1000.000000000000000 ) ;
#434 = EDGE_CURVE ( 'NONE', #6, #423, #892, .T. ) ;
#435 = CARTESIAN_POINT ( 'NONE',  ( 1.750000000000043077, 0.000000000000000000, 8.879370394923746801 ) ) ;
#436 = ORIENTED_EDGE ( 'NONE', *, *, #870, .F. ) ;
#437 = VERTEX_POINT ( 'NONE', #751 ) ;
#438 = LINE ( 'NONE', #101, #225 ) ;
#439 = EDGE_CURVE ( 'NONE', #457, #119, #617, .T. ) ;
#440 = LINE ( 'NONE', #639, #377 ) ;
#441 = ORIENTED_EDGE ( 'NONE', *, *, #178, .T. ) ;
#442 = LINE ( 'NONE', #563, #634 ) ;
#443 = DIRECTION ( 'NONE',  ( -0.000000000000000000, -0.000000000000000000, 1.000000000000000000 ) ) ;
#444 = ORIENTED_EDGE ( 'NONE', *, *, #734, .T. ) ;
#445 = FACE_OUTER_BOUND ( 'NONE', #696, .T. ) ;
#446 = STYLED_ITEM ( 'NONE', ( #615 ), #630 ) ;
#447 = DIRECTION ( 'NONE',  ( -0.000000000000000000, -0.000000000000000000, 1.000000000000000000 ) ) ;
#448 = ORIENTED_EDGE ( 'NONE', *, *, #906, .F. ) ;
#449 = ORIENTED_EDGE ( 'NONE', *, *, #61, .T. ) ;
#450 = ADVANCED_FACE ( 'NONE', ( #540 ), #531, .F. ) ;
#451 = DIRECTION ( 'NONE',  ( 1.000000000000000000, 0.000000000000000000, 0.000000000000000000 ) ) ;
#452 = CARTESIAN_POINT ( 'NONE',  ( 19.74999999999999645, 11.49999999999999822, -9.500000000000000000 ) ) ;
#453 = ORIENTED_EDGE ( 'NONE', *, *, #474, .T. ) ;
#454 = FACE_OUTER_BOUND ( 'NONE', #568, .T. ) ;
#455 = DIRECTION ( 'NONE',  ( 1.000000000000000000, 0.000000000000000000, 0.000000000000000000 ) ) ;
#456 = DIRECTION ( 'NONE',  ( -1.000000000000000000, 1.097926250618234491E-17, 0.000000000000000000 ) ) ;
#457 = VERTEX_POINT ( 'NONE', #811 ) ;
#458 = CARTESIAN_POINT ( 'NONE',  ( 12.25000000000003908, 1.836970198721038069E-16, -9.499999999999998224 ) ) ;
#459 = AXIS2_PLACEMENT_3D ( 'NONE', #376, #655, #26 ) ;
#460 = CARTESIAN_POINT ( 'NONE',  ( 10.75000000000003375, 6.000000000000024869, 7.814286925425662389 ) ) ;
#461 = VECTOR ( 'NONE', #693, 1000.000000000000000 ) ;
#462 = ORIENTED_EDGE ( 'NONE', *, *, #245, .T. ) ;
#463 = AXIS2_PLACEMENT_3D ( 'NONE', #162, #576, #498 ) ;
#464 = ORIENTED_EDGE ( 'NONE', *, *, #912, .F. ) ;
#465 = DIRECTION ( 'NONE',  ( 0.03489949670249371805, 4.598048827563873554E-18, 0.9993908270190959842 ) ) ;
#466 = CARTESIAN_POINT ( 'NONE',  ( 13.75000000000004619, 0.000000000000000000, -7.500000000000000000 ) ) ;
#467 = EDGE_CURVE ( 'NONE', #519, #768, #185, .T. ) ;
#468 = DIRECTION ( 'NONE',  ( 0.7660444431189744607, 7.964705404216172167E-17, -0.6427876096865436928 ) ) ;
#469 = ORIENTED_EDGE ( 'NONE', *, *, #638, .F. ) ;
#470 = FACE_BOUND ( 'NONE', #826, .T. ) ;
#471 = PLANE ( 'NONE',  #744 ) ;
#472 = DIRECTION ( 'NONE',  ( -0.000000000000000000, -0.000000000000000000, 1.000000000000000000 ) ) ;
#473 = ORIENTED_EDGE ( 'NONE', *, *, #330, .T. ) ;
#474 = EDGE_CURVE ( 'NONE', #364, #240, #110, .T. ) ;
#475 = CARTESIAN_POINT ( 'NONE',  ( -19.75000000000000000, -3.899999999999999911, 6.500000000000000000 ) ) ;
#476 = CARTESIAN_POINT ( 'NONE',  ( -19.33578643762690774, 11.49999999999999822, 8.864905738591764006 ) ) ;
#477 = CIRCLE ( 'NONE', #585, 1.500000000000008216 ) ;
#478 = VERTEX_POINT ( 'NONE', #256 ) ;
#479 = AXIS2_PLACEMENT_3D ( 'NONE', #405, #685, #888 ) ;
#480 = EDGE_CURVE ( 'NONE', #514, #437, #678, .T. ) ;
#481 = CARTESIAN_POINT ( 'NONE',  ( -1.065449703681252913, -11.50000000000000355, -9.500000000000001776 ) ) ;
#482 =( NAMED_UNIT ( * ) PLANE_ANGLE_UNIT ( ) SI_UNIT ( $, .RADIAN. ) );
#483 = CARTESIAN_POINT ( 'NONE',  ( 19.74999999999999645, 3.900000000000000355, 0.5000000000000004441 ) ) ;
#484 = EDGE_LOOP ( 'NONE', ( #18, #172 ) ) ;
#485 = CYLINDRICAL_SURFACE ( 'NONE', #727, 1.500000000000007327 ) ;
#486 = DIRECTION ( 'NONE',  ( 1.000000000000000000, 0.000000000000000000, 0.000000000000000000 ) ) ;
#487 = ORIENTED_EDGE ( 'NONE', *, *, #384, .T. ) ;
#488 = FILL_AREA_STYLE_COLOUR ( '', #570 ) ;
#489 = CARTESIAN_POINT ( 'NONE',  ( 13.75000000000004619, 0.000000000000000000, -9.499999999999998224 ) ) ;
#490 = AXIS2_PLACEMENT_3D ( 'NONE', #886, #331, #819 ) ;
#491 = ORIENTED_EDGE ( 'NONE', *, *, #621, .T. ) ;
#492 = VECTOR ( 'NONE', #581, 1000.000000000000000 ) ;
#493 = DIRECTION ( 'NONE',  ( 0.7071067811865463515, 9.316213164658460251E-17, -0.7071067811865487940 ) ) ;
#494 = AXIS2_PLACEMENT_3D ( 'NONE', #584, #465, #194 ) ;
#495 = LINE ( 'NONE', #919, #433 ) ;
#496 = CARTESIAN_POINT ( 'NONE',  ( -19.75000000000000355, -10.50000000000000355, 7.500000000000000000 ) ) ;
#497 = EDGE_LOOP ( 'NONE', ( #301, #569 ) ) ;
#498 = DIRECTION ( 'NONE',  ( 1.000000000000000000, 0.000000000000000000, 0.000000000000000000 ) ) ;
#499 = DIRECTION ( 'NONE',  ( -8.783410004945859907E-17, 1.000000000000000000, -0.000000000000000000 ) ) ;
#500 = ORIENTED_EDGE ( 'NONE', *, *, #638, .T. ) ;
#501 = EDGE_CURVE ( 'NONE', #275, #437, #600, .T. ) ;
#502 = CARTESIAN_POINT ( 'NONE',  ( 12.25000000000003908, 1.836970198721038069E-16, 0.5000000000000004441 ) ) ;
#503 = CARTESIAN_POINT ( 'NONE',  ( 12.25000000000003908, 1.836970198721038069E-16, -7.500000000000000000 ) ) ;
#504 = VERTEX_POINT ( 'NONE', #180 ) ;
#505 = AXIS2_PLACEMENT_3D ( 'NONE', #435, #648, #31 ) ;
#506 = EDGE_CURVE ( 'NONE', #358, #519, #399, .T. ) ;
#507 = AXIS2_PLACEMENT_3D ( 'NONE', #289, #221, #72 ) ;
#508 = EDGE_LOOP ( 'NONE', ( #23, #840, #718, #174 ) ) ;
#509 = DIRECTION ( 'NONE',  ( -0.000000000000000000, -0.000000000000000000, 1.000000000000000000 ) ) ;
#510 = CARTESIAN_POINT ( 'NONE',  ( -19.75000000000000355, -10.50000000000000178, 8.879370394923746801 ) ) ;
#511 = ORIENTED_EDGE ( 'NONE', *, *, #670, .T. ) ;
#512 = LINE ( 'NONE', #296, #897 ) ;
#513 = EDGE_CURVE ( 'NONE', #128, #368, #477, .T. ) ;
#514 = VERTEX_POINT ( 'NONE', #49 ) ;
#515 = AXIS2_PLACEMENT_3D ( 'NONE', #627, #764, #205 ) ;
#516 = CARTESIAN_POINT ( 'NONE',  ( 13.75000000000004619, 0.000000000000000000, 8.879370394923746801 ) ) ;
#517 = CIRCLE ( 'NONE', #131, 1.500000000000007327 ) ;
#518 = CARTESIAN_POINT ( 'NONE',  ( 1.750000000000043077, 0.000000000000000000, 8.879370394923746801 ) ) ;
#519 = VERTEX_POINT ( 'NONE', #394 ) ;
#520 = ADVANCED_FACE ( 'NONE', ( #900 ), #323, .F. ) ;
#521 = EDGE_LOOP ( 'NONE', ( #894, #123 ) ) ;
#522 = CARTESIAN_POINT ( 'NONE',  ( 10.75000000000003375, 3.673940397442075645E-16, 7.814286925425661501 ) ) ;
#523 = CYLINDRICAL_SURFACE ( 'NONE', #571, 1.500000000000008216 ) ;
#524 = ADVANCED_FACE ( 'NONE', ( #195, #336 ), #471, .F. ) ;
#525 = DIRECTION ( 'NONE',  ( 1.000000000000000000, 0.000000000000000000, 0.000000000000000000 ) ) ;
#526 = CARTESIAN_POINT ( 'NONE',  ( 3.250000000000050626, 0.000000000000000000, -7.500000000000000000 ) ) ;
#527 = CARTESIAN_POINT ( 'NONE',  ( 4.750000000000055955, 0.000000000000000000, 4.879370394923747689 ) ) ;
#528 = VERTEX_POINT ( 'NONE', #126 ) ;
#529 = CARTESIAN_POINT ( 'NONE',  ( 0.2500000000000360267, 1.836970198721038562E-16, 8.879370394923746801 ) ) ;
#530 = VECTOR ( 'NONE', #326, 1000.000000000000000 ) ;
#531 = PLANE ( 'NONE',  #252 ) ;
#532 = AXIS2_PLACEMENT_3D ( 'NONE', #268, #607, #455 ) ;
#533 = LINE ( 'NONE', #680, #55 ) ;
#534 = VECTOR ( 'NONE', #148, 1000.000000000000000 ) ;
#535 = EDGE_LOOP ( 'NONE', ( #380, #189, #539, #325 ) ) ;
#536 = FACE_OUTER_BOUND ( 'NONE', #845, .T. ) ;
#537 = CARTESIAN_POINT ( 'NONE',  ( 16.75000000000006040, 0.000000000000000000, 7.604762308475218724 ) ) ;
#538 = CARTESIAN_POINT ( 'NONE',  ( 4.750000000000055955, 0.000000000000000000, 8.879370394923746801 ) ) ;
#539 = ORIENTED_EDGE ( 'NONE', *, *, #292, .T. ) ;
#540 = FACE_OUTER_BOUND ( 'NONE', #251, .T. ) ;
#541 = FACE_OUTER_BOUND ( 'NONE', #428, .T. ) ;
#542 = ADVANCED_FACE ( 'NONE', ( #404 ), #684, .F. ) ;
#543 = EDGE_LOOP ( 'NONE', ( #436, #15, #247, #758 ) ) ;
#544 = CYLINDRICAL_SURFACE ( 'NONE', #188, 1.500000000000007327 ) ;
#545 = CARTESIAN_POINT ( 'NONE',  ( 0.000000000000000000, 0.000000000000000000, -7.500000000000000000 ) ) ;
#546 = PRESENTATION_LAYER_ASSIGNMENT (  '', '', ( #446 ) ) ;
#547 = VERTEX_POINT ( 'NONE', #140 ) ;
#548 = CARTESIAN_POINT ( 'NONE',  ( 19.74999999999999645, 3.900000000000000355, -7.500000000000000000 ) ) ;
#549 = CARTESIAN_POINT ( 'NONE',  ( 12.25000000000003908, 1.836970198721039055E-16, 8.879370394923746801 ) ) ;
#550 = DIRECTION ( 'NONE',  ( 1.000000000000000000, 0.000000000000000000, -0.000000000000000000 ) ) ;
#551 = ORIENTED_EDGE ( 'NONE', *, *, #621, .F. ) ;
#552 = EDGE_CURVE ( 'NONE', #294, #575, #281, .T. ) ;
#553 = DIRECTION ( 'NONE',  ( -1.317511500741878924E-16, 1.000000000000000000, 0.000000000000000000 ) ) ;
#554 = ORIENTED_EDGE ( 'NONE', *, *, #402, .F. ) ;
#555 =( NAMED_UNIT ( * ) PLANE_ANGLE_UNIT ( ) SI_UNIT ( $, .RADIAN. ) );
#556 = SURFACE_SIDE_STYLE ('',( #133 ) ) ;
#557 = ADVANCED_FACE ( 'NONE', ( #910 ), #631, .T. ) ;
#558 = DIRECTION ( 'NONE',  ( 0.000000000000000000, 0.000000000000000000, -1.000000000000000000 ) ) ;
#559 = ORIENTED_EDGE ( 'NONE', *, *, #728, .F. ) ;
#560 =( GEOMETRIC_REPRESENTATION_CONTEXT ( 3 ) GLOBAL_UNCERTAINTY_ASSIGNED_CONTEXT ( ( #59 ) ) GLOBAL_UNIT_ASSIGNED_CONTEXT ( ( #781, #482, #846 ) ) REPRESENTATION_CONTEXT ( 'NONE', 'WORKASPACE' ) );
#561 = DIRECTION ( 'NONE',  ( -1.000000000000000000, -1.317511500741878924E-16, 0.000000000000000000 ) ) ;
#562 = ORIENTED_EDGE ( 'NONE', *, *, #480, .T. ) ;
#563 = CARTESIAN_POINT ( 'NONE',  ( 19.74999999999999645, 3.900000000000000355, -7.500000000000000000 ) ) ;
#564 = DIRECTION ( 'NONE',  ( -0.000000000000000000, -0.000000000000000000, 1.000000000000000000 ) ) ;
#565 = EDGE_LOOP ( 'NONE', ( #143, #28, #902, #709, #386, #453 ) ) ;
#566 = EDGE_CURVE ( 'NONE', #457, #478, #416, .T. ) ;
#567 = DIRECTION ( 'NONE',  ( -0.000000000000000000, -0.000000000000000000, 1.000000000000000000 ) ) ;
#568 = EDGE_LOOP ( 'NONE', ( #68, #158, #73, #393 ) ) ;
#569 = ORIENTED_EDGE ( 'NONE', *, *, #841, .F. ) ;
#570 = COLOUR_RGB ( '',0.7921568627450980005, 0.8196078431372548767, 0.9333333333333333481 ) ;
#571 = AXIS2_PLACEMENT_3D ( 'NONE', #41, #324, #261 ) ;
#572 = AXIS2_PLACEMENT_3D ( 'NONE', #516, #738, #525 ) ;
#573 = CYLINDRICAL_SURFACE ( 'NONE', #459, 1.500000000000008216 ) ;
#574 = DIRECTION ( 'NONE',  ( 1.000000000000000000, 0.000000000000000000, 0.000000000000000000 ) ) ;
#575 = VERTEX_POINT ( 'NONE', #623 ) ;
#576 = DIRECTION ( 'NONE',  ( 0.000000000000000000, 0.000000000000000000, 1.000000000000000000 ) ) ;
#577 = DIRECTION ( 'NONE',  ( 0.000000000000000000, 0.000000000000000000, -1.000000000000000000 ) ) ;
#578 = VERTEX_POINT ( 'NONE', #353 ) ;
#579 = ORIENTED_EDGE ( 'NONE', *, *, #682, .F. ) ;
#580 = FACE_OUTER_BOUND ( 'NONE', #1, .T. ) ;
#581 = DIRECTION ( 'NONE',  ( -0.000000000000000000, -0.000000000000000000, 1.000000000000000000 ) ) ;
#582 = ORIENTED_EDGE ( 'NONE', *, *, #688, .T. ) ;
#583 = ORIENTED_EDGE ( 'NONE', *, *, #384, .F. ) ;
#584 = CARTESIAN_POINT ( 'NONE',  ( -19.75000000000001066, 51.02407699980344091, 8.879370394923746801 ) ) ;
#585 = AXIS2_PLACEMENT_3D ( 'NONE', #466, #385, #260 ) ;
#586 = DIRECTION ( 'NONE',  ( 1.000000000000000000, 0.000000000000000000, 0.000000000000000000 ) ) ;
#587 = PLANE ( 'NONE',  #10 ) ;
#588 = EDGE_CURVE ( 'NONE', #713, #578, #137, .T. ) ;
#589 = CYLINDRICAL_SURFACE ( 'NONE', #490, 1.500000000000007327 ) ;
#590 = DIRECTION ( 'NONE',  ( -0.000000000000000000, -0.000000000000000000, 1.000000000000000000 ) ) ;
#591 = CARTESIAN_POINT ( 'NONE',  ( -18.75000000000000355, -11.50000000000001066, 5.660900368822711748 ) ) ;
#592 = ORIENTED_EDGE ( 'NONE', *, *, #787, .F. ) ;
#593 = ADVANCED_FACE ( 'NONE', ( #4 ), #544, .F. ) ;
#594 = DIRECTION ( 'NONE',  ( 1.000000000000000000, 8.783410004945858675E-17, 0.000000000000000000 ) ) ;
#595 = DIRECTION ( 'NONE',  ( 0.000000000000000000, 0.000000000000000000, -1.000000000000000000 ) ) ;
#596 = LINE ( 'NONE', #602, #362 ) ;
#597 = ORIENTED_EDGE ( 'NONE', *, *, #318, .F. ) ;
#598 = DIRECTION ( 'NONE',  ( -1.000000000000000000, 0.000000000000000000, 0.000000000000000000 ) ) ;
#599 = AXIS2_PLACEMENT_3D ( 'NONE', #125, #425, #780 ) ;
#600 = LINE ( 'NONE', #832, #237 ) ;
#601 = CIRCLE ( 'NONE', #792, 1.500000000000013101 ) ;
#602 = CARTESIAN_POINT ( 'NONE',  ( -3.065449703681253357, 11.49999999999999822, -7.500000000000000000 ) ) ;
#603 = VECTOR ( 'NONE', #730, 1000.000000000000000 ) ;
#604 = VERTEX_POINT ( 'NONE', #770 ) ;
#605 = CARTESIAN_POINT ( 'NONE',  ( 19.74999999999999645, 3.900000000000000355, 0.5000000000000004441 ) ) ;
#606 =( BOUNDED_CURVE ( )  B_SPLINE_CURVE ( 3, ( #409, #413, #241, #430 ),
 .UNSPECIFIED., .F., .F. ) 
 B_SPLINE_CURVE_WITH_KNOTS ( ( 4, 4 ),
 ( 1.570796326794896780, 3.141592653589793116 ),
 .UNSPECIFIED. ) 
 CURVE ( )  GEOMETRIC_REPRESENTATION_ITEM ( )  RATIONAL_B_SPLINE_CURVE ( ( 1.000000000000000000, 0.8047378541243650485, 0.8047378541243650485, 1.000000000000000000 ) ) 
 REPRESENTATION_ITEM ( '' )  );
#607 = DIRECTION ( 'NONE',  ( -0.000000000000000000, -0.000000000000000000, 1.000000000000000000 ) ) ;
#608 = EDGE_CURVE ( 'NONE', #275, #287, #653, .T. ) ;
#609 = ORIENTED_EDGE ( 'NONE', *, *, #626, .T. ) ;
#610 = ORIENTED_EDGE ( 'NONE', *, *, #566, .T. ) ;
#611 = DIRECTION ( 'NONE',  ( 0.000000000000000000, 0.000000000000000000, 1.000000000000000000 ) ) ;
#612 = EDGE_CURVE ( 'NONE', #741, #575, #837, .T. ) ;
#613 = LINE ( 'NONE', #483, #534 ) ;
#614 = ORIENTED_EDGE ( 'NONE', *, *, #799, .F. ) ;
#615 = PRESENTATION_STYLE_ASSIGNMENT (( #343 ) ) ;
#616 = CARTESIAN_POINT ( 'NONE',  ( -3.065449703681253357, 11.49999999999999822, -7.500000000000000000 ) ) ;
#617 = CIRCLE ( 'NONE', #916, 3.000000000000012879 ) ;
#618 = AXIS2_PLACEMENT_3D ( 'NONE', #695, #553, #561 ) ;
#619 = VECTOR ( 'NONE', #493, 1000.000000000000000 ) ;
#620 = ORIENTED_EDGE ( 'NONE', *, *, #701, .T. ) ;
#621 = EDGE_CURVE ( 'NONE', #254, #528, #495, .T. ) ;
#622 = LINE ( 'NONE', #481, #619 ) ;
#623 = CARTESIAN_POINT ( 'NONE',  ( -12.59947844443481202, 3.899999999999999911, 0.5000000000000004441 ) ) ;
#624 = LINE ( 'NONE', #857, #914 ) ;
#625 = ORIENTED_EDGE ( 'NONE', *, *, #54, .F. ) ;
#626 = EDGE_CURVE ( 'NONE', #364, #358, #219, .T. ) ;
#627 = CARTESIAN_POINT ( 'NONE',  ( 1.750000000000043077, 0.000000000000000000, 0.5000000000000004441 ) ) ;
#628 = PLANE ( 'NONE',  #618 ) ;
#629 = EDGE_LOOP ( 'NONE', ( #169, #884, #797, #150 ) ) ;
#630 = MANIFOLD_SOLID_BREP ( '\X2\570689d2\X0\5', #389 ) ;
#631 = CYLINDRICAL_SURFACE ( 'NONE', #668, 1.000000000000000888 ) ;
#632 = EDGE_CURVE ( 'NONE', #89, #90, #606, .T. ) ;
#633 = FACE_OUTER_BOUND ( 'NONE', #154, .T. ) ;
#634 = VECTOR ( 'NONE', #793, 1000.000000000000000 ) ;
#635 = EDGE_LOOP ( 'NONE', ( #97, #610, #817, #122 ) ) ;
#636 = VECTOR ( 'NONE', #117, 1000.000000000000000 ) ;
#637 = DIRECTION ( 'NONE',  ( -0.000000000000000000, -0.000000000000000000, -1.000000000000000000 ) ) ;
#638 = EDGE_CURVE ( 'NONE', #254, #139, #760, .T. ) ;
#639 = CARTESIAN_POINT ( 'NONE',  ( 19.74999999999999645, 11.49999999999999822, -7.500000000000000000 ) ) ;
#640 = ORIENTED_EDGE ( 'NONE', *, *, #100, .T. ) ;
#641 =( BOUNDED_CURVE ( )  B_SPLINE_CURVE ( 3, ( #716, #310, #233, #83 ),
 .UNSPECIFIED., .F., .F. ) 
 B_SPLINE_CURVE_WITH_KNOTS ( ( 4, 4 ),
 ( 3.141592653589793116, 6.283185307179586232 ),
 .UNSPECIFIED. ) 
 CURVE ( )  GEOMETRIC_REPRESENTATION_ITEM ( )  RATIONAL_B_SPLINE_CURVE ( ( 1.000000000000000000, 0.3333333333333333703, 0.3333333333333333703, 1.000000000000000000 ) ) 
 REPRESENTATION_ITEM ( '' )  );
#642 = CARTESIAN_POINT ( 'NONE',  ( -19.75000000000000355, -10.50000000000000178, 8.879370394923746801 ) ) ;
#643 = CARTESIAN_POINT ( 'NONE',  ( 1.750000000000043077, 0.000000000000000000, -7.500000000000000000 ) ) ;
#644 = ORIENTED_EDGE ( 'NONE', *, *, #506, .F. ) ;
#645 =( BOUNDED_CURVE ( )  B_SPLINE_CURVE ( 3, ( #8, #66, #782, #920 ),
 .UNSPECIFIED., .F., .F. ) 
 B_SPLINE_CURVE_WITH_KNOTS ( ( 4, 4 ),
 ( 0.000000000000000000, 3.141592653589793116 ),
 .UNSPECIFIED. ) 
 CURVE ( )  GEOMETRIC_REPRESENTATION_ITEM ( )  RATIONAL_B_SPLINE_CURVE ( ( 1.000000000000000000, 0.3333333333333333703, 0.3333333333333333703, 1.000000000000000000 ) ) 
 REPRESENTATION_ITEM ( '' )  );
#646 = ORIENTED_EDGE ( 'NONE', *, *, #269, .F. ) ;
#647 = FACE_OUTER_BOUND ( 'NONE', #723, .T. ) ;
#648 = DIRECTION ( 'NONE',  ( -0.000000000000000000, -0.000000000000000000, 1.000000000000000000 ) ) ;
#649 = ORIENTED_EDGE ( 'NONE', *, *, #890, .F. ) ;
#650 = CIRCLE ( 'NONE', #899, 1.500000000000008216 ) ;
#651 = ORIENTED_EDGE ( 'NONE', *, *, #439, .T. ) ;
#652 = EDGE_CURVE ( 'NONE', #262, #25, #365, .T. ) ;
#653 = CIRCLE ( 'NONE', #854, 3.000000000000012879 ) ;
#654 = VECTOR ( 'NONE', #719, 1000.000000000000114 ) ;
#655 = DIRECTION ( 'NONE',  ( -0.000000000000000000, -0.000000000000000000, 1.000000000000000000 ) ) ;
#656 = CARTESIAN_POINT ( 'NONE',  ( -18.75000000000000355, 10.49999999999999645, 7.500000000000000000 ) ) ;
#657 = ORIENTED_EDGE ( 'NONE', *, *, #345, .T. ) ;
#658 = CYLINDRICAL_SURFACE ( 'NONE', #144, 1.500000000000008216 ) ;
#659 = CARTESIAN_POINT ( 'NONE',  ( 13.75000000000004619, 0.000000000000000000, 0.5000000000000004441 ) ) ;
#660 = VERTEX_POINT ( 'NONE', #802 ) ;
#661 = DIRECTION ( 'NONE',  ( -0.000000000000000000, -0.000000000000000000, 1.000000000000000000 ) ) ;
#662 = DIRECTION ( 'NONE',  ( -1.000000000000000000, 0.000000000000000000, -0.000000000000000000 ) ) ;
#663 = EDGE_CURVE ( 'NONE', #90, #77, #156, .T. ) ;
#664 = ORIENTED_EDGE ( 'NONE', *, *, #759, .F. ) ;
#665 = ORIENTED_EDGE ( 'NONE', *, *, #308, .F. ) ;
#666 = CARTESIAN_POINT ( 'NONE',  ( -18.75000000000000355, -11.50000000000000533, 7.500000000000000000 ) ) ;
#667 = AXIS2_PLACEMENT_3D ( 'NONE', #752, #825, #390 ) ;
#668 = AXIS2_PLACEMENT_3D ( 'NONE', #276, #426, #766 ) ;
#669 = CARTESIAN_POINT ( 'NONE',  ( -3.065449703681256022, -11.49999999999999822, -9.500000000000000000 ) ) ;
#670 = EDGE_CURVE ( 'NONE', #411, #754, #650, .T. ) ;
#671 = FACE_OUTER_BOUND ( 'NONE', #231, .T. ) ;
#672 = VERTEX_POINT ( 'NONE', #642 ) ;
#673 = CARTESIAN_POINT ( 'NONE',  ( -19.75000000000001066, 51.02407699980344091, 8.879370394923746801 ) ) ;
#674 = CARTESIAN_POINT ( 'NONE',  ( 1.750000000000043077, 0.000000000000000000, 4.879370394923747689 ) ) ;
#675 = LINE ( 'NONE', #748, #236 ) ;
#676 = ORIENTED_EDGE ( 'NONE', *, *, #906, .T. ) ;
#677 = CARTESIAN_POINT ( 'NONE',  ( 16.75000000000006040, -6.000000000000024869, 7.604762308475218724 ) ) ;
#678 =( BOUNDED_CURVE ( )  B_SPLINE_CURVE ( 3, ( #537, #191, #460, #522 ),
 .UNSPECIFIED., .F., .F. ) 
 B_SPLINE_CURVE_WITH_KNOTS ( ( 4, 4 ),
 ( 3.141592653589793116, 6.283185307179586232 ),
 .UNSPECIFIED. ) 
 CURVE ( )  GEOMETRIC_REPRESENTATION_ITEM ( )  RATIONAL_B_SPLINE_CURVE ( ( 1.000000000000000000, 0.3333333333333333703, 0.3333333333333333703, 1.000000000000000000 ) ) 
 REPRESENTATION_ITEM ( '' )  );
#679 = DIRECTION ( 'NONE',  ( -0.7071067811865463515, -6.210808776438973912E-17, 0.7071067811865487940 ) ) ;
#680 = CARTESIAN_POINT ( 'NONE',  ( 19.74999999999999645, -3.900000000000000355, -7.500000000000000000 ) ) ;
#681 = EDGE_LOOP ( 'NONE', ( #625, #809, #355, #11 ) ) ;
#682 = EDGE_CURVE ( 'NONE', #528, #358, #438, .T. ) ;
#683 = CARTESIAN_POINT ( 'NONE',  ( -1.065449703681254245, -11.49999999999999822, -9.500000000000000000 ) ) ;
#684 = PLANE ( 'NONE',  #347 ) ;
#685 = DIRECTION ( 'NONE',  ( 0.000000000000000000, 0.000000000000000000, 1.000000000000000000 ) ) ;
#686 = CIRCLE ( 'NONE', #667, 1.500000000000013545 ) ;
#687 = ORIENTED_EDGE ( 'NONE', *, *, #588, .F. ) ;
#688 = EDGE_CURVE ( 'NONE', #768, #364, #16, .T. ) ;
#689 = DIRECTION ( 'NONE',  ( -0.000000000000000000, -0.000000000000000000, 1.000000000000000000 ) ) ;
#690 = CARTESIAN_POINT ( 'NONE',  ( -18.75000000000000355, 11.49999999999999645, 8.844449625432007522 ) ) ;
#691 = EDGE_LOOP ( 'NONE', ( #687, #774, #859, #869 ) ) ;
#692 = DIRECTION ( 'NONE',  ( 1.000000000000000000, 0.000000000000000000, 0.000000000000000000 ) ) ;
#693 = DIRECTION ( 'NONE',  ( -0.000000000000000000, -0.000000000000000000, 1.000000000000000000 ) ) ;
#694 = EDGE_CURVE ( 'NONE', #77, #848, #305, .T. ) ;
#695 = CARTESIAN_POINT ( 'NONE',  ( 19.74999999999999645, -11.50000000000000000, 7.500000000000000000 ) ) ;
#696 = EDGE_LOOP ( 'NONE', ( #43, #763, #640, #554 ) ) ;
#697 = CARTESIAN_POINT ( 'NONE',  ( 13.75000000000004619, 0.000000000000000000, 4.879370394923747689 ) ) ;
#698 = VECTOR ( 'NONE', #44, 1000.000000000000000 ) ;
#699 = FACE_OUTER_BOUND ( 'NONE', #387, .T. ) ;
#700 = VECTOR ( 'NONE', #558, 1000.000000000000000 ) ;
#701 = EDGE_CURVE ( 'NONE', #287, #514, #863, .T. ) ;
#702 = AXIS2_PLACEMENT_3D ( 'NONE', #814, #882, #183 ) ;
#703 = ORIENTED_EDGE ( 'NONE', *, *, #728, .T. ) ;
#704 = CARTESIAN_POINT ( 'NONE',  ( 19.74999999999999645, -11.50000000000000000, 7.500000000000000000 ) ) ;
#705 = ORIENTED_EDGE ( 'NONE', *, *, #155, .F. ) ;
#706 = PLANE ( 'NONE',  #7 ) ;
#707 = DIRECTION ( 'NONE',  ( -0.000000000000000000, -0.000000000000000000, 1.000000000000000000 ) ) ;
#708 = CARTESIAN_POINT ( 'NONE',  ( 19.74999999999999645, -11.50000000000000000, 7.500000000000000000 ) ) ;
#709 = ORIENTED_EDGE ( 'NONE', *, *, #682, .T. ) ;
#710 = EDGE_CURVE ( 'NONE', #547, #262, #94, .T. ) ;
#711 = CARTESIAN_POINT ( 'NONE',  ( 19.74999999999999645, -3.900000000000000355, 0.5000000000000004441 ) ) ;
#712 = DIRECTION ( 'NONE',  ( 1.000000000000000000, 0.000000000000000000, 0.000000000000000000 ) ) ;
#713 = VERTEX_POINT ( 'NONE', #502 ) ;
#714 = AXIS2_PLACEMENT_3D ( 'NONE', #773, #209, #844 ) ;
#715 = VECTOR ( 'NONE', #689, 1000.000000000000000 ) ;
#716 = CARTESIAN_POINT ( 'NONE',  ( 4.750000000000055955, 0.000000000000000000, 8.023811542376105166 ) ) ;
#717 = ORIENTED_EDGE ( 'NONE', *, *, #799, .T. ) ;
#718 = ORIENTED_EDGE ( 'NONE', *, *, #87, .T. ) ;
#719 = DIRECTION ( 'NONE',  ( -0.9993908270190958731, -1.316708908333596272E-16, 0.03489949670249370417 ) ) ;
#720 = CARTESIAN_POINT ( 'NONE',  ( 3.250000000000050626, 0.000000000000000000, 0.5000000000000004441 ) ) ;
#721 = ADVANCED_FACE ( 'NONE', ( #856 ), #235, .F. ) ;
#722 = ORIENTED_EDGE ( 'NONE', *, *, #506, .T. ) ;
#723 = EDGE_LOOP ( 'NONE', ( #876, #307, #93, #664 ) ) ;
#724 = DIRECTION ( 'NONE',  ( -0.000000000000000000, -0.000000000000000000, -1.000000000000000000 ) ) ;
#725 = DIRECTION ( 'NONE',  ( -1.000000000000000000, 0.000000000000000000, 0.000000000000000000 ) ) ;
#726 = EDGE_LOOP ( 'NONE', ( #135, #901, #620, #562 ) ) ;
#727 = AXIS2_PLACEMENT_3D ( 'NONE', #130, #903, #692 ) ;
#728 = EDGE_CURVE ( 'NONE', #294, #866, #442, .T. ) ;
#729 = AXIS2_PLACEMENT_3D ( 'NONE', #163, #567, #712 ) ;
#730 = DIRECTION ( 'NONE',  ( 1.131341397376178819E-16, 1.000000000000000000, 0.000000000000000000 ) ) ;
#731 = DIRECTION ( 'NONE',  ( 1.000000000000000000, 0.000000000000000000, 0.000000000000000000 ) ) ;
#732 = ORIENTED_EDGE ( 'NONE', *, *, #402, .T. ) ;
#733 = VERTEX_POINT ( 'NONE', #309 ) ;
#734 = EDGE_CURVE ( 'NONE', #248, #6, #778, .T. ) ;
#735 = LINE ( 'NONE', #896, #698 ) ;
#736 = DIRECTION ( 'NONE',  ( 0.000000000000000000, -1.000000000000000000, 0.000000000000000000 ) ) ;
#737 = VERTEX_POINT ( 'NONE', #860 ) ;
#738 = DIRECTION ( 'NONE',  ( -0.000000000000000000, -0.000000000000000000, 1.000000000000000000 ) ) ;
#739 = ADVANCED_FACE ( 'NONE', ( #647 ), #573, .F. ) ;
#740 = CARTESIAN_POINT ( 'NONE',  ( 15.25000000000006040, 0.000000000000000000, 4.879370394923747689 ) ) ;
#741 = VERTEX_POINT ( 'NONE', #170 ) ;
#742 = ORIENTED_EDGE ( 'NONE', *, *, #434, .F. ) ;
#743 = CARTESIAN_POINT ( 'NONE',  ( -18.75000000000000355, 11.49999999999999645, 5.660900368822709083 ) ) ;
#744 = AXIS2_PLACEMENT_3D ( 'NONE', #740, #106, #662 ) ;
#745 = VECTOR ( 'NONE', #215, 1000.000000000000000 ) ;
#746 = AXIS2_PLACEMENT_3D ( 'NONE', #224, #611, #151 ) ;
#747 = CARTESIAN_POINT ( 'NONE',  ( 3.250000000000050626, 0.000000000000000000, 8.879370394923746801 ) ) ;
#748 = CARTESIAN_POINT ( 'NONE',  ( -19.75000000000000355, 11.49999999999999645, 6.500000000000000000 ) ) ;
#749 = EDGE_LOOP ( 'NONE', ( #449, #717, #271, #290, #649, #234 ) ) ;
#750 = CARTESIAN_POINT ( 'NONE',  ( 10.75000000000003375, 3.673940397442075645E-16, 7.814286925425661501 ) ) ;
#751 = CARTESIAN_POINT ( 'NONE',  ( 10.75000000000003375, 3.673940397442075645E-16, 7.814286925425661501 ) ) ;
#752 = CARTESIAN_POINT ( 'NONE',  ( 13.75000000000004619, 0.000000000000000000, 4.879370394923747689 ) ) ;
#753 = ADVANCED_FACE ( 'NONE', ( #445 ), #658, .F. ) ;
#754 = VERTEX_POINT ( 'NONE', #458 ) ;
#755 = PLANE ( 'NONE',  #864 ) ;
#756 = DIRECTION ( 'NONE',  ( -1.000000000000000000, 7.603284171501169273E-17, -0.000000000000000000 ) ) ;
#757 = CARTESIAN_POINT ( 'NONE',  ( -19.75000000000000355, 10.49999999999999467, 6.500000000000000000 ) ) ;
#758 = ORIENTED_EDGE ( 'NONE', *, *, #318, .T. ) ;
#759 = EDGE_CURVE ( 'NONE', #733, #283, #735, .T. ) ;
#760 = LINE ( 'NONE', #298, #654 ) ;
#761 = VECTOR ( 'NONE', #679, 1000.000000000000000 ) ;
#762 = DIRECTION ( 'NONE',  ( 1.131341397376178819E-16, 1.000000000000000000, -0.000000000000000000 ) ) ;
#763 = ORIENTED_EDGE ( 'NONE', *, *, #429, .T. ) ;
#764 = DIRECTION ( 'NONE',  ( -0.000000000000000000, -0.000000000000000000, -1.000000000000000000 ) ) ;
#765 = ADVANCED_FACE ( 'NONE', ( #580 ), #891, .F. ) ;
#766 = DIRECTION ( 'NONE',  ( -1.000000000000000000, 0.000000000000000000, 0.000000000000000000 ) ) ;
#767 = CARTESIAN_POINT ( 'NONE',  ( 13.75000000000004619, 0.000000000000000000, 4.879370394923747689 ) ) ;
#768 = VERTEX_POINT ( 'NONE', #683 ) ;
#769 =( LENGTH_UNIT ( ) NAMED_UNIT ( * ) SI_UNIT ( .MILLI., .METRE. ) );
#770 = CARTESIAN_POINT ( 'NONE',  ( -19.75000000000000355, 10.49999999999999467, 8.879370394923746801 ) ) ;
#771 = EDGE_CURVE ( 'NONE', #604, #672, #39, .T. ) ;
#772 = APPLICATION_CONTEXT ( 'automotive_design' ) ;
#773 = CARTESIAN_POINT ( 'NONE',  ( 1.750000000000043077, 0.000000000000000000, -7.500000000000000000 ) ) ;
#774 = ORIENTED_EDGE ( 'NONE', *, *, #340, .T. ) ;
#775 = VECTOR ( 'NONE', #509, 1000.000000000000000 ) ;
#776 = FACE_BOUND ( 'NONE', #889, .T. ) ;
#777 = AXIS2_PLACEMENT_3D ( 'NONE', #57, #270, #410 ) ;
#778 = CIRCLE ( 'NONE', #463, 1.500000000000007327 ) ;
#779 = ORIENTED_EDGE ( 'NONE', *, *, #835, .T. ) ;
#780 = DIRECTION ( 'NONE',  ( -1.000000000000000000, 0.000000000000000000, 0.000000000000000000 ) ) ;
#781 =( LENGTH_UNIT ( ) NAMED_UNIT ( * ) SI_UNIT ( .MILLI., .METRE. ) );
#782 = CARTESIAN_POINT ( 'NONE',  ( 4.750000000000055067, -6.000000000000024869, 8.023811542376105166 ) ) ;
#783 = ORIENTED_EDGE ( 'NONE', *, *, #284, .F. ) ;
#784 = EDGE_CURVE ( 'NONE', #913, #32, #105, .T. ) ;
#785 = DIRECTION ( 'NONE',  ( 0.000000000000000000, 0.000000000000000000, 1.000000000000000000 ) ) ;
#786 = ORIENTED_EDGE ( 'NONE', *, *, #632, .F. ) ;
#787 = EDGE_CURVE ( 'NONE', #139, #89, #179, .T. ) ;
#788 = DIRECTION ( 'NONE',  ( 0.7071067811865487940, -7.999791739217619740E-17, 0.7071067811865463515 ) ) ;
#789 = DIRECTION ( 'NONE',  ( 1.000000000000000000, 0.000000000000000000, 0.000000000000000000 ) ) ;
#790 = ORIENTED_EDGE ( 'NONE', *, *, #149, .F. ) ;
#791 = CIRCLE ( 'NONE', #479, 1.500000000000008216 ) ;
#792 = AXIS2_PLACEMENT_3D ( 'NONE', #304, #443, #731 ) ;
#793 = DIRECTION ( 'NONE',  ( 1.000000000000000000, 1.097926250618234491E-17, -0.000000000000000000 ) ) ;
#794 = ADVANCED_FACE ( 'NONE', ( #383 ), #33, .F. ) ;
#795 = CARTESIAN_POINT ( 'NONE',  ( 16.75000000000006040, 0.000000000000000000, 4.879370394923747689 ) ) ;
#796 = EDGE_LOOP ( 'NONE', ( #243, #646, #786, #592 ) ) ;
#797 = ORIENTED_EDGE ( 'NONE', *, *, #424, .T. ) ;
#798 = DIRECTION ( 'NONE',  ( 0.000000000000000000, -1.000000000000000000, 0.000000000000000000 ) ) ;
#799 = EDGE_CURVE ( 'NONE', #294, #240, #53, .T. ) ;
#800 = DIRECTION ( 'NONE',  ( 1.000000000000000000, 0.000000000000000000, 0.000000000000000000 ) ) ;
#801 = EDGE_LOOP ( 'NONE', ( #161, #329 ) ) ;
#802 = CARTESIAN_POINT ( 'NONE',  ( -3.065449703681250249, -3.899999999999999911, -7.500000000000000000 ) ) ;
#803 = DIRECTION ( 'NONE',  ( 0.7660444431189744607, 7.964705404216172167E-17, -0.6427876096865436928 ) ) ;
#804 = VERTEX_POINT ( 'NONE', #316 ) ;
#805 = ADVANCED_FACE ( 'NONE', ( #267 ), #589, .F. ) ;
#806 = CARTESIAN_POINT ( 'NONE',  ( 0.000000000000000000, 0.000000000000000000, 0.5000000000000004441 ) ) ;
#807 = DIRECTION ( 'NONE',  ( -1.000000000000000000, 0.000000000000000000, 0.000000000000000000 ) ) ;
#808 = ORIENTED_EDGE ( 'NONE', *, *, #54, .T. ) ;
#809 = ORIENTED_EDGE ( 'NONE', *, *, #314, .F. ) ;
#810 = ADVANCED_FACE ( 'NONE', ( #190, #259, #536 ), #255, .T. ) ;
#811 = CARTESIAN_POINT ( 'NONE',  ( -1.249999999999969802, 3.673940397442075645E-16, 4.879370394923747689 ) ) ;
#812 = CARTESIAN_POINT ( 'NONE',  ( 3.250000000000050626, 0.000000000000000000, -9.499999999999998224 ) ) ;
#813 = EDGE_LOOP ( 'NONE', ( #830, #582, #609, #722 ) ) ;
#814 = CARTESIAN_POINT ( 'NONE',  ( 1.750000000000043077, 0.000000000000000000, 4.879370394923747689 ) ) ;
#815 = DIRECTION ( 'NONE',  ( -0.000000000000000000, -0.000000000000000000, 1.000000000000000000 ) ) ;
#816 = CARTESIAN_POINT ( 'NONE',  ( 15.25000000000005507, 0.000000000000000000, -7.500000000000000000 ) ) ;
#817 = ORIENTED_EDGE ( 'NONE', *, *, #227, .T. ) ;
#818 = CIRCLE ( 'NONE', #702, 3.000000000000012879 ) ;
#819 = DIRECTION ( 'NONE',  ( 1.000000000000000000, 0.000000000000000000, 0.000000000000000000 ) ) ;
#820 = VECTOR ( 'NONE', #736, 1000.000000000000000 ) ;
#821 = AXIS2_PLACEMENT_3D ( 'NONE', #264, #46, #196 ) ;
#822 = CIRCLE ( 'NONE', #515, 1.500000000000007105 ) ;
#823 = CARTESIAN_POINT ( 'NONE',  ( 12.25000000000003908, 1.836970198721039055E-16, 8.879370394923746801 ) ) ;
#824 = ADVANCED_FACE ( 'NONE', ( #877, #470, #454 ), #755, .T. ) ;
#825 = DIRECTION ( 'NONE',  ( -0.000000000000000000, -0.000000000000000000, 1.000000000000000000 ) ) ;
#826 = EDGE_LOOP ( 'NONE', ( #85, #104 ) ) ;
#827 = DIRECTION ( 'NONE',  ( -0.000000000000000000, -0.000000000000000000, 1.000000000000000000 ) ) ;
#828 = DIRECTION ( 'NONE',  ( -0.000000000000000000, -0.000000000000000000, 1.000000000000000000 ) ) ;
#829 = LINE ( 'NONE', #538, #132 ) ;
#830 = ORIENTED_EDGE ( 'NONE', *, *, #467, .T. ) ;
#831 = LINE ( 'NONE', #199, #263 ) ;
#832 = CARTESIAN_POINT ( 'NONE',  ( 10.75000000000003375, 3.673940397442075645E-16, 8.879370394923746801 ) ) ;
#833 = CARTESIAN_POINT ( 'NONE',  ( 3.250000000000056399, 0.000000000000000000, 4.879370394923747689 ) ) ;
#834 = ORIENTED_EDGE ( 'NONE', *, *, #870, .T. ) ;
#835 = EDGE_CURVE ( 'NONE', #119, #457, #818, .T. ) ;
#836 = SHAPE_DEFINITION_REPRESENTATION ( #214, #124 ) ;
#837 = LINE ( 'NONE', #208, #321 ) ;
#838 = VECTOR ( 'NONE', #40, 1000.000000000000000 ) ;
#839 = DIRECTION ( 'NONE',  ( 0.000000000000000000, 0.000000000000000000, 1.000000000000000000 ) ) ;
#840 = ORIENTED_EDGE ( 'NONE', *, *, #835, .F. ) ;
#841 = EDGE_CURVE ( 'NONE', #437, #514, #51, .T. ) ;
#842 = DIRECTION ( 'NONE',  ( -0.000000000000000000, -0.000000000000000000, 1.000000000000000000 ) ) ;
#843 = DIRECTION ( 'NONE',  ( -0.7660444431189744607, -8.410603032405489849E-18, 0.6427876096865436928 ) ) ;
#844 = DIRECTION ( 'NONE',  ( 1.000000000000000000, 0.000000000000000000, 0.000000000000000000 ) ) ;
#845 = EDGE_LOOP ( 'NONE', ( #875, #473, #469, #491, #312, #808 ) ) ;
#846 =( NAMED_UNIT ( * ) SI_UNIT ( $, .STERADIAN. ) SOLID_ANGLE_UNIT ( ) );
#847 = DIRECTION ( 'NONE',  ( -0.000000000000000000, -0.000000000000000000, -1.000000000000000000 ) ) ;
#848 = VERTEX_POINT ( 'NONE', #743 ) ;
#849 =( NAMED_UNIT ( * ) SI_UNIT ( $, .STERADIAN. ) SOLID_ANGLE_UNIT ( ) );
#850 = DIRECTION ( 'NONE',  ( -8.783410004945858675E-17, 1.000000000000000000, 0.000000000000000000 ) ) ;
#851 =( GEOMETRIC_REPRESENTATION_CONTEXT ( 3 ) GLOBAL_UNCERTAINTY_ASSIGNED_CONTEXT ( ( #200 ) ) GLOBAL_UNIT_ASSIGNED_CONTEXT ( ( #769, #555, #849 ) ) REPRESENTATION_CONTEXT ( 'NONE', 'WORKASPACE' ) );
#852 = EDGE_CURVE ( 'NONE', #913, #334, #375, .T. ) ;
#853 = CARTESIAN_POINT ( 'NONE',  ( 19.74999999999999645, -3.900000000000000355, 0.5000000000000004441 ) ) ;
#854 = AXIS2_PLACEMENT_3D ( 'NONE', #697, #707, #152 ) ;
#855 = ORIENTED_EDGE ( 'NONE', *, *, #213, .F. ) ;
#856 = FACE_OUTER_BOUND ( 'NONE', #749, .T. ) ;
#857 = CARTESIAN_POINT ( 'NONE',  ( -3.065449703681252469, -11.50000000000000888, -7.500000000000001776 ) ) ;
#858 = PRODUCT_DEFINITION ( '普通', '', #99, #904 ) ;
#859 = ORIENTED_EDGE ( 'NONE', *, *, #759, .T. ) ;
#860 = CARTESIAN_POINT ( 'NONE',  ( 0.2500000000000360267, 1.836970198721038562E-16, -7.500000000000000000 ) ) ;
#861 = ORIENTED_EDGE ( 'NONE', *, *, #912, .T. ) ;
#862 = EDGE_CURVE ( 'NONE', #334, #913, #822, .T. ) ;
#863 = LINE ( 'NONE', #370, #775 ) ;
#864 = AXIS2_PLACEMENT_3D ( 'NONE', #806, #175, #598 ) ;
#865 = LINE ( 'NONE', #88, #492 ) ;
#866 = VERTEX_POINT ( 'NONE', #548 ) ;
#867 = AXIS2_PLACEMENT_3D ( 'NONE', #656, #577, #807 ) ;
#868 = VECTOR ( 'NONE', #272, 1000.000000000000000 ) ;
#869 = ORIENTED_EDGE ( 'NONE', *, *, #82, .T. ) ;
#870 = EDGE_CURVE ( 'NONE', #248, #737, #831, .T. ) ;
#871 = FACE_OUTER_BOUND ( 'NONE', #726, .T. ) ;
#872 = EDGE_LOOP ( 'NONE', ( #210, #834, #181, #742 ) ) ;
#873 = CARTESIAN_POINT ( 'NONE',  ( -19.75000000000000000, -11.50000000000001066, 6.500000000000000000 ) ) ;
#874 = CARTESIAN_POINT ( 'NONE',  ( -19.75000000000000355, -11.08578643762690774, 8.879370394923746801 ) ) ;
#875 = ORIENTED_EDGE ( 'NONE', *, *, #771, .T. ) ;
#876 = ORIENTED_EDGE ( 'NONE', *, *, #168, .T. ) ;
#877 = FACE_BOUND ( 'NONE', #521, .T. ) ;
#878 = CARTESIAN_POINT ( 'NONE',  ( -18.75000000000000355, 11.49999999999999645, 7.500000000000000000 ) ) ;
#879 = ADVANCED_FACE ( 'NONE', ( #352, #212, #74 ), #706, .F. ) ;
#880 = ORIENTED_EDGE ( 'NONE', *, *, #424, .F. ) ;
#881 = VECTOR ( 'NONE', #756, 1000.000000000000000 ) ;
#882 = DIRECTION ( 'NONE',  ( -0.000000000000000000, -0.000000000000000000, 1.000000000000000000 ) ) ;
#883 = DIRECTION ( 'NONE',  ( -0.000000000000000000, -0.000000000000000000, 1.000000000000000000 ) ) ;
#884 = ORIENTED_EDGE ( 'NONE', *, *, #784, .T. ) ;
#885 = ORIENTED_EDGE ( 'NONE', *, *, #632, .T. ) ;
#886 = CARTESIAN_POINT ( 'NONE',  ( 1.750000000000043077, 0.000000000000000000, 8.879370394923746801 ) ) ;
#887 = CARTESIAN_POINT ( 'NONE',  ( -1.065449703681252913, 11.49999999999999822, -9.499999999999998224 ) ) ;
#888 = DIRECTION ( 'NONE',  ( 1.000000000000000000, 0.000000000000000000, 0.000000000000000000 ) ) ;
#889 = EDGE_LOOP ( 'NONE', ( #37, #861, #346, #47 ) ) ;
#890 = EDGE_CURVE ( 'NONE', #504, #768, #622, .T. ) ;
#891 = CYLINDRICAL_SURFACE ( 'NONE', #572, 3.000000000000012879 ) ;
#892 = LINE ( 'NONE', #747, #636 ) ;
#893 = LINE ( 'NONE', #400, #70 ) ;
#894 = ORIENTED_EDGE ( 'NONE', *, *, #168, .F. ) ;
#895 = VECTOR ( 'NONE', #724, 1000.000000000000000 ) ;
#896 = CARTESIAN_POINT ( 'NONE',  ( 15.25000000000005507, 0.000000000000000000, 8.879370394923746801 ) ) ;
#897 = VECTOR ( 'NONE', #803, 1000.000000000000000 ) ;
#898 = ADVANCED_FACE ( 'NONE', ( #145 ), #485, .F. ) ;
#899 = AXIS2_PLACEMENT_3D ( 'NONE', #81, #360, #86 ) ;
#900 = FACE_OUTER_BOUND ( 'NONE', #635, .T. ) ;
#901 = ORIENTED_EDGE ( 'NONE', *, *, #178, .F. ) ;
#902 = ORIENTED_EDGE ( 'NONE', *, *, #14, .T. ) ;
#903 = DIRECTION ( 'NONE',  ( -0.000000000000000000, -0.000000000000000000, 1.000000000000000000 ) ) ;
#904 = PRODUCT_DEFINITION_CONTEXT ( 'detailed design', #211, 'design' ) ;
#905 = CARTESIAN_POINT ( 'NONE',  ( 4.750000000000055955, 0.000000000000000000, 8.023811542376105166 ) ) ;
#906 = EDGE_CURVE ( 'NONE', #741, #660, #408, .T. ) ;
#907 = CARTESIAN_POINT ( 'NONE',  ( 0.2500000000000299205, 1.836970198721045711E-16, 4.879370394923747689 ) ) ;
#908 = ORIENTED_EDGE ( 'NONE', *, *, #429, .F. ) ;
#909 = PRODUCT_CONTEXT ( 'NONE', #772, 'mechanical' ) ;
#910 = FACE_OUTER_BOUND ( 'NONE', #796, .T. ) ;
#911 = FACE_OUTER_BOUND ( 'NONE', #103, .T. ) ;
#912 = EDGE_CURVE ( 'NONE', #547, #866, #339, .T. ) ;
#913 = VERTEX_POINT ( 'NONE', #217 ) ;
#914 = VECTOR ( 'NONE', #499, 1000.000000000000000 ) ;
#915 = AXIS2_PLACEMENT_3D ( 'NONE', #767, #138, #427 ) ;
#916 = AXIS2_PLACEMENT_3D ( 'NONE', #45, #590, #317 ) ;
#917 = DIRECTION ( 'NONE',  ( -0.000000000000000000, -0.000000000000000000, 1.000000000000000000 ) ) ;
#918 = ORIENTED_EDGE ( 'NONE', *, *, #227, .F. ) ;
#919 = CARTESIAN_POINT ( 'NONE',  ( 19.74999999999999645, -11.50000000000000000, 7.500000000000000000 ) ) ;
#920 = CARTESIAN_POINT ( 'NONE',  ( 4.750000000000055955, 0.000000000000000000, 8.023811542376105166 ) ) ;
ENDSEC;
END-ISO-10303-21;
