ISO-10303-21;
HEADER;
FILE_DESCRIPTION (( 'STEP AP214' ),
    '1' );
FILE_NAME ('LQ26-05HGI-01-017.STEP',
    '2026-05-07T08:55:13',
    ( '' ),
    ( '' ),
    'SwSTEP 2.0',
    'SolidWorks 2025',
    '' );
FILE_SCHEMA (( 'AUTOMOTIVE_DESIGN' ));
ENDSEC;

DATA;
#1 = ORIENTED_EDGE ( 'NONE', *, *, #671, .F. ) ;
#2 = CARTESIAN_POINT ( 'NONE',  ( -10.00000000000000178, 17.50000000000000000, -11.49999999999998934 ) ) ;
#3 = EDGE_CURVE ( 'NONE', #33, #945, #101, .T. ) ;
#4 = FACE_OUTER_BOUND ( 'NONE', #184, .T. ) ;
#5 = ORIENTED_EDGE ( 'NONE', *, *, #1123, .T. ) ;
#6 = DIRECTION ( 'NONE',  ( -1.335737076502141463E-14, -1.000000000000000000, -1.734723475976807094E-16 ) ) ;
#7 = EDGE_LOOP ( 'NONE', ( #761, #323, #687, #137, #555, #927, #190, #598, #1107, #992, #934, #508, #233 ) ) ;
#8 = CIRCLE ( 'NONE', #952, 3.500000000000000888 ) ;
#9 = DIRECTION ( 'NONE',  ( 1.000000000000000000, 0.000000000000000000, 0.000000000000000000 ) ) ;
#10 = DIRECTION ( 'NONE',  ( -1.000000000000000000, 0.000000000000000000, 2.255140518769849223E-14 ) ) ;
#11 = AXIS2_PLACEMENT_3D ( 'NONE', #622, #139, #120 ) ;
#12 = EDGE_CURVE ( 'NONE', #230, #727, #1220, .T. ) ;
#13 = VERTEX_POINT ( 'NONE', #526 ) ;
#14 = DIRECTION ( 'NONE',  ( 1.000000000000000000, -0.000000000000000000, -0.000000000000000000 ) ) ;
#15 = AXIS2_PLACEMENT_3D ( 'NONE', #1169, #386, #10 ) ;
#16 = CIRCLE ( 'NONE', #78, 3.500000000000000444 ) ;
#17 = ORIENTED_EDGE ( 'NONE', *, *, #335, .T. ) ;
#18 = PLANE ( 'NONE',  #531 ) ;
#19 = CARTESIAN_POINT ( 'NONE',  ( -0.9022485054787053871, -16.79605959644818469, 2.306550061216672720 ) ) ;
#20 = DIRECTION ( 'NONE',  ( 0.9510565162951544194, 0.3090169943749448977, 0.000000000000000000 ) ) ;
#21 = CARTESIAN_POINT ( 'NONE',  ( 6.457987064189155468, -12.65002892706763937, 0.5828553887029669367 ) ) ;
#22 = EDGE_CURVE ( 'NONE', #987, #395, #831, .T. ) ;
#23 = ORIENTED_EDGE ( 'NONE', *, *, #1110, .F. ) ;
#24 = FACE_OUTER_BOUND ( 'NONE', #55, .T. ) ;
#25 = CARTESIAN_POINT ( 'NONE',  ( -7.859507550409091436, 10.91224162644607532, -10.00000000000007105 ) ) ;
#26 = CARTESIAN_POINT ( 'NONE',  ( -0.9022485054787053871, -12.08384440324537223, -3.400216766075318642 ) ) ;
#27 = DIRECTION ( 'NONE',  ( -0.3090169943749446757, 0.9510565162951545304, 0.000000000000000000 ) ) ;
#28 = ORIENTED_EDGE ( 'NONE', *, *, #612, .F. ) ;
#29 = EDGE_CURVE ( 'NONE', #797, #999, #330, .T. ) ;
#30 = DIRECTION ( 'NONE',  ( 0.000000000000000000, 0.000000000000000000, 1.000000000000000000 ) ) ;
#31 = LINE ( 'NONE', #1007, #430 ) ;
#32 = AXIS2_PLACEMENT_3D ( 'NONE', #870, #1261, #390 ) ;
#33 = VERTEX_POINT ( 'NONE', #1127 ) ;
#34 = CARTESIAN_POINT ( 'NONE',  ( -10.00000000000000178, 15.50000000000000178, -13.50000000000000000 ) ) ;
#35 = ORIENTED_EDGE ( 'NONE', *, *, #201, .F. ) ;
#36 = AXIS2_PLACEMENT_3D ( 'NONE', #290, #976, #1256 ) ;
#37 =( BOUNDED_CURVE ( )  B_SPLINE_CURVE ( 3, ( #109, #491, #100, #213 ),
 .UNSPECIFIED., .F., .F. ) 
 B_SPLINE_CURVE_WITH_KNOTS ( ( 4, 4 ),
 ( 1.570796326794896558, 3.141592653589791340 ),
 .UNSPECIFIED. ) 
 CURVE ( )  GEOMETRIC_REPRESENTATION_ITEM ( )  RATIONAL_B_SPLINE_CURVE ( ( 1.000000000000000000, 0.8047378541243654926, 0.8047378541243654926, 1.000000000000000000 ) ) 
 REPRESENTATION_ITEM ( '' )  );
#38 = VECTOR ( 'NONE', #995, 1000.000000000000000 ) ;
#39 = CARTESIAN_POINT ( 'NONE',  ( 1.616485629835035853, -17.50000000000000355, 16.25000000129905331 ) ) ;
#40 = EDGE_CURVE ( 'NONE', #1183, #903, #913, .T. ) ;
#41 = CARTESIAN_POINT ( 'NONE',  ( 5.964212836169316745, -8.980319187341908815, -3.500000000000000444 ) ) ;
#42 = VERTEX_POINT ( 'NONE', #1215 ) ;
#43 = CARTESIAN_POINT ( 'NONE',  ( -10.00000000000000178, -12.49999999999999645, 22.49999999999999645 ) ) ;
#44 = ORIENTED_EDGE ( 'NONE', *, *, #932, .T. ) ;
#45 = FACE_OUTER_BOUND ( 'NONE', #1040, .T. ) ;
#46 = DIRECTION ( 'NONE',  ( -0.000000000000000000, 1.000000000000000000, -0.000000000000000000 ) ) ;
#47 = ADVANCED_FACE ( 'NONE', ( #252 ), #1195, .F. ) ;
#48 = DIRECTION ( 'NONE',  ( -0.000000000000000000, 1.000000000000000000, -0.000000000000000000 ) ) ;
#49 = CARTESIAN_POINT ( 'NONE',  ( -0.9022485054787053871, -12.08384440324537223, -3.400216766075318642 ) ) ;
#50 = VERTEX_POINT ( 'NONE', #238 ) ;
#51 = PLANE ( 'NONE',  #289 ) ;
#52 = EDGE_CURVE ( 'NONE', #1170, #887, #1067, .T. ) ;
#53 = DIRECTION ( 'NONE',  ( 0.9510565162951544194, 0.3090169943749448977, 0.000000000000000000 ) ) ;
#54 = CARTESIAN_POINT ( 'NONE',  ( -0.9022485054787044989, -11.80027772178182666, 3.466030279552225757 ) ) ;
#55 = EDGE_LOOP ( 'NONE', ( #811, #854, #28, #697, #592 ) ) ;
#56 = AXIS2_PLACEMENT_3D ( 'NONE', #600, #402, #306 ) ;
#57 = DIRECTION ( 'NONE',  ( 0.000000000000000000, -1.000000000000000000, 1.156482317317871478E-16 ) ) ;
#58 = LINE ( 'NONE', #1226, #1036 ) ;
#59 = CARTESIAN_POINT ( 'NONE',  ( -10.00000000000000000, 17.49999999999999645, -3.499999999999992895 ) ) ;
#60 = ORIENTED_EDGE ( 'NONE', *, *, #52, .T. ) ;
#61 = EDGE_CURVE ( 'NONE', #158, #958, #288, .T. ) ;
#62 = CARTESIAN_POINT ( 'NONE',  ( -0.9022485054787053871, -12.49999999999999645, -13.49999999999999645 ) ) ;
#63 = CARTESIAN_POINT ( 'NONE',  ( -6.623439572909314066, 7.108015561265463411, 9.999999999999928946 ) ) ;
#64 = VERTEX_POINT ( 'NONE', #63 ) ;
#65 = LINE ( 'NONE', #183, #755 ) ;
#66 = ORIENTED_EDGE ( 'NONE', *, *, #962, .F. ) ;
#67 = EDGE_CURVE ( 'NONE', #165, #209, #16, .T. ) ;
#68 = AXIS2_PLACEMENT_3D ( 'NONE', #1091, #222, #603 ) ;
#69 = DIRECTION ( 'NONE',  ( 0.000000000000000000, 0.000000000000000000, -1.000000000000000000 ) ) ;
#70 = DIRECTION ( 'NONE',  ( 0.000000000000000000, 0.000000000000000000, -1.000000000000000000 ) ) ;
#71 = ORIENTED_EDGE ( 'NONE', *, *, #1130, .T. ) ;
#72 = CARTESIAN_POINT ( 'NONE',  ( 1.616485629835047844, -17.50000000000000355, -17.99999999870094314 ) ) ;
#73 = VERTEX_POINT ( 'NONE', #174 ) ;
#74 = VECTOR ( 'NONE', #723, 1000.000000000000000 ) ;
#75 = CARTESIAN_POINT ( 'NONE',  ( -0.5840779475931247022, 11.17324755448037976, -10.00000000000007105 ) ) ;
#76 = VECTOR ( 'NONE', #948, 1000.000000000000000 ) ;
#77 = EDGE_CURVE ( 'NONE', #897, #585, #1250, .T. ) ;
#78 = AXIS2_PLACEMENT_3D ( 'NONE', #737, #355, #860 ) ;
#79 = CARTESIAN_POINT ( 'NONE',  ( 9.999999999999998224, 15.50000000000000178, 11.50000000000000000 ) ) ;
#80 = ORIENTED_EDGE ( 'NONE', *, *, #437, .F. ) ;
#81 = CARTESIAN_POINT ( 'NONE',  ( -10.00000000000000178, 15.50000000000000178, 13.50000000000000000 ) ) ;
#82 = VERTEX_POINT ( 'NONE', #257 ) ;
#83 = LINE ( 'NONE', #1061, #1181 ) ;
#84 = PRODUCT_DEFINITION_CONTEXT ( 'detailed design', #107, 'design' ) ;
#85 = DIRECTION ( 'NONE',  ( 0.9510565162951544194, 0.3090169943749448422, -0.000000000000000000 ) ) ;
#86 = ADVANCED_FACE ( 'NONE', ( #653 ), #642, .F. ) ;
#87 = FACE_BOUND ( 'NONE', #105, .T. ) ;
#88 = ORIENTED_EDGE ( 'NONE', *, *, #947, .F. ) ;
#89 = DIRECTION ( 'NONE',  ( 1.000000000000000000, -0.000000000000000000, -0.000000000000000000 ) ) ;
#90 = ORIENTED_EDGE ( 'NONE', *, *, #671, .T. ) ;
#91 = FACE_OUTER_BOUND ( 'NONE', #675, .T. ) ;
#92 = DIRECTION ( 'NONE',  ( 0.9510565162951544194, 0.3090169943749448977, 0.000000000000000000 ) ) ;
#93 = EDGE_CURVE ( 'NONE', #1045, #1223, #552, .T. ) ;
#94 = VERTEX_POINT ( 'NONE', #448 ) ;
#95 = CARTESIAN_POINT ( 'NONE',  ( -2.639764430332137479, 17.50000000000000000, 11.49999999999998934 ) ) ;
#96 = EDGE_CURVE ( 'NONE', #1170, #13, #58, .T. ) ;
#97 = PRODUCT_DEFINITION_FORMATION_WITH_SPECIFIED_SOURCE ( '对称', '', #490, .NOT_KNOWN. ) ;
#98 = ORIENTED_EDGE ( 'NONE', *, *, #599, .T. ) ;
#99 = VECTOR ( 'NONE', #400, 1000.000000000000114 ) ;
#100 = CARTESIAN_POINT ( 'NONE',  ( -2.639764430332136147, 17.49999999999999645, -12.67157287525381015 ) ) ;
#101 = CIRCLE ( 'NONE', #1205, 10.00000000000000000 ) ;
#102 = VECTOR ( 'NONE', #880, 1000.000000000000000 ) ;
#103 = AXIS2_PLACEMENT_3D ( 'NONE', #685, #1179, #470 ) ;
#104 = ADVANCED_BREP_SHAPE_REPRESENTATION ( 'LQ26-05HGI-01-017', ( #141, #363 ), #746 ) ;
#105 = EDGE_LOOP ( 'NONE', ( #1073, #223 ) ) ;
#106 = DIRECTION ( 'NONE',  ( -0.3090169943749448422, 0.9510565162951544194, 0.000000000000000000 ) ) ;
#107 = APPLICATION_CONTEXT ( 'automotive_design' ) ;
#108 = ORIENTED_EDGE ( 'NONE', *, *, #1268, .T. ) ;
#109 = CARTESIAN_POINT ( 'NONE',  ( -1.989925037866331126, 15.50000000000000178, -13.50000000000000000 ) ) ;
#110 = CARTESIAN_POINT ( 'NONE',  ( -16.90968148802752324, 3.765812962827096211, 9.999999999999928946 ) ) ;
#111 = ORIENTED_EDGE ( 'NONE', *, *, #211, .F. ) ;
#112 = CARTESIAN_POINT ( 'NONE',  ( -1.989925037866330237, 15.50000000000000000, 13.49999999999999822 ) ) ;
#113 = VERTEX_POINT ( 'NONE', #549 ) ;
#114 = EDGE_CURVE ( 'NONE', #999, #797, #712, .T. ) ;
#115 = CYLINDRICAL_SURFACE ( 'NONE', #1144, 10.00000000000000000 ) ;
#116 = CARTESIAN_POINT ( 'NONE',  ( 6.457987064189154580, -17.50000000000000355, 20.49999999999998224 ) ) ;
#117 = ORIENTED_EDGE ( 'NONE', *, *, #953, .F. ) ;
#118 = DIRECTION ( 'NONE',  ( -0.000000000000000000, 1.000000000000000000, -0.000000000000000000 ) ) ;
#119 = EDGE_LOOP ( 'NONE', ( #1159, #349, #254, #923, #994, #667, #610, #44 ) ) ;
#120 = DIRECTION ( 'NONE',  ( 0.000000000000000000, -1.000000000000000000, -1.787439530721930590E-16 ) ) ;
#121 = CYLINDRICAL_SURFACE ( 'NONE', #1001, 2.000000000000001776 ) ;
#122 = EDGE_CURVE ( 'NONE', #395, #1033, #1081, .T. ) ;
#123 = DIRECTION ( 'NONE',  ( -0.000000000000000000, -1.156482317317871478E-16, -1.000000000000000000 ) ) ;
#124 = FACE_OUTER_BOUND ( 'NONE', #277, .T. ) ;
#125 = VECTOR ( 'NONE', #989, 1000.000000000000000 ) ;
#126 = VERTEX_POINT ( 'NONE', #160 ) ;
#127 = DIRECTION ( 'NONE',  ( -0.3090169943749447867, 0.9510565162951544194, 0.000000000000000000 ) ) ;
#128 = DIRECTION ( 'NONE',  ( 0.000000000000000000, 0.000000000000000000, 1.000000000000000000 ) ) ;
#129 = EDGE_CURVE ( 'NONE', #887, #82, #875, .T. ) ;
#130 = ORIENTED_EDGE ( 'NONE', *, *, #581, .T. ) ;
#131 = DIRECTION ( 'NONE',  ( -0.000000000000000000, 0.000000000000000000, 1.000000000000000000 ) ) ;
#132 = ORIENTED_EDGE ( 'NONE', *, *, #12, .T. ) ;
#133 = DIRECTION ( 'NONE',  ( -0.3090169943749441206, 0.9510565162951546414, 0.000000000000000000 ) ) ;
#134 = DIRECTION ( 'NONE',  ( -0.000000000000000000, 1.000000000000000000, -0.000000000000000000 ) ) ;
#135 = CARTESIAN_POINT ( 'NONE',  ( 1.616485629835035631, -12.49999999999999645, 18.00000000129905331 ) ) ;
#136 = LINE ( 'NONE', #34, #484 ) ;
#137 = ORIENTED_EDGE ( 'NONE', *, *, #867, .T. ) ;
#138 = EDGE_CURVE ( 'NONE', #1033, #827, #938, .T. ) ;
#139 = DIRECTION ( 'NONE',  ( 5.807743093568530502E-17, -1.787439530721930590E-16, 1.000000000000000000 ) ) ;
#140 = FACE_OUTER_BOUND ( 'NONE', #1155, .T. ) ;
#141 = MANIFOLD_SOLID_BREP ( '\X2\52079664\X0\-\X2\62c94f38\X0\5', #326 ) ;
#142 = VECTOR ( 'NONE', #486, 1000.000000000000000 ) ;
#143 = CARTESIAN_POINT ( 'NONE',  ( -0.9393339927088600882, -11.22341752591063013, -3.500000000000000000 ) ) ;
#144 = LINE ( 'NONE', #43, #181 ) ;
#145 = ORIENTED_EDGE ( 'NONE', *, *, #1110, .T. ) ;
#146 = VECTOR ( 'NONE', #155, 1000.000000000000114 ) ;
#147 = VECTOR ( 'NONE', #231, 1000.000000000000114 ) ;
#148 = EDGE_CURVE ( 'NONE', #488, #1033, #379, .T. ) ;
#149 = CARTESIAN_POINT ( 'NONE',  ( -2.639764430332137923, 17.50000000000000000, -13.50000000000000000 ) ) ;
#150 = CARTESIAN_POINT ( 'NONE',  ( 5.964212836169316745, -8.980319187341908815, -3.500000000000000444 ) ) ;
#151 = ORIENTED_EDGE ( 'NONE', *, *, #249, .T. ) ;
#152 = CARTESIAN_POINT ( 'NONE',  ( 0.03395604115676498225, 9.271134521890076030, 9.999999999999928946 ) ) ;
#153 = ORIENTED_EDGE ( 'NONE', *, *, #362, .F. ) ;
#154 = ADVANCED_FACE ( 'NONE', ( #1157 ), #852, .F. ) ;
#155 = DIRECTION ( 'NONE',  ( -0.3090169943749448422, 0.9510565162951544194, 1.879425144664283813E-16 ) ) ;
#156 = DIRECTION ( 'NONE',  ( 0.9510565162951545304, 0.3090169943749448977, -0.000000000000000000 ) ) ;
#157 = CARTESIAN_POINT ( 'NONE',  ( -17.52771547677741282, 5.667925995417399498, -10.00000000000007105 ) ) ;
#158 = VERTEX_POINT ( 'NONE', #372 ) ;
#159 = CARTESIAN_POINT ( 'NONE',  ( 6.457987064189154580, 17.50000000000000000, -13.50000000000000000 ) ) ;
#160 = CARTESIAN_POINT ( 'NONE',  ( -0.9022485054787036107, -12.08384440324537046, 3.400216766075315977 ) ) ;
#161 = ADVANCED_FACE ( 'NONE', ( #546 ), #207, .T. ) ;
#162 = DIRECTION ( 'NONE',  ( -0.9510565162951545304, -0.3090169943749447312, 0.000000000000000000 ) ) ;
#163 = ORIENTED_EDGE ( 'NONE', *, *, #1152, .F. ) ;
#164 = AXIS2_PLACEMENT_3D ( 'NONE', #364, #156, #1244 ) ;
#165 = VERTEX_POINT ( 'NONE', #403 ) ;
#166 = AXIS2_PLACEMENT_3D ( 'NONE', #956, #742, #1044 ) ;
#167 =( BOUNDED_CURVE ( )  B_SPLINE_CURVE ( 3, ( #540, #905, #532, #226 ),
 .UNSPECIFIED., .F., .F. ) 
 B_SPLINE_CURVE_WITH_KNOTS ( ( 4, 4 ),
 ( 3.141592653589789119, 4.712388980384689674 ),
 .UNSPECIFIED. ) 
 CURVE ( )  GEOMETRIC_REPRESENTATION_ITEM ( )  RATIONAL_B_SPLINE_CURVE ( ( 1.000000000000000000, 0.8047378541243640493, 0.8047378541243640493, 1.000000000000000000 ) ) 
 REPRESENTATION_ITEM ( '' )  );
#168 = AXIS2_PLACEMENT_3D ( 'NONE', #907, #440, #547 ) ;
#169 =( NAMED_UNIT ( * ) PLANE_ANGLE_UNIT ( ) SI_UNIT ( $, .RADIAN. ) );
#170 = ADVANCED_FACE ( 'NONE', ( #680 ), #1069, .F. ) ;
#171 = VERTEX_POINT ( 'NONE', #494 ) ;
#172 = CARTESIAN_POINT ( 'NONE',  ( -10.90224850547870439, -12.08384440324537223, -22.50000000000000000 ) ) ;
#173 = CARTESIAN_POINT ( 'NONE',  ( 6.251396617950540247, -10.05582509533961222, 3.322611489949249819 ) ) ;
#174 = CARTESIAN_POINT ( 'NONE',  ( -2.639764430332137479, 17.50000000000000000, 11.49999999999998934 ) ) ;
#175 = VERTEX_POINT ( 'NONE', #116 ) ;
#176 = CARTESIAN_POINT ( 'NONE',  ( -17.52771547677741637, 5.667925995417404827, 9.999999999999928946 ) ) ;
#177 = CIRCLE ( 'NONE', #280, 3.500000000000000444 ) ;
#178 = ORIENTED_EDGE ( 'NONE', *, *, #760, .F. ) ;
#179 = DIRECTION ( 'NONE',  ( -0.000000000000000000, 1.000000000000000000, -0.000000000000000000 ) ) ;
#180 = CYLINDRICAL_SURFACE ( 'NONE', #588, 2.000000000000000000 ) ;
#181 = VECTOR ( 'NONE', #1221, 1000.000000000000000 ) ;
#182 = ORIENTED_EDGE ( 'NONE', *, *, #67, .T. ) ;
#183 = CARTESIAN_POINT ( 'NONE',  ( 6.457987064189154580, -12.49999999999999645, 22.49999999999999645 ) ) ;
#184 = EDGE_LOOP ( 'NONE', ( #404, #889, #800, #1005 ) ) ;
#185 = DIRECTION ( 'NONE',  ( 0.000000000000000000, 1.000000000000000000, 0.000000000000000000 ) ) ;
#186 = AXIS2_PLACEMENT_3D ( 'NONE', #747, #652, #1230 ) ;
#187 = VECTOR ( 'NONE', #48, 1000.000000000000000 ) ;
#188 = DIRECTION ( 'NONE',  ( 0.000000000000000000, 0.000000000000000000, -1.000000000000000000 ) ) ;
#189 = CARTESIAN_POINT ( 'NONE',  ( 5.964212836169316745, -8.980319187341908815, 0.000000000000000000 ) ) ;
#190 = ORIENTED_EDGE ( 'NONE', *, *, #1010, .T. ) ;
#191 = LINE ( 'NONE', #966, #208 ) ;
#192 = ORIENTED_EDGE ( 'NONE', *, *, #861, .F. ) ;
#193 = DIRECTION ( 'NONE',  ( 0.000000000000000000, -1.000000000000000000, 0.000000000000000000 ) ) ;
#194 = CARTESIAN_POINT ( 'NONE',  ( 4.457987064189155468, -0.000000000000000000, -22.50000000000000000 ) ) ;
#195 = ORIENTED_EDGE ( 'NONE', *, *, #218, .F. ) ;
#196 = DIRECTION ( 'NONE',  ( -0.000000000000000000, 1.000000000000000000, -0.000000000000000000 ) ) ;
#197 = EDGE_LOOP ( 'NONE', ( #23, #819, #506, #1252 ) ) ;
#198 = DIRECTION ( 'NONE',  ( 0.000000000000000000, -1.000000000000000000, 1.734723475976807094E-16 ) ) ;
#199 = CIRCLE ( 'NONE', #1233, 10.00000000000000000 ) ;
#200 = FACE_OUTER_BOUND ( 'NONE', #302, .T. ) ;
#201 = EDGE_CURVE ( 'NONE', #209, #1164, #968, .T. ) ;
#202 = VERTEX_POINT ( 'NONE', #308 ) ;
#203 = CARTESIAN_POINT ( 'NONE',  ( 6.457987064189154580, -12.08384440324535802, 1.616745096083952671 ) ) ;
#204 = ORIENTED_EDGE ( 'NONE', *, *, #29, .T. ) ;
#205 = VECTOR ( 'NONE', #421, 1000.000000000000000 ) ;
#206 = DIRECTION ( 'NONE',  ( 0.000000000000000000, 0.000000000000000000, -1.000000000000000000 ) ) ;
#207 = CYLINDRICAL_SURFACE ( 'NONE', #874, 2.000000000000001776 ) ;
#208 = VECTOR ( 'NONE', #89, 1000.000000000000000 ) ;
#209 = VERTEX_POINT ( 'NONE', #674 ) ;
#210 = FACE_OUTER_BOUND ( 'NONE', #221, .T. ) ;
#211 = EDGE_CURVE ( 'NONE', #1223, #1045, #979, .T. ) ;
#212 = ORIENTED_EDGE ( 'NONE', *, *, #878, .F. ) ;
#213 = CARTESIAN_POINT ( 'NONE',  ( -2.639764430332137479, 17.50000000000000000, -11.50000000000000355 ) ) ;
#214 = DIRECTION ( 'NONE',  ( -0.3090169943749448422, 0.9510565162951544194, 1.099880043865282189E-16 ) ) ;
#215 = VERTEX_POINT ( 'NONE', #1063 ) ;
#216 = LINE ( 'NONE', #394, #99 ) ;
#217 = ORIENTED_EDGE ( 'NONE', *, *, #122, .F. ) ;
#218 = EDGE_CURVE ( 'NONE', #1228, #596, #665, .T. ) ;
#219 = CARTESIAN_POINT ( 'NONE',  ( 1.616485629835048066, -12.49999999999999645, -19.74999999870094669 ) ) ;
#220 = DIRECTION ( 'NONE',  ( 0.000000000000000000, -1.000000000000000000, 0.000000000000000000 ) ) ;
#221 = EDGE_LOOP ( 'NONE', ( #949, #951, #808, #151, #1204, #1092, #406, #259, #700, #821 ) ) ;
#222 = DIRECTION ( 'NONE',  ( 0.000000000000000000, -1.000000000000000000, -0.000000000000000000 ) ) ;
#223 = ORIENTED_EDGE ( 'NONE', *, *, #471, .F. ) ;
#224 = CARTESIAN_POINT ( 'NONE',  ( 4.457987064189155468, -12.49999999999999645, 22.50000000000000000 ) ) ;
#225 = ADVANCED_FACE ( 'NONE', ( #587, #200 ), #477, .F. ) ;
#226 = CARTESIAN_POINT ( 'NONE',  ( -9.350160607534194313, 15.50000000000000178, -13.50000000000000000 ) ) ;
#227 = ORIENTED_EDGE ( 'NONE', *, *, #77, .F. ) ;
#228 = CARTESIAN_POINT ( 'NONE',  ( 4.457987064189155468, -17.50000000000000000, 20.49999999999999645 ) ) ;
#229 = CIRCLE ( 'NONE', #918, 1.750000000000001554 ) ;
#230 = VERTEX_POINT ( 'NONE', #1084 ) ;
#231 = DIRECTION ( 'NONE',  ( 0.9510565162951544194, 0.3090169943749448422, -0.000000000000000000 ) ) ;
#232 = CARTESIAN_POINT ( 'NONE',  ( 1.616485629835047844, -17.50000000000000355, -16.24999999870094314 ) ) ;
#233 = ORIENTED_EDGE ( 'NONE', *, *, #980, .F. ) ;
#234 = FACE_OUTER_BOUND ( 'NONE', #377, .T. ) ;
#235 = VERTEX_POINT ( 'NONE', #984 ) ;
#236 = DIRECTION ( 'NONE',  ( -0.000000000000000000, -0.000000000000000000, -1.000000000000000000 ) ) ;
#237 = CARTESIAN_POINT ( 'NONE',  ( -0.9022485054787053871, -12.08384440324537223, -3.400216766075318642 ) ) ;
#238 = CARTESIAN_POINT ( 'NONE',  ( 1.616485629835047844, -12.49999999999999645, -16.24999999870094314 ) ) ;
#239 = CARTESIAN_POINT ( 'NONE',  ( -10.00000000000000000, 17.49999999999999645, 3.500000000000006661 ) ) ;
#240 = EDGE_CURVE ( 'NONE', #64, #1223, #891, .T. ) ;
#241 = EDGE_LOOP ( 'NONE', ( #791, #145 ) ) ;
#242 = CARTESIAN_POINT ( 'NONE',  ( -10.97942469301497681, -14.48564074640488997, -3.500000000000000444 ) ) ;
#243 = CARTESIAN_POINT ( 'NONE',  ( 4.457987064189155468, -0.000000000000000000, -20.49999999999999645 ) ) ;
#244 = CIRCLE ( 'NONE', #305, 2.000000000000000000 ) ;
#245 = CARTESIAN_POINT ( 'NONE',  ( -0.5840779475931247022, 11.17324755448037976, -10.00000000000007105 ) ) ;
#246 = DIRECTION ( 'NONE',  ( -1.000000000000000000, 0.000000000000000000, 0.000000000000000000 ) ) ;
#247 = EDGE_LOOP ( 'NONE', ( #1186, #17, #662, #694, #98, #735, #366, #418, #577, #621 ) ) ;
#248 = AXIS2_PLACEMENT_3D ( 'NONE', #935, #179, #1126 ) ;
#249 = EDGE_CURVE ( 'NONE', #113, #827, #1035, .T. ) ;
#250 = FACE_OUTER_BOUND ( 'NONE', #338, .T. ) ;
#251 = FACE_BOUND ( 'NONE', #446, .T. ) ;
#252 = FACE_OUTER_BOUND ( 'NONE', #119, .T. ) ;
#253 = CARTESIAN_POINT ( 'NONE',  ( -0.9393339927088600882, -11.22341752591063013, 3.499999999999999112 ) ) ;
#254 = ORIENTED_EDGE ( 'NONE', *, *, #148, .F. ) ;
#255 = EDGE_CURVE ( 'NONE', #50, #727, #229, .T. ) ;
#256 = CARTESIAN_POINT ( 'NONE',  ( 6.457987064189154580, -12.49999999999999645, 13.49999999999999645 ) ) ;
#257 = CARTESIAN_POINT ( 'NONE',  ( -1.391683342527157086, -8.993674459495924367, -3.499999999999996003 ) ) ;
#258 = APPLICATION_PROTOCOL_DEFINITION ( 'draft international standard', 'automotive_design', 1998, #498 ) ;
#259 = ORIENTED_EDGE ( 'NONE', *, *, #1234, .T. ) ;
#260 = LINE ( 'NONE', #159, #957 ) ;
#261 = EDGE_CURVE ( 'NONE', #1260, #171, #777, .T. ) ;
#262 = AXIS2_PLACEMENT_3D ( 'NONE', #715, #614, #810 ) ;
#263 = DIRECTION ( 'NONE',  ( 0.000000000000000000, 1.000000000000000000, 1.734723475976807094E-16 ) ) ;
#264 = AXIS2_PLACEMENT_3D ( 'NONE', #701, #882, #1079 ) ;
#265 = ORIENTED_EDGE ( 'NONE', *, *, #389, .T. ) ;
#266 = VECTOR ( 'NONE', #46, 1000.000000000000000 ) ;
#267 = VERTEX_POINT ( 'NONE', #505 ) ;
#268 = VECTOR ( 'NONE', #898, 1000.000000000000000 ) ;
#269 = CARTESIAN_POINT ( 'NONE',  ( -0.4533496366684614531, 10.77090718410481252, 3.814958796968119005E-15 ) ) ;
#270 = EDGE_CURVE ( 'NONE', #633, #1257, #1206, .T. ) ;
#271 = DIRECTION ( 'NONE',  ( -0.3090169943749450643, 0.9510565162951544194, 0.000000000000000000 ) ) ;
#272 = ORIENTED_EDGE ( 'NONE', *, *, #916, .F. ) ;
#273 = LINE ( 'NONE', #81, #855 ) ;
#274 = DIRECTION ( 'NONE',  ( -0.000000000000000000, -0.000000000000000000, 1.000000000000000000 ) ) ;
#275 = CARTESIAN_POINT ( 'NONE',  ( -10.90224850547870439, -12.08384440324537223, -3.499999999999999556 ) ) ;
#276 = CARTESIAN_POINT ( 'NONE',  ( -0.9022485054787053871, -17.50000000000000355, 20.49999999999998224 ) ) ;
#277 = EDGE_LOOP ( 'NONE', ( #803, #794, #204, #66 ) ) ;
#278 = DIRECTION ( 'NONE',  ( -1.000000000000000000, 0.000000000000000000, 0.000000000000000000 ) ) ;
#279 = ADVANCED_FACE ( 'NONE', ( #4 ), #410, .T. ) ;
#280 = AXIS2_PLACEMENT_3D ( 'NONE', #922, #1120, #27 ) ;
#281 = ORIENTED_EDGE ( 'NONE', *, *, #529, .F. ) ;
#282 = DIRECTION ( 'NONE',  ( 0.000000000000000000, -0.000000000000000000, -1.000000000000000000 ) ) ;
#283 = UNCERTAINTY_MEASURE_WITH_UNIT (LENGTH_MEASURE( 1.000000000000000082E-05 ), #459, 'distance_accuracy_value', 'NONE');
#284 = CARTESIAN_POINT ( 'NONE',  ( 1.097751494521294280, -12.49999999999999645, 20.49999999999999645 ) ) ;
#285 = ORIENTED_EDGE ( 'NONE', *, *, #357, .F. ) ;
#286 = EDGE_CURVE ( 'NONE', #1183, #744, #814, .T. ) ;
#287 = CARTESIAN_POINT ( 'NONE',  ( -0.9022485054787053871, -12.49999999999999645, -22.50000000000000000 ) ) ;
#288 = CIRCLE ( 'NONE', #452, 2.000000000000000444 ) ;
#289 = AXIS2_PLACEMENT_3D ( 'NONE', #1225, #641, #1029 ) ;
#290 = CARTESIAN_POINT ( 'NONE',  ( 1.616485629835047844, -17.50000000000000355, -17.99999999870094314 ) ) ;
#291 = EDGE_LOOP ( 'NONE', ( #495, #909, #681, #1066 ) ) ;
#292 = DIRECTION ( 'NONE',  ( -0.000000000000000000, 1.000000000000000000, -0.000000000000000000 ) ) ;
#293 = ORIENTED_EDGE ( 'NONE', *, *, #12, .F. ) ;
#294 = CARTESIAN_POINT ( 'NONE',  ( 6.403882935341449034, -11.03750872335634270, -2.810132691383903758 ) ) ;
#295 = EDGE_CURVE ( 'NONE', #985, #1045, #575, .T. ) ;
#296 = ORIENTED_EDGE ( 'NONE', *, *, #93, .F. ) ;
#297 = CARTESIAN_POINT ( 'NONE',  ( -17.52771547677741637, 5.667925995417404827, 9.999999999999928946 ) ) ;
#298 = VERTEX_POINT ( 'NONE', #1200 ) ;
#299 = CARTESIAN_POINT ( 'NONE',  ( -1.989925037866331126, 15.50000000000000178, -13.50000000000000000 ) ) ;
#300 = DIRECTION ( 'NONE',  ( 0.9510565162951544194, 0.3090169943749448422, -0.000000000000000000 ) ) ;
#301 = ADVANCED_FACE ( 'NONE', ( #617 ), #121, .T. ) ;
#302 = EDGE_LOOP ( 'NONE', ( #561, #868, #998, #655, #1147, #745 ) ) ;
#303 = CARTESIAN_POINT ( 'NONE',  ( -1.202111936343014387, 13.07536058707069593, 9.999999999999928946 ) ) ;
#304 = ORIENTED_EDGE ( 'NONE', *, *, #703, .T. ) ;
#305 = AXIS2_PLACEMENT_3D ( 'NONE', #1160, #1052, #278 ) ;
#306 = DIRECTION ( 'NONE',  ( -0.3090169943749446757, 0.9510565162951545304, 0.000000000000000000 ) ) ;
#307 = CIRCLE ( 'NONE', #713, 3.500000000000000888 ) ;
#308 = CARTESIAN_POINT ( 'NONE',  ( 5.968552227140703437, -8.993674459495910156, -3.499971829371158361 ) ) ;
#309 = CIRCLE ( 'NONE', #1141, 2.000000000000001776 ) ;
#310 = ORIENTED_EDGE ( 'NONE', *, *, #947, .T. ) ;
#311 = CARTESIAN_POINT ( 'NONE',  ( 6.457987064189154580, -12.49999999999999645, -20.49999999999999645 ) ) ;
#312 = EDGE_CURVE ( 'NONE', #202, #33, #818, .T. ) ;
#313 = VERTEX_POINT ( 'NONE', #150 ) ;
#314 = CARTESIAN_POINT ( 'NONE',  ( 1.616485629835047844, -12.49999999999999645, -17.99999999870094314 ) ) ;
#315 = DIRECTION ( 'NONE',  ( -1.000000000000000000, 0.000000000000000000, 0.000000000000000000 ) ) ;
#316 = ORIENTED_EDGE ( 'NONE', *, *, #29, .F. ) ;
#317 = DIRECTION ( 'NONE',  ( 0.000000000000000000, -1.000000000000000000, 1.156482317317871478E-16 ) ) ;
#318 = ORIENTED_EDGE ( 'NONE', *, *, #636, .T. ) ;
#319 = ADVANCED_FACE ( 'NONE', ( #140 ), #1117, .F. ) ;
#320 = LINE ( 'NONE', #436, #205 ) ;
#321 = ORIENTED_EDGE ( 'NONE', *, *, #1039, .F. ) ;
#322 = CARTESIAN_POINT ( 'NONE',  ( -0.4533496366684614531, 10.77090718410481252, 3.500000000000004441 ) ) ;
#323 = ORIENTED_EDGE ( 'NONE', *, *, #1234, .F. ) ;
#324 = LINE ( 'NONE', #606, #407 ) ;
#325 = PLANE ( 'NONE',  #510 ) ;
#326 = CLOSED_SHELL ( 'NONE', ( #154, #1025, #1146, #170, #1088, #940, #900, #1191, #1161, #749, #86, #1251, #591, #1167, #1229, #225, #618, #521, #47, #512, #839, #789, #830, #1242, #654, #161, #301, #1047, #279, #319, #806, #574, #696, #381, #1054 ) ) ;
#327 = AXIS2_PLACEMENT_3D ( 'NONE', #1180, #1263, #686 ) ;
#328 = VERTEX_POINT ( 'NONE', #25 ) ;
#329 = CARTESIAN_POINT ( 'NONE',  ( 9.999999999999998224, -17.50000000000000000, 22.50000000000000000 ) ) ;
#330 = CIRCLE ( 'NONE', #936, 1.750000000000001554 ) ;
#331 = AXIS2_PLACEMENT_3D ( 'NONE', #886, #781, #1068 ) ;
#332 = ORIENTED_EDGE ( 'NONE', *, *, #471, .T. ) ;
#333 = CARTESIAN_POINT ( 'NONE',  ( 6.457987064189154580, -12.49999999999999645, -22.49999999999999645 ) ) ;
#334 = DIRECTION ( 'NONE',  ( -0.000000000000000000, -0.000000000000000000, -1.000000000000000000 ) ) ;
#335 = EDGE_CURVE ( 'NONE', #126, #1170, #426, .T. ) ;
#336 = ORIENTED_EDGE ( 'NONE', *, *, #270, .F. ) ;
#337 = LINE ( 'NONE', #329, #524 ) ;
#338 = EDGE_LOOP ( 'NONE', ( #534, #1087, #217, #624 ) ) ;
#339 = DIRECTION ( 'NONE',  ( 0.9510565162951544194, 0.3090169943749448422, -0.000000000000000000 ) ) ;
#340 = DIRECTION ( 'NONE',  ( 0.3090169943749448422, -0.9510565162951544194, -1.879425144664283813E-16 ) ) ;
#341 = EDGE_CURVE ( 'NONE', #1164, #113, #631, .T. ) ;
#342 = DIRECTION ( 'NONE',  ( 0.000000000000000000, 1.000000000000000000, 1.156482317317871478E-16 ) ) ;
#343 = CARTESIAN_POINT ( 'NONE',  ( -0.9022485054787053871, -10.50000000000000888, 13.49999999999999822 ) ) ;
#344 = VERTEX_POINT ( 'NONE', #422 ) ;
#345 = DIRECTION ( 'NONE',  ( 0.000000000000000000, 0.000000000000000000, -1.000000000000000000 ) ) ;
#346 =( BOUNDED_CURVE ( )  B_SPLINE_CURVE ( 3, ( #538, #773, #946, #562 ),
 .UNSPECIFIED., .F., .F. ) 
 B_SPLINE_CURVE_WITH_KNOTS ( ( 4, 4 ),
 ( 1.570796326794895892, 3.141592653589791340 ),
 .UNSPECIFIED. ) 
 CURVE ( )  GEOMETRIC_REPRESENTATION_ITEM ( )  RATIONAL_B_SPLINE_CURVE ( ( 1.000000000000000000, 0.8047378541243652705, 0.8047378541243652705, 1.000000000000000000 ) ) 
 REPRESENTATION_ITEM ( '' )  );
#347 = CARTESIAN_POINT ( 'NONE',  ( 6.353250344104759861, -10.63386687641085793, 3.067429863654619115 ) ) ;
#348 = CIRCLE ( 'NONE', #1016, 2.000000000000000444 ) ;
#349 = ORIENTED_EDGE ( 'NONE', *, *, #122, .T. ) ;
#350 = CARTESIAN_POINT ( 'NONE',  ( -0.9022485054787036107, -12.08384440324537046, 3.400216766075315977 ) ) ;
#351 = ORIENTED_EDGE ( 'NONE', *, *, #892, .T. ) ;
#352 = AXIS2_PLACEMENT_3D ( 'NONE', #75, #834, #1043 ) ;
#353 = EDGE_CURVE ( 'NONE', #971, #1015, #823, .T. ) ;
#354 = FACE_OUTER_BOUND ( 'NONE', #480, .T. ) ;
#355 = DIRECTION ( 'NONE',  ( 0.9510565162951544194, 0.3090169943749448422, 0.000000000000000000 ) ) ;
#356 = VERTEX_POINT ( 'NONE', #417 ) ;
#357 = EDGE_CURVE ( 'NONE', #461, #328, #1019, .T. ) ;
#358 = LINE ( 'NONE', #454, #409 ) ;
#359 = CARTESIAN_POINT ( 'NONE',  ( -0.5840779475931264786, 11.17324755448038509, 9.999999999999928946 ) ) ;
#360 = LINE ( 'NONE', #59, #728 ) ;
#361 = EDGE_LOOP ( 'NONE', ( #285, #602, #332, #582 ) ) ;
#362 = EDGE_CURVE ( 'NONE', #519, #73, #31, .T. ) ;
#363 = AXIS2_PLACEMENT_3D ( 'NONE', #738, #751, #1057 ) ;
#364 = CARTESIAN_POINT ( 'NONE',  ( -17.39698716585275662, 5.265585625041830475, 3.814958796968119005E-15 ) ) ;
#365 = AXIS2_PLACEMENT_3D ( 'NONE', #917, #1012, #133 ) ;
#366 = ORIENTED_EDGE ( 'NONE', *, *, #437, .T. ) ;
#367 = DIRECTION ( 'NONE',  ( -1.000000000000000000, 0.000000000000000000, 0.000000000000000000 ) ) ;
#368 = VECTOR ( 'NONE', #340, 1000.000000000000114 ) ;
#369 = ORIENTED_EDGE ( 'NONE', *, *, #885, .F. ) ;
#370 = AXIS2_PLACEMENT_3D ( 'NONE', #72, #467, #856 ) ;
#371 = LINE ( 'NONE', #558, #76 ) ;
#372 = CARTESIAN_POINT ( 'NONE',  ( -1.202111936343012832, 13.07536058707068882, -10.00000000000007105 ) ) ;
#373 = EDGE_CURVE ( 'NONE', #585, #267, #167, .T. ) ;
#374 = DIRECTION ( 'NONE',  ( 0.9510565162951544194, 0.3090169943749448977, 0.000000000000000000 ) ) ;
#375 = ORIENTED_EDGE ( 'NONE', *, *, #286, .F. ) ;
#376 = CARTESIAN_POINT ( 'NONE',  ( 4.457987064189155468, -17.50000000000000000, -20.49999999999999645 ) ) ;
#377 = EDGE_LOOP ( 'NONE', ( #739, #635, #413, #767, #212, #318, #894, #516, #178, #281 ) ) ;
#378 = CARTESIAN_POINT ( 'NONE',  ( 6.151791482363685226, -9.609191058718238310, -3.452546122894741831 ) ) ;
#379 = LINE ( 'NONE', #944, #710 ) ;
#380 = PRODUCT_DEFINITION_SHAPE ( 'NONE', 'NONE',  #908 ) ;
#381 = ADVANCED_FACE ( 'NONE', ( #802 ), #325, .F. ) ;
#382 = EDGE_LOOP ( 'NONE', ( #619, #1177, #722, #1271 ) ) ;
#383 = CARTESIAN_POINT ( 'NONE',  ( 1.616485629835047844, -17.50000000000000355, -17.99999999870094314 ) ) ;
#384 = ORIENTED_EDGE ( 'NONE', *, *, #40, .F. ) ;
#385 = CYLINDRICAL_SURFACE ( 'NONE', #56, 3.500000000000000444 ) ;
#386 = DIRECTION ( 'NONE',  ( 1.734723475976807587E-16, -1.000000000000000000, -0.000000000000000000 ) ) ;
#387 = ORIENTED_EDGE ( 'NONE', *, *, #953, .T. ) ;
#388 = DIRECTION ( 'NONE',  ( 0.000000000000000000, 0.000000000000000000, 1.000000000000000000 ) ) ;
#389 = EDGE_CURVE ( 'NONE', #230, #420, #1080, .T. ) ;
#390 = DIRECTION ( 'NONE',  ( 0.000000000000000000, 0.000000000000000000, -1.000000000000000000 ) ) ;
#391 = VECTOR ( 'NONE', #954, 1000.000000000000114 ) ;
#392 = CARTESIAN_POINT ( 'NONE',  ( 1.616485629835047844, -12.49999999999999645, -17.99999999870094314 ) ) ;
#393 = ORIENTED_EDGE ( 'NONE', *, *, #970, .F. ) ;
#394 = CARTESIAN_POINT ( 'NONE',  ( -16.90968148802752324, 3.765812962827090882, -10.00000000000007105 ) ) ;
#395 = VERTEX_POINT ( 'NONE', #518 ) ;
#396 = EDGE_CURVE ( 'NONE', #420, #50, #1103, .T. ) ;
#397 = CARTESIAN_POINT ( 'NONE',  ( 6.426953873858032296, -11.28674730593952624, -2.610640260835833004 ) ) ;
#398 = DIRECTION ( 'NONE',  ( -0.3090169943749448977, 0.9510565162951544194, 0.000000000000000000 ) ) ;
#399 = EDGE_LOOP ( 'NONE', ( #431, #1053 ) ) ;
#400 = DIRECTION ( 'NONE',  ( 0.9510565162951544194, 0.3090169943749448422, -0.000000000000000000 ) ) ;
#401 = VERTEX_POINT ( 'NONE', #912 ) ;
#402 = DIRECTION ( 'NONE',  ( 0.9510565162951545304, 0.3090169943749448977, -0.000000000000000000 ) ) ;
#403 = CARTESIAN_POINT ( 'NONE',  ( -8.192304731046847976, 11.93648603051324031, 3.814958796968119005E-15 ) ) ;
#404 = ORIENTED_EDGE ( 'NONE', *, *, #626, .F. ) ;
#405 = DIRECTION ( 'NONE',  ( 0.000000000000000000, -1.000000000000000000, -0.000000000000000000 ) ) ;
#406 = ORIENTED_EDGE ( 'NONE', *, *, #564, .T. ) ;
#407 = VECTOR ( 'NONE', #408, 1000.000000000000000 ) ;
#408 = DIRECTION ( 'NONE',  ( -0.000000000000000000, 1.000000000000000000, 0.000000000000000000 ) ) ;
#409 = VECTOR ( 'NONE', #1137, 1000.000000000000000 ) ;
#410 = CYLINDRICAL_SURFACE ( 'NONE', #752, 2.000000000000001776 ) ;
#411 = AXIS2_PLACEMENT_3D ( 'NONE', #275, #1236, #846 ) ;
#412 = EDGE_CURVE ( 'NONE', #313, #915, #920, .T. ) ;
#413 = ORIENTED_EDGE ( 'NONE', *, *, #22, .T. ) ;
#414 = FACE_OUTER_BOUND ( 'NONE', #197, .T. ) ;
#415 = ORIENTED_EDGE ( 'NONE', *, *, #626, .T. ) ;
#416 = LINE ( 'NONE', #611, #147 ) ;
#417 = CARTESIAN_POINT ( 'NONE',  ( 1.616485629835035853, -17.50000000000000355, 16.25000000129905331 ) ) ;
#418 = ORIENTED_EDGE ( 'NONE', *, *, #916, .T. ) ;
#419 = CARTESIAN_POINT ( 'NONE',  ( 6.457987064189154580, -12.08384440324535802, 1.616745096083952671 ) ) ;
#420 = VERTEX_POINT ( 'NONE', #943 ) ;
#421 = DIRECTION ( 'NONE',  ( -0.000000000000000000, 0.000000000000000000, 1.000000000000000000 ) ) ;
#422 = CARTESIAN_POINT ( 'NONE',  ( 1.097751494521294724, -17.50000000000000000, -22.50000000000000000 ) ) ;
#423 = ORIENTED_EDGE ( 'NONE', *, *, #270, .T. ) ;
#424 = CARTESIAN_POINT ( 'NONE',  ( -0.9393339927088600882, -11.22341752591063013, 3.499999999999999112 ) ) ;
#425 = EDGE_LOOP ( 'NONE', ( #1254, #1003, #677, #1028 ) ) ;
#426 =( BOUNDED_CURVE ( )  B_SPLINE_CURVE ( 3, ( #997, #19, #705, #237 ),
 .UNSPECIFIED., .F., .F. ) 
 B_SPLINE_CURVE_WITH_KNOTS ( ( 4, 4 ),
 ( 1.810153800216637743, 4.473031506962948711 ),
 .UNSPECIFIED. ) 
 CURVE ( )  GEOMETRIC_REPRESENTATION_ITEM ( )  RATIONAL_B_SPLINE_CURVE ( ( 1.000000000000000000, 0.4913856446254269983, 0.4913856446254269983, 1.000000000000000000 ) ) 
 REPRESENTATION_ITEM ( '' )  );
#427 = EDGE_CURVE ( 'NONE', #328, #158, #637, .T. ) ;
#428 = LINE ( 'NONE', #224, #630 ) ;
#429 = CIRCLE ( 'NONE', #1243, 1.750000000000001554 ) ;
#430 = VECTOR ( 'NONE', #623, 1000.000000000000000 ) ;
#431 = ORIENTED_EDGE ( 'NONE', *, *, #769, .T. ) ;
#432 = DIRECTION ( 'NONE',  ( -1.000000000000000000, 0.000000000000000000, -0.000000000000000000 ) ) ;
#433 = COLOUR_RGB ( '',0.7921568627450980005, 0.8196078431372548767, 0.9333333333333333481 ) ;
#434 = CIRCLE ( 'NONE', #370, 1.750000000000001554 ) ;
#435 = ORIENTED_EDGE ( 'NONE', *, *, #1104, .F. ) ;
#436 = CARTESIAN_POINT ( 'NONE',  ( -1.391683342527157086, -8.993674459495924367, 13.49999999999999822 ) ) ;
#437 = EDGE_CURVE ( 'NONE', #1008, #1257, #447, .T. ) ;
#438 = DIRECTION ( 'NONE',  ( 0.9510565162951544194, 0.3090169943749448422, 0.000000000000000000 ) ) ;
#439 = EDGE_LOOP ( 'NONE', ( #608, #265 ) ) ;
#440 = DIRECTION ( 'NONE',  ( -0.000000000000000000, 1.000000000000000000, -0.000000000000000000 ) ) ;
#441 = ORIENTED_EDGE ( 'NONE', *, *, #663, .T. ) ;
#442 = CARTESIAN_POINT ( 'NONE',  ( 5.968552227140703437, -8.993674459495910156, 3.499971829371158361 ) ) ;
#443 = CARTESIAN_POINT ( 'NONE',  ( 1.616485629835048066, -17.50000000000000355, -19.74999999870094669 ) ) ;
#444 = EDGE_CURVE ( 'NONE', #42, #1164, #307, .T. ) ;
#445 = FACE_BOUND ( 'NONE', #780, .T. ) ;
#446 = EDGE_LOOP ( 'NONE', ( #1129, #316 ) ) ;
#447 = LINE ( 'NONE', #840, #553 ) ;
#448 = CARTESIAN_POINT ( 'NONE',  ( 1.097751494521294724, -12.49999999999999645, -22.49999999999999645 ) ) ;
#449 = DIRECTION ( 'NONE',  ( 0.9510565162951544194, 0.3090169943749448422, 0.000000000000000000 ) ) ;
#450 = EDGE_CURVE ( 'NONE', #985, #64, #570, .T. ) ;
#451 = VERTEX_POINT ( 'NONE', #62 ) ;
#452 = AXIS2_PLACEMENT_3D ( 'NONE', #245, #20, #750 ) ;
#453 = CIRCLE ( 'NONE', #331, 1.750000000000001554 ) ;
#454 = CARTESIAN_POINT ( 'NONE',  ( -2.639764430332137479, 17.50000000000000000, -22.50000000000000000 ) ) ;
#455 = DIRECTION ( 'NONE',  ( -0.000000000000000000, -0.000000000000000000, -1.000000000000000000 ) ) ;
#456 = CARTESIAN_POINT ( 'NONE',  ( -10.00000000000000178, 17.50000000000000000, -22.50000000000000000 ) ) ;
#457 = ORIENTED_EDGE ( 'NONE', *, *, #412, .T. ) ;
#458 = CARTESIAN_POINT ( 'NONE',  ( 5.968552227140703437, -8.993674459495910156, 3.499971829371158361 ) ) ;
#459 =( LENGTH_UNIT ( ) NAMED_UNIT ( * ) SI_UNIT ( .MILLI., .METRE. ) );
#460 = FACE_OUTER_BOUND ( 'NONE', #982, .T. ) ;
#461 = VERTEX_POINT ( 'NONE', #1026 ) ;
#462 = CARTESIAN_POINT ( 'NONE',  ( -7.110745250734538558, 8.607788223480197232, -3.499999999999995115 ) ) ;
#463 = EDGE_CURVE ( 'NONE', #94, #805, #1185, .T. ) ;
#464 = CARTESIAN_POINT ( 'NONE',  ( 6.454364021328702350, -11.73550815494582622, 2.159918771636751611 ) ) ;
#465 = VECTOR ( 'NONE', #556, 1000.000000000000000 ) ;
#466 = ORIENTED_EDGE ( 'NONE', *, *, #663, .F. ) ;
#467 = DIRECTION ( 'NONE',  ( 0.000000000000000000, 1.000000000000000000, 0.000000000000000000 ) ) ;
#468 = AXIS2_PLACEMENT_3D ( 'NONE', #284, #1056, #188 ) ;
#469 = VERTEX_POINT ( 'NONE', #256 ) ;
#470 = DIRECTION ( 'NONE',  ( 0.000000000000000000, 0.000000000000000000, -1.000000000000000000 ) ) ;
#471 = EDGE_CURVE ( 'NONE', #958, #158, #632, .T. ) ;
#472 =( NAMED_UNIT ( * ) SI_UNIT ( $, .STERADIAN. ) SOLID_ANGLE_UNIT ( ) );
#473 = DIRECTION ( 'NONE',  ( 0.3090169943749446757, -0.9510565162951544194, 0.000000000000000000 ) ) ;
#474 = ORIENTED_EDGE ( 'NONE', *, *, #362, .T. ) ;
#475 = DIRECTION ( 'NONE',  ( -1.000000000000000000, -0.000000000000000000, -0.000000000000000000 ) ) ;
#476 = FACE_OUTER_BOUND ( 'NONE', #247, .T. ) ;
#477 = PLANE ( 'NONE',  #1101 ) ;
#478 = PLANE ( 'NONE',  #790 ) ;
#479 = EDGE_CURVE ( 'NONE', #827, #987, #884, .T. ) ;
#480 = EDGE_LOOP ( 'NONE', ( #977, #1085, #775, #1078 ) ) ;
#481 = CARTESIAN_POINT ( 'NONE',  ( 6.457987064189154580, -12.08384440324535625, -13.49999999999999645 ) ) ;
#482 = CYLINDRICAL_SURFACE ( 'NONE', #32, 2.000000000000000000 ) ;
#483 = DIRECTION ( 'NONE',  ( 0.000000000000000000, 0.000000000000000000, 1.000000000000000000 ) ) ;
#484 = VECTOR ( 'NONE', #634, 1000.000000000000000 ) ;
#485 = ORIENTED_EDGE ( 'NONE', *, *, #782, .T. ) ;
#486 = DIRECTION ( 'NONE',  ( 1.000000000000000000, -0.000000000000000000, -0.000000000000000000 ) ) ;
#487 = EDGE_CURVE ( 'NONE', #744, #633, #371, .T. ) ;
#488 = VERTEX_POINT ( 'NONE', #1048 ) ;
#489 = AXIS2_PLACEMENT_3D ( 'NONE', #771, #92, #398 ) ;
#490 = PRODUCT ( 'LQ26-05HGI-01-017', 'LQ26-05HGI-01-017', '', ( #643 ) ) ;
#491 = CARTESIAN_POINT ( 'NONE',  ( -2.370592140608505982, 16.67157287525380838, -13.50000000000000000 ) ) ;
#492 = VECTOR ( 'NONE', #455, 1000.000000000000000 ) ;
#493 = AXIS2_PLACEMENT_3D ( 'NONE', #1108, #704, #30 ) ;
#494 = CARTESIAN_POINT ( 'NONE',  ( -9.350160607534194313, 15.50000000000000178, 13.49999999999999822 ) ) ;
#495 = ORIENTED_EDGE ( 'NONE', *, *, #1209, .F. ) ;
#496 = CARTESIAN_POINT ( 'NONE',  ( -2.370592140608509535, 16.67157287525381548, 13.50000000000000178 ) ) ;
#497 = ORIENTED_EDGE ( 'NONE', *, *, #427, .T. ) ;
#498 = APPLICATION_CONTEXT ( 'automotive_design' ) ;
#499 = CARTESIAN_POINT ( 'NONE',  ( 6.457987064189154580, -12.08384440324535802, -1.616745096083958666 ) ) ;
#500 = DIRECTION ( 'NONE',  ( 0.000000000000000000, 1.000000000000000000, 0.000000000000000000 ) ) ;
#501 = ORIENTED_EDGE ( 'NONE', *, *, #529, .T. ) ;
#502 = DIRECTION ( 'NONE',  ( -0.3090169943749457304, 0.9510565162951541973, 0.000000000000000000 ) ) ;
#503 = ORIENTED_EDGE ( 'NONE', *, *, #726, .F. ) ;
#504 = CARTESIAN_POINT ( 'NONE',  ( 0.000000000000000000, 0.000000000000000000, 22.50000000000000000 ) ) ;
#505 = CARTESIAN_POINT ( 'NONE',  ( -9.350160607534194313, 15.50000000000000178, -13.50000000000000000 ) ) ;
#506 = ORIENTED_EDGE ( 'NONE', *, *, #211, .T. ) ;
#507 = CARTESIAN_POINT ( 'NONE',  ( -0.9022485054787053871, -17.50000000000000355, -20.49999999999999645 ) ) ;
#508 = ORIENTED_EDGE ( 'NONE', *, *, #444, .F. ) ;
#509 = LINE ( 'NONE', #1208, #74 ) ;
#510 = AXIS2_PLACEMENT_3D ( 'NONE', #926, #1188, #525 ) ;
#511 = CARTESIAN_POINT ( 'NONE',  ( -10.90224850547870439, -12.08384440324537223, -22.50000000000000000 ) ) ;
#512 = ADVANCED_FACE ( 'NONE', ( #354 ), #1149, .F. ) ;
#513 = VECTOR ( 'NONE', #1150, 1000.000000000000000 ) ;
#514 = DIRECTION ( 'NONE',  ( 0.000000000000000000, -1.000000000000000000, 1.734723475976807094E-16 ) ) ;
#515 = CARTESIAN_POINT ( 'NONE',  ( 6.457987064189154580, -12.08384440324535802, -1.616745096083958666 ) ) ;
#516 = ORIENTED_EDGE ( 'NONE', *, *, #353, .T. ) ;
#517 = LINE ( 'NONE', #242, #817 ) ;
#518 = CARTESIAN_POINT ( 'NONE',  ( 6.457987064189154580, -12.08384440324535625, 13.49999999999999645 ) ) ;
#519 = VERTEX_POINT ( 'NONE', #1131 ) ;
#520 = DIRECTION ( 'NONE',  ( 1.000000000000000000, 1.734723475976807094E-16, -0.000000000000000000 ) ) ;
#521 = ADVANCED_FACE ( 'NONE', ( #251, #930 ), #51, .F. ) ;
#522 = ORIENTED_EDGE ( 'NONE', *, *, #1209, .T. ) ;
#523 = CYLINDRICAL_SURFACE ( 'NONE', #365, 1.999999999999999112 ) ;
#524 = VECTOR ( 'NONE', #520, 1000.000000000000000 ) ;
#525 = DIRECTION ( 'NONE',  ( 0.000000000000000000, 1.000000000000000000, 1.787439530721930590E-16 ) ) ;
#526 = CARTESIAN_POINT ( 'NONE',  ( -0.9022485054787053871, -12.08384440324537223, -13.49999999999999645 ) ) ;
#527 = CARTESIAN_POINT ( 'NONE',  ( -7.241473561659205416, 9.010128593855771584, 9.999999999999928946 ) ) ;
#528 = ORIENTED_EDGE ( 'NONE', *, *, #892, .F. ) ;
#529 = EDGE_CURVE ( 'NONE', #945, #1266, #260, .T. ) ;
#530 = CARTESIAN_POINT ( 'NONE',  ( 6.457987064189154580, 17.50000000000000000, 13.50000000000000000 ) ) ;
#531 = AXIS2_PLACEMENT_3D ( 'NONE', #504, #1116, #801 ) ;
#532 = CARTESIAN_POINT ( 'NONE',  ( -9.730827710276372500, 16.67157287525381548, -13.49999999999999822 ) ) ;
#533 = AXIS2_PLACEMENT_3D ( 'NONE', #699, #1194, #128 ) ;
#534 = ORIENTED_EDGE ( 'NONE', *, *, #479, .F. ) ;
#535 = DIRECTION ( 'NONE',  ( 0.9510565162951545304, 0.3090169943749448977, -0.000000000000000000 ) ) ;
#536 = VECTOR ( 'NONE', #118, 1000.000000000000000 ) ;
#537 = EDGE_LOOP ( 'NONE', ( #863, #714, #497, #965 ) ) ;
#538 = CARTESIAN_POINT ( 'NONE',  ( -9.350160607534194313, 15.50000000000000178, 13.49999999999999822 ) ) ;
#539 = EDGE_CURVE ( 'NONE', #897, #73, #358, .T. ) ;
#540 = CARTESIAN_POINT ( 'NONE',  ( -10.00000000000000178, 17.50000000000000000, -11.49999999999998934 ) ) ;
#541 = ORIENTED_EDGE ( 'NONE', *, *, #815, .T. ) ;
#542 = CARTESIAN_POINT ( 'NONE',  ( 4.457987064189155468, -12.49999999999999645, -22.49999999999999645 ) ) ;
#543 = ORIENTED_EDGE ( 'NONE', *, *, #396, .F. ) ;
#544 = DIRECTION ( 'NONE',  ( 0.9510565162951544194, 0.3090169943749448977, 0.000000000000000000 ) ) ;
#545 = EDGE_CURVE ( 'NONE', #344, #596, #645, .T. ) ;
#546 = FACE_OUTER_BOUND ( 'NONE', #1246, .T. ) ;
#547 = DIRECTION ( 'NONE',  ( 0.000000000000000000, 0.000000000000000000, -1.000000000000000000 ) ) ;
#548 = ORIENTED_EDGE ( 'NONE', *, *, #67, .F. ) ;
#549 = CARTESIAN_POINT ( 'NONE',  ( 5.964212836169316745, -8.980319187341908815, 3.500000000000000444 ) ) ;
#550 = DIRECTION ( 'NONE',  ( -0.3090169943749448422, 0.9510565162951544194, 0.000000000000000000 ) ) ;
#551 = ORIENTED_EDGE ( 'NONE', *, *, #1017, .F. ) ;
#552 = CIRCLE ( 'NONE', #1264, 1.999999999999998668 ) ;
#553 = VECTOR ( 'NONE', #274, 1000.000000000000000 ) ;
#554 = EDGE_LOOP ( 'NONE', ( #130, #304 ) ) ;
#555 = ORIENTED_EDGE ( 'NONE', *, *, #605, .T. ) ;
#556 = DIRECTION ( 'NONE',  ( -0.000000000000000000, 0.000000000000000000, 1.000000000000000000 ) ) ;
#557 = EDGE_CURVE ( 'NONE', #1248, #126, #975, .T. ) ;
#558 = CARTESIAN_POINT ( 'NONE',  ( 1.097751494521294280, -17.50000000000000355, 22.50000000000000000 ) ) ;
#559 = PRESENTATION_STYLE_ASSIGNMENT (( #1138 ) ) ;
#560 = LINE ( 'NONE', #862, #628 ) ;
#561 = ORIENTED_EDGE ( 'NONE', *, *, #988, .F. ) ;
#562 = CARTESIAN_POINT ( 'NONE',  ( -10.00000000000000178, 17.50000000000000000, 11.50000000000000355 ) ) ;
#563 = ORIENTED_EDGE ( 'NONE', *, *, #605, .F. ) ;
#564 = EDGE_CURVE ( 'NONE', #235, #202, #1113, .T. ) ;
#565 = CARTESIAN_POINT ( 'NONE',  ( 1.097751494521294280, -12.49999999999999645, -20.49999999999999645 ) ) ;
#566 = AXIS2_PLACEMENT_3D ( 'NONE', #1211, #1203, #1112 ) ;
#567 = DIRECTION ( 'NONE',  ( -0.3090169943749448977, 0.9510565162951544194, 0.000000000000000000 ) ) ;
#568 = VERTEX_POINT ( 'NONE', #299 ) ;
#569 = LINE ( 'NONE', #149, #1037 ) ;
#570 = CIRCLE ( 'NONE', #186, 1.999999999999998668 ) ;
#571 = ORIENTED_EDGE ( 'NONE', *, *, #1259, .F. ) ;
#572 = DIRECTION ( 'NONE',  ( 0.000000000000000000, 0.000000000000000000, -1.000000000000000000 ) ) ;
#573 = UNCERTAINTY_MEASURE_WITH_UNIT (LENGTH_MEASURE( 1.000000000000000082E-05 ), #1050, 'distance_accuracy_value', 'NONE');
#574 = ADVANCED_FACE ( 'NONE', ( #770 ), #385, .F. ) ;
#575 = LINE ( 'NONE', #963, #1265 ) ;
#576 = CARTESIAN_POINT ( 'NONE',  ( -2.639764430332137479, 17.50000000000000000, -22.50000000000000000 ) ) ;
#577 = ORIENTED_EDGE ( 'NONE', *, *, #40, .T. ) ;
#578 = CARTESIAN_POINT ( 'NONE',  ( -0.9022485054787053871, -12.49999999999999645, 20.49999999999999645 ) ) ;
#579 = DIRECTION ( 'NONE',  ( 0.000000000000000000, -1.000000000000000000, 1.156482317317871478E-16 ) ) ;
#580 = DIRECTION ( 'NONE',  ( 0.000000000000000000, -0.000000000000000000, -1.000000000000000000 ) ) ;
#581 = EDGE_CURVE ( 'NONE', #640, #356, #453, .T. ) ;
#582 = ORIENTED_EDGE ( 'NONE', *, *, #427, .F. ) ;
#583 = DIRECTION ( 'NONE',  ( 0.000000000000000000, 0.000000000000000000, 1.000000000000000000 ) ) ;
#584 = VECTOR ( 'NONE', #405, 1000.000000000000000 ) ;
#585 = VERTEX_POINT ( 'NONE', #2 ) ;
#586 = CARTESIAN_POINT ( 'NONE',  ( 6.389497973180874979, -10.90754797400079568, -2.901062664485494658 ) ) ;
#587 = FACE_BOUND ( 'NONE', #1232, .T. ) ;
#588 = AXIS2_PLACEMENT_3D ( 'NONE', #79, #1151, #70 ) ;
#589 = EDGE_LOOP ( 'NONE', ( #1166, #1134, #501, #393, #321, #441, #784, #872 ) ) ;
#590 = CARTESIAN_POINT ( 'NONE',  ( -10.00000000000000178, -12.49999999999999645, -22.49999999999999645 ) ) ;
#591 = ADVANCED_FACE ( 'NONE', ( #476 ), #691, .F. ) ;
#592 = ORIENTED_EDGE ( 'NONE', *, *, #1198, .F. ) ;
#593 = CARTESIAN_POINT ( 'NONE',  ( -10.00000000000000178, 17.50000000000000000, -13.50000000000000000 ) ) ;
#594 = AXIS2_PLACEMENT_3D ( 'NONE', #176, #661, #1218 ) ;
#595 = DIRECTION ( 'NONE',  ( -0.000000000000000000, 1.000000000000000000, 0.000000000000000000 ) ) ;
#596 = VERTEX_POINT ( 'NONE', #1162 ) ;
#597 = CYLINDRICAL_SURFACE ( 'NONE', #1135, 3.500000000000000444 ) ;
#598 = ORIENTED_EDGE ( 'NONE', *, *, #148, .T. ) ;
#599 = EDGE_CURVE ( 'NONE', #451, #805, #1075, .T. ) ;
#600 = CARTESIAN_POINT ( 'NONE',  ( -17.39698716585275662, 5.265585625041830475, 3.814958796968119005E-15 ) ) ;
#601 = CARTESIAN_POINT ( 'NONE',  ( 4.457987064189155468, -10.50000000000000533, 20.49999999999999645 ) ) ;
#602 = ORIENTED_EDGE ( 'NONE', *, *, #996, .T. ) ;
#603 = DIRECTION ( 'NONE',  ( 0.000000000000000000, 0.000000000000000000, -1.000000000000000000 ) ) ;
#604 = ORIENTED_EDGE ( 'NONE', *, *, #77, .T. ) ;
#605 = EDGE_CURVE ( 'NONE', #568, #897, #37, .T. ) ;
#606 = CARTESIAN_POINT ( 'NONE',  ( 1.097751494521294280, 0.000000000000000000, -22.50000000000000000 ) ) ;
#607 = DIRECTION ( 'NONE',  ( 0.000000000000000000, 0.000000000000000000, -1.000000000000000000 ) ) ;
#608 = ORIENTED_EDGE ( 'NONE', *, *, #925, .T. ) ;
#609 = DIRECTION ( 'NONE',  ( -0.3090169943749446757, 0.9510565162951545304, 0.000000000000000000 ) ) ;
#610 = ORIENTED_EDGE ( 'NONE', *, *, #1222, .F. ) ;
#611 = CARTESIAN_POINT ( 'NONE',  ( -18.47854664616506426, 8.594283432074872664, 3.814958796968119005E-15 ) ) ;
#612 = EDGE_CURVE ( 'NONE', #1139, #113, #859, .T. ) ;
#613 = ORIENTED_EDGE ( 'NONE', *, *, #932, .F. ) ;
#614 = DIRECTION ( 'NONE',  ( 0.000000000000000000, -1.000000000000000000, 0.000000000000000000 ) ) ;
#615 = ORIENTED_EDGE ( 'NONE', *, *, #557, .F. ) ;
#616 = DIRECTION ( 'NONE',  ( 0.000000000000000000, 0.000000000000000000, 1.000000000000000000 ) ) ;
#617 = FACE_OUTER_BOUND ( 'NONE', #942, .T. ) ;
#618 = ADVANCED_FACE ( 'NONE', ( #1156 ), #672, .F. ) ;
#619 = ORIENTED_EDGE ( 'NONE', *, *, #564, .F. ) ;
#620 = LINE ( 'NONE', #734, #1119 ) ;
#621 = ORIENTED_EDGE ( 'NONE', *, *, #1222, .T. ) ;
#622 = CARTESIAN_POINT ( 'NONE',  ( -10.97942469301497681, -14.48564074640488997, 3.500000000000000444 ) ) ;
#623 = DIRECTION ( 'NONE',  ( 1.000000000000000000, 0.000000000000000000, 0.000000000000000000 ) ) ;
#624 = ORIENTED_EDGE ( 'NONE', *, *, #22, .F. ) ;
#625 = DIRECTION ( 'NONE',  ( 0.3090169943749448422, -0.9510565162951544194, -1.879425144664284059E-16 ) ) ;
#626 = EDGE_CURVE ( 'NONE', #298, #215, #309, .T. ) ;
#627 = ORIENTED_EDGE ( 'NONE', *, *, #255, .T. ) ;
#628 = VECTOR ( 'NONE', #939, 1000.000000000000000 ) ;
#629 = CARTESIAN_POINT ( 'NONE',  ( 1.616485629835035853, -12.49999999999999645, 16.25000000129905331 ) ) ;
#630 = VECTOR ( 'NONE', #911, 1000.000000000000000 ) ;
#631 = LINE ( 'NONE', #1021, #368 ) ;
#632 = CIRCLE ( 'NONE', #352, 2.000000000000000444 ) ;
#633 = VERTEX_POINT ( 'NONE', #961 ) ;
#634 = DIRECTION ( 'NONE',  ( 1.000000000000000000, 0.000000000000000000, -0.000000000000000000 ) ) ;
#635 = ORIENTED_EDGE ( 'NONE', *, *, #1070, .T. ) ;
#636 = EDGE_CURVE ( 'NONE', #215, #175, #83, .T. ) ;
#637 = LINE ( 'NONE', #1142, #391 ) ;
#638 = DIRECTION ( 'NONE',  ( -0.000000000000000000, -1.156482317317871478E-16, 1.000000000000000000 ) ) ;
#639 = DIRECTION ( 'NONE',  ( -0.3090169943749450643, 0.9510565162951544194, 0.000000000000000000 ) ) ;
#640 = VERTEX_POINT ( 'NONE', #967 ) ;
#641 = DIRECTION ( 'NONE',  ( 0.000000000000000000, -1.000000000000000000, -0.000000000000000000 ) ) ;
#642 = PLANE ( 'NONE',  #670 ) ;
#643 = PRODUCT_CONTEXT ( 'NONE', #498, 'mechanical' ) ;
#644 = ORIENTED_EDGE ( 'NONE', *, *, #726, .T. ) ;
#645 = LINE ( 'NONE', #1034, #125 ) ;
#646 = VECTOR ( 'NONE', #14, 1000.000000000000000 ) ;
#647 = DIRECTION ( 'NONE',  ( 1.000000000000000000, 0.000000000000000000, -0.000000000000000000 ) ) ;
#648 = VECTOR ( 'NONE', #1270, 1000.000000000000114 ) ;
#649 = ORIENTED_EDGE ( 'NONE', *, *, #444, .T. ) ;
#650 = CIRCLE ( 'NONE', #493, 1.750000000000001554 ) ;
#651 = LINE ( 'NONE', #578, #981 ) ;
#652 = DIRECTION ( 'NONE',  ( 0.9510565162951544194, 0.3090169943749448422, 0.000000000000000000 ) ) ;
#653 = FACE_OUTER_BOUND ( 'NONE', #858, .T. ) ;
#654 = ADVANCED_FACE ( 'NONE', ( #91 ), #482, .T. ) ;
#655 = ORIENTED_EDGE ( 'NONE', *, *, #970, .T. ) ;
#656 = CYLINDRICAL_SURFACE ( 'NONE', #1207, 10.00000000000000000 ) ;
#657 = CARTESIAN_POINT ( 'NONE',  ( 6.150719632963864036, -9.604758411597087431, 3.453584126537966981 ) ) ;
#658 = CARTESIAN_POINT ( 'NONE',  ( 5.968552227140700772, -8.993674459495913709, -22.50000000000000000 ) ) ;
#659 = DIRECTION ( 'NONE',  ( -0.3090169943749448422, 0.9510565162951544194, 1.879425144664284059E-16 ) ) ;
#660 = ORIENTED_EDGE ( 'NONE', *, *, #844, .F. ) ;
#661 = DIRECTION ( 'NONE',  ( 0.9510565162951545304, 0.3090169943749448977, -0.000000000000000000 ) ) ;
#662 = ORIENTED_EDGE ( 'NONE', *, *, #96, .T. ) ;
#663 = EDGE_CURVE ( 'NONE', #13, #401, #1077, .T. ) ;
#664 = CARTESIAN_POINT ( 'NONE',  ( 6.335866820804160859, -10.50213001266919832, -3.147783107287909665 ) ) ;
#665 = LINE ( 'NONE', #194, #102 ) ;
#666 = CIRCLE ( 'NONE', #1098, 2.000000000000000000 ) ;
#667 = ORIENTED_EDGE ( 'NONE', *, *, #1017, .T. ) ;
#668 = CARTESIAN_POINT ( 'NONE',  ( -0.4533496366684612311, 10.77090718410481252, -3.499999999999996447 ) ) ;
#669 = AXIS2_PLACEMENT_3D ( 'NONE', #565, #850, #69 ) ;
#670 = AXIS2_PLACEMENT_3D ( 'NONE', #1145, #758, #647 ) ;
#671 = EDGE_CURVE ( 'NONE', #727, #50, #429, .T. ) ;
#672 = PLANE ( 'NONE',  #793 ) ;
#673 = CIRCLE ( 'NONE', #1114, 1.999999999999998668 ) ;
#674 = CARTESIAN_POINT ( 'NONE',  ( -7.110745250734538558, 8.607788223480199008, 3.500000000000004441 ) ) ;
#675 = EDGE_LOOP ( 'NONE', ( #1192, #227, #563, #163 ) ) ;
#676 = CARTESIAN_POINT ( 'NONE',  ( 1.616485629835035631, -17.50000000000000355, 18.00000000129905331 ) ) ;
#677 = ORIENTED_EDGE ( 'NONE', *, *, #295, .T. ) ;
#678 = DIRECTION ( 'NONE',  ( 0.000000000000000000, 1.156482317317871478E-16, 1.000000000000000000 ) ) ;
#679 = EDGE_CURVE ( 'NONE', #356, #797, #1089, .T. ) ;
#680 = FACE_OUTER_BOUND ( 'NONE', #825, .T. ) ;
#681 = ORIENTED_EDGE ( 'NONE', *, *, #1093, .T. ) ;
#682 = CARTESIAN_POINT ( 'NONE',  ( 6.457987064189154580, -17.50000000000000355, -20.49999999999999645 ) ) ;
#683 = AXIS2_PLACEMENT_3D ( 'NONE', #676, #196, #583 ) ;
#684 = ORIENTED_EDGE ( 'NONE', *, *, #1093, .F. ) ;
#685 = CARTESIAN_POINT ( 'NONE',  ( -0.9022485054787053871, -10.50000000000000533, -22.50000000000000000 ) ) ;
#686 = DIRECTION ( 'NONE',  ( -0.3090169943749450643, 0.9510565162951544194, 0.000000000000000000 ) ) ;
#687 = ORIENTED_EDGE ( 'NONE', *, *, #312, .T. ) ;
#688 = CARTESIAN_POINT ( 'NONE',  ( 1.616485629835035631, -12.49999999999999645, 19.75000000129905331 ) ) ;
#689 = ORIENTED_EDGE ( 'NONE', *, *, #129, .T. ) ;
#690 = VECTOR ( 'NONE', #134, 1000.000000000000000 ) ;
#691 = PLANE ( 'NONE',  #103 ) ;
#692 = VECTOR ( 'NONE', #1102, 1000.000000000000000 ) ;
#693 = DIRECTION ( 'NONE',  ( 0.000000000000000000, -1.000000000000000000, 0.000000000000000000 ) ) ;
#694 = ORIENTED_EDGE ( 'NONE', *, *, #1039, .T. ) ;
#695 = CARTESIAN_POINT ( 'NONE',  ( -10.90224850547870439, -12.08384440324537223, 3.499999999999999556 ) ) ;
#696 = ADVANCED_FACE ( 'NONE', ( #24 ), #698, .F. ) ;
#697 = ORIENTED_EDGE ( 'NONE', *, *, #1030, .F. ) ;
#698 = PLANE ( 'NONE',  #11 ) ;
#699 = CARTESIAN_POINT ( 'NONE',  ( 1.616485629835047844, -17.50000000000000355, -17.99999999870094314 ) ) ;
#700 = ORIENTED_EDGE ( 'NONE', *, *, #782, .F. ) ;
#701 = CARTESIAN_POINT ( 'NONE',  ( -10.90224850547870439, -12.08384440324537223, 13.49999999999999822 ) ) ;
#702 = ORIENTED_EDGE ( 'NONE', *, *, #878, .T. ) ;
#703 = EDGE_CURVE ( 'NONE', #356, #640, #650, .T. ) ;
#704 = DIRECTION ( 'NONE',  ( 0.000000000000000000, 1.000000000000000000, 0.000000000000000000 ) ) ;
#705 = CARTESIAN_POINT ( 'NONE',  ( -0.9022485054787053871, -16.79605959644818469, -2.306550061216672720 ) ) ;
#706 = EDGE_LOOP ( 'NONE', ( #293, #1051, #921, #627 ) ) ;
#707 = CARTESIAN_POINT ( 'NONE',  ( -0.9022485054787053871, -12.49999999999999645, 20.49999999999999645 ) ) ;
#708 = ORIENTED_EDGE ( 'NONE', *, *, #815, .F. ) ;
#709 = CARTESIAN_POINT ( 'NONE',  ( -1.391683342527158862, -8.993674459495927920, 3.499999999999999556 ) ) ;
#710 = VECTOR ( 'NONE', #765, 1000.000000000000000 ) ;
#711 = EDGE_CURVE ( 'NONE', #469, #395, #904, .T. ) ;
#712 = CIRCLE ( 'NONE', #166, 1.750000000000001554 ) ;
#713 = AXIS2_PLACEMENT_3D ( 'NONE', #269, #544, #1219 ) ;
#714 = ORIENTED_EDGE ( 'NONE', *, *, #769, .F. ) ;
#715 = CARTESIAN_POINT ( 'NONE',  ( 9.999999999999998224, 17.50000000000000000, 22.50000000000000000 ) ) ;
#716 = CIRCLE ( 'NONE', #168, 2.000000000000001776 ) ;
#717 = ORIENTED_EDGE ( 'NONE', *, *, #539, .F. ) ;
#718 = FACE_OUTER_BOUND ( 'NONE', #291, .T. ) ;
#719 = CARTESIAN_POINT ( 'NONE',  ( 6.457987064189154580, -10.50000000000000533, -20.49999999999999645 ) ) ;
#720 = DIRECTION ( 'NONE',  ( 0.000000000000000000, 0.000000000000000000, 1.000000000000000000 ) ) ;
#721 = PLANE ( 'NONE',  #262 ) ;
#722 = ORIENTED_EDGE ( 'NONE', *, *, #3, .F. ) ;
#723 = DIRECTION ( 'NONE',  ( -0.000000000000000000, -0.000000000000000000, 1.000000000000000000 ) ) ;
#724 = ORIENTED_EDGE ( 'NONE', *, *, #218, .T. ) ;
#725 = DIRECTION ( 'NONE',  ( -0.000000000000000000, 1.000000000000000000, 1.156482317317871478E-16 ) ) ;
#726 = EDGE_CURVE ( 'NONE', #165, #42, #416, .T. ) ;
#727 = VERTEX_POINT ( 'NONE', #219 ) ;
#728 = VECTOR ( 'NONE', #659, 1000.000000000000000 ) ;
#729 = CARTESIAN_POINT ( 'NONE',  ( -1.391683342527157086, -8.993674459495924367, 13.49999999999999822 ) ) ;
#730 = VECTOR ( 'NONE', #1269, 1000.000000000000114 ) ;
#731 = CARTESIAN_POINT ( 'NONE',  ( 6.407134914502771394, -11.04022671401009603, 2.820681088224118671 ) ) ;
#732 = VECTOR ( 'NONE', #334, 1000.000000000000000 ) ;
#733 = DIRECTION ( 'NONE',  ( 0.000000000000000000, 1.000000000000000000, 0.000000000000000000 ) ) ;
#734 = CARTESIAN_POINT ( 'NONE',  ( -10.00000000000000178, 17.50000000000000000, -13.50000000000000000 ) ) ;
#735 = ORIENTED_EDGE ( 'NONE', *, *, #1062, .T. ) ;
#736 = EDGE_CURVE ( 'NONE', #1172, #298, #428, .T. ) ;
#737 = CARTESIAN_POINT ( 'NONE',  ( -7.110745250734540335, 8.607788223480199008, 3.814958796968119005E-15 ) ) ;
#738 = CARTESIAN_POINT ( 'NONE',  ( 0.000000000000000000, 0.000000000000000000, 0.000000000000000000 ) ) ;
#739 = ORIENTED_EDGE ( 'NONE', *, *, #824, .T. ) ;
#740 = EDGE_CURVE ( 'NONE', #971, #175, #509, .T. ) ;
#741 = CARTESIAN_POINT ( 'NONE',  ( 6.457987064189154580, -12.08384440324535802, 1.616745096083952671 ) ) ;
#742 = DIRECTION ( 'NONE',  ( 0.000000000000000000, 1.000000000000000000, 0.000000000000000000 ) ) ;
#743 = SHAPE_DEFINITION_REPRESENTATION ( #380, #104 ) ;
#744 = VERTEX_POINT ( 'NONE', #822 ) ;
#745 = ORIENTED_EDGE ( 'NONE', *, *, #1104, .T. ) ;
#746 =( GEOMETRIC_REPRESENTATION_CONTEXT ( 3 ) GLOBAL_UNCERTAINTY_ASSIGNED_CONTEXT ( ( #573 ) ) GLOBAL_UNIT_ASSIGNED_CONTEXT ( ( #1050, #1227, #1158 ) ) REPRESENTATION_CONTEXT ( 'NONE', 'WORKASPACE' ) );
#747 = CARTESIAN_POINT ( 'NONE',  ( -7.241473561659205416, 9.010128593855771584, 9.999999999999928946 ) ) ;
#748 = AXIS2_PLACEMENT_3D ( 'NONE', #776, #1168, #198 ) ;
#749 = ADVANCED_FACE ( 'NONE', ( #718 ), #18, .T. ) ;
#750 = DIRECTION ( 'NONE',  ( -0.3090169943749447867, 0.9510565162951544194, 0.000000000000000000 ) ) ;
#751 = DIRECTION ( 'NONE',  ( 0.000000000000000000, 0.000000000000000000, 1.000000000000000000 ) ) ;
#752 = AXIS2_PLACEMENT_3D ( 'NONE', #601, #991, #796 ) ;
#753 = EDGE_LOOP ( 'NONE', ( #80, #881, #1083, #387, #877, #848, #684, #423 ) ) ;
#754 = PRESENTATION_LAYER_ASSIGNMENT (  '', '', ( #1143 ) ) ;
#755 = VECTOR ( 'NONE', #1258, 1000.000000000000000 ) ;
#756 = LINE ( 'NONE', #828, #1020 ) ;
#757 = CARTESIAN_POINT ( 'NONE',  ( 6.331886562442111455, -10.49401761811197176, 3.140471404001229150 ) ) ;
#758 = DIRECTION ( 'NONE',  ( 0.000000000000000000, -0.000000000000000000, 1.000000000000000000 ) ) ;
#759 = DIRECTION ( 'NONE',  ( 0.9510565162951544194, 0.3090169943749448422, 0.000000000000000000 ) ) ;
#760 = EDGE_CURVE ( 'NONE', #1266, #1015, #807, .T. ) ;
#761 = ORIENTED_EDGE ( 'NONE', *, *, #412, .F. ) ;
#762 = CARTESIAN_POINT ( 'NONE',  ( 0.03395604115676671697, 9.271134521890072477, -10.00000000000007105 ) ) ;
#763 = ORIENTED_EDGE ( 'NONE', *, *, #373, .T. ) ;
#764 = CARTESIAN_POINT ( 'NONE',  ( 6.068428323927665069, -9.301061478334473165, -3.498675065012151641 ) ) ;
#765 = DIRECTION ( 'NONE',  ( 0.3090169943749447312, -0.9510565162951544194, -1.099880043865282189E-16 ) ) ;
#766 = FACE_BOUND ( 'NONE', #399, .T. ) ;
#767 = ORIENTED_EDGE ( 'NONE', *, *, #711, .F. ) ;
#768 = FACE_OUTER_BOUND ( 'NONE', #425, .T. ) ;
#769 = EDGE_CURVE ( 'NONE', #328, #461, #348, .T. ) ;
#770 = FACE_OUTER_BOUND ( 'NONE', #973, .T. ) ;
#771 = CARTESIAN_POINT ( 'NONE',  ( 5.964212836169316745, -8.980319187341908815, 0.000000000000000000 ) ) ;
#772 = ORIENTED_EDGE ( 'NONE', *, *, #129, .F. ) ;
#773 = CARTESIAN_POINT ( 'NONE',  ( -9.730827710276376052, 16.67157287525380838, 13.50000000000000000 ) ) ;
#774 =( GEOMETRIC_REPRESENTATION_CONTEXT ( 3 ) GLOBAL_UNCERTAINTY_ASSIGNED_CONTEXT ( ( #283 ) ) GLOBAL_UNIT_ASSIGNED_CONTEXT ( ( #459, #169, #472 ) ) REPRESENTATION_CONTEXT ( 'NONE', 'WORKASPACE' ) );
#775 = ORIENTED_EDGE ( 'NONE', *, *, #962, .T. ) ;
#776 = CARTESIAN_POINT ( 'NONE',  ( -10.90224850547870439, -12.08384440324537223, -13.49999999999999645 ) ) ;
#777 = LINE ( 'NONE', #871, #1224 ) ;
#778 = VERTEX_POINT ( 'NONE', #709 ) ;
#779 = CARTESIAN_POINT ( 'NONE',  ( -2.639764430332139700, 17.50000000000000355, 12.67157287525380660 ) ) ;
#780 = EDGE_LOOP ( 'NONE', ( #296, #111 ) ) ;
#781 = DIRECTION ( 'NONE',  ( 0.000000000000000000, 1.000000000000000000, 0.000000000000000000 ) ) ;
#782 = EDGE_CURVE ( 'NONE', #887, #313, #517, .T. ) ;
#783 = CARTESIAN_POINT ( 'NONE',  ( 1.097751494521294280, 0.000000000000000000, -20.49999999999999645 ) ) ;
#784 = ORIENTED_EDGE ( 'NONE', *, *, #1182, .F. ) ;
#785 = CARTESIAN_POINT ( 'NONE',  ( 5.968552227140704325, -8.993674459495924367, 13.49999999999999467 ) ) ;
#786 = ORIENTED_EDGE ( 'NONE', *, *, #487, .F. ) ;
#787 = CARTESIAN_POINT ( 'NONE',  ( 6.285033640768242336, -10.20690304690399053, -3.278492963673459215 ) ) ;
#788 = CARTESIAN_POINT ( 'NONE',  ( -10.00000000000000178, -12.49999999999999645, -22.49999999999999645 ) ) ;
#789 = ADVANCED_FACE ( 'NONE', ( #1193 ), #523, .F. ) ;
#790 = AXIS2_PLACEMENT_3D ( 'NONE', #456, #759, #550 ) ;
#791 = ORIENTED_EDGE ( 'NONE', *, *, #450, .T. ) ;
#792 = CARTESIAN_POINT ( 'NONE',  ( -7.859507550409093213, 10.91224162644608242, 9.999999999999928946 ) ) ;
#793 = AXIS2_PLACEMENT_3D ( 'NONE', #593, #678, #579 ) ;
#794 = ORIENTED_EDGE ( 'NONE', *, *, #679, .T. ) ;
#795 = LINE ( 'NONE', #1006, #692 ) ;
#796 = DIRECTION ( 'NONE',  ( 0.000000000000000000, 0.000000000000000000, 1.000000000000000000 ) ) ;
#797 = VERTEX_POINT ( 'NONE', #629 ) ;
#798 = DIRECTION ( 'NONE',  ( -5.807743093568530502E-17, 1.787439530721930590E-16, -1.000000000000000000 ) ) ;
#799 = EDGE_CURVE ( 'NONE', #778, #1260, #320, .T. ) ;
#800 = ORIENTED_EDGE ( 'NONE', *, *, #1136, .F. ) ;
#801 = DIRECTION ( 'NONE',  ( 1.000000000000000000, 0.000000000000000000, -0.000000000000000000 ) ) ;
#802 = FACE_OUTER_BOUND ( 'NONE', #1115, .T. ) ;
#803 = ORIENTED_EDGE ( 'NONE', *, *, #703, .F. ) ;
#804 = FACE_OUTER_BOUND ( 'NONE', #1060, .T. ) ;
#805 = VERTEX_POINT ( 'NONE', #1094 ) ;
#806 = ADVANCED_FACE ( 'NONE', ( #1213 ), #115, .T. ) ;
#807 = LINE ( 'NONE', #333, #876 ) ;
#808 = ORIENTED_EDGE ( 'NONE', *, *, #612, .T. ) ;
#809 = VECTOR ( 'NONE', #725, 1000.000000000000000 ) ;
#810 = DIRECTION ( 'NONE',  ( 0.000000000000000000, -0.000000000000000000, -1.000000000000000000 ) ) ;
#811 = ORIENTED_EDGE ( 'NONE', *, *, #201, .T. ) ;
#812 = CIRCLE ( 'NONE', #264, 10.00000000000000000 ) ;
#813 = DIRECTION ( 'NONE',  ( 0.000000000000000000, 1.000000000000000000, 0.000000000000000000 ) ) ;
#814 = CIRCLE ( 'NONE', #468, 2.000000000000001776 ) ;
#815 = EDGE_CURVE ( 'NONE', #344, #94, #324, .T. ) ;
#816 = VECTOR ( 'NONE', #720, 1000.000000000000000 ) ;
#817 = VECTOR ( 'NONE', #339, 1000.000000000000114 ) ;
#818 = LINE ( 'NONE', #899, #732 ) ;
#819 = ORIENTED_EDGE ( 'NONE', *, *, #240, .T. ) ;
#820 = PLANE ( 'NONE',  #566 ) ;
#821 = ORIENTED_EDGE ( 'NONE', *, *, #52, .F. ) ;
#822 = CARTESIAN_POINT ( 'NONE',  ( 1.097751494521294724, -12.49999999999999645, 22.49999999999999645 ) ) ;
#823 = LINE ( 'NONE', #719, #266 ) ;
#824 = EDGE_CURVE ( 'NONE', #945, #235, #795, .T. ) ;
#825 = EDGE_LOOP ( 'NONE', ( #1099, #132, #90, #543 ) ) ;
#826 = CARTESIAN_POINT ( 'NONE',  ( 4.457987064189155468, -17.50000000000000000, 22.50000000000000000 ) ) ;
#827 = VERTEX_POINT ( 'NONE', #442 ) ;
#828 = CARTESIAN_POINT ( 'NONE',  ( -17.39698716585275307, 5.265585625041830475, -3.499999999999996447 ) ) ;
#829 = CARTESIAN_POINT ( 'NONE',  ( 6.281105097125390557, -10.20560250739421804, 3.267921730302879357 ) ) ;
#830 = ADVANCED_FACE ( 'NONE', ( #768 ), #1041, .F. ) ;
#831 = LINE ( 'NONE', #1105, #816 ) ;
#832 = FACE_BOUND ( 'NONE', #554, .T. ) ;
#833 = ORIENTED_EDGE ( 'NONE', *, *, #844, .T. ) ;
#834 = DIRECTION ( 'NONE',  ( 0.9510565162951544194, 0.3090169943749448977, 0.000000000000000000 ) ) ;
#835 = VECTOR ( 'NONE', #282, 1000.000000000000000 ) ;
#836 = SURFACE_STYLE_FILL_AREA ( #841 ) ;
#837 = CARTESIAN_POINT ( 'NONE',  ( -0.9142784447630073474, -11.51353663867983812, 3.500000000000001332 ) ) ;
#838 = ORIENTED_EDGE ( 'NONE', *, *, #799, .F. ) ;
#839 = ADVANCED_FACE ( 'NONE', ( #924 ), #1018, .F. ) ;
#840 = CARTESIAN_POINT ( 'NONE',  ( -0.9022485054787053871, -17.50000000000000355, -22.50000000000000000 ) ) ;
#841 = FILL_AREA_STYLE ('',( #931 ) ) ;
#842 = APPLICATION_PROTOCOL_DEFINITION ( 'draft international standard', 'automotive_design', 1998, #107 ) ;
#843 = ORIENTED_EDGE ( 'NONE', *, *, #1123, .F. ) ;
#844 = EDGE_CURVE ( 'NONE', #929, #915, #756, .T. ) ;
#845 = CARTESIAN_POINT ( 'NONE',  ( 6.068321900344969322, -9.300733940226047380, 3.498676446787301941 ) ) ;
#846 = DIRECTION ( 'NONE',  ( -8.847089727481716182E-15, 1.000000000000000000, 1.734723475976807094E-16 ) ) ;
#847 = FACE_BOUND ( 'NONE', #241, .T. ) ;
#848 = ORIENTED_EDGE ( 'NONE', *, *, #1136, .T. ) ;
#849 = DIRECTION ( 'NONE',  ( 1.734723475976807587E-16, -1.000000000000000000, -0.000000000000000000 ) ) ;
#850 = DIRECTION ( 'NONE',  ( -0.000000000000000000, 1.000000000000000000, -0.000000000000000000 ) ) ;
#851 = AXIS2_PLACEMENT_3D ( 'NONE', #383, #292, #1148 ) ;
#852 = CYLINDRICAL_SURFACE ( 'NONE', #164, 3.500000000000000444 ) ;
#853 = PLANE ( 'NONE',  #1074 ) ;
#854 = ORIENTED_EDGE ( 'NONE', *, *, #341, .T. ) ;
#855 = VECTOR ( 'NONE', #475, 1000.000000000000000 ) ;
#856 = DIRECTION ( 'NONE',  ( 0.000000000000000000, 0.000000000000000000, 1.000000000000000000 ) ) ;
#857 =( BOUNDED_CURVE ( )  B_SPLINE_CURVE ( 3, ( #95, #779, #496, #112 ),
 .UNSPECIFIED., .F., .F. ) 
 B_SPLINE_CURVE_WITH_KNOTS ( ( 4, 4 ),
 ( 3.141592653589789119, 4.712388980384690562 ),
 .UNSPECIFIED. ) 
 CURVE ( )  GEOMETRIC_REPRESENTATION_ITEM ( )  RATIONAL_B_SPLINE_CURVE ( ( 1.000000000000000000, 0.8047378541243637162, 0.8047378541243637162, 1.000000000000000000 ) ) 
 REPRESENTATION_ITEM ( '' )  );
#858 = EDGE_LOOP ( 'NONE', ( #1217, #541, #883, #724 ) ) ;
#859 = LINE ( 'NONE', #1249, #730 ) ;
#860 = DIRECTION ( 'NONE',  ( -0.3090169943749446757, 0.9510565162951545304, 0.000000000000000000 ) ) ;
#861 = EDGE_CURVE ( 'NONE', #1008, #344, #244, .T. ) ;
#862 = CARTESIAN_POINT ( 'NONE',  ( -10.00000000000000178, 17.50000000000000000, 22.50000000000000000 ) ) ;
#863 = ORIENTED_EDGE ( 'NONE', *, *, #996, .F. ) ;
#864 = CARTESIAN_POINT ( 'NONE',  ( -0.9022485054787053871, -12.49999999999999645, 13.49999999999999645 ) ) ;
#865 = ORIENTED_EDGE ( 'NONE', *, *, #261, .T. ) ;
#866 = CARTESIAN_POINT ( 'NONE',  ( 6.435639459334939083, -11.40651736153627738, -2.501386800783601760 ) ) ;
#867 = EDGE_CURVE ( 'NONE', #33, #568, #569, .T. ) ;
#868 = ORIENTED_EDGE ( 'NONE', *, *, #463, .T. ) ;
#869 = LINE ( 'NONE', #729, #465 ) ;
#870 = CARTESIAN_POINT ( 'NONE',  ( -10.00000000000000178, 15.50000000000000178, -11.50000000000000000 ) ) ;
#871 = CARTESIAN_POINT ( 'NONE',  ( -10.00000000000000000, 17.49999999999999645, 13.49999999999999822 ) ) ;
#872 = ORIENTED_EDGE ( 'NONE', *, *, #1152, .T. ) ;
#873 = CARTESIAN_POINT ( 'NONE',  ( -0.4533496366684614531, 10.77090718410481252, 3.814958796968119005E-15 ) ) ;
#874 = AXIS2_PLACEMENT_3D ( 'NONE', #783, #595, #1163 ) ;
#875 = CIRCLE ( 'NONE', #411, 10.00000000000000000 ) ;
#876 = VECTOR ( 'NONE', #236, 1000.000000000000000 ) ;
#877 = ORIENTED_EDGE ( 'NONE', *, *, #740, .T. ) ;
#878 = EDGE_CURVE ( 'NONE', #215, #469, #65, .T. ) ;
#879 = CARTESIAN_POINT ( 'NONE',  ( 6.454503002016382496, -11.73895882233276922, -2.155873737782144417 ) ) ;
#880 = DIRECTION ( 'NONE',  ( 0.000000000000000000, -1.000000000000000000, 0.000000000000000000 ) ) ;
#881 = ORIENTED_EDGE ( 'NONE', *, *, #861, .T. ) ;
#882 = DIRECTION ( 'NONE',  ( 0.000000000000000000, 1.156482317317871478E-16, -1.000000000000000000 ) ) ;
#883 = ORIENTED_EDGE ( 'NONE', *, *, #988, .T. ) ;
#884 = B_SPLINE_CURVE_WITH_KNOTS ( 'NONE', 3,
 ( #458, #845, #657, #173, #829, #757, #347, #731, #1240, #464, #1235, #741 ),
 .UNSPECIFIED., .F., .F.,
 ( 4, 2, 2, 2, 2, 4 ),
 ( 3.602423855278283897E-18, 0.0009543046668171454487, 0.001431457000225716493, 0.001908609333634287428, 0.002862914000451429082, 0.003817218667268570953 ),
 .UNSPECIFIED. ) ;
#885 = EDGE_CURVE ( 'NONE', #488, #171, #273, .T. ) ;
#886 = CARTESIAN_POINT ( 'NONE',  ( 1.616485629835035631, -17.50000000000000355, 18.00000000129905331 ) ) ;
#887 = VERTEX_POINT ( 'NONE', #1046 ) ;
#888 = LINE ( 'NONE', #1065, #584 ) ;
#889 = ORIENTED_EDGE ( 'NONE', *, *, #736, .F. ) ;
#890 = CARTESIAN_POINT ( 'NONE',  ( -3.542012935810843643, -12.08384440324535802, -22.50000000000000000 ) ) ;
#891 = LINE ( 'NONE', #110, #648 ) ;
#892 = EDGE_CURVE ( 'NONE', #171, #519, #346, .T. ) ;
#893 = AXIS2_PLACEMENT_3D ( 'NONE', #157, #535, #933 ) ;
#894 = ORIENTED_EDGE ( 'NONE', *, *, #740, .F. ) ;
#895 = LINE ( 'NONE', #590, #646 ) ;
#896 = VECTOR ( 'NONE', #206, 1000.000000000000000 ) ;
#897 = VERTEX_POINT ( 'NONE', #1059 ) ;
#898 = DIRECTION ( 'NONE',  ( -0.000000000000000000, 1.000000000000000000, -0.000000000000000000 ) ) ;
#899 = CARTESIAN_POINT ( 'NONE',  ( 5.968552227140700772, -8.993674459495913709, -22.50000000000000000 ) ) ;
#900 = ADVANCED_FACE ( 'NONE', ( #250 ), #656, .T. ) ;
#901 = DIRECTION ( 'NONE',  ( 0.000000000000000000, 0.000000000000000000, 1.000000000000000000 ) ) ;
#902 = CARTESIAN_POINT ( 'NONE',  ( 6.457987064189155468, -12.65002892706763937, -0.5828553887029747083 ) ) ;
#903 = VERTEX_POINT ( 'NONE', #864 ) ;
#904 = LINE ( 'NONE', #530, #38 ) ;
#905 = CARTESIAN_POINT ( 'NONE',  ( -10.00000000000000355, 17.50000000000000355, -12.67157287525380660 ) ) ;
#906 = DIRECTION ( 'NONE',  ( 0.000000000000000000, 0.000000000000000000, -1.000000000000000000 ) ) ;
#907 = CARTESIAN_POINT ( 'NONE',  ( 4.457987064189155468, -12.49999999999999645, -20.49999999999999645 ) ) ;
#908 = PRODUCT_DEFINITION ( '普通', '', #97, #84 ) ;
#909 = ORIENTED_EDGE ( 'NONE', *, *, #487, .T. ) ;
#910 = VECTOR ( 'NONE', #317, 1000.000000000000000 ) ;
#911 = DIRECTION ( 'NONE',  ( -0.000000000000000000, 1.000000000000000000, -0.000000000000000000 ) ) ;
#912 = CARTESIAN_POINT ( 'NONE',  ( -1.391683342527155309, -8.993674459495927920, -13.49999999999999645 ) ) ;
#913 = LINE ( 'NONE', #1111, #1100 ) ;
#914 = FACE_BOUND ( 'NONE', #439, .T. ) ;
#915 = VERTEX_POINT ( 'NONE', #668 ) ;
#916 = EDGE_CURVE ( 'NONE', #1257, #1183, #651, .T. ) ;
#917 = CARTESIAN_POINT ( 'NONE',  ( -17.52771547677741282, 5.667925995417399498, -10.00000000000007105 ) ) ;
#918 = AXIS2_PLACEMENT_3D ( 'NONE', #392, #500, #483 ) ;
#919 = AXIS2_PLACEMENT_3D ( 'NONE', #172, #345, #1165 ) ;
#920 = LINE ( 'NONE', #41, #146 ) ;
#921 = ORIENTED_EDGE ( 'NONE', *, *, #396, .T. ) ;
#922 = CARTESIAN_POINT ( 'NONE',  ( -7.110745250734540335, 8.607788223480199008, 3.814958796968119005E-15 ) ) ;
#923 = ORIENTED_EDGE ( 'NONE', *, *, #885, .T. ) ;
#924 = FACE_OUTER_BOUND ( 'NONE', #706, .T. ) ;
#925 = EDGE_CURVE ( 'NONE', #420, #230, #434, .T. ) ;
#926 = CARTESIAN_POINT ( 'NONE',  ( -10.97942469301497681, -14.48564074640488997, -3.500000000000000444 ) ) ;
#927 = ORIENTED_EDGE ( 'NONE', *, *, #539, .T. ) ;
#928 = CARTESIAN_POINT ( 'NONE',  ( 6.457987064189154580, -10.50000000000000533, -22.50000000000000000 ) ) ;
#929 = VERTEX_POINT ( 'NONE', #462 ) ;
#930 = FACE_OUTER_BOUND ( 'NONE', #1212, .T. ) ;
#931 = FILL_AREA_STYLE_COLOUR ( '', #433 ) ;
#932 = EDGE_CURVE ( 'NONE', #903, #469, #191, .T. ) ;
#933 = DIRECTION ( 'NONE',  ( -0.3090169943749441206, 0.9510565162951546414, 0.000000000000000000 ) ) ;
#934 = ORIENTED_EDGE ( 'NONE', *, *, #341, .F. ) ;
#935 = CARTESIAN_POINT ( 'NONE',  ( 1.616485629835035631, -17.50000000000000355, 18.00000000129905331 ) ) ;
#936 = AXIS2_PLACEMENT_3D ( 'NONE', #135, #733, #901 ) ;
#937 = AXIS2_PLACEMENT_3D ( 'NONE', #511, #1214, #315 ) ;
#938 = LINE ( 'NONE', #658, #492 ) ;
#939 = DIRECTION ( 'NONE',  ( -0.000000000000000000, -0.000000000000000000, -1.000000000000000000 ) ) ;
#940 = ADVANCED_FACE ( 'NONE', ( #45 ), #1247, .F. ) ;
#941 = ORIENTED_EDGE ( 'NONE', *, *, #980, .T. ) ;
#942 = EDGE_LOOP ( 'NONE', ( #435, #1175, #117, #195 ) ) ;
#943 = CARTESIAN_POINT ( 'NONE',  ( 1.616485629835047844, -17.50000000000000355, -16.24999999870094314 ) ) ;
#944 = CARTESIAN_POINT ( 'NONE',  ( -2.639764430332136147, 17.49999999999999645, 13.49999999999999822 ) ) ;
#945 = VERTEX_POINT ( 'NONE', #481 ) ;
#946 = CARTESIAN_POINT ( 'NONE',  ( -10.00000000000000711, 17.49999999999999645, 12.67157287525381371 ) ) ;
#947 = EDGE_CURVE ( 'NONE', #401, #82, #869, .T. ) ;
#948 = DIRECTION ( 'NONE',  ( -0.000000000000000000, -1.000000000000000000, -0.000000000000000000 ) ) ;
#949 = ORIENTED_EDGE ( 'NONE', *, *, #335, .F. ) ;
#950 = DIRECTION ( 'NONE',  ( 1.000000000000000000, 0.000000000000000000, 0.000000000000000000 ) ) ;
#951 = ORIENTED_EDGE ( 'NONE', *, *, #1130, .F. ) ;
#952 = AXIS2_PLACEMENT_3D ( 'NONE', #189, #374, #567 ) ;
#953 = EDGE_CURVE ( 'NONE', #596, #971, #1082, .T. ) ;
#954 = DIRECTION ( 'NONE',  ( 0.9510565162951544194, 0.3090169943749448422, -0.000000000000000000 ) ) ;
#955 = AXIS2_PLACEMENT_3D ( 'NONE', #376, #849, #367 ) ;
#956 = CARTESIAN_POINT ( 'NONE',  ( 1.616485629835035631, -12.49999999999999645, 18.00000000129905331 ) ) ;
#957 = VECTOR ( 'NONE', #57, 1000.000000000000000 ) ;
#958 = VERTEX_POINT ( 'NONE', #762 ) ;
#959 = AXIS2_PLACEMENT_3D ( 'NONE', #1049, #638, #263 ) ;
#960 = DIRECTION ( 'NONE',  ( -0.3090169943749447312, 0.9510565162951544194, -1.099880043865282189E-16 ) ) ;
#961 = CARTESIAN_POINT ( 'NONE',  ( 1.097751494521294724, -17.50000000000000000, 22.50000000000000000 ) ) ;
#962 = EDGE_CURVE ( 'NONE', #640, #999, #1239, .T. ) ;
#963 = CARTESIAN_POINT ( 'NONE',  ( -18.14574946552730594, 7.570039028007713000, 9.999999999999928946 ) ) ;
#964 = CARTESIAN_POINT ( 'NONE',  ( -1.391683342527155309, -8.993674459495927920, 13.49999999999999467 ) ) ;
#965 = ORIENTED_EDGE ( 'NONE', *, *, #61, .T. ) ;
#966 = CARTESIAN_POINT ( 'NONE',  ( -10.00000000000000178, -12.49999999999999645, 13.49999999999999645 ) ) ;
#967 = CARTESIAN_POINT ( 'NONE',  ( 1.616485629835035631, -17.50000000000000355, 19.75000000129905331 ) ) ;
#968 = LINE ( 'NONE', #1174, #1241 ) ;
#969 = AXIS2_PLACEMENT_3D ( 'NONE', #297, #1272, #502 ) ;
#970 = EDGE_CURVE ( 'NONE', #451, #1266, #1184, .T. ) ;
#971 = VERTEX_POINT ( 'NONE', #682 ) ;
#972 = CARTESIAN_POINT ( 'NONE',  ( -0.9022485054787053871, -10.50000000000000355, -13.49999999999999645 ) ) ;
#973 = EDGE_LOOP ( 'NONE', ( #503, #843, #833, #941 ) ) ;
#974 = AXIS2_PLACEMENT_3D ( 'NONE', #928, #432, #131 ) ;
#975 = LINE ( 'NONE', #983, #835 ) ;
#976 = DIRECTION ( 'NONE',  ( -0.000000000000000000, 1.000000000000000000, -0.000000000000000000 ) ) ;
#977 = ORIENTED_EDGE ( 'NONE', *, *, #679, .F. ) ;
#978 = DIRECTION ( 'NONE',  ( 0.9510565162951544194, 0.3090169943749448977, 0.000000000000000000 ) ) ;
#979 = CIRCLE ( 'NONE', #327, 1.999999999999998668 ) ;
#980 = EDGE_CURVE ( 'NONE', #915, #42, #1122, .T. ) ;
#981 = VECTOR ( 'NONE', #1253, 1000.000000000000000 ) ;
#982 = EDGE_LOOP ( 'NONE', ( #528, #369, #1121, #153 ) ) ;
#983 = CARTESIAN_POINT ( 'NONE',  ( -0.9022485054787053871, -12.08384440324537223, -13.49999999999999645 ) ) ;
#984 = CARTESIAN_POINT ( 'NONE',  ( 6.457987064189154580, -12.08384440324535802, -1.616745096083958666 ) ) ;
#985 = VERTEX_POINT ( 'NONE', #792 ) ;
#986 = DIRECTION ( 'NONE',  ( 0.9510565162951545304, 0.3090169943749448977, -0.000000000000000000 ) ) ;
#987 = VERTEX_POINT ( 'NONE', #203 ) ;
#988 = EDGE_CURVE ( 'NONE', #94, #1228, #895, .T. ) ;
#989 = DIRECTION ( 'NONE',  ( 1.000000000000000000, 1.734723475976807094E-16, -0.000000000000000000 ) ) ;
#990 =( BOUNDED_CURVE ( )  B_SPLINE_CURVE ( 3, ( #515, #902, #21, #419 ),
 .UNSPECIFIED., .F., .F. ) 
 B_SPLINE_CURVE_WITH_KNOTS ( ( 4, 4 ),
 ( 2.661425796719080861, 3.621759510460503595 ),
 .UNSPECIFIED. ) 
 CURVE ( )  GEOMETRIC_REPRESENTATION_ITEM ( )  RATIONAL_B_SPLINE_CURVE ( ( 1.000000000000000000, 0.9246119062692953472, 0.9246119062692953472, 1.000000000000000000 ) ) 
 REPRESENTATION_ITEM ( '' )  );
#991 = DIRECTION ( 'NONE',  ( 0.000000000000000000, 1.000000000000000000, 0.000000000000000000 ) ) ;
#992 = ORIENTED_EDGE ( 'NONE', *, *, #249, .F. ) ;
#993 = CARTESIAN_POINT ( 'NONE',  ( -10.97942469301497681, -14.48564074640488997, 0.000000000000000000 ) ) ;
#994 = ORIENTED_EDGE ( 'NONE', *, *, #261, .F. ) ;
#995 = DIRECTION ( 'NONE',  ( -0.000000000000000000, 1.000000000000000000, 1.156482317317871478E-16 ) ) ;
#996 = EDGE_CURVE ( 'NONE', #461, #958, #216, .T. ) ;
#997 = CARTESIAN_POINT ( 'NONE',  ( -0.9022485054787036107, -12.08384440324537046, 3.400216766075315977 ) ) ;
#998 = ORIENTED_EDGE ( 'NONE', *, *, #599, .F. ) ;
#999 = VERTEX_POINT ( 'NONE', #688 ) ;
#1000 = AXIS2_PLACEMENT_3D ( 'NONE', #1118, #1210, #342 ) ;
#1001 = AXIS2_PLACEMENT_3D ( 'NONE', #243, #220, #607 ) ;
#1002 = CARTESIAN_POINT ( 'NONE',  ( -7.241473561659203639, 9.010128593855766255, -10.00000000000007105 ) ) ;
#1003 = ORIENTED_EDGE ( 'NONE', *, *, #450, .F. ) ;
#1004 = DIRECTION ( 'NONE',  ( 0.3090169943749448422, -0.9510565162951544194, 1.099880043865282189E-16 ) ) ;
#1005 = ORIENTED_EDGE ( 'NONE', *, *, #636, .F. ) ;
#1006 = CARTESIAN_POINT ( 'NONE',  ( 6.457987064189154580, -12.08384440324535802, -22.50000000000000000 ) ) ;
#1007 = CARTESIAN_POINT ( 'NONE',  ( 9.999999999999998224, 17.50000000000000000, 11.50000000000000000 ) ) ;
#1008 = VERTEX_POINT ( 'NONE', #507 ) ;
#1009 = CYLINDRICAL_SURFACE ( 'NONE', #893, 1.999999999999999112 ) ;
#1010 = EDGE_CURVE ( 'NONE', #73, #488, #857, .T. ) ;
#1011 = ORIENTED_EDGE ( 'NONE', *, *, #1198, .T. ) ;
#1012 = DIRECTION ( 'NONE',  ( 0.9510565162951545304, 0.3090169943749448977, -0.000000000000000000 ) ) ;
#1013 = CARTESIAN_POINT ( 'NONE',  ( -0.9142784447630059042, -11.51353663867983634, -3.500000000000000444 ) ) ;
#1014 = FACE_OUTER_BOUND ( 'NONE', #1197, .T. ) ;
#1015 = VERTEX_POINT ( 'NONE', #311 ) ;
#1016 = AXIS2_PLACEMENT_3D ( 'NONE', #1002, #1187, #127 ) ;
#1017 = EDGE_CURVE ( 'NONE', #1260, #1248, #812, .T. ) ;
#1018 = CYLINDRICAL_SURFACE ( 'NONE', #851, 1.750000000000001554 ) ;
#1019 = CIRCLE ( 'NONE', #1125, 2.000000000000000444 ) ;
#1020 = VECTOR ( 'NONE', #1154, 1000.000000000000114 ) ;
#1021 = CARTESIAN_POINT ( 'NONE',  ( 5.964212836169316745, -8.980319187341908815, 3.500000000000000444 ) ) ;
#1022 = CARTESIAN_POINT ( 'NONE',  ( -3.542012935810843643, -12.08384440324535802, -13.49999999999999645 ) ) ;
#1023 = LINE ( 'NONE', #239, #1178 ) ;
#1024 = ORIENTED_EDGE ( 'NONE', *, *, #96, .F. ) ;
#1025 = ADVANCED_FACE ( 'NONE', ( #414 ), #1171, .F. ) ;
#1026 = CARTESIAN_POINT ( 'NONE',  ( -6.623439572909312290, 7.108015561265458082, -10.00000000000007105 ) ) ;
#1027 = FACE_OUTER_BOUND ( 'NONE', #361, .T. ) ;
#1028 = ORIENTED_EDGE ( 'NONE', *, *, #93, .T. ) ;
#1029 = DIRECTION ( 'NONE',  ( 0.000000000000000000, 0.000000000000000000, -1.000000000000000000 ) ) ;
#1030 = EDGE_CURVE ( 'NONE', #778, #1139, #199, .T. ) ;
#1031 = DIRECTION ( 'NONE',  ( 0.000000000000000000, -0.000000000000000000, -1.000000000000000000 ) ) ;
#1032 = CARTESIAN_POINT ( 'NONE',  ( -0.9022485054787053871, -12.08384440324537223, 13.49999999999999822 ) ) ;
#1033 = VERTEX_POINT ( 'NONE', #785 ) ;
#1034 = CARTESIAN_POINT ( 'NONE',  ( 9.999999999999998224, -17.50000000000000000, -22.50000000000000000 ) ) ;
#1035 = CIRCLE ( 'NONE', #489, 3.500000000000000888 ) ;
#1036 = VECTOR ( 'NONE', #1031, 1000.000000000000000 ) ;
#1037 = VECTOR ( 'NONE', #960, 1000.000000000000000 ) ;
#1038 = PRODUCT_RELATED_PRODUCT_CATEGORY ( 'part', '', ( #490 ) ) ;
#1039 = EDGE_CURVE ( 'NONE', #13, #451, #1176, .T. ) ;
#1040 = EDGE_LOOP ( 'NONE', ( #1090, #71, #615, #551, #838 ) ) ;
#1041 = CYLINDRICAL_SURFACE ( 'NONE', #594, 2.000000000000000000 ) ;
#1042 = ORIENTED_EDGE ( 'NONE', *, *, #1062, .F. ) ;
#1043 = DIRECTION ( 'NONE',  ( -0.3090169943749447867, 0.9510565162951544194, 0.000000000000000000 ) ) ;
#1044 = DIRECTION ( 'NONE',  ( 0.000000000000000000, 0.000000000000000000, 1.000000000000000000 ) ) ;
#1045 = VERTEX_POINT ( 'NONE', #303 ) ;
#1046 = CARTESIAN_POINT ( 'NONE',  ( -0.9393339927088600882, -11.22341752591063013, -3.500000000000000000 ) ) ;
#1047 = ADVANCED_FACE ( 'NONE', ( #804 ), #1086, .T. ) ;
#1048 = CARTESIAN_POINT ( 'NONE',  ( -1.989925037866330237, 15.50000000000000000, 13.49999999999999822 ) ) ;
#1049 = CARTESIAN_POINT ( 'NONE',  ( -3.542012935810843643, -12.08384440324535802, 13.49999999999999822 ) ) ;
#1050 =( LENGTH_UNIT ( ) NAMED_UNIT ( * ) SI_UNIT ( .MILLI., .METRE. ) );
#1051 = ORIENTED_EDGE ( 'NONE', *, *, #925, .F. ) ;
#1052 = DIRECTION ( 'NONE',  ( 1.734723475976807587E-16, -1.000000000000000000, -0.000000000000000000 ) ) ;
#1053 = ORIENTED_EDGE ( 'NONE', *, *, #357, .T. ) ;
#1054 = ADVANCED_FACE ( 'NONE', ( #210 ), #597, .F. ) ;
#1055 = CARTESIAN_POINT ( 'NONE',  ( 4.457987064189155468, -12.49999999999999645, 20.49999999999999645 ) ) ;
#1056 = DIRECTION ( 'NONE',  ( 0.000000000000000000, 1.000000000000000000, 0.000000000000000000 ) ) ;
#1057 = DIRECTION ( 'NONE',  ( 1.000000000000000000, 0.000000000000000000, 0.000000000000000000 ) ) ;
#1058 = ORIENTED_EDGE ( 'NONE', *, *, #286, .T. ) ;
#1059 = CARTESIAN_POINT ( 'NONE',  ( -2.639764430332137479, 17.50000000000000000, -11.50000000000000355 ) ) ;
#1060 = EDGE_LOOP ( 'NONE', ( #336, #786, #375, #272 ) ) ;
#1061 = CARTESIAN_POINT ( 'NONE',  ( 6.457987064189154580, -17.50000000000000355, 20.49999999999999645 ) ) ;
#1062 = EDGE_CURVE ( 'NONE', #805, #1008, #888, .T. ) ;
#1063 = CARTESIAN_POINT ( 'NONE',  ( 6.457987064189154580, -12.49999999999999645, 20.49999999999999645 ) ) ;
#1064 = ORIENTED_EDGE ( 'NONE', *, *, #1268, .F. ) ;
#1065 = CARTESIAN_POINT ( 'NONE',  ( -0.9022485054787053871, -10.50000000000000533, -20.49999999999999645 ) ) ;
#1066 = ORIENTED_EDGE ( 'NONE', *, *, #736, .T. ) ;
#1067 = B_SPLINE_CURVE_WITH_KNOTS ( 'NONE', 3,
 ( #26, #1202, #1013, #143 ),
 .UNSPECIFIED., .F., .F.,
 ( 4, 4 ),
 ( 1.791395985745430955E-18, 0.0008669869885849369306 ),
 .UNSPECIFIED. ) ;
#1068 = DIRECTION ( 'NONE',  ( 0.000000000000000000, 0.000000000000000000, 1.000000000000000000 ) ) ;
#1069 = CYLINDRICAL_SURFACE ( 'NONE', #36, 1.750000000000001554 ) ;
#1070 = EDGE_CURVE ( 'NONE', #235, #987, #990, .T. ) ;
#1071 = ORIENTED_EDGE ( 'NONE', *, *, #463, .F. ) ;
#1072 = CARTESIAN_POINT ( 'NONE',  ( 1.616485629835035631, -17.50000000000000355, 19.75000000129905331 ) ) ;
#1073 = ORIENTED_EDGE ( 'NONE', *, *, #61, .F. ) ;
#1074 = AXIS2_PLACEMENT_3D ( 'NONE', #576, #162, #473 ) ;
#1075 = LINE ( 'NONE', #287, #896 ) ;
#1076 = B_SPLINE_CURVE_WITH_KNOTS ( 'NONE', 3,
 ( #253, #837, #54, #350 ),
 .UNSPECIFIED., .F., .F.,
 ( 4, 4 ),
 ( 1.791395985745430955E-18, 0.0008669869885849392074 ),
 .UNSPECIFIED. ) ;
#1077 = CIRCLE ( 'NONE', #748, 10.00000000000000000 ) ;
#1078 = ORIENTED_EDGE ( 'NONE', *, *, #114, .T. ) ;
#1079 = DIRECTION ( 'NONE',  ( 0.000000000000000000, 1.000000000000000000, 1.734723475976807094E-16 ) ) ;
#1080 = CIRCLE ( 'NONE', #533, 1.750000000000001554 ) ;
#1081 = CIRCLE ( 'NONE', #959, 10.00000000000000000 ) ;
#1082 = CIRCLE ( 'NONE', #955, 2.000000000000000000 ) ;
#1083 = ORIENTED_EDGE ( 'NONE', *, *, #545, .T. ) ;
#1084 = CARTESIAN_POINT ( 'NONE',  ( 1.616485629835048066, -17.50000000000000355, -19.74999999870094669 ) ) ;
#1085 = ORIENTED_EDGE ( 'NONE', *, *, #581, .F. ) ;
#1086 = CYLINDRICAL_SURFACE ( 'NONE', #68, 2.000000000000001776 ) ;
#1087 = ORIENTED_EDGE ( 'NONE', *, *, #138, .F. ) ;
#1088 = ADVANCED_FACE ( 'NONE', ( #124 ), #1196, .F. ) ;
#1089 = LINE ( 'NONE', #39, #268 ) ;
#1090 = ORIENTED_EDGE ( 'NONE', *, *, #1030, .T. ) ;
#1091 = CARTESIAN_POINT ( 'NONE',  ( 1.097751494521294280, -10.50000000000000533, 20.49999999999999645 ) ) ;
#1092 = ORIENTED_EDGE ( 'NONE', *, *, #1070, .F. ) ;
#1093 = EDGE_CURVE ( 'NONE', #633, #1172, #337, .T. ) ;
#1094 = CARTESIAN_POINT ( 'NONE',  ( -0.9022485054787053871, -12.49999999999999645, -20.49999999999999645 ) ) ;
#1095 = CARTESIAN_POINT ( 'NONE',  ( -7.241473561659203639, 9.010128593855766255, -10.00000000000007105 ) ) ;
#1096 = ORIENTED_EDGE ( 'NONE', *, *, #255, .F. ) ;
#1097 = FACE_OUTER_BOUND ( 'NONE', #753, .T. ) ;
#1098 = AXIS2_PLACEMENT_3D ( 'NONE', #228, #1128, #246 ) ;
#1099 = ORIENTED_EDGE ( 'NONE', *, *, #389, .F. ) ;
#1100 = VECTOR ( 'NONE', #906, 1000.000000000000000 ) ;
#1101 = AXIS2_PLACEMENT_3D ( 'NONE', #788, #693, #580 ) ;
#1102 = DIRECTION ( 'NONE',  ( 0.000000000000000000, 0.000000000000000000, 1.000000000000000000 ) ) ;
#1103 = LINE ( 'NONE', #232, #690 ) ;
#1104 = EDGE_CURVE ( 'NONE', #1015, #1228, #716, .T. ) ;
#1105 = CARTESIAN_POINT ( 'NONE',  ( 6.457987064189154580, -12.08384440324535802, -22.50000000000000000 ) ) ;
#1106 = PLANE ( 'NONE',  #974 ) ;
#1107 = ORIENTED_EDGE ( 'NONE', *, *, #138, .T. ) ;
#1108 = CARTESIAN_POINT ( 'NONE',  ( 1.616485629835035631, -17.50000000000000355, 18.00000000129905331 ) ) ;
#1109 = DIRECTION ( 'NONE',  ( -0.3090169943749447867, 0.9510565162951544194, 0.000000000000000000 ) ) ;
#1110 = EDGE_CURVE ( 'NONE', #64, #985, #673, .T. ) ;
#1111 = CARTESIAN_POINT ( 'NONE',  ( -0.9022485054787053871, -12.49999999999999645, -22.50000000000000000 ) ) ;
#1112 = DIRECTION ( 'NONE',  ( -1.000000000000000000, -1.734723475976807587E-16, 0.000000000000000000 ) ) ;
#1113 = B_SPLINE_CURVE_WITH_KNOTS ( 'NONE', 3,
 ( #499, #1173, #879, #866, #397, #294, #586, #664, #787, #378, #764, #1255 ),
 .UNSPECIFIED., .F., .F.,
 ( 4, 2, 2, 2, 2, 4 ),
 ( 6.505213034913026604E-19, 0.0009550673139927537631, 0.001432600970989132000, 0.001910134627985510128, 0.002865201941978266602, 0.003820269255971023292 ),
 .UNSPECIFIED. ) ;
#1114 = AXIS2_PLACEMENT_3D ( 'NONE', #527, #449, #639 ) ;
#1115 = EDGE_LOOP ( 'NONE', ( #772, #485, #457, #660, #1064 ) ) ;
#1116 = DIRECTION ( 'NONE',  ( 0.000000000000000000, -0.000000000000000000, 1.000000000000000000 ) ) ;
#1117 = CYLINDRICAL_SURFACE ( 'NONE', #937, 10.00000000000000178 ) ;
#1118 = CARTESIAN_POINT ( 'NONE',  ( -10.00000000000000178, 17.50000000000000000, 13.50000000000000000 ) ) ;
#1119 = VECTOR ( 'NONE', #1004, 1000.000000000000000 ) ;
#1120 = DIRECTION ( 'NONE',  ( 0.9510565162951544194, 0.3090169943749448422, 0.000000000000000000 ) ) ;
#1121 = ORIENTED_EDGE ( 'NONE', *, *, #1010, .F. ) ;
#1122 = CIRCLE ( 'NONE', #1201, 3.500000000000000888 ) ;
#1123 = EDGE_CURVE ( 'NONE', #929, #165, #177, .T. ) ;
#1124 = CARTESIAN_POINT ( 'NONE',  ( -3.542012935810843643, -12.08384440324535802, -22.50000000000000000 ) ) ;
#1125 = AXIS2_PLACEMENT_3D ( 'NONE', #1095, #438, #1109 ) ;
#1126 = DIRECTION ( 'NONE',  ( 0.000000000000000000, 0.000000000000000000, 1.000000000000000000 ) ) ;
#1127 = CARTESIAN_POINT ( 'NONE',  ( 5.968552227140706101, -8.993674459495924367, -13.49999999999999645 ) ) ;
#1128 = DIRECTION ( 'NONE',  ( 1.734723475976807587E-16, -1.000000000000000000, -0.000000000000000000 ) ) ;
#1129 = ORIENTED_EDGE ( 'NONE', *, *, #114, .F. ) ;
#1130 = EDGE_CURVE ( 'NONE', #1139, #126, #1076, .T. ) ;
#1131 = CARTESIAN_POINT ( 'NONE',  ( -10.00000000000000178, 17.50000000000000000, 11.50000000000000355 ) ) ;
#1132 = CARTESIAN_POINT ( 'NONE',  ( 9.999999999999998224, 17.50000000000000000, -11.50000000000000355 ) ) ;
#1133 = FACE_OUTER_BOUND ( 'NONE', #7, .T. ) ;
#1134 = ORIENTED_EDGE ( 'NONE', *, *, #3, .T. ) ;
#1135 = AXIS2_PLACEMENT_3D ( 'NONE', #993, #986, #609 ) ;
#1136 = EDGE_CURVE ( 'NONE', #175, #1172, #666, .T. ) ;
#1137 = DIRECTION ( 'NONE',  ( -0.000000000000000000, -0.000000000000000000, 1.000000000000000000 ) ) ;
#1138 = SURFACE_STYLE_USAGE ( .BOTH. , #1231 ) ;
#1139 = VERTEX_POINT ( 'NONE', #424 ) ;
#1140 = ORIENTED_EDGE ( 'NONE', *, *, #1259, .T. ) ;
#1141 = AXIS2_PLACEMENT_3D ( 'NONE', #1055, #185, #572 ) ;
#1142 = CARTESIAN_POINT ( 'NONE',  ( -18.14574946552729884, 7.570039028007707671, -10.00000000000007105 ) ) ;
#1143 = STYLED_ITEM ( 'NONE', ( #559 ), #141 ) ;
#1144 = AXIS2_PLACEMENT_3D ( 'NONE', #890, #1199, #9 ) ;
#1145 = CARTESIAN_POINT ( 'NONE',  ( 0.000000000000000000, 0.000000000000000000, -22.50000000000000000 ) ) ;
#1146 = ADVANCED_FACE ( 'NONE', ( #1027 ), #1009, .F. ) ;
#1147 = ORIENTED_EDGE ( 'NONE', *, *, #760, .T. ) ;
#1148 = DIRECTION ( 'NONE',  ( 0.000000000000000000, 0.000000000000000000, 1.000000000000000000 ) ) ;
#1149 = CYLINDRICAL_SURFACE ( 'NONE', #248, 1.750000000000001554 ) ;
#1150 = DIRECTION ( 'NONE',  ( -1.000000000000000000, -0.000000000000000000, -0.000000000000000000 ) ) ;
#1151 = DIRECTION ( 'NONE',  ( 1.000000000000000000, 0.000000000000000000, 0.000000000000000000 ) ) ;
#1152 = EDGE_CURVE ( 'NONE', #267, #568, #136, .T. ) ;
#1153 = EDGE_LOOP ( 'NONE', ( #548, #644, #649, #35 ) ) ;
#1154 = DIRECTION ( 'NONE',  ( 0.9510565162951544194, 0.3090169943749448422, -0.000000000000000000 ) ) ;
#1155 = EDGE_LOOP ( 'NONE', ( #1024, #60, #689, #88, #466 ) ) ;
#1156 = FACE_OUTER_BOUND ( 'NONE', #589, .T. ) ;
#1157 = FACE_OUTER_BOUND ( 'NONE', #1153, .T. ) ;
#1158 =( NAMED_UNIT ( * ) SI_UNIT ( $, .STERADIAN. ) SOLID_ANGLE_UNIT ( ) );
#1159 = ORIENTED_EDGE ( 'NONE', *, *, #711, .T. ) ;
#1160 = CARTESIAN_POINT ( 'NONE',  ( 1.097751494521294280, -17.50000000000000000, -20.49999999999999645 ) ) ;
#1161 = ADVANCED_FACE ( 'NONE', ( #1014 ), #721, .F. ) ;
#1162 = CARTESIAN_POINT ( 'NONE',  ( 4.457987064189155468, -17.50000000000000000, -22.50000000000000000 ) ) ;
#1163 = DIRECTION ( 'NONE',  ( 0.000000000000000000, 0.000000000000000000, 1.000000000000000000 ) ) ;
#1164 = VERTEX_POINT ( 'NONE', #322 ) ;
#1165 = DIRECTION ( 'NONE',  ( -1.000000000000000000, 0.000000000000000000, 0.000000000000000000 ) ) ;
#1166 = ORIENTED_EDGE ( 'NONE', *, *, #867, .F. ) ;
#1167 = ADVANCED_FACE ( 'NONE', ( #234 ), #1106, .F. ) ;
#1168 = DIRECTION ( 'NONE',  ( 0.000000000000000000, 1.156482317317871478E-16, 1.000000000000000000 ) ) ;
#1169 = CARTESIAN_POINT ( 'NONE',  ( 1.097751494521294280, -17.50000000000000000, 20.49999999999999645 ) ) ;
#1170 = VERTEX_POINT ( 'NONE', #49 ) ;
#1171 = CYLINDRICAL_SURFACE ( 'NONE', #969, 2.000000000000000000 ) ;
#1172 = VERTEX_POINT ( 'NONE', #826 ) ;
#1173 = CARTESIAN_POINT ( 'NONE',  ( 6.457987064189156357, -11.92870234593530832, -1.900044567344535418 ) ) ;
#1174 = CARTESIAN_POINT ( 'NONE',  ( -17.39698716585275662, 5.265585625041830475, 3.500000000000004441 ) ) ;
#1175 = ORIENTED_EDGE ( 'NONE', *, *, #353, .F. ) ;
#1176 = LINE ( 'NONE', #972, #910 ) ;
#1177 = ORIENTED_EDGE ( 'NONE', *, *, #824, .F. ) ;
#1178 = VECTOR ( 'NONE', #625, 1000.000000000000000 ) ;
#1179 = DIRECTION ( 'NONE',  ( 1.000000000000000000, 0.000000000000000000, 0.000000000000000000 ) ) ;
#1180 = CARTESIAN_POINT ( 'NONE',  ( -0.5840779475931264786, 11.17324755448038509, 9.999999999999928946 ) ) ;
#1181 = VECTOR ( 'NONE', #193, 1000.000000000000000 ) ;
#1182 = EDGE_CURVE ( 'NONE', #267, #401, #620, .T. ) ;
#1183 = VERTEX_POINT ( 'NONE', #707 ) ;
#1184 = LINE ( 'NONE', #1190, #142 ) ;
#1185 = CIRCLE ( 'NONE', #669, 2.000000000000001776 ) ;
#1186 = ORIENTED_EDGE ( 'NONE', *, *, #557, .T. ) ;
#1187 = DIRECTION ( 'NONE',  ( 0.9510565162951544194, 0.3090169943749448422, 0.000000000000000000 ) ) ;
#1188 = DIRECTION ( 'NONE',  ( -5.807743093568530502E-17, 1.787439530721930590E-16, -1.000000000000000000 ) ) ;
#1189 = ORIENTED_EDGE ( 'NONE', *, *, #799, .T. ) ;
#1190 = CARTESIAN_POINT ( 'NONE',  ( -10.00000000000000178, -12.49999999999999645, -13.49999999999999645 ) ) ;
#1191 = ADVANCED_FACE ( 'NONE', ( #832, #914, #1097 ), #820, .F. ) ;
#1192 = ORIENTED_EDGE ( 'NONE', *, *, #373, .F. ) ;
#1193 = FACE_OUTER_BOUND ( 'NONE', #537, .T. ) ;
#1194 = DIRECTION ( 'NONE',  ( 0.000000000000000000, 1.000000000000000000, 0.000000000000000000 ) ) ;
#1195 = PLANE ( 'NONE',  #1000 ) ;
#1196 = CYLINDRICAL_SURFACE ( 'NONE', #683, 1.750000000000001554 ) ;
#1197 = EDGE_LOOP ( 'NONE', ( #571, #474, #717, #604 ) ) ;
#1198 = EDGE_CURVE ( 'NONE', #209, #778, #1023, .T. ) ;
#1199 = DIRECTION ( 'NONE',  ( 0.000000000000000000, 0.000000000000000000, 1.000000000000000000 ) ) ;
#1200 = CARTESIAN_POINT ( 'NONE',  ( 4.457987064189155468, -12.49999999999999645, 22.49999999999999645 ) ) ;
#1201 = AXIS2_PLACEMENT_3D ( 'NONE', #873, #978, #106 ) ;
#1202 = CARTESIAN_POINT ( 'NONE',  ( -0.9022485054787036107, -11.80027772178182488, -3.466030279552229754 ) ) ;
#1203 = DIRECTION ( 'NONE',  ( -1.734723475976807587E-16, 1.000000000000000000, 0.000000000000000000 ) ) ;
#1204 = ORIENTED_EDGE ( 'NONE', *, *, #479, .T. ) ;
#1205 = AXIS2_PLACEMENT_3D ( 'NONE', #1022, #123, #514 ) ;
#1206 = CIRCLE ( 'NONE', #15, 2.000000000000000000 ) ;
#1207 = AXIS2_PLACEMENT_3D ( 'NONE', #1124, #388, #950 ) ;
#1208 = CARTESIAN_POINT ( 'NONE',  ( 6.457987064189154580, -17.50000000000000355, -22.50000000000000000 ) ) ;
#1209 = EDGE_CURVE ( 'NONE', #744, #298, #144, .T. ) ;
#1210 = DIRECTION ( 'NONE',  ( 0.000000000000000000, 1.156482317317871478E-16, -1.000000000000000000 ) ) ;
#1211 = CARTESIAN_POINT ( 'NONE',  ( 9.999999999999998224, -17.50000000000000000, 22.50000000000000000 ) ) ;
#1212 = EDGE_LOOP ( 'NONE', ( #384, #1058, #522, #415, #702, #613 ) ) ;
#1213 = FACE_OUTER_BOUND ( 'NONE', #382, .T. ) ;
#1214 = DIRECTION ( 'NONE',  ( 0.000000000000000000, 0.000000000000000000, -1.000000000000000000 ) ) ;
#1215 = CARTESIAN_POINT ( 'NONE',  ( -1.534909116980764487, 14.09960499113785559, 3.814958796968119005E-15 ) ) ;
#1216 = LINE ( 'NONE', #343, #809 ) ;
#1217 = ORIENTED_EDGE ( 'NONE', *, *, #545, .F. ) ;
#1218 = DIRECTION ( 'NONE',  ( -0.3090169943749457304, 0.9510565162951541973, 0.000000000000000000 ) ) ;
#1219 = DIRECTION ( 'NONE',  ( -0.3090169943749448422, 0.9510565162951544194, 0.000000000000000000 ) ) ;
#1220 = LINE ( 'NONE', #443, #187 ) ;
#1221 = DIRECTION ( 'NONE',  ( 1.000000000000000000, -0.000000000000000000, -0.000000000000000000 ) ) ;
#1222 = EDGE_CURVE ( 'NONE', #903, #1248, #1216, .T. ) ;
#1223 = VERTEX_POINT ( 'NONE', #152 ) ;
#1224 = VECTOR ( 'NONE', #214, 1000.000000000000000 ) ;
#1225 = CARTESIAN_POINT ( 'NONE',  ( -10.00000000000000178, -12.49999999999999645, 22.49999999999999645 ) ) ;
#1226 = CARTESIAN_POINT ( 'NONE',  ( -0.9022485054787053871, -12.08384440324537223, -13.49999999999999645 ) ) ;
#1227 =( NAMED_UNIT ( * ) PLANE_ANGLE_UNIT ( ) SI_UNIT ( $, .RADIAN. ) );
#1228 = VERTEX_POINT ( 'NONE', #542 ) ;
#1229 = ADVANCED_FACE ( 'NONE', ( #445, #87, #1133 ), #853, .F. ) ;
#1230 = DIRECTION ( 'NONE',  ( -0.3090169943749450643, 0.9510565162951544194, 0.000000000000000000 ) ) ;
#1231 = SURFACE_SIDE_STYLE ('',( #836 ) ) ;
#1232 = EDGE_LOOP ( 'NONE', ( #1096, #1 ) ) ;
#1233 = AXIS2_PLACEMENT_3D ( 'NONE', #695, #798, #6 ) ;
#1234 = EDGE_CURVE ( 'NONE', #202, #313, #8, .T. ) ;
#1235 = CARTESIAN_POINT ( 'NONE',  ( 6.457987064189156357, -11.92887975900007724, 1.899720599567408685 ) ) ;
#1236 = DIRECTION ( 'NONE',  ( 5.807743093568530502E-17, -1.787439530721930590E-16, 1.000000000000000000 ) ) ;
#1237 = CARTESIAN_POINT ( 'NONE',  ( 6.457987064189154580, -12.49999999999999645, -13.49999999999999645 ) ) ;
#1238 = EDGE_LOOP ( 'NONE', ( #5, #182, #1011, #1189, #865, #351, #1140, #763, #1267, #310, #108 ) ) ;
#1239 = LINE ( 'NONE', #1072, #536 ) ;
#1240 = CARTESIAN_POINT ( 'NONE',  ( 6.429197537448379407, -11.29400131181803069, 2.617862908983530357 ) ) ;
#1241 = VECTOR ( 'NONE', #300, 1000.000000000000114 ) ;
#1242 = ADVANCED_FACE ( 'NONE', ( #460 ), #180, .T. ) ;
#1243 = AXIS2_PLACEMENT_3D ( 'NONE', #314, #813, #616 ) ;
#1244 = DIRECTION ( 'NONE',  ( -0.3090169943749446757, 0.9510565162951545304, 0.000000000000000000 ) ) ;
#1245 = FACE_OUTER_BOUND ( 'NONE', #1238, .T. ) ;
#1246 = EDGE_LOOP ( 'NONE', ( #192, #1042, #1071, #708 ) ) ;
#1247 = CYLINDRICAL_SURFACE ( 'NONE', #919, 10.00000000000000178 ) ;
#1248 = VERTEX_POINT ( 'NONE', #1032 ) ;
#1249 = CARTESIAN_POINT ( 'NONE',  ( -10.97942469301497681, -14.48564074640488997, 3.500000000000000444 ) ) ;
#1250 = LINE ( 'NONE', #1132, #513 ) ;
#1251 = ADVANCED_FACE ( 'NONE', ( #847, #766, #1245 ), #478, .F. ) ;
#1252 = ORIENTED_EDGE ( 'NONE', *, *, #295, .F. ) ;
#1253 = DIRECTION ( 'NONE',  ( -0.000000000000000000, 1.000000000000000000, 0.000000000000000000 ) ) ;
#1254 = ORIENTED_EDGE ( 'NONE', *, *, #240, .F. ) ;
#1255 = CARTESIAN_POINT ( 'NONE',  ( 5.968552227140703437, -8.993674459495910156, -3.499971829371158361 ) ) ;
#1256 = DIRECTION ( 'NONE',  ( 0.000000000000000000, 0.000000000000000000, 1.000000000000000000 ) ) ;
#1257 = VERTEX_POINT ( 'NONE', #276 ) ;
#1258 = DIRECTION ( 'NONE',  ( 0.000000000000000000, 0.000000000000000000, -1.000000000000000000 ) ) ;
#1259 = EDGE_CURVE ( 'NONE', #519, #585, #560, .T. ) ;
#1260 = VERTEX_POINT ( 'NONE', #964 ) ;
#1261 = DIRECTION ( 'NONE',  ( 1.000000000000000000, 0.000000000000000000, -0.000000000000000000 ) ) ;
#1262 = MECHANICAL_DESIGN_GEOMETRIC_PRESENTATION_REPRESENTATION (  '', ( #1143 ), #774 ) ;
#1263 = DIRECTION ( 'NONE',  ( 0.9510565162951544194, 0.3090169943749448977, 0.000000000000000000 ) ) ;
#1264 = AXIS2_PLACEMENT_3D ( 'NONE', #359, #53, #271 ) ;
#1265 = VECTOR ( 'NONE', #85, 1000.000000000000114 ) ;
#1266 = VERTEX_POINT ( 'NONE', #1237 ) ;
#1267 = ORIENTED_EDGE ( 'NONE', *, *, #1182, .T. ) ;
#1268 = EDGE_CURVE ( 'NONE', #82, #929, #360, .T. ) ;
#1269 = DIRECTION ( 'NONE',  ( 0.9510565162951544194, 0.3090169943749448422, -0.000000000000000000 ) ) ;
#1270 = DIRECTION ( 'NONE',  ( 0.9510565162951544194, 0.3090169943749448422, -0.000000000000000000 ) ) ;
#1271 = ORIENTED_EDGE ( 'NONE', *, *, #312, .F. ) ;
#1272 = DIRECTION ( 'NONE',  ( 0.9510565162951545304, 0.3090169943749448977, -0.000000000000000000 ) ) ;
ENDSEC;
END-ISO-10303-21;
