ISO-10303-21;
HEADER;
FILE_DESCRIPTION (( 'STEP AP214' ),
    '1' );
FILE_NAME ('LQ26-05HGI-01-010.STEP',
    '2026-05-07T08:55:12',
    ( '' ),
    ( '' ),
    'SwSTEP 2.0',
    'SolidWorks 2025',
    '' );
FILE_SCHEMA (( 'AUTOMOTIVE_DESIGN' ));
ENDSEC;

DATA;
#1 = DIRECTION ( 'NONE',  ( 1.000000000000000000, 0.000000000000000000, 0.000000000000000000 ) ) ;
#2 = EDGE_CURVE ( 'NONE', #83, #512, #536, .T. ) ;
#3 = VERTEX_POINT ( 'NONE', #21 ) ;
#4 =( NAMED_UNIT ( * ) SI_UNIT ( $, .STERADIAN. ) SOLID_ANGLE_UNIT ( ) );
#5 = CYLINDRICAL_SURFACE ( 'NONE', #87, 1.500000000000000000 ) ;
#6 = AXIS2_PLACEMENT_3D ( 'NONE', #350, #523, #38 ) ;
#7 = AXIS2_PLACEMENT_3D ( 'NONE', #82, #562, #174 ) ;
#8 = ORIENTED_EDGE ( 'NONE', *, *, #561, .T. ) ;
#9 = CARTESIAN_POINT ( 'NONE',  ( 10.50000000000000000, -2.694222958124176415E-15, 5.950000000000000178 ) ) ;
#10 = ORIENTED_EDGE ( 'NONE', *, *, #533, .F. ) ;
#11 = CYLINDRICAL_SURFACE ( 'NONE', #461, 2.149999999999999023 ) ;
#12 = ORIENTED_EDGE ( 'NONE', *, *, #454, .F. ) ;
#13 = DIRECTION ( 'NONE',  ( -0.000000000000000000, -0.000000000000000000, -1.000000000000000000 ) ) ;
#14 = AXIS2_PLACEMENT_3D ( 'NONE', #402, #273, #110 ) ;
#15 = ORIENTED_EDGE ( 'NONE', *, *, #199, .T. ) ;
#16 = CARTESIAN_POINT ( 'NONE',  ( 10.50000000000000000, 3.735172737399428330E-15, 5.950000000000000178 ) ) ;
#17 = EDGE_LOOP ( 'NONE', ( #272, #425, #276, #73 ) ) ;
#18 = EDGE_CURVE ( 'NONE', #438, #80, #366, .T. ) ;
#19 = CARTESIAN_POINT ( 'NONE',  ( 10.49999999999999645, 4.000000000000000000, 5.950000000000000178 ) ) ;
#20 = FACE_BOUND ( 'NONE', #230, .T. ) ;
#21 = CARTESIAN_POINT ( 'NONE',  ( -10.50000000000000000, 3.999999999999994227, -1.199999999999999734 ) ) ;
#22 = LINE ( 'NONE', #61, #115 ) ;
#23 = CIRCLE ( 'NONE', #338, 2.499999999999996891 ) ;
#24 = VERTEX_POINT ( 'NONE', #119 ) ;
#25 =( NAMED_UNIT ( * ) PLANE_ANGLE_UNIT ( ) SI_UNIT ( $, .RADIAN. ) );
#26 = ADVANCED_FACE ( 'NONE', ( #551 ), #221, .T. ) ;
#27 = ORIENTED_EDGE ( 'NONE', *, *, #336, .F. ) ;
#28 = DIRECTION ( 'NONE',  ( -1.000000000000000000, -2.891205793294678819E-16, 0.000000000000000000 ) ) ;
#29 = APPLICATION_CONTEXT ( 'automotive_design' ) ;
#30 = ADVANCED_FACE ( 'NONE', ( #287 ), #374, .T. ) ;
#31 = ORIENTED_EDGE ( 'NONE', *, *, #403, .F. ) ;
#32 = ORIENTED_EDGE ( 'NONE', *, *, #199, .F. ) ;
#33 = ADVANCED_FACE ( 'NONE', ( #161 ), #372, .F. ) ;
#34 = VECTOR ( 'NONE', #285, 1000.000000000000000 ) ;
#35 = DIRECTION ( 'NONE',  ( 1.000000000000000000, 0.000000000000000000, 0.000000000000000000 ) ) ;
#36 = DIRECTION ( 'NONE',  ( 0.000000000000000000, 0.000000000000000000, 1.000000000000000000 ) ) ;
#37 = ADVANCED_BREP_SHAPE_REPRESENTATION ( 'LQ26-05HGI-01-010', ( #200, #449 ), #218 ) ;
#38 = DIRECTION ( 'NONE',  ( 0.000000000000000000, -1.000000000000000000, 0.000000000000000000 ) ) ;
#39 = CARTESIAN_POINT ( 'NONE',  ( -10.50000000000000000, -2.694222958124176415E-15, -5.950000000000000178 ) ) ;
#40 = AXIS2_PLACEMENT_3D ( 'NONE', #328, #409, #156 ) ;
#41 = ORIENTED_EDGE ( 'NONE', *, *, #120, .F. ) ;
#42 = CARTESIAN_POINT ( 'NONE',  ( 8.350000000000001421, -2.430923896307495689E-15, 5.950000000000000178 ) ) ;
#43 = DIRECTION ( 'NONE',  ( -0.000000000000000000, -0.000000000000000000, 1.000000000000000000 ) ) ;
#44 = DIRECTION ( 'NONE',  ( -0.000000000000000000, -0.000000000000000000, 1.000000000000000000 ) ) ;
#45 = ORIENTED_EDGE ( 'NONE', *, *, #111, .F. ) ;
#46 = EDGE_CURVE ( 'NONE', #173, #444, #422, .T. ) ;
#47 = DIRECTION ( 'NONE',  ( -1.000000000000000000, 0.000000000000000000, 0.000000000000000000 ) ) ;
#48 = CIRCLE ( 'NONE', #219, 2.149999999999999023 ) ;
#49 = DIRECTION ( 'NONE',  ( 1.000000000000000000, 0.000000000000000000, 0.000000000000000000 ) ) ;
#50 = VERTEX_POINT ( 'NONE', #42 ) ;
#51 = FACE_OUTER_BOUND ( 'NONE', #149, .T. ) ;
#52 = EDGE_LOOP ( 'NONE', ( #542, #15, #544, #101 ) ) ;
#53 = CARTESIAN_POINT ( 'NONE',  ( 8.350000000000001421, -2.430923896307495689E-15, -5.950000000000000178 ) ) ;
#54 = ORIENTED_EDGE ( 'NONE', *, *, #426, .T. ) ;
#55 = CARTESIAN_POINT ( 'NONE',  ( 10.50000000000000000, 3.735172737399428330E-15, -5.950000000000000178 ) ) ;
#56 = AXIS2_PLACEMENT_3D ( 'NONE', #471, #424, #36 ) ;
#57 = EDGE_CURVE ( 'NONE', #99, #505, #482, .T. ) ;
#58 = ORIENTED_EDGE ( 'NONE', *, *, #150, .T. ) ;
#59 = CARTESIAN_POINT ( 'NONE',  ( 2.602085213965210642E-15, -1.734723475976807094E-15, -1.199999999999999734 ) ) ;
#60 = ORIENTED_EDGE ( 'NONE', *, *, #250, .F. ) ;
#61 = CARTESIAN_POINT ( 'NONE',  ( 10.49999999999999645, 4.000000000000000000, -1.199999999999999734 ) ) ;
#62 = CARTESIAN_POINT ( 'NONE',  ( -14.49999999999999645, -2.694222958124176415E-15, -1.199999999999999734 ) ) ;
#63 = CARTESIAN_POINT ( 'NONE',  ( 10.50000000000000000, 3.735172737399428330E-15, -4.450000000000001066 ) ) ;
#64 = CARTESIAN_POINT ( 'NONE',  ( 10.49999999999999645, 4.000000000000000000, -4.450000000000001066 ) ) ;
#65 = EDGE_CURVE ( 'NONE', #3, #447, #570, .T. ) ;
#66 = AXIS2_PLACEMENT_3D ( 'NONE', #393, #267, #564 ) ;
#67 = VECTOR ( 'NONE', #487, 1000.000000000000000 ) ;
#68 = AXIS2_PLACEMENT_3D ( 'NONE', #260, #387, #428 ) ;
#69 = AXIS2_PLACEMENT_3D ( 'NONE', #464, #283, #368 ) ;
#70 = DIRECTION ( 'NONE',  ( -0.000000000000000000, -0.000000000000000000, -1.000000000000000000 ) ) ;
#71 = VERTEX_POINT ( 'NONE', #390 ) ;
#72 = CARTESIAN_POINT ( 'NONE',  ( 10.50000000000000178, -3.999999999999993339, 5.950000000000000178 ) ) ;
#73 = ORIENTED_EDGE ( 'NONE', *, *, #415, .F. ) ;
#74 = DIRECTION ( 'NONE',  ( -0.000000000000000000, -0.000000000000000000, -1.000000000000000000 ) ) ;
#75 = DIRECTION ( 'NONE',  ( 0.000000000000000000, 0.000000000000000000, 1.000000000000000000 ) ) ;
#76 = VECTOR ( 'NONE', #43, 1000.000000000000000 ) ;
#77 = CIRCLE ( 'NONE', #68, 4.000000000000001776 ) ;
#78 = APPLICATION_PROTOCOL_DEFINITION ( 'draft international standard', 'automotive_design', 1998, #29 ) ;
#79 = CARTESIAN_POINT ( 'NONE',  ( 12.65000000000000036, -2.694222958124176415E-15, -5.950000000000000178 ) ) ;
#80 = VERTEX_POINT ( 'NONE', #169 ) ;
#81 = LINE ( 'NONE', #431, #348 ) ;
#82 = CARTESIAN_POINT ( 'NONE',  ( 10.50000000000000000, -2.694222958124176415E-15, -1.199999999999999734 ) ) ;
#83 = VERTEX_POINT ( 'NONE', #215 ) ;
#84 = EDGE_CURVE ( 'NONE', #80, #360, #567, .T. ) ;
#85 = DIRECTION ( 'NONE',  ( 0.000000000000000000, 0.000000000000000000, 1.000000000000000000 ) ) ;
#86 = CARTESIAN_POINT ( 'NONE',  ( -10.50000000000000000, -2.694222958124176415E-15, -1.199999999999999734 ) ) ;
#87 = AXIS2_PLACEMENT_3D ( 'NONE', #121, #213, #381 ) ;
#88 = LINE ( 'NONE', #526, #210 ) ;
#89 = EDGE_CURVE ( 'NONE', #334, #173, #77, .T. ) ;
#90 = CARTESIAN_POINT ( 'NONE',  ( -10.50000000000000000, -2.694222958124176415E-15, -5.950000000000000178 ) ) ;
#91 = ORIENTED_EDGE ( 'NONE', *, *, #103, .F. ) ;
#92 = DIRECTION ( 'NONE',  ( -1.000000000000000000, 0.000000000000000000, 0.000000000000000000 ) ) ;
#93 = ADVANCED_FACE ( 'NONE', ( #522 ), #299, .F. ) ;
#94 = CARTESIAN_POINT ( 'NONE',  ( -14.49999999999999645, -2.694222958124176415E-15, -4.450000000000001066 ) ) ;
#95 = CARTESIAN_POINT ( 'NONE',  ( 10.50000000000000000, -2.694222958124176415E-15, -5.950000000000000178 ) ) ;
#96 = ORIENTED_EDGE ( 'NONE', *, *, #472, .F. ) ;
#97 = FACE_BOUND ( 'NONE', #133, .T. ) ;
#98 = VECTOR ( 'NONE', #296, 1000.000000000000000 ) ;
#99 = VERTEX_POINT ( 'NONE', #305 ) ;
#100 = DIRECTION ( 'NONE',  ( 0.000000000000000000, 0.000000000000000000, 1.000000000000000000 ) ) ;
#101 = ORIENTED_EDGE ( 'NONE', *, *, #150, .F. ) ;
#102 = FACE_OUTER_BOUND ( 'NONE', #484, .T. ) ;
#103 = EDGE_CURVE ( 'NONE', #3, #383, #312, .T. ) ;
#104 = ORIENTED_EDGE ( 'NONE', *, *, #525, .F. ) ;
#105 = PRODUCT_DEFINITION_FORMATION_WITH_SPECIFIED_SOURCE ( '对称', '', #549, .NOT_KNOWN. ) ;
#106 = CARTESIAN_POINT ( 'NONE',  ( -10.50000000000000000, 3.999999999999994227, -4.450000000000001066 ) ) ;
#107 = PRESENTATION_LAYER_ASSIGNMENT (  '', '', ( #238 ) ) ;
#108 = ORIENTED_EDGE ( 'NONE', *, *, #136, .T. ) ;
#109 = CYLINDRICAL_SURFACE ( 'NONE', #313, 3.999999999999996447 ) ;
#110 = DIRECTION ( 'NONE',  ( 1.000000000000000000, 0.000000000000000000, 0.000000000000000000 ) ) ;
#111 = EDGE_CURVE ( 'NONE', #142, #452, #357, .T. ) ;
#112 = CARTESIAN_POINT ( 'NONE',  ( 10.50000000000000178, -3.999999999999993339, -4.450000000000001066 ) ) ;
#113 = CARTESIAN_POINT ( 'NONE',  ( -14.49999999999999645, -2.694222958124176415E-15, 5.950000000000000178 ) ) ;
#114 = DIRECTION ( 'NONE',  ( 1.000000000000000000, 0.000000000000000000, 0.000000000000000000 ) ) ;
#115 = VECTOR ( 'NONE', #28, 1000.000000000000000 ) ;
#116 =( GEOMETRIC_REPRESENTATION_CONTEXT ( 3 ) GLOBAL_UNCERTAINTY_ASSIGNED_CONTEXT ( ( #335 ) ) GLOBAL_UNIT_ASSIGNED_CONTEXT ( ( #569, #185, #4 ) ) REPRESENTATION_CONTEXT ( 'NONE', 'WORKASPACE' ) );
#117 = ORIENTED_EDGE ( 'NONE', *, *, #325, .T. ) ;
#118 = LINE ( 'NONE', #72, #430 ) ;
#119 = CARTESIAN_POINT ( 'NONE',  ( 12.65000000000000036, -2.694222958124176415E-15, 5.950000000000000178 ) ) ;
#120 = EDGE_CURVE ( 'NONE', #452, #142, #462, .T. ) ;
#121 = CARTESIAN_POINT ( 'NONE',  ( 10.50000000000000178, -2.499999999999993339, -4.450000000000001066 ) ) ;
#122 = CARTESIAN_POINT ( 'NONE',  ( 6.500000000000004441, 3.735172737399428330E-15, 5.950000000000000178 ) ) ;
#123 = AXIS2_PLACEMENT_3D ( 'NONE', #264, #342, #515 ) ;
#124 = VERTEX_POINT ( 'NONE', #79 ) ;
#125 = FACE_OUTER_BOUND ( 'NONE', #168, .T. ) ;
#126 = CARTESIAN_POINT ( 'NONE',  ( 10.50000000000000000, -2.499999999999993339, -5.950000000000000178 ) ) ;
#127 = EDGE_CURVE ( 'NONE', #314, #147, #509, .T. ) ;
#128 = CARTESIAN_POINT ( 'NONE',  ( 10.50000000000000000, -2.694222958124176415E-15, -5.950000000000000178 ) ) ;
#129 = DIRECTION ( 'NONE',  ( -1.000000000000000000, -2.891205793294679312E-16, 0.000000000000000000 ) ) ;
#130 = CARTESIAN_POINT ( 'NONE',  ( 10.49999999999999822, 3.999999999999998224, -1.199999999999999734 ) ) ;
#131 = CARTESIAN_POINT ( 'NONE',  ( -10.50000000000000000, 3.999999999999994227, 5.950000000000000178 ) ) ;
#132 = AXIS2_PLACEMENT_3D ( 'NONE', #16, #411, #275 ) ;
#133 = EDGE_LOOP ( 'NONE', ( #318, #211 ) ) ;
#134 = VECTOR ( 'NONE', #249, 1000.000000000000000 ) ;
#135 = DIRECTION ( 'NONE',  ( -1.000000000000000000, 0.000000000000000000, 0.000000000000000000 ) ) ;
#136 = EDGE_CURVE ( 'NONE', #512, #253, #565, .T. ) ;
#137 = DIRECTION ( 'NONE',  ( -0.000000000000000000, -0.000000000000000000, 1.000000000000000000 ) ) ;
#138 = EDGE_LOOP ( 'NONE', ( #8, #268, #417, #397 ) ) ;
#139 = SURFACE_SIDE_STYLE ('',( #437 ) ) ;
#140 = ORIENTED_EDGE ( 'NONE', *, *, #214, .F. ) ;
#141 = CYLINDRICAL_SURFACE ( 'NONE', #450, 2.149999999999999023 ) ;
#142 = VERTEX_POINT ( 'NONE', #176 ) ;
#143 = CLOSED_SHELL ( 'NONE', ( #26, #281, #458, #369, #30, #308, #465, #33, #419, #93, #293, #380, #446, #412, #486, #234, #167, #343 ) ) ;
#144 = DIRECTION ( 'NONE',  ( 1.000000000000000000, 0.000000000000000000, -0.000000000000000000 ) ) ;
#145 = AXIS2_PLACEMENT_3D ( 'NONE', #475, #337, #516 ) ;
#146 = VECTOR ( 'NONE', #153, 1000.000000000000000 ) ;
#147 = VERTEX_POINT ( 'NONE', #345 ) ;
#148 = CARTESIAN_POINT ( 'NONE',  ( 10.50000000000000000, 3.735172737399428330E-15, 5.950000000000000178 ) ) ;
#149 = EDGE_LOOP ( 'NONE', ( #274, #54 ) ) ;
#150 = EDGE_CURVE ( 'NONE', #124, #24, #524, .T. ) ;
#151 = CARTESIAN_POINT ( 'NONE',  ( -10.50000000000000000, -2.694222958124176415E-15, -5.950000000000000178 ) ) ;
#152 = EDGE_LOOP ( 'NONE', ( #10, #182, #540, #41 ) ) ;
#153 = DIRECTION ( 'NONE',  ( 1.000000000000000000, 2.891205793294678819E-16, -0.000000000000000000 ) ) ;
#154 = DIRECTION ( 'NONE',  ( 0.000000000000000000, 0.000000000000000000, 1.000000000000000000 ) ) ;
#155 = EDGE_CURVE ( 'NONE', #194, #173, #171, .T. ) ;
#156 = DIRECTION ( 'NONE',  ( 1.156482317317871331E-15, 0.000000000000000000, 1.000000000000000000 ) ) ;
#157 = CARTESIAN_POINT ( 'NONE',  ( -10.49999999999999822, -3.999999999999999112, 5.950000000000000178 ) ) ;
#158 = EDGE_CURVE ( 'NONE', #253, #360, #290, .T. ) ;
#159 = DIRECTION ( 'NONE',  ( 0.000000000000000000, 0.000000000000000000, 1.000000000000000000 ) ) ;
#160 = LINE ( 'NONE', #19, #134 ) ;
#161 = FACE_OUTER_BOUND ( 'NONE', #138, .T. ) ;
#162 = LINE ( 'NONE', #113, #375 ) ;
#163 = VECTOR ( 'NONE', #166, 1000.000000000000000 ) ;
#164 = AXIS2_PLACEMENT_3D ( 'NONE', #59, #443, #144 ) ;
#165 = EDGE_LOOP ( 'NONE', ( #32, #31, #58, #309 ) ) ;
#166 = DIRECTION ( 'NONE',  ( 1.000000000000000000, 2.891205793294679312E-16, -0.000000000000000000 ) ) ;
#167 = ADVANCED_FACE ( 'NONE', ( #423 ), #5, .T. ) ;
#168 = EDGE_LOOP ( 'NONE', ( #237, #204, #493, #378, #188, #388 ) ) ;
#169 = CARTESIAN_POINT ( 'NONE',  ( 10.50000000000000178, -3.999999999999993339, -4.450000000000001066 ) ) ;
#170 = EDGE_CURVE ( 'NONE', #314, #438, #279, .T. ) ;
#171 = LINE ( 'NONE', #122, #98 ) ;
#172 = AXIS2_PLACEMENT_3D ( 'NONE', #217, #270, #223 ) ;
#173 = VERTEX_POINT ( 'NONE', #339 ) ;
#174 = DIRECTION ( 'NONE',  ( 1.000000000000000000, 0.000000000000000000, 0.000000000000000000 ) ) ;
#175 = CARTESIAN_POINT ( 'NONE',  ( 10.50000000000000000, 3.735172737399428330E-15, 5.950000000000000178 ) ) ;
#176 = CARTESIAN_POINT ( 'NONE',  ( -8.350000000000001421, -2.694222958124176415E-15, -1.199999999999999734 ) ) ;
#177 = DIRECTION ( 'NONE',  ( -1.000000000000000000, 0.000000000000000000, 0.000000000000000000 ) ) ;
#178 = VECTOR ( 'NONE', #244, 1000.000000000000000 ) ;
#179 = SHAPE_DEFINITION_REPRESENTATION ( #212, #37 ) ;
#180 = DIRECTION ( 'NONE',  ( 0.000000000000000000, -1.000000000000000000, 0.000000000000000000 ) ) ;
#181 = CIRCLE ( 'NONE', #481, 3.999999999999996447 ) ;
#182 = ORIENTED_EDGE ( 'NONE', *, *, #57, .F. ) ;
#183 = VECTOR ( 'NONE', #224, 1000.000000000000000 ) ;
#184 = EDGE_CURVE ( 'NONE', #248, #314, #519, .T. ) ;
#185 =( NAMED_UNIT ( * ) PLANE_ANGLE_UNIT ( ) SI_UNIT ( $, .RADIAN. ) );
#186 = ORIENTED_EDGE ( 'NONE', *, *, #103, .T. ) ;
#187 = DIRECTION ( 'NONE',  ( 1.000000000000000000, 0.000000000000000000, 0.000000000000000000 ) ) ;
#188 = ORIENTED_EDGE ( 'NONE', *, *, #476, .T. ) ;
#189 = CARTESIAN_POINT ( 'NONE',  ( 10.50000000000000000, 3.735172737399428330E-15, 5.950000000000000178 ) ) ;
#190 = VERTEX_POINT ( 'NONE', #94 ) ;
#191 = AXIS2_PLACEMENT_3D ( 'NONE', #128, #44, #228 ) ;
#192 = FACE_OUTER_BOUND ( 'NONE', #463, .T. ) ;
#193 = AXIS2_PLACEMENT_3D ( 'NONE', #86, #433, #35 ) ;
#194 = VERTEX_POINT ( 'NONE', #528 ) ;
#195 = DIRECTION ( 'NONE',  ( 0.000000000000000000, 0.000000000000000000, 1.000000000000000000 ) ) ;
#196 = ORIENTED_EDGE ( 'NONE', *, *, #472, .T. ) ;
#197 = CARTESIAN_POINT ( 'NONE',  ( 10.50000000000000178, -3.999999999999993339, -1.199999999999999734 ) ) ;
#198 = PLANE ( 'NONE',  #517 ) ;
#199 = EDGE_CURVE ( 'NONE', #370, #50, #349, .T. ) ;
#200 = MANIFOLD_SOLID_BREP ( '\X2\570689d2\X0\1', #143 ) ;
#201 = EDGE_LOOP ( 'NONE', ( #534, #399, #45, #27 ) ) ;
#202 = DIRECTION ( 'NONE',  ( 1.000000000000000000, 0.000000000000000000, 0.000000000000000000 ) ) ;
#203 = CIRCLE ( 'NONE', #172, 1.500000000000000000 ) ;
#204 = ORIENTED_EDGE ( 'NONE', *, *, #553, .F. ) ;
#205 = DIRECTION ( 'NONE',  ( 0.000000000000000000, 0.000000000000000000, 1.000000000000000000 ) ) ;
#206 = ORIENTED_EDGE ( 'NONE', *, *, #394, .T. ) ;
#207 = FACE_OUTER_BOUND ( 'NONE', #497, .T. ) ;
#208 = EDGE_LOOP ( 'NONE', ( #333, #186, #269, #282, #530, #232 ) ) ;
#209 = DIRECTION ( 'NONE',  ( -1.000000000000000000, 0.000000000000000000, 0.000000000000000000 ) ) ;
#210 = VECTOR ( 'NONE', #485, 1000.000000000000000 ) ;
#211 = ORIENTED_EDGE ( 'NONE', *, *, #120, .T. ) ;
#212 = PRODUCT_DEFINITION_SHAPE ( 'NONE', 'NONE',  #364 ) ;
#213 = DIRECTION ( 'NONE',  ( 1.000000000000000000, 2.891205793294679312E-16, -0.000000000000000000 ) ) ;
#214 = EDGE_CURVE ( 'NONE', #447, #147, #432, .T. ) ;
#215 = CARTESIAN_POINT ( 'NONE',  ( 10.49999999999999645, 4.000000000000000000, -4.450000000000001066 ) ) ;
#216 = ORIENTED_EDGE ( 'NONE', *, *, #511, .F. ) ;
#217 = CARTESIAN_POINT ( 'NONE',  ( 10.50000000000000178, -2.499999999999992895, -4.450000000000001066 ) ) ;
#218 =( GEOMETRIC_REPRESENTATION_CONTEXT ( 3 ) GLOBAL_UNCERTAINTY_ASSIGNED_CONTEXT ( ( #256 ) ) GLOBAL_UNIT_ASSIGNED_CONTEXT ( ( #513, #25, #289 ) ) REPRESENTATION_CONTEXT ( 'NONE', 'WORKASPACE' ) );
#219 = AXIS2_PLACEMENT_3D ( 'NONE', #95, #85, #92 ) ;
#220 = DIRECTION ( 'NONE',  ( 1.000000000000000000, 0.000000000000000000, 0.000000000000000000 ) ) ;
#221 = TOROIDAL_SURFACE ( 'NONE', #414, 2.499999999999996447, 1.500000000000000000 ) ;
#222 = EDGE_LOOP ( 'NONE', ( #563, #495, #140, #216 ) ) ;
#223 = DIRECTION ( 'NONE',  ( 0.000000000000000000, 0.000000000000000000, 1.000000000000000000 ) ) ;
#224 = DIRECTION ( 'NONE',  ( -0.000000000000000000, -0.000000000000000000, -1.000000000000000000 ) ) ;
#225 = EDGE_LOOP ( 'NONE', ( #557, #548, #455, #108, #436 ) ) ;
#226 = FACE_OUTER_BOUND ( 'NONE', #358, .T. ) ;
#227 = CARTESIAN_POINT ( 'NONE',  ( 12.99999999999999822, 3.735172737399428330E-15, -4.450000000000001066 ) ) ;
#228 = DIRECTION ( 'NONE',  ( 1.000000000000000000, 0.000000000000000000, 0.000000000000000000 ) ) ;
#229 = VECTOR ( 'NONE', #137, 1000.000000000000000 ) ;
#230 = EDGE_LOOP ( 'NONE', ( #466, #413 ) ) ;
#231 = FILL_AREA_STYLE ('',( #434 ) ) ;
#232 = ORIENTED_EDGE ( 'NONE', *, *, #89, .F. ) ;
#233 = FACE_OUTER_BOUND ( 'NONE', #201, .T. ) ;
#234 = ADVANCED_FACE ( 'NONE', ( #298 ), #572, .T. ) ;
#235 = ORIENTED_EDGE ( 'NONE', *, *, #65, .F. ) ;
#236 = FACE_OUTER_BOUND ( 'NONE', #208, .T. ) ;
#237 = ORIENTED_EDGE ( 'NONE', *, *, #325, .F. ) ;
#238 = STYLED_ITEM ( 'NONE', ( #389 ), #200 ) ;
#239 = DIRECTION ( 'NONE',  ( -0.000000000000000000, -0.000000000000000000, -1.000000000000000000 ) ) ;
#240 = ORIENTED_EDGE ( 'NONE', *, *, #170, .T. ) ;
#241 = FACE_BOUND ( 'NONE', #420, .T. ) ;
#242 = ORIENTED_EDGE ( 'NONE', *, *, #170, .F. ) ;
#243 = EDGE_CURVE ( 'NONE', #370, #124, #48, .T. ) ;
#244 = DIRECTION ( 'NONE',  ( -0.000000000000000000, -0.000000000000000000, 1.000000000000000000 ) ) ;
#245 = DIRECTION ( 'NONE',  ( 1.000000000000000000, 0.000000000000000000, 0.000000000000000000 ) ) ;
#246 = LINE ( 'NONE', #157, #288 ) ;
#247 = AXIS2_PLACEMENT_3D ( 'NONE', #39, #478, #469 ) ;
#248 = VERTEX_POINT ( 'NONE', #427 ) ;
#249 = DIRECTION ( 'NONE',  ( -0.000000000000000000, -0.000000000000000000, -1.000000000000000000 ) ) ;
#250 = EDGE_CURVE ( 'NONE', #248, #80, #203, .T. ) ;
#251 = ORIENTED_EDGE ( 'NONE', *, *, #127, .F. ) ;
#252 = DIRECTION ( 'NONE',  ( -0.000000000000000000, -0.000000000000000000, -1.000000000000000000 ) ) ;
#253 = VERTEX_POINT ( 'NONE', #398 ) ;
#254 = DIRECTION ( 'NONE',  ( 1.000000000000000000, 0.000000000000000000, 0.000000000000000000 ) ) ;
#255 = DIRECTION ( 'NONE',  ( -0.000000000000000000, -0.000000000000000000, -1.000000000000000000 ) ) ;
#256 = UNCERTAINTY_MEASURE_WITH_UNIT (LENGTH_MEASURE( 1.000000000000000082E-05 ), #513, 'distance_accuracy_value', 'NONE');
#257 = DIRECTION ( 'NONE',  ( 0.000000000000000000, 0.000000000000000000, -1.000000000000000000 ) ) ;
#258 = ORIENTED_EDGE ( 'NONE', *, *, #155, .F. ) ;
#259 = SURFACE_STYLE_USAGE ( .BOTH. , #139 ) ;
#260 = CARTESIAN_POINT ( 'NONE',  ( 10.50000000000000000, -2.694222958124176415E-15, -1.199999999999999734 ) ) ;
#261 = EDGE_LOOP ( 'NONE', ( #12, #316, #489, #60 ) ) ;
#262 = DIRECTION ( 'NONE',  ( -1.000000000000000000, 0.000000000000000000, 0.000000000000000000 ) ) ;
#263 = CIRCLE ( 'NONE', #331, 2.149999999999999023 ) ;
#264 = CARTESIAN_POINT ( 'NONE',  ( -10.50000000000000000, -2.694222958124176415E-15, -5.950000000000000178 ) ) ;
#265 = EDGE_CURVE ( 'NONE', #24, #50, #470, .T. ) ;
#266 = APPLICATION_PROTOCOL_DEFINITION ( 'draft international standard', 'automotive_design', 1998, #571 ) ;
#267 = DIRECTION ( 'NONE',  ( -0.000000000000000000, -0.000000000000000000, -1.000000000000000000 ) ) ;
#268 = ORIENTED_EDGE ( 'NONE', *, *, #18, .T. ) ;
#269 = ORIENTED_EDGE ( 'NONE', *, *, #468, .T. ) ;
#270 = DIRECTION ( 'NONE',  ( -1.000000000000000000, -0.000000000000000000, -0.000000000000000000 ) ) ;
#271 = AXIS2_PLACEMENT_3D ( 'NONE', #480, #521, #177 ) ;
#272 = ORIENTED_EDGE ( 'NONE', *, *, #158, .F. ) ;
#273 = DIRECTION ( 'NONE',  ( 0.000000000000000000, 0.000000000000000000, 1.000000000000000000 ) ) ;
#274 = ORIENTED_EDGE ( 'NONE', *, *, #553, .T. ) ;
#275 = DIRECTION ( 'NONE',  ( 1.000000000000000000, 0.000000000000000000, 0.000000000000000000 ) ) ;
#276 = ORIENTED_EDGE ( 'NONE', *, *, #2, .F. ) ;
#277 = DIRECTION ( 'NONE',  ( 1.000000000000000000, 0.000000000000000000, 0.000000000000000000 ) ) ;
#278 = ORIENTED_EDGE ( 'NONE', *, *, #57, .T. ) ;
#279 = CIRCLE ( 'NONE', #56, 1.500000000000000000 ) ;
#280 = PLANE ( 'NONE',  #356 ) ;
#281 = ADVANCED_FACE ( 'NONE', ( #306 ), #395, .F. ) ;
#282 = ORIENTED_EDGE ( 'NONE', *, *, #494, .T. ) ;
#283 = DIRECTION ( 'NONE',  ( 0.000000000000000000, 0.000000000000000000, 1.000000000000000000 ) ) ;
#284 = CARTESIAN_POINT ( 'NONE',  ( 14.49999999999999645, 4.225031457058368922E-15, 5.950000000000000178 ) ) ;
#285 = DIRECTION ( 'NONE',  ( 1.000000000000000000, 2.891205793294679312E-16, -0.000000000000000000 ) ) ;
#286 = FACE_OUTER_BOUND ( 'NONE', #17, .T. ) ;
#287 = FACE_OUTER_BOUND ( 'NONE', #401, .T. ) ;
#288 = VECTOR ( 'NONE', #252, 1000.000000000000000 ) ;
#289 =( NAMED_UNIT ( * ) SI_UNIT ( $, .STERADIAN. ) SOLID_ANGLE_UNIT ( ) );
#290 = CIRCLE ( 'NONE', #404, 1.499999999999999556 ) ;
#291 = CARTESIAN_POINT ( 'NONE',  ( 10.50000000000000000, 3.735172737399428330E-15, 5.950000000000000178 ) ) ;
#292 = ORIENTED_EDGE ( 'NONE', *, *, #415, .T. ) ;
#293 = ADVANCED_FACE ( 'NONE', ( #125 ), #529, .T. ) ;
#294 = DIRECTION ( 'NONE',  ( 0.000000000000000000, 0.000000000000000000, 1.000000000000000000 ) ) ;
#295 = AXIS2_PLACEMENT_3D ( 'NONE', #460, #70, #416 ) ;
#296 = DIRECTION ( 'NONE',  ( -0.000000000000000000, -0.000000000000000000, -1.000000000000000000 ) ) ;
#297 = ORIENTED_EDGE ( 'NONE', *, *, #65, .T. ) ;
#298 = FACE_OUTER_BOUND ( 'NONE', #222, .T. ) ;
#299 = CYLINDRICAL_SURFACE ( 'NONE', #247, 2.149999999999999023 ) ;
#300 = ORIENTED_EDGE ( 'NONE', *, *, #468, .F. ) ;
#301 = CARTESIAN_POINT ( 'NONE',  ( -10.49999999999999822, -2.499999999999999556, -5.950000000000000178 ) ) ;
#302 = DIRECTION ( 'NONE',  ( 1.000000000000000000, 0.000000000000000000, 0.000000000000000000 ) ) ;
#303 = DIRECTION ( 'NONE',  ( 1.000000000000000000, 2.891205793294678819E-16, 0.000000000000000000 ) ) ;
#304 = MECHANICAL_DESIGN_GEOMETRIC_PRESENTATION_REPRESENTATION (  '', ( #238 ), #116 ) ;
#305 = CARTESIAN_POINT ( 'NONE',  ( -8.350000000000001421, -2.694222958124176415E-15, -5.950000000000000178 ) ) ;
#306 = FACE_OUTER_BOUND ( 'NONE', #52, .T. ) ;
#307 = CARTESIAN_POINT ( 'NONE',  ( 8.350000000000001421, -2.430923896307495689E-15, -5.950000000000000178 ) ) ;
#308 = ADVANCED_FACE ( 'NONE', ( #226 ), #392, .F. ) ;
#309 = ORIENTED_EDGE ( 'NONE', *, *, #265, .T. ) ;
#310 = CARTESIAN_POINT ( 'NONE',  ( -12.65000000000000036, -2.430923896307495689E-15, -1.199999999999999734 ) ) ;
#311 = AXIS2_PLACEMENT_3D ( 'NONE', #151, #154, #319 ) ;
#312 = CIRCLE ( 'NONE', #384, 3.999999999999996447 ) ;
#313 = AXIS2_PLACEMENT_3D ( 'NONE', #467, #545, #209 ) ;
#314 = VERTEX_POINT ( 'NONE', #301 ) ;
#315 = CARTESIAN_POINT ( 'NONE',  ( 14.49999999999999645, 4.225031457058368922E-15, -4.450000000000001066 ) ) ;
#316 = ORIENTED_EDGE ( 'NONE', *, *, #158, .T. ) ;
#317 = CARTESIAN_POINT ( 'NONE',  ( 10.50000000000000000, 3.735172737399428330E-15, -4.450000000000001066 ) ) ;
#318 = ORIENTED_EDGE ( 'NONE', *, *, #111, .T. ) ;
#319 = DIRECTION ( 'NONE',  ( 1.000000000000000000, 0.000000000000000000, 0.000000000000000000 ) ) ;
#320 = EDGE_CURVE ( 'NONE', #50, #24, #322, .T. ) ;
#321 = ORIENTED_EDGE ( 'NONE', *, *, #265, .F. ) ;
#322 = CIRCLE ( 'NONE', #527, 2.149999999999999023 ) ;
#323 = PLANE ( 'NONE',  #164 ) ;
#324 = ORIENTED_EDGE ( 'NONE', *, *, #488, .T. ) ;
#325 = EDGE_CURVE ( 'NONE', #351, #360, #81, .T. ) ;
#326 = ORIENTED_EDGE ( 'NONE', *, *, #89, .T. ) ;
#327 = LINE ( 'NONE', #64, #355 ) ;
#328 = CARTESIAN_POINT ( 'NONE',  ( 10.49999999999999822, 2.500000000000000000, -4.450000000000001066 ) ) ;
#329 = AXIS2_PLACEMENT_3D ( 'NONE', #418, #205, #456 ) ;
#330 = LINE ( 'NONE', #506, #146 ) ;
#331 = AXIS2_PLACEMENT_3D ( 'NONE', #531, #361, #490 ) ;
#332 = AXIS2_PLACEMENT_3D ( 'NONE', #90, #255, #1 ) ;
#333 = ORIENTED_EDGE ( 'NONE', *, *, #525, .T. ) ;
#334 = VERTEX_POINT ( 'NONE', #130 ) ;
#335 = UNCERTAINTY_MEASURE_WITH_UNIT (LENGTH_MEASURE( 1.000000000000000082E-05 ), #569, 'distance_accuracy_value', 'NONE');
#336 = EDGE_CURVE ( 'NONE', #99, #142, #88, .T. ) ;
#337 = DIRECTION ( 'NONE',  ( -0.000000000000000000, -0.000000000000000000, -1.000000000000000000 ) ) ;
#338 = AXIS2_PLACEMENT_3D ( 'NONE', #359, #13, #448 ) ;
#339 = CARTESIAN_POINT ( 'NONE',  ( 6.500000000000000000, 3.735172737399435429E-15, -1.199999999999999734 ) ) ;
#340 = ORIENTED_EDGE ( 'NONE', *, *, #499, .F. ) ;
#341 = CARTESIAN_POINT ( 'NONE',  ( -10.50000000000000000, 2.499999999999993783, -4.450000000000001066 ) ) ;
#342 = DIRECTION ( 'NONE',  ( 0.000000000000000000, 0.000000000000000000, 1.000000000000000000 ) ) ;
#343 = ADVANCED_FACE ( 'NONE', ( #102 ), #421, .T. ) ;
#344 = DIRECTION ( 'NONE',  ( 2.891205793294678819E-16, -1.000000000000000000, 0.000000000000000000 ) ) ;
#345 = CARTESIAN_POINT ( 'NONE',  ( -10.50000000000000000, 2.499999999999993783, -5.950000000000000178 ) ) ;
#346 = ORIENTED_EDGE ( 'NONE', *, *, #214, .T. ) ;
#347 = DIRECTION ( 'NONE',  ( -0.000000000000000000, -0.000000000000000000, -1.000000000000000000 ) ) ;
#348 = VECTOR ( 'NONE', #347, 1000.000000000000000 ) ;
#349 = LINE ( 'NONE', #307, #229 ) ;
#350 = CARTESIAN_POINT ( 'NONE',  ( 10.49999999999999645, 2.500000000000000000, -4.450000000000001066 ) ) ;
#351 = VERTEX_POINT ( 'NONE', #284 ) ;
#352 = DIRECTION ( 'NONE',  ( -0.000000000000000000, -0.000000000000000000, 1.000000000000000000 ) ) ;
#353 = ORIENTED_EDGE ( 'NONE', *, *, #511, .T. ) ;
#354 = CARTESIAN_POINT ( 'NONE',  ( -10.50000000000000000, -2.694222958124176415E-15, -4.450000000000001066 ) ) ;
#355 = VECTOR ( 'NONE', #371, 1000.000000000000000 ) ;
#356 = AXIS2_PLACEMENT_3D ( 'NONE', #55, #535, #457 ) ;
#357 = CIRCLE ( 'NONE', #145, 2.149999999999999023 ) ;
#358 = EDGE_LOOP ( 'NONE', ( #196, #353, #235, #104 ) ) ;
#359 = CARTESIAN_POINT ( 'NONE',  ( 10.50000000000000000, 3.735172737399428330E-15, -5.950000000000000178 ) ) ;
#360 = VERTEX_POINT ( 'NONE', #315 ) ;
#361 = DIRECTION ( 'NONE',  ( 0.000000000000000000, 0.000000000000000000, 1.000000000000000000 ) ) ;
#362 = ORIENTED_EDGE ( 'NONE', *, *, #394, .F. ) ;
#363 = CARTESIAN_POINT ( 'NONE',  ( 10.49999999999999645, 2.500000000000000444, -5.950000000000000178 ) ) ;
#364 = PRODUCT_DEFINITION ( '普通', '', #105, #560 ) ;
#365 = CARTESIAN_POINT ( 'NONE',  ( 10.50000000000000178, -4.000000000000003553, -1.199999999999999734 ) ) ;
#366 = LINE ( 'NONE', #112, #34 ) ;
#367 = COLOUR_RGB ( '',0.7921568627450980005, 0.8196078431372548767, 0.9333333333333333481 ) ;
#368 = DIRECTION ( 'NONE',  ( 1.000000000000000000, 0.000000000000000000, 0.000000000000000000 ) ) ;
#369 = ADVANCED_FACE ( 'NONE', ( #233 ), #11, .F. ) ;
#370 = VERTEX_POINT ( 'NONE', #53 ) ;
#371 = DIRECTION ( 'NONE',  ( -1.000000000000000000, -2.891205793294678819E-16, 0.000000000000000000 ) ) ;
#372 = PLANE ( 'NONE',  #491 ) ;
#373 = DIRECTION ( 'NONE',  ( -0.000000000000000000, -0.000000000000000000, -1.000000000000000000 ) ) ;
#374 = CYLINDRICAL_SURFACE ( 'NONE', #295, 3.999999999999996447 ) ;
#375 = VECTOR ( 'NONE', #74, 1000.000000000000000 ) ;
#376 = CARTESIAN_POINT ( 'NONE',  ( -12.65000000000000036, -2.430923896307495689E-15, -5.950000000000000178 ) ) ;
#377 = CIRCLE ( 'NONE', #311, 2.149999999999999023 ) ;
#378 = ORIENTED_EDGE ( 'NONE', *, *, #46, .T. ) ;
#379 = DIRECTION ( 'NONE',  ( 0.000000000000000000, 0.000000000000000000, 1.000000000000000000 ) ) ;
#380 = ADVANCED_FACE ( 'NONE', ( #496, #241, #20 ), #280, .F. ) ;
#381 = DIRECTION ( 'NONE',  ( 0.000000000000000000, 1.000000000000000000, 0.000000000000000000 ) ) ;
#382 = CARTESIAN_POINT ( 'NONE',  ( 10.50000000000000000, 3.735172737399428330E-15, -4.450000000000001066 ) ) ;
#383 = VERTEX_POINT ( 'NONE', #62 ) ;
#384 = AXIS2_PLACEMENT_3D ( 'NONE', #483, #75, #220 ) ;
#385 = AXIS2_PLACEMENT_3D ( 'NONE', #291, #410, #202 ) ;
#386 = EDGE_CURVE ( 'NONE', #505, #99, #377, .T. ) ;
#387 = DIRECTION ( 'NONE',  ( 0.000000000000000000, 0.000000000000000000, 1.000000000000000000 ) ) ;
#388 = ORIENTED_EDGE ( 'NONE', *, *, #84, .T. ) ;
#389 = PRESENTATION_STYLE_ASSIGNMENT (( #259 ) ) ;
#390 = CARTESIAN_POINT ( 'NONE',  ( -10.49999999999999467, -3.999999999999999112, -1.199999999999999734 ) ) ;
#391 = ORIENTED_EDGE ( 'NONE', *, *, #18, .F. ) ;
#392 = PLANE ( 'NONE',  #492 ) ;
#393 = CARTESIAN_POINT ( 'NONE',  ( 10.50000000000000000, 3.735172737399428330E-15, -5.950000000000000178 ) ) ;
#394 = EDGE_CURVE ( 'NONE', #447, #190, #537, .T. ) ;
#395 = CYLINDRICAL_SURFACE ( 'NONE', #191, 2.149999999999999023 ) ;
#396 = AXIS2_PLACEMENT_3D ( 'NONE', #148, #239, #502 ) ;
#397 = ORIENTED_EDGE ( 'NONE', *, *, #494, .F. ) ;
#398 = CARTESIAN_POINT ( 'NONE',  ( 12.99999999999999822, 3.735172737399428330E-15, -5.950000000000000178 ) ) ;
#399 = ORIENTED_EDGE ( 'NONE', *, *, #533, .T. ) ;
#400 = FACE_BOUND ( 'NONE', #501, .T. ) ;
#401 = EDGE_LOOP ( 'NONE', ( #300, #324, #559, #473 ) ) ;
#402 = CARTESIAN_POINT ( 'NONE',  ( -10.50000000000000000, -2.694222958124176415E-15, -4.450000000000001066 ) ) ;
#403 = EDGE_CURVE ( 'NONE', #124, #370, #263, .T. ) ;
#404 = AXIS2_PLACEMENT_3D ( 'NONE', #227, #180, #257 ) ;
#405 = ORIENTED_EDGE ( 'NONE', *, *, #250, .T. ) ;
#406 = DIRECTION ( 'NONE',  ( 0.000000000000000000, 0.000000000000000000, 1.000000000000000000 ) ) ;
#407 = ORIENTED_EDGE ( 'NONE', *, *, #184, .F. ) ;
#408 = CARTESIAN_POINT ( 'NONE',  ( -10.50000000000000000, -2.694222958124176415E-15, -5.950000000000000178 ) ) ;
#409 = DIRECTION ( 'NONE',  ( -1.000000000000000000, -1.156482317317871133E-15, 1.156482317317871133E-15 ) ) ;
#410 = DIRECTION ( 'NONE',  ( 0.000000000000000000, 0.000000000000000000, 1.000000000000000000 ) ) ;
#411 = DIRECTION ( 'NONE',  ( 0.000000000000000000, 0.000000000000000000, 1.000000000000000000 ) ) ;
#412 = ADVANCED_FACE ( 'NONE', ( #97, #236 ), #323, .T. ) ;
#413 = ORIENTED_EDGE ( 'NONE', *, *, #243, .T. ) ;
#414 = AXIS2_PLACEMENT_3D ( 'NONE', #63, #159, #114 ) ;
#415 = EDGE_CURVE ( 'NONE', #360, #83, #181, .T. ) ;
#416 = DIRECTION ( 'NONE',  ( -1.000000000000000000, 0.000000000000000000, 0.000000000000000000 ) ) ;
#417 = ORIENTED_EDGE ( 'NONE', *, *, #476, .F. ) ;
#418 = CARTESIAN_POINT ( 'NONE',  ( -10.50000000000000000, -2.694222958124176415E-15, -4.450000000000001066 ) ) ;
#419 = ADVANCED_FACE ( 'NONE', ( #400, #51 ), #198, .T. ) ;
#420 = EDGE_LOOP ( 'NONE', ( #278, #520 ) ) ;
#421 = TOROIDAL_SURFACE ( 'NONE', #14, 2.499999999999996447, 1.500000000000000000 ) ;
#422 = CIRCLE ( 'NONE', #7, 4.000000000000001776 ) ;
#423 = FACE_OUTER_BOUND ( 'NONE', #429, .T. ) ;
#424 = DIRECTION ( 'NONE',  ( -1.000000000000000000, -0.000000000000000000, -0.000000000000000000 ) ) ;
#425 = ORIENTED_EDGE ( 'NONE', *, *, #136, .F. ) ;
#426 = EDGE_CURVE ( 'NONE', #351, #194, #500, .T. ) ;
#427 = CARTESIAN_POINT ( 'NONE',  ( 10.50000000000000178, -2.499999999999993339, -5.950000000000000178 ) ) ;
#428 = DIRECTION ( 'NONE',  ( 1.000000000000000000, 0.000000000000000000, 0.000000000000000000 ) ) ;
#429 = EDGE_LOOP ( 'NONE', ( #405, #391, #242, #407 ) ) ;
#430 = VECTOR ( 'NONE', #373, 1000.000000000000000 ) ;
#431 = CARTESIAN_POINT ( 'NONE',  ( 14.49999999999999645, 4.225031457058368922E-15, 5.950000000000000178 ) ) ;
#432 = CIRCLE ( 'NONE', #441, 1.500000000000000000 ) ;
#433 = DIRECTION ( 'NONE',  ( -0.000000000000000000, -0.000000000000000000, -1.000000000000000000 ) ) ;
#434 = FILL_AREA_STYLE_COLOUR ( '', #367 ) ;
#435 = CARTESIAN_POINT ( 'NONE',  ( 12.65000000000000036, -2.694222958124176415E-15, -5.950000000000000178 ) ) ;
#436 = ORIENTED_EDGE ( 'NONE', *, *, #454, .T. ) ;
#437 = SURFACE_STYLE_FILL_AREA ( #231 ) ;
#438 = VERTEX_POINT ( 'NONE', #445 ) ;
#439 = DIRECTION ( 'NONE',  ( -0.000000000000000000, -0.000000000000000000, -1.000000000000000000 ) ) ;
#440 = AXIS2_PLACEMENT_3D ( 'NONE', #382, #294, #302 ) ;
#441 = AXIS2_PLACEMENT_3D ( 'NONE', #341, #135, #518 ) ;
#442 = ORIENTED_EDGE ( 'NONE', *, *, #426, .F. ) ;
#443 = DIRECTION ( 'NONE',  ( 0.000000000000000000, 0.000000000000000000, 1.000000000000000000 ) ) ;
#444 = VERTEX_POINT ( 'NONE', #365 ) ;
#445 = CARTESIAN_POINT ( 'NONE',  ( -10.49999999999999822, -3.999999999999999112, -4.450000000000001066 ) ) ;
#446 = ADVANCED_FACE ( 'NONE', ( #543 ), #141, .F. ) ;
#447 = VERTEX_POINT ( 'NONE', #106 ) ;
#448 = DIRECTION ( 'NONE',  ( 1.000000000000000000, 0.000000000000000000, 0.000000000000000000 ) ) ;
#449 = AXIS2_PLACEMENT_3D ( 'NONE', #552, #379, #49 ) ;
#450 = AXIS2_PLACEMENT_3D ( 'NONE', #498, #546, #503 ) ;
#451 = CIRCLE ( 'NONE', #329, 3.999999999999996447 ) ;
#452 = VERTEX_POINT ( 'NONE', #310 ) ;
#453 = DIRECTION ( 'NONE',  ( 1.000000000000000000, 0.000000000000000000, -0.000000000000000000 ) ) ;
#454 = EDGE_CURVE ( 'NONE', #253, #248, #23, .T. ) ;
#455 = ORIENTED_EDGE ( 'NONE', *, *, #514, .T. ) ;
#456 = DIRECTION ( 'NONE',  ( 1.000000000000000000, 0.000000000000000000, 0.000000000000000000 ) ) ;
#457 = DIRECTION ( 'NONE',  ( 1.000000000000000000, 0.000000000000000000, -0.000000000000000000 ) ) ;
#458 = ADVANCED_FACE ( 'NONE', ( #192 ), #541, .T. ) ;
#459 = LINE ( 'NONE', #197, #163 ) ;
#460 = CARTESIAN_POINT ( 'NONE',  ( -10.50000000000000000, -2.694222958124176415E-15, 5.950000000000000178 ) ) ;
#461 = AXIS2_PLACEMENT_3D ( 'NONE', #408, #352, #277 ) ;
#462 = CIRCLE ( 'NONE', #193, 2.149999999999999023 ) ;
#463 = EDGE_LOOP ( 'NONE', ( #442, #117, #292, #96, #326, #258 ) ) ;
#464 = CARTESIAN_POINT ( 'NONE',  ( -10.50000000000000000, -2.694222958124176415E-15, -1.199999999999999734 ) ) ;
#465 = ADVANCED_FACE ( 'NONE', ( #207 ), #109, .T. ) ;
#466 = ORIENTED_EDGE ( 'NONE', *, *, #403, .T. ) ;
#467 = CARTESIAN_POINT ( 'NONE',  ( -10.50000000000000000, -2.694222958124176415E-15, 5.950000000000000178 ) ) ;
#468 = EDGE_CURVE ( 'NONE', #383, #71, #568, .T. ) ;
#469 = DIRECTION ( 'NONE',  ( 1.000000000000000000, 0.000000000000000000, 0.000000000000000000 ) ) ;
#470 = CIRCLE ( 'NONE', #271, 2.149999999999999023 ) ;
#471 = CARTESIAN_POINT ( 'NONE',  ( -10.49999999999999822, -2.499999999999999556, -4.450000000000001066 ) ) ;
#472 = EDGE_CURVE ( 'NONE', #334, #83, #160, .T. ) ;
#473 = ORIENTED_EDGE ( 'NONE', *, *, #561, .F. ) ;
#474 = DIRECTION ( 'NONE',  ( 0.000000000000000000, 0.000000000000000000, 1.000000000000000000 ) ) ;
#475 = CARTESIAN_POINT ( 'NONE',  ( -10.50000000000000000, -2.694222958124176415E-15, -1.199999999999999734 ) ) ;
#476 = EDGE_CURVE ( 'NONE', #444, #80, #118, .T. ) ;
#477 = CARTESIAN_POINT ( 'NONE',  ( 10.49999999999999645, 4.000000000000000000, 5.950000000000000178 ) ) ;
#478 = DIRECTION ( 'NONE',  ( -0.000000000000000000, -0.000000000000000000, 1.000000000000000000 ) ) ;
#479 = CIRCLE ( 'NONE', #385, 3.999999999999996447 ) ;
#480 = CARTESIAN_POINT ( 'NONE',  ( 10.50000000000000000, -2.694222958124176415E-15, 5.950000000000000178 ) ) ;
#481 = AXIS2_PLACEMENT_3D ( 'NONE', #317, #406, #245 ) ;
#482 = CIRCLE ( 'NONE', #123, 2.149999999999999023 ) ;
#483 = CARTESIAN_POINT ( 'NONE',  ( -10.50000000000000000, -2.694222958124176415E-15, -1.199999999999999734 ) ) ;
#484 = EDGE_LOOP ( 'NONE', ( #346, #251, #240, #340, #362 ) ) ;
#485 = DIRECTION ( 'NONE',  ( -0.000000000000000000, -0.000000000000000000, 1.000000000000000000 ) ) ;
#486 = ADVANCED_FACE ( 'NONE', ( #286 ), #556, .T. ) ;
#487 = DIRECTION ( 'NONE',  ( -1.000000000000000000, -2.891205793294679312E-16, 0.000000000000000000 ) ) ;
#488 = EDGE_CURVE ( 'NONE', #383, #190, #162, .T. ) ;
#489 = ORIENTED_EDGE ( 'NONE', *, *, #84, .F. ) ;
#490 = DIRECTION ( 'NONE',  ( -1.000000000000000000, 0.000000000000000000, 0.000000000000000000 ) ) ;
#491 = AXIS2_PLACEMENT_3D ( 'NONE', #554, #507, #129 ) ;
#492 = AXIS2_PLACEMENT_3D ( 'NONE', #477, #344, #303 ) ;
#493 = ORIENTED_EDGE ( 'NONE', *, *, #155, .T. ) ;
#494 = EDGE_CURVE ( 'NONE', #71, #444, #459, .T. ) ;
#495 = ORIENTED_EDGE ( 'NONE', *, *, #514, .F. ) ;
#496 = FACE_OUTER_BOUND ( 'NONE', #225, .T. ) ;
#497 = EDGE_LOOP ( 'NONE', ( #566, #91, #297, #206 ) ) ;
#498 = CARTESIAN_POINT ( 'NONE',  ( 10.50000000000000000, -2.694222958124176415E-15, -5.950000000000000178 ) ) ;
#499 = EDGE_CURVE ( 'NONE', #190, #438, #451, .T. ) ;
#500 = CIRCLE ( 'NONE', #132, 3.999999999999996447 ) ;
#501 = EDGE_LOOP ( 'NONE', ( #321, #504 ) ) ;
#502 = DIRECTION ( 'NONE',  ( -1.000000000000000000, 0.000000000000000000, 0.000000000000000000 ) ) ;
#503 = DIRECTION ( 'NONE',  ( 1.000000000000000000, 0.000000000000000000, 0.000000000000000000 ) ) ;
#504 = ORIENTED_EDGE ( 'NONE', *, *, #320, .F. ) ;
#505 = VERTEX_POINT ( 'NONE', #376 ) ;
#506 = CARTESIAN_POINT ( 'NONE',  ( 10.50000000000000000, 2.500000000000000000, -5.950000000000000178 ) ) ;
#507 = DIRECTION ( 'NONE',  ( -2.891205793294679312E-16, 1.000000000000000000, 0.000000000000000000 ) ) ;
#508 = AXIS2_PLACEMENT_3D ( 'NONE', #354, #195, #187 ) ;
#509 = CIRCLE ( 'NONE', #332, 2.499999999999996891 ) ;
#510 = DIRECTION ( 'NONE',  ( 0.000000000000000000, 0.000000000000000000, 1.000000000000000000 ) ) ;
#511 = EDGE_CURVE ( 'NONE', #83, #447, #327, .T. ) ;
#512 = VERTEX_POINT ( 'NONE', #363 ) ;
#513 =( LENGTH_UNIT ( ) NAMED_UNIT ( * ) SI_UNIT ( .MILLI., .METRE. ) );
#514 = EDGE_CURVE ( 'NONE', #147, #512, #330, .T. ) ;
#515 = DIRECTION ( 'NONE',  ( 1.000000000000000000, 0.000000000000000000, 0.000000000000000000 ) ) ;
#516 = DIRECTION ( 'NONE',  ( 1.000000000000000000, 0.000000000000000000, 0.000000000000000000 ) ) ;
#517 = AXIS2_PLACEMENT_3D ( 'NONE', #189, #100, #453 ) ;
#518 = DIRECTION ( 'NONE',  ( 0.000000000000000000, 0.000000000000000000, 1.000000000000000000 ) ) ;
#519 = LINE ( 'NONE', #126, #67 ) ;
#520 = ORIENTED_EDGE ( 'NONE', *, *, #386, .T. ) ;
#521 = DIRECTION ( 'NONE',  ( 0.000000000000000000, 0.000000000000000000, 1.000000000000000000 ) ) ;
#522 = FACE_OUTER_BOUND ( 'NONE', #152, .T. ) ;
#523 = DIRECTION ( 'NONE',  ( -1.000000000000000000, -2.891205793294678819E-16, 0.000000000000000000 ) ) ;
#524 = LINE ( 'NONE', #435, #76 ) ;
#525 = EDGE_CURVE ( 'NONE', #334, #3, #22, .T. ) ;
#526 = CARTESIAN_POINT ( 'NONE',  ( -8.350000000000001421, -2.694222958124176415E-15, -5.950000000000000178 ) ) ;
#527 = AXIS2_PLACEMENT_3D ( 'NONE', #9, #474, #262 ) ;
#528 = CARTESIAN_POINT ( 'NONE',  ( 6.500000000000004441, 3.735172737399428330E-15, 5.950000000000000178 ) ) ;
#529 = CYLINDRICAL_SURFACE ( 'NONE', #547, 3.999999999999996447 ) ;
#530 = ORIENTED_EDGE ( 'NONE', *, *, #46, .F. ) ;
#531 = CARTESIAN_POINT ( 'NONE',  ( 10.50000000000000000, -2.694222958124176415E-15, -5.950000000000000178 ) ) ;
#532 = PRODUCT_CONTEXT ( 'NONE', #571, 'mechanical' ) ;
#533 = EDGE_CURVE ( 'NONE', #505, #452, #555, .T. ) ;
#534 = ORIENTED_EDGE ( 'NONE', *, *, #386, .F. ) ;
#535 = DIRECTION ( 'NONE',  ( 0.000000000000000000, 0.000000000000000000, 1.000000000000000000 ) ) ;
#536 = CIRCLE ( 'NONE', #40, 1.500000000000000000 ) ;
#537 = CIRCLE ( 'NONE', #508, 3.999999999999996447 ) ;
#538 = AXIS2_PLACEMENT_3D ( 'NONE', #550, #510, #254 ) ;
#539 = PRODUCT_RELATED_PRODUCT_CATEGORY ( 'part', '', ( #549 ) ) ;
#540 = ORIENTED_EDGE ( 'NONE', *, *, #336, .T. ) ;
#541 = CYLINDRICAL_SURFACE ( 'NONE', #396, 3.999999999999996447 ) ;
#542 = ORIENTED_EDGE ( 'NONE', *, *, #243, .F. ) ;
#543 = FACE_OUTER_BOUND ( 'NONE', #165, .T. ) ;
#544 = ORIENTED_EDGE ( 'NONE', *, *, #320, .T. ) ;
#545 = DIRECTION ( 'NONE',  ( -0.000000000000000000, -0.000000000000000000, -1.000000000000000000 ) ) ;
#546 = DIRECTION ( 'NONE',  ( -0.000000000000000000, -0.000000000000000000, 1.000000000000000000 ) ) ;
#547 = AXIS2_PLACEMENT_3D ( 'NONE', #175, #439, #47 ) ;
#548 = ORIENTED_EDGE ( 'NONE', *, *, #127, .T. ) ;
#549 = PRODUCT ( 'LQ26-05HGI-01-010', 'LQ26-05HGI-01-010', '', ( #532 ) ) ;
#550 = CARTESIAN_POINT ( 'NONE',  ( 10.50000000000000000, 3.735172737399428330E-15, -4.450000000000001066 ) ) ;
#551 = FACE_OUTER_BOUND ( 'NONE', #261, .T. ) ;
#552 = CARTESIAN_POINT ( 'NONE',  ( 0.000000000000000000, 0.000000000000000000, 0.000000000000000000 ) ) ;
#553 = EDGE_CURVE ( 'NONE', #194, #351, #479, .T. ) ;
#554 = CARTESIAN_POINT ( 'NONE',  ( 10.50000000000000178, -3.999999999999993339, 5.950000000000000178 ) ) ;
#555 = LINE ( 'NONE', #558, #178 ) ;
#556 = TOROIDAL_SURFACE ( 'NONE', #538, 2.499999999999996447, 1.500000000000000000 ) ;
#557 = ORIENTED_EDGE ( 'NONE', *, *, #184, .T. ) ;
#558 = CARTESIAN_POINT ( 'NONE',  ( -12.65000000000000036, -2.430923896307495689E-15, -5.950000000000000178 ) ) ;
#559 = ORIENTED_EDGE ( 'NONE', *, *, #499, .T. ) ;
#560 = PRODUCT_DEFINITION_CONTEXT ( 'detailed design', #29, 'design' ) ;
#561 = EDGE_CURVE ( 'NONE', #71, #438, #246, .T. ) ;
#562 = DIRECTION ( 'NONE',  ( 0.000000000000000000, 0.000000000000000000, 1.000000000000000000 ) ) ;
#563 = ORIENTED_EDGE ( 'NONE', *, *, #2, .T. ) ;
#564 = DIRECTION ( 'NONE',  ( 1.000000000000000000, -8.881784197001250351E-16, 0.000000000000000000 ) ) ;
#565 = CIRCLE ( 'NONE', #66, 2.499999999999996891 ) ;
#566 = ORIENTED_EDGE ( 'NONE', *, *, #488, .F. ) ;
#567 = CIRCLE ( 'NONE', #440, 3.999999999999996447 ) ;
#568 = CIRCLE ( 'NONE', #69, 3.999999999999996447 ) ;
#569 =( LENGTH_UNIT ( ) NAMED_UNIT ( * ) SI_UNIT ( .MILLI., .METRE. ) );
#570 = LINE ( 'NONE', #131, #183 ) ;
#571 = APPLICATION_CONTEXT ( 'automotive_design' ) ;
#572 = CYLINDRICAL_SURFACE ( 'NONE', #6, 1.500000000000000000 ) ;
ENDSEC;
END-ISO-10303-21;
