ISO-10303-21;
HEADER;
FILE_DESCRIPTION (( 'STEP AP214' ),
    '1' );
FILE_NAME ('LQ26-05HGI-01-013.STEP',
    '2026-05-07T08:55:13',
    ( '' ),
    ( '' ),
    'SwSTEP 2.0',
    'SolidWorks 2025',
    '' );
FILE_SCHEMA (( 'AUTOMOTIVE_DESIGN' ));
ENDSEC;

DATA;
#1 = VERTEX_POINT ( 'NONE', #478 ) ;
#2 = ADVANCED_FACE ( 'NONE', ( #311 ), #269, .T. ) ;
#3 = DIRECTION ( 'NONE',  ( 0.7071067811865465735, 0.000000000000000000, 0.7071067811865485719 ) ) ;
#4 = DIRECTION ( 'NONE',  ( 0.000000000000000000, 0.000000000000000000, -1.000000000000000000 ) ) ;
#5 = AXIS2_PLACEMENT_3D ( 'NONE', #217, #469, #76 ) ;
#6 = AXIS2_PLACEMENT_3D ( 'NONE', #335, #419, #494 ) ;
#7 = ORIENTED_EDGE ( 'NONE', *, *, #476, .T. ) ;
#8 = CIRCLE ( 'NONE', #94, 3.250000000000000444 ) ;
#9 = CARTESIAN_POINT ( 'NONE',  ( 0.000000000000000000, 0.000000000000000000, -15.19999999999999751 ) ) ;
#10 = VERTEX_POINT ( 'NONE', #435 ) ;
#11 = EDGE_CURVE ( 'NONE', #534, #316, #53, .T. ) ;
#12 = DIRECTION ( 'NONE',  ( -0.000000000000000000, -0.000000000000000000, -1.000000000000000000 ) ) ;
#13 = EDGE_CURVE ( 'NONE', #507, #551, #134, .T. ) ;
#14 = DIRECTION ( 'NONE',  ( -1.000000000000000000, 0.000000000000000000, 0.000000000000000000 ) ) ;
#15 = CIRCLE ( 'NONE', #360, 3.250000000000000444 ) ;
#16 = DIRECTION ( 'NONE',  ( -1.000000000000000000, 0.000000000000000000, 0.000000000000000000 ) ) ;
#17 = SURFACE_SIDE_STYLE ('',( #364 ) ) ;
#18 = CYLINDRICAL_SURFACE ( 'NONE', #279, 2.250000000000000444 ) ;
#19 = CARTESIAN_POINT ( 'NONE',  ( 3.250000000000000444, 3.980102097228898231E-16, -19.09999999999999787 ) ) ;
#20 = EDGE_CURVE ( 'NONE', #21, #229, #434, .T. ) ;
#21 = VERTEX_POINT ( 'NONE', #556 ) ;
#22 = CYLINDRICAL_SURFACE ( 'NONE', #5, 6.000000000000000888 ) ;
#23 = DIRECTION ( 'NONE',  ( 1.000000000000000000, 0.000000000000000000, 0.000000000000000000 ) ) ;
#24 = DIRECTION ( 'NONE',  ( 0.000000000000000000, 0.000000000000000000, -1.000000000000000000 ) ) ;
#25 = EDGE_LOOP ( 'NONE', ( #284, #552, #48, #383 ) ) ;
#26 = DIRECTION ( 'NONE',  ( 1.000000000000000000, 0.000000000000000000, 0.000000000000000000 ) ) ;
#27 = CARTESIAN_POINT ( 'NONE',  ( -5.699999999999996625, 6.980486755139907192E-16, -19.09999999999999787 ) ) ;
#28 = AXIS2_PLACEMENT_3D ( 'NONE', #154, #33, #379 ) ;
#29 = DIRECTION ( 'NONE',  ( 0.000000000000000000, 0.000000000000000000, 1.000000000000000000 ) ) ;
#30 = ORIENTED_EDGE ( 'NONE', *, *, #470, .T. ) ;
#31 =( NAMED_UNIT ( * ) PLANE_ANGLE_UNIT ( ) SI_UNIT ( $, .RADIAN. ) );
#32 = ADVANCED_FACE ( 'NONE', ( #522 ), #254, .T. ) ;
#33 = DIRECTION ( 'NONE',  ( 0.000000000000000000, 0.000000000000000000, -1.000000000000000000 ) ) ;
#34 = PRODUCT_DEFINITION_SHAPE ( 'NONE', 'NONE',  #167 ) ;
#35 = DIRECTION ( 'NONE',  ( 0.000000000000000000, 0.000000000000000000, -1.000000000000000000 ) ) ;
#36 = ORIENTED_EDGE ( 'NONE', *, *, #44, .F. ) ;
#37 = CARTESIAN_POINT ( 'NONE',  ( 6.000000000000000888, 7.347880794884120722E-16, -18.79999999999999361 ) ) ;
#38 = FACE_OUTER_BOUND ( 'NONE', #293, .T. ) ;
#39 = ORIENTED_EDGE ( 'NONE', *, *, #259, .F. ) ;
#40 = APPLICATION_PROTOCOL_DEFINITION ( 'draft international standard', 'automotive_design', 1998, #90 ) ;
#41 = AXIS2_PLACEMENT_3D ( 'NONE', #505, #199, #206 ) ;
#42 = DIRECTION ( 'NONE',  ( -1.000000000000000000, 0.000000000000000000, 0.000000000000000000 ) ) ;
#43 = VECTOR ( 'NONE', #430, 999.9999999999998863 ) ;
#44 = EDGE_CURVE ( 'NONE', #380, #540, #442, .T. ) ;
#45 = ORIENTED_EDGE ( 'NONE', *, *, #399, .T. ) ;
#46 = VECTOR ( 'NONE', #180, 1000.000000000000000 ) ;
#47 = PRODUCT_DEFINITION_CONTEXT ( 'detailed design', #90, 'design' ) ;
#48 = ORIENTED_EDGE ( 'NONE', *, *, #20, .T. ) ;
#49 = ADVANCED_BREP_SHAPE_REPRESENTATION ( 'LQ26-05HGI-01-013', ( #191, #91 ), #331 ) ;
#50 = DIRECTION ( 'NONE',  ( 0.000000000000000000, 0.000000000000000000, 1.000000000000000000 ) ) ;
#51 = PRODUCT ( 'LQ26-05HGI-01-013', 'LQ26-05HGI-01-013', '', ( #429 ) ) ;
#52 = EDGE_LOOP ( 'NONE', ( #289, #224, #501, #544 ) ) ;
#53 = CIRCLE ( 'NONE', #307, 3.250000000000000444 ) ;
#54 = COLOUR_RGB ( '',0.7921568627450980005, 0.8196078431372548767, 0.9333333333333333481 ) ;
#55 = ORIENTED_EDGE ( 'NONE', *, *, #399, .F. ) ;
#56 = CARTESIAN_POINT ( 'NONE',  ( 0.000000000000000000, 0.000000000000000000, -19.09999999999999787 ) ) ;
#57 = CARTESIAN_POINT ( 'NONE',  ( 0.000000000000000000, 0.000000000000000000, 21.10000000000000142 ) ) ;
#58 = EDGE_LOOP ( 'NONE', ( #328, #98, #123, #475 ) ) ;
#59 = DIRECTION ( 'NONE',  ( 0.000000000000000000, 0.000000000000000000, -1.000000000000000000 ) ) ;
#60 = ADVANCED_FACE ( 'NONE', ( #184 ), #479, .T. ) ;
#61 = MECHANICAL_DESIGN_GEOMETRIC_PRESENTATION_REPRESENTATION (  '', ( #365 ), #392 ) ;
#62 = VERTEX_POINT ( 'NONE', #441 ) ;
#63 = DIRECTION ( 'NONE',  ( 1.000000000000000000, 0.000000000000000000, 0.000000000000000000 ) ) ;
#64 = CARTESIAN_POINT ( 'NONE',  ( -3.250000000000000444, 3.980102097228898231E-16, -20.79999999999998650 ) ) ;
#65 = SURFACE_STYLE_USAGE ( .BOTH. , #17 ) ;
#66 = CONICAL_SURFACE ( 'NONE', #186, 2.949999999999994404, 0.7853981633974497223 ) ;
#67 = CIRCLE ( 'NONE', #452, 5.699999999999996625 ) ;
#68 = CARTESIAN_POINT ( 'NONE',  ( 3.250000000000000444, 0.000000000000000000, -20.79999999999998650 ) ) ;
#69 = EDGE_CURVE ( 'NONE', #257, #438, #232, .T. ) ;
#70 = DIRECTION ( 'NONE',  ( 1.000000000000000000, 0.000000000000000000, 0.000000000000000000 ) ) ;
#71 = DIRECTION ( 'NONE',  ( -0.000000000000000000, -0.000000000000000000, 1.000000000000000000 ) ) ;
#72 = LINE ( 'NONE', #412, #174 ) ;
#73 = ORIENTED_EDGE ( 'NONE', *, *, #135, .F. ) ;
#74 = DIRECTION ( 'NONE',  ( 0.000000000000000000, 0.000000000000000000, 1.000000000000000000 ) ) ;
#75 = EDGE_LOOP ( 'NONE', ( #93, #315 ) ) ;
#76 = DIRECTION ( 'NONE',  ( -1.000000000000000000, 0.000000000000000000, 0.000000000000000000 ) ) ;
#77 = EDGE_CURVE ( 'NONE', #300, #1, #8, .T. ) ;
#78 = CIRCLE ( 'NONE', #242, 6.000000000000000888 ) ;
#79 = CARTESIAN_POINT ( 'NONE',  ( 0.000000000000000000, 0.000000000000000000, -21.10000000000000142 ) ) ;
#80 = CONICAL_SURFACE ( 'NONE', #197, 3.250000000000000444, 0.7853981633974439491 ) ;
#81 = AXIS2_PLACEMENT_3D ( 'NONE', #9, #405, #532 ) ;
#82 = VECTOR ( 'NONE', #170, 1000.000000000000114 ) ;
#83 = DIRECTION ( 'NONE',  ( 0.7071067811865567876, 8.659560562355047490E-17, -0.7071067811865383579 ) ) ;
#84 = ORIENTED_EDGE ( 'NONE', *, *, #189, .F. ) ;
#85 = FACE_OUTER_BOUND ( 'NONE', #270, .T. ) ;
#86 = CARTESIAN_POINT ( 'NONE',  ( 6.000000000000000888, 7.347880794884120722E-16, -15.50000000000000178 ) ) ;
#87 = EDGE_LOOP ( 'NONE', ( #504, #385, #523, #472 ) ) ;
#88 = FACE_OUTER_BOUND ( 'NONE', #303, .T. ) ;
#89 = VERTEX_POINT ( 'NONE', #518 ) ;
#90 = APPLICATION_CONTEXT ( 'automotive_design' ) ;
#91 = AXIS2_PLACEMENT_3D ( 'NONE', #346, #262, #377 ) ;
#92 = CONICAL_SURFACE ( 'NONE', #401, 5.699999999999996625, 0.7853981633974468357 ) ;
#93 = ORIENTED_EDGE ( 'NONE', *, *, #530, .F. ) ;
#94 = AXIS2_PLACEMENT_3D ( 'NONE', #142, #179, #351 ) ;
#95 = DIRECTION ( 'NONE',  ( -1.000000000000000000, 0.000000000000000000, 0.000000000000000000 ) ) ;
#96 = CARTESIAN_POINT ( 'NONE',  ( 0.000000000000000000, 0.000000000000000000, 21.10000000000000142 ) ) ;
#97 = ADVANCED_FACE ( 'NONE', ( #277 ), #209, .T. ) ;
#98 = ORIENTED_EDGE ( 'NONE', *, *, #237, .F. ) ;
#99 = VECTOR ( 'NONE', #414, 1000.000000000000114 ) ;
#100 = CARTESIAN_POINT ( 'NONE',  ( 5.699999999999996625, 0.000000000000000000, -19.09999999999999787 ) ) ;
#101 = AXIS2_PLACEMENT_3D ( 'NONE', #290, #132, #26 ) ;
#102 = DIRECTION ( 'NONE',  ( -1.000000000000000000, 0.000000000000000000, 0.000000000000000000 ) ) ;
#103 = ORIENTED_EDGE ( 'NONE', *, *, #195, .F. ) ;
#104 = ADVANCED_FACE ( 'NONE', ( #327, #322 ), #112, .T. ) ;
#105 = CARTESIAN_POINT ( 'NONE',  ( 0.000000000000000000, 0.000000000000000000, -21.10000000000000142 ) ) ;
#106 = ORIENTED_EDGE ( 'NONE', *, *, #259, .T. ) ;
#107 = FACE_OUTER_BOUND ( 'NONE', #345, .T. ) ;
#108 = VECTOR ( 'NONE', #12, 1000.000000000000000 ) ;
#109 = DIRECTION ( 'NONE',  ( 1.000000000000000000, 0.000000000000000000, 0.000000000000000000 ) ) ;
#110 = EDGE_CURVE ( 'NONE', #438, #252, #323, .T. ) ;
#111 = FACE_OUTER_BOUND ( 'NONE', #426, .T. ) ;
#112 = PLANE ( 'NONE',  #445 ) ;
#113 = ORIENTED_EDGE ( 'NONE', *, *, #304, .F. ) ;
#114 = VECTOR ( 'NONE', #215, 1000.000000000000000 ) ;
#115 = EDGE_CURVE ( 'NONE', #193, #176, #151, .T. ) ;
#116 = DIRECTION ( 'NONE',  ( 1.000000000000000000, 0.000000000000000000, 0.000000000000000000 ) ) ;
#117 = CARTESIAN_POINT ( 'NONE',  ( 0.000000000000000000, 0.000000000000000000, -21.10000000000000142 ) ) ;
#118 = ORIENTED_EDGE ( 'NONE', *, *, #225, .F. ) ;
#119 = DIRECTION ( 'NONE',  ( -0.000000000000000000, -0.000000000000000000, -1.000000000000000000 ) ) ;
#120 = DIRECTION ( 'NONE',  ( -0.000000000000000000, -0.000000000000000000, -1.000000000000000000 ) ) ;
#121 = CARTESIAN_POINT ( 'NONE',  ( 0.000000000000000000, 0.000000000000000000, -15.19999999999999751 ) ) ;
#122 = EDGE_CURVE ( 'NONE', #272, #390, #367, .T. ) ;
#123 = ORIENTED_EDGE ( 'NONE', *, *, #497, .T. ) ;
#124 = LINE ( 'NONE', #339, #410 ) ;
#125 = DIRECTION ( 'NONE',  ( 1.000000000000000000, 0.000000000000000000, 0.000000000000000000 ) ) ;
#126 = ORIENTED_EDGE ( 'NONE', *, *, #334, .F. ) ;
#127 = DIRECTION ( 'NONE',  ( -0.7071067811865465735, 8.659560562354920532E-17, 0.7071067811865485719 ) ) ;
#128 = DIRECTION ( 'NONE',  ( 0.000000000000000000, 0.000000000000000000, -1.000000000000000000 ) ) ;
#129 = EDGE_LOOP ( 'NONE', ( #460, #185 ) ) ;
#130 = DIRECTION ( 'NONE',  ( 0.000000000000000000, 0.000000000000000000, -1.000000000000000000 ) ) ;
#131 = ORIENTED_EDGE ( 'NONE', *, *, #11, .T. ) ;
#132 = DIRECTION ( 'NONE',  ( 0.000000000000000000, 0.000000000000000000, 1.000000000000000000 ) ) ;
#133 = EDGE_CURVE ( 'NONE', #62, #537, #483, .T. ) ;
#134 = LINE ( 'NONE', #138, #46 ) ;
#135 = EDGE_CURVE ( 'NONE', #507, #89, #78, .T. ) ;
#136 = VECTOR ( 'NONE', #3, 1000.000000000000000 ) ;
#137 = CIRCLE ( 'NONE', #28, 3.250000000000000444 ) ;
#138 = CARTESIAN_POINT ( 'NONE',  ( -6.000000000000000888, 0.000000000000000000, -15.19999999999999751 ) ) ;
#139 = EDGE_CURVE ( 'NONE', #216, #252, #453, .T. ) ;
#140 = DIRECTION ( 'NONE',  ( -0.000000000000000000, -0.000000000000000000, -1.000000000000000000 ) ) ;
#141 = ORIENTED_EDGE ( 'NONE', *, *, #547, .F. ) ;
#142 = CARTESIAN_POINT ( 'NONE',  ( 0.000000000000000000, 0.000000000000000000, -20.79999999999998650 ) ) ;
#143 = PRESENTATION_LAYER_ASSIGNMENT (  '', '', ( #365 ) ) ;
#144 = EDGE_CURVE ( 'NONE', #380, #10, #67, .T. ) ;
#145 = DIRECTION ( 'NONE',  ( 1.000000000000000000, 0.000000000000000000, -0.000000000000000000 ) ) ;
#146 = EDGE_CURVE ( 'NONE', #216, #257, #526, .T. ) ;
#147 = DIRECTION ( 'NONE',  ( -0.000000000000000000, -0.000000000000000000, 1.000000000000000000 ) ) ;
#148 =( LENGTH_UNIT ( ) NAMED_UNIT ( * ) SI_UNIT ( .MILLI., .METRE. ) );
#149 = CLOSED_SHELL ( 'NONE', ( #97, #329, #525, #519, #161, #60, #553, #2, #407, #104, #275, #287, #355, #239, #341, #389, #394, #32, #456, #178 ) ) ;
#150 = AXIS2_PLACEMENT_3D ( 'NONE', #202, #500, #506 ) ;
#151 = CIRCLE ( 'NONE', #465, 2.949999999999994404 ) ;
#152 = CIRCLE ( 'NONE', #41, 6.000000000000000888 ) ;
#153 = CARTESIAN_POINT ( 'NONE',  ( 0.000000000000000000, 0.000000000000000000, 20.79999999999999716 ) ) ;
#154 = CARTESIAN_POINT ( 'NONE',  ( 0.000000000000000000, 0.000000000000000000, -19.09999999999999787 ) ) ;
#155 = CARTESIAN_POINT ( 'NONE',  ( 0.000000000000000000, 0.000000000000000000, -20.79999999999998650 ) ) ;
#156 = ORIENTED_EDGE ( 'NONE', *, *, #146, .T. ) ;
#157 = CARTESIAN_POINT ( 'NONE',  ( 0.000000000000000000, 0.000000000000000000, -19.09999999999999787 ) ) ;
#158 = DIRECTION ( 'NONE',  ( 1.000000000000000000, 0.000000000000000000, -0.000000000000000000 ) ) ;
#159 = ORIENTED_EDGE ( 'NONE', *, *, #248, .F. ) ;
#160 = AXIS2_PLACEMENT_3D ( 'NONE', #427, #471, #425 ) ;
#161 = ADVANCED_FACE ( 'NONE', ( #317 ), #450, .F. ) ;
#162 = DIRECTION ( 'NONE',  ( -0.000000000000000000, -0.000000000000000000, 1.000000000000000000 ) ) ;
#163 = CARTESIAN_POINT ( 'NONE',  ( 0.000000000000000000, 0.000000000000000000, -15.19999999999999751 ) ) ;
#164 = ORIENTED_EDGE ( 'NONE', *, *, #515, .T. ) ;
#165 =( NAMED_UNIT ( * ) SI_UNIT ( $, .STERADIAN. ) SOLID_ANGLE_UNIT ( ) );
#166 = CARTESIAN_POINT ( 'NONE',  ( -6.000000000000000888, 0.000000000000000000, -15.50000000000000178 ) ) ;
#167 = PRODUCT_DEFINITION ( '普通', '', #400, #47 ) ;
#168 = CARTESIAN_POINT ( 'NONE',  ( 3.250000000000000444, 3.980102097228898231E-16, -20.79999999999998650 ) ) ;
#169 = EDGE_LOOP ( 'NONE', ( #457, #245, #488, #356 ) ) ;
#170 = DIRECTION ( 'NONE',  ( 0.7071067811865443531, 0.000000000000000000, 0.7071067811865506814 ) ) ;
#171 = DIRECTION ( 'NONE',  ( -1.000000000000000000, 0.000000000000000000, 0.000000000000000000 ) ) ;
#172 = ORIENTED_EDGE ( 'NONE', *, *, #13, .T. ) ;
#173 =( LENGTH_UNIT ( ) NAMED_UNIT ( * ) SI_UNIT ( .MILLI., .METRE. ) );
#174 = VECTOR ( 'NONE', #340, 1000.000000000000000 ) ;
#175 = CARTESIAN_POINT ( 'NONE',  ( 2.250000000000000444, 0.000000000000000000, -21.10000000000000142 ) ) ;
#176 = VERTEX_POINT ( 'NONE', #194 ) ;
#177 = CARTESIAN_POINT ( 'NONE',  ( -3.250000000000000444, 0.000000000000000000, -19.09999999999999787 ) ) ;
#178 = ADVANCED_FACE ( 'NONE', ( #107 ), #80, .T. ) ;
#179 = DIRECTION ( 'NONE',  ( -0.000000000000000000, -0.000000000000000000, 1.000000000000000000 ) ) ;
#180 = DIRECTION ( 'NONE',  ( 0.000000000000000000, 0.000000000000000000, -1.000000000000000000 ) ) ;
#181 = EDGE_CURVE ( 'NONE', #534, #1, #233, .T. ) ;
#182 = AXIS2_PLACEMENT_3D ( 'NONE', #163, #384, #171 ) ;
#183 = ORIENTED_EDGE ( 'NONE', *, *, #195, .T. ) ;
#184 = FACE_OUTER_BOUND ( 'NONE', #357, .T. ) ;
#185 = ORIENTED_EDGE ( 'NONE', *, *, #248, .T. ) ;
#186 = AXIS2_PLACEMENT_3D ( 'NONE', #298, #508, #16 ) ;
#187 = DIRECTION ( 'NONE',  ( 1.000000000000000000, 0.000000000000000000, 0.000000000000000000 ) ) ;
#188 = CIRCLE ( 'NONE', #182, 5.699999999999989519 ) ;
#189 = EDGE_CURVE ( 'NONE', #1, #300, #333, .T. ) ;
#190 = ORIENTED_EDGE ( 'NONE', *, *, #476, .F. ) ;
#191 = MANIFOLD_SOLID_BREP ( '\X2\501289d2\X0\1', #149 ) ;
#192 = DIRECTION ( 'NONE',  ( -0.000000000000000000, -0.000000000000000000, 1.000000000000000000 ) ) ;
#193 = VERTEX_POINT ( 'NONE', #372 ) ;
#194 = CARTESIAN_POINT ( 'NONE',  ( -2.949999999999994404, 0.000000000000000000, 21.10000000000000142 ) ) ;
#195 = EDGE_CURVE ( 'NONE', #390, #507, #362, .T. ) ;
#196 = CARTESIAN_POINT ( 'NONE',  ( 0.000000000000000000, 0.000000000000000000, -21.10000000000000142 ) ) ;
#197 = AXIS2_PLACEMENT_3D ( 'NONE', #447, #147, #109 ) ;
#198 = AXIS2_PLACEMENT_3D ( 'NONE', #477, #484, #102 ) ;
#199 = DIRECTION ( 'NONE',  ( 0.000000000000000000, 0.000000000000000000, 1.000000000000000000 ) ) ;
#200 = PRESENTATION_STYLE_ASSIGNMENT (( #65 ) ) ;
#201 = DIRECTION ( 'NONE',  ( -1.000000000000000000, 0.000000000000000000, 0.000000000000000000 ) ) ;
#202 = CARTESIAN_POINT ( 'NONE',  ( 0.000000000000000000, 0.000000000000000000, 20.79999999999999716 ) ) ;
#203 = ORIENTED_EDGE ( 'NONE', *, *, #449, .F. ) ;
#204 = CARTESIAN_POINT ( 'NONE',  ( 2.949999999999987299, 0.000000000000000000, -21.10000000000000142 ) ) ;
#205 = EDGE_CURVE ( 'NONE', #10, #380, #510, .T. ) ;
#206 = DIRECTION ( 'NONE',  ( -1.000000000000000000, 0.000000000000000000, 0.000000000000000000 ) ) ;
#207 = DIRECTION ( 'NONE',  ( -1.000000000000000000, 0.000000000000000000, 0.000000000000000000 ) ) ;
#208 = ORIENTED_EDGE ( 'NONE', *, *, #122, .T. ) ;
#209 = CONICAL_SURFACE ( 'NONE', #490, 3.250000000000000444, 0.7853981633974439491 ) ;
#210 = AXIS2_PLACEMENT_3D ( 'NONE', #533, #120, #201 ) ;
#211 = CYLINDRICAL_SURFACE ( 'NONE', #321, 3.250000000000000444 ) ;
#212 = DIRECTION ( 'NONE',  ( 0.000000000000000000, 0.000000000000000000, 1.000000000000000000 ) ) ;
#213 = EDGE_LOOP ( 'NONE', ( #342, #428 ) ) ;
#214 = LINE ( 'NONE', #542, #432 ) ;
#215 = DIRECTION ( 'NONE',  ( -0.7071067811865567876, 0.000000000000000000, -0.7071067811865383579 ) ) ;
#216 = VERTEX_POINT ( 'NONE', #295 ) ;
#217 = CARTESIAN_POINT ( 'NONE',  ( 0.000000000000000000, 0.000000000000000000, -15.19999999999999751 ) ) ;
#218 = CARTESIAN_POINT ( 'NONE',  ( 0.000000000000000000, 0.000000000000000000, -15.19999999999999751 ) ) ;
#219 = EDGE_LOOP ( 'NONE', ( #45, #305 ) ) ;
#220 = DIRECTION ( 'NONE',  ( 0.000000000000000000, 0.000000000000000000, 1.000000000000000000 ) ) ;
#221 = VECTOR ( 'NONE', #301, 1000.000000000000000 ) ;
#222 = CYLINDRICAL_SURFACE ( 'NONE', #499, 3.250000000000000444 ) ;
#223 = ORIENTED_EDGE ( 'NONE', *, *, #181, .T. ) ;
#224 = ORIENTED_EDGE ( 'NONE', *, *, #139, .T. ) ;
#225 = EDGE_CURVE ( 'NONE', #272, #89, #546, .T. ) ;
#226 = DIRECTION ( 'NONE',  ( 1.000000000000000000, 0.000000000000000000, 0.000000000000000000 ) ) ;
#227 = VECTOR ( 'NONE', #236, 1000.000000000000000 ) ;
#228 = AXIS2_PLACEMENT_3D ( 'NONE', #320, #398, #14 ) ;
#229 = VERTEX_POINT ( 'NONE', #244 ) ;
#230 = VERTEX_POINT ( 'NONE', #175 ) ;
#231 = ORIENTED_EDGE ( 'NONE', *, *, #144, .T. ) ;
#232 = LINE ( 'NONE', #397, #348 ) ;
#233 = LINE ( 'NONE', #402, #108 ) ;
#234 = CIRCLE ( 'NONE', #347, 2.250000000000000444 ) ;
#235 = EDGE_CURVE ( 'NONE', #176, #193, #273, .T. ) ;
#236 = DIRECTION ( 'NONE',  ( -0.000000000000000000, -0.000000000000000000, -1.000000000000000000 ) ) ;
#237 = EDGE_CURVE ( 'NONE', #230, #527, #234, .T. ) ;
#238 = DIRECTION ( 'NONE',  ( 0.000000000000000000, 0.000000000000000000, 1.000000000000000000 ) ) ;
#239 = ADVANCED_FACE ( 'NONE', ( #516, #463 ), #539, .F. ) ;
#240 = CARTESIAN_POINT ( 'NONE',  ( 2.250000000000000444, 0.000000000000000000, -21.10000000000000142 ) ) ;
#241 = CARTESIAN_POINT ( 'NONE',  ( 0.000000000000000000, 0.000000000000000000, -19.09999999999999787 ) ) ;
#242 = AXIS2_PLACEMENT_3D ( 'NONE', #366, #493, #495 ) ;
#243 = DIRECTION ( 'NONE',  ( -0.000000000000000000, -0.000000000000000000, 1.000000000000000000 ) ) ;
#244 = CARTESIAN_POINT ( 'NONE',  ( 2.250000000000000444, 0.000000000000000000, 21.10000000000000142 ) ) ;
#245 = ORIENTED_EDGE ( 'NONE', *, *, #334, .T. ) ;
#246 = LINE ( 'NONE', #240, #359 ) ;
#247 = CARTESIAN_POINT ( 'NONE',  ( 0.000000000000000000, 0.000000000000000000, -21.10000000000000142 ) ) ;
#248 = EDGE_CURVE ( 'NONE', #252, #438, #15, .T. ) ;
#249 = ORIENTED_EDGE ( 'NONE', *, *, #235, .F. ) ;
#250 = CARTESIAN_POINT ( 'NONE',  ( 0.000000000000000000, 0.000000000000000000, -21.10000000000000142 ) ) ;
#251 = CARTESIAN_POINT ( 'NONE',  ( 2.949999999999994404, 3.612708057484684208E-16, 21.10000000000000142 ) ) ;
#252 = VERTEX_POINT ( 'NONE', #256 ) ;
#253 = CARTESIAN_POINT ( 'NONE',  ( 0.000000000000000000, 0.000000000000000000, -19.09999999999999787 ) ) ;
#254 = CONICAL_SURFACE ( 'NONE', #512, 6.000000000000000888, 0.7853981633974613796 ) ;
#255 = CARTESIAN_POINT ( 'NONE',  ( -3.250000000000000444, 0.000000000000000000, -15.19999999999999751 ) ) ;
#256 = CARTESIAN_POINT ( 'NONE',  ( 3.250000000000000444, 3.980102097228898231E-16, -15.19999999999999751 ) ) ;
#257 = VERTEX_POINT ( 'NONE', #467 ) ;
#258 = CARTESIAN_POINT ( 'NONE',  ( -2.250000000000000444, 2.755455298081544778E-16, -21.10000000000000142 ) ) ;
#259 = EDGE_CURVE ( 'NONE', #390, #272, #188, .T. ) ;
#260 = CARTESIAN_POINT ( 'NONE',  ( 5.699999999999989519, 7.164183775012010506E-16, -15.19999999999999751 ) ) ;
#261 = ORIENTED_EDGE ( 'NONE', *, *, #139, .F. ) ;
#262 = DIRECTION ( 'NONE',  ( 0.000000000000000000, 0.000000000000000000, 1.000000000000000000 ) ) ;
#263 = CARTESIAN_POINT ( 'NONE',  ( 0.000000000000000000, 0.000000000000000000, 21.10000000000000142 ) ) ;
#264 = ORIENTED_EDGE ( 'NONE', *, *, #304, .T. ) ;
#265 = AXIS2_PLACEMENT_3D ( 'NONE', #535, #286, #498 ) ;
#266 = APPLICATION_CONTEXT ( 'automotive_design' ) ;
#267 = CIRCLE ( 'NONE', #210, 6.000000000000000888 ) ;
#268 = UNCERTAINTY_MEASURE_WITH_UNIT (LENGTH_MEASURE( 1.000000000000000082E-05 ), #173, 'distance_accuracy_value', 'NONE');
#269 = CYLINDRICAL_SURFACE ( 'NONE', #198, 3.250000000000000444 ) ;
#270 = EDGE_LOOP ( 'NONE', ( #318, #375, #310, #36 ) ) ;
#271 = EDGE_LOOP ( 'NONE', ( #118, #39, #183, #352 ) ) ;
#272 = VERTEX_POINT ( 'NONE', #260 ) ;
#273 = CIRCLE ( 'NONE', #285, 2.949999999999994404 ) ;
#274 = DIRECTION ( 'NONE',  ( -1.000000000000000000, 0.000000000000000000, 0.000000000000000000 ) ) ;
#275 = ADVANCED_FACE ( 'NONE', ( #38 ), #344, .T. ) ;
#276 = DIRECTION ( 'NONE',  ( -1.000000000000000000, 0.000000000000000000, 0.000000000000000000 ) ) ;
#277 = FACE_OUTER_BOUND ( 'NONE', #87, .T. ) ;
#278 = CARTESIAN_POINT ( 'NONE',  ( 3.250000000000000444, 3.980102097228898231E-16, 21.10000000000000142 ) ) ;
#279 = AXIS2_PLACEMENT_3D ( 'NONE', #250, #162, #116 ) ;
#280 =( NAMED_UNIT ( * ) PLANE_ANGLE_UNIT ( ) SI_UNIT ( $, .RADIAN. ) );
#281 = DIRECTION ( 'NONE',  ( 1.000000000000000000, 0.000000000000000000, 0.000000000000000000 ) ) ;
#282 = FACE_OUTER_BOUND ( 'NONE', #58, .T. ) ;
#283 = DIRECTION ( 'NONE',  ( -0.000000000000000000, -0.000000000000000000, -1.000000000000000000 ) ) ;
#284 = ORIENTED_EDGE ( 'NONE', *, *, #418, .F. ) ;
#285 = AXIS2_PLACEMENT_3D ( 'NONE', #420, #536, #125 ) ;
#286 = DIRECTION ( 'NONE',  ( 0.000000000000000000, 0.000000000000000000, 1.000000000000000000 ) ) ;
#287 = ADVANCED_FACE ( 'NONE', ( #302, #382 ), #509, .F. ) ;
#288 = CARTESIAN_POINT ( 'NONE',  ( 0.000000000000000000, 0.000000000000000000, -15.19999999999999751 ) ) ;
#289 = ORIENTED_EDGE ( 'NONE', *, *, #319, .T. ) ;
#290 = CARTESIAN_POINT ( 'NONE',  ( 0.000000000000000000, 0.000000000000000000, 21.10000000000000142 ) ) ;
#291 = CARTESIAN_POINT ( 'NONE',  ( 5.699999999999996625, 0.000000000000000000, -19.09999999999999787 ) ) ;
#292 = DIRECTION ( 'NONE',  ( -1.000000000000000000, 0.000000000000000000, 0.000000000000000000 ) ) ;
#293 = EDGE_LOOP ( 'NONE', ( #113, #308, #172, #7 ) ) ;
#294 = FACE_OUTER_BOUND ( 'NONE', #354, .T. ) ;
#295 = CARTESIAN_POINT ( 'NONE',  ( 3.250000000000000444, 3.980102097228898231E-16, 20.79999999999999716 ) ) ;
#296 = ORIENTED_EDGE ( 'NONE', *, *, #418, .T. ) ;
#297 = AXIS2_PLACEMENT_3D ( 'NONE', #155, #409, #281 ) ;
#298 = CARTESIAN_POINT ( 'NONE',  ( 0.000000000000000000, 0.000000000000000000, 21.10000000000000142 ) ) ;
#299 =( NAMED_UNIT ( * ) SI_UNIT ( $, .STERADIAN. ) SOLID_ANGLE_UNIT ( ) );
#300 = VERTEX_POINT ( 'NONE', #168 ) ;
#301 = DIRECTION ( 'NONE',  ( -0.000000000000000000, -0.000000000000000000, -1.000000000000000000 ) ) ;
#302 = FACE_OUTER_BOUND ( 'NONE', #482, .T. ) ;
#303 = EDGE_LOOP ( 'NONE', ( #141, #413, #223, #548 ) ) ;
#304 = EDGE_CURVE ( 'NONE', #89, #540, #72, .T. ) ;
#305 = ORIENTED_EDGE ( 'NONE', *, *, #133, .T. ) ;
#306 = CIRCLE ( 'NONE', #6, 2.949999999999987299 ) ;
#307 = AXIS2_PLACEMENT_3D ( 'NONE', #56, #554, #95 ) ;
#308 = ORIENTED_EDGE ( 'NONE', *, *, #378, .T. ) ;
#309 = DIRECTION ( 'NONE',  ( -0.000000000000000000, -0.000000000000000000, -1.000000000000000000 ) ) ;
#310 = ORIENTED_EDGE ( 'NONE', *, *, #515, .F. ) ;
#311 = FACE_OUTER_BOUND ( 'NONE', #52, .T. ) ;
#312 = CONICAL_SURFACE ( 'NONE', #549, 6.000000000000000888, 0.7853981633974613796 ) ;
#313 = ORIENTED_EDGE ( 'NONE', *, *, #44, .T. ) ;
#314 = CIRCLE ( 'NONE', #150, 3.250000000000000444 ) ;
#315 = ORIENTED_EDGE ( 'NONE', *, *, #20, .F. ) ;
#316 = VERTEX_POINT ( 'NONE', #19 ) ;
#317 = FACE_OUTER_BOUND ( 'NONE', #25, .T. ) ;
#318 = ORIENTED_EDGE ( 'NONE', *, *, #205, .F. ) ;
#319 = EDGE_CURVE ( 'NONE', #257, #216, #314, .T. ) ;
#320 = CARTESIAN_POINT ( 'NONE',  ( 0.000000000000000000, 0.000000000000000000, -15.19999999999999751 ) ) ;
#321 = AXIS2_PLACEMENT_3D ( 'NONE', #545, #462, #451 ) ;
#322 = FACE_BOUND ( 'NONE', #75, .T. ) ;
#323 = CIRCLE ( 'NONE', #81, 3.250000000000000444 ) ;
#324 = CONICAL_SURFACE ( 'NONE', #481, 2.949999999999994404, 0.7853981633974497223 ) ;
#325 = CARTESIAN_POINT ( 'NONE',  ( 0.000000000000000000, 0.000000000000000000, -20.79999999999998650 ) ) ;
#326 = FACE_OUTER_BOUND ( 'NONE', #391, .T. ) ;
#327 = FACE_OUTER_BOUND ( 'NONE', #350, .T. ) ;
#328 = ORIENTED_EDGE ( 'NONE', *, *, #492, .F. ) ;
#329 = ADVANCED_FACE ( 'NONE', ( #455 ), #324, .T. ) ;
#330 = CARTESIAN_POINT ( 'NONE',  ( -5.699999999999989519, 0.000000000000000000, -15.19999999999999751 ) ) ;
#331 =( GEOMETRIC_REPRESENTATION_CONTEXT ( 3 ) GLOBAL_UNCERTAINTY_ASSIGNED_CONTEXT ( ( #268 ) ) GLOBAL_UNIT_ASSIGNED_CONTEXT ( ( #173, #31, #165 ) ) REPRESENTATION_CONTEXT ( 'NONE', 'WORKASPACE' ) );
#332 = ORIENTED_EDGE ( 'NONE', *, *, #69, .T. ) ;
#333 = CIRCLE ( 'NONE', #297, 3.250000000000000444 ) ;
#334 = EDGE_CURVE ( 'NONE', #193, #216, #374, .T. ) ;
#335 = CARTESIAN_POINT ( 'NONE',  ( 0.000000000000000000, 0.000000000000000000, -21.10000000000000142 ) ) ;
#336 = CARTESIAN_POINT ( 'NONE',  ( -6.000000000000000888, 0.000000000000000000, -15.50000000000000178 ) ) ;
#337 = ORIENTED_EDGE ( 'NONE', *, *, #237, .T. ) ;
#338 = CARTESIAN_POINT ( 'NONE',  ( -6.000000000000000888, 0.000000000000000000, -18.79999999999999361 ) ) ;
#339 = CARTESIAN_POINT ( 'NONE',  ( -2.250000000000000444, 2.755455298081544778E-16, -21.10000000000000142 ) ) ;
#340 = DIRECTION ( 'NONE',  ( 0.000000000000000000, 0.000000000000000000, -1.000000000000000000 ) ) ;
#341 = ADVANCED_FACE ( 'NONE', ( #88 ), #222, .T. ) ;
#342 = ORIENTED_EDGE ( 'NONE', *, *, #11, .F. ) ;
#343 = LINE ( 'NONE', #68, #82 ) ;
#344 = CYLINDRICAL_SURFACE ( 'NONE', #558, 6.000000000000000888 ) ;
#345 = EDGE_LOOP ( 'NONE', ( #416, #55, #439, #84 ) ) ;
#346 = CARTESIAN_POINT ( 'NONE',  ( 0.000000000000000000, 0.000000000000000000, 0.000000000000000000 ) ) ;
#347 = AXIS2_PLACEMENT_3D ( 'NONE', #117, #29, #349 ) ;
#348 = VECTOR ( 'NONE', #358, 1000.000000000000000 ) ;
#349 = DIRECTION ( 'NONE',  ( 1.000000000000000000, 0.000000000000000000, 0.000000000000000000 ) ) ;
#350 = EDGE_LOOP ( 'NONE', ( #370, #524 ) ) ;
#351 = DIRECTION ( 'NONE',  ( 1.000000000000000000, 0.000000000000000000, 0.000000000000000000 ) ) ;
#352 = ORIENTED_EDGE ( 'NONE', *, *, #378, .F. ) ;
#353 = AXIS2_PLACEMENT_3D ( 'NONE', #105, #489, #63 ) ;
#354 = EDGE_LOOP ( 'NONE', ( #231, #388 ) ) ;
#355 = ADVANCED_FACE ( 'NONE', ( #294, #503 ), #373, .T. ) ;
#356 = ORIENTED_EDGE ( 'NONE', *, *, #470, .F. ) ;
#357 = EDGE_LOOP ( 'NONE', ( #131, #468, #520, #443 ) ) ;
#358 = DIRECTION ( 'NONE',  ( -0.000000000000000000, -0.000000000000000000, -1.000000000000000000 ) ) ;
#359 = VECTOR ( 'NONE', #243, 1000.000000000000000 ) ;
#360 = AXIS2_PLACEMENT_3D ( 'NONE', #288, #130, #543 ) ;
#361 = CARTESIAN_POINT ( 'NONE',  ( 0.000000000000000000, 0.000000000000000000, 21.10000000000000142 ) ) ;
#362 = LINE ( 'NONE', #336, #114 ) ;
#363 = PRODUCT_RELATED_PRODUCT_CATEGORY ( 'part', '', ( #51 ) ) ;
#364 = SURFACE_STYLE_FILL_AREA ( #404 ) ;
#365 = STYLED_ITEM ( 'NONE', ( #200 ), #191 ) ;
#366 = CARTESIAN_POINT ( 'NONE',  ( 0.000000000000000000, 0.000000000000000000, -15.50000000000000178 ) ) ;
#367 = CIRCLE ( 'NONE', #228, 5.699999999999989519 ) ;
#368 = DIRECTION ( 'NONE',  ( 0.000000000000000000, 0.000000000000000000, -1.000000000000000000 ) ) ;
#369 = CARTESIAN_POINT ( 'NONE',  ( 0.000000000000000000, 0.000000000000000000, 21.10000000000000142 ) ) ;
#370 = ORIENTED_EDGE ( 'NONE', *, *, #235, .T. ) ;
#371 = CARTESIAN_POINT ( 'NONE',  ( 0.000000000000000000, 0.000000000000000000, -19.09999999999999787 ) ) ;
#372 = CARTESIAN_POINT ( 'NONE',  ( 2.949999999999994404, 3.796405077356790973E-16, 21.10000000000000142 ) ) ;
#373 = PLANE ( 'NONE',  #491 ) ;
#374 = LINE ( 'NONE', #251, #43 ) ;
#375 = ORIENTED_EDGE ( 'NONE', *, *, #449, .T. ) ;
#376 = AXIS2_PLACEMENT_3D ( 'NONE', #79, #74, #23 ) ;
#377 = DIRECTION ( 'NONE',  ( 1.000000000000000000, 0.000000000000000000, 0.000000000000000000 ) ) ;
#378 = EDGE_CURVE ( 'NONE', #89, #507, #267, .T. ) ;
#379 = DIRECTION ( 'NONE',  ( -1.000000000000000000, 0.000000000000000000, 0.000000000000000000 ) ) ;
#380 = VERTEX_POINT ( 'NONE', #291 ) ;
#381 = DIRECTION ( 'NONE',  ( -0.7071067811865486830, 0.000000000000000000, -0.7071067811865464625 ) ) ;
#382 = FACE_BOUND ( 'NONE', #129, .T. ) ;
#383 = ORIENTED_EDGE ( 'NONE', *, *, #497, .F. ) ;
#384 = DIRECTION ( 'NONE',  ( -0.000000000000000000, -0.000000000000000000, 1.000000000000000000 ) ) ;
#385 = ORIENTED_EDGE ( 'NONE', *, *, #486, .T. ) ;
#386 = DIRECTION ( 'NONE',  ( 1.000000000000000000, 0.000000000000000000, 0.000000000000000000 ) ) ;
#387 = DIRECTION ( 'NONE',  ( -0.000000000000000000, -0.000000000000000000, -1.000000000000000000 ) ) ;
#388 = ORIENTED_EDGE ( 'NONE', *, *, #205, .T. ) ;
#389 = ADVANCED_FACE ( 'NONE', ( #282 ), #18, .F. ) ;
#390 = VERTEX_POINT ( 'NONE', #330 ) ;
#391 = EDGE_LOOP ( 'NONE', ( #126, #249, #30, #485 ) ) ;
#392 =( GEOMETRIC_REPRESENTATION_CONTEXT ( 3 ) GLOBAL_UNCERTAINTY_ASSIGNED_CONTEXT ( ( #474 ) ) GLOBAL_UNIT_ASSIGNED_CONTEXT ( ( #148, #280, #299 ) ) REPRESENTATION_CONTEXT ( 'NONE', 'WORKASPACE' ) );
#393 = AXIS2_PLACEMENT_3D ( 'NONE', #253, #220, #386 ) ;
#394 = ADVANCED_FACE ( 'NONE', ( #406 ), #92, .T. ) ;
#395 = ORIENTED_EDGE ( 'NONE', *, *, #225, .T. ) ;
#396 = ORIENTED_EDGE ( 'NONE', *, *, #122, .F. ) ;
#397 = CARTESIAN_POINT ( 'NONE',  ( -3.250000000000000444, 0.000000000000000000, 21.10000000000000142 ) ) ;
#398 = DIRECTION ( 'NONE',  ( -0.000000000000000000, -0.000000000000000000, 1.000000000000000000 ) ) ;
#399 = EDGE_CURVE ( 'NONE', #537, #62, #306, .T. ) ;
#400 = PRODUCT_DEFINITION_FORMATION_WITH_SPECIFIED_SOURCE ( '对称', '', #51, .NOT_KNOWN. ) ;
#401 = AXIS2_PLACEMENT_3D ( 'NONE', #371, #458, #411 ) ;
#402 = CARTESIAN_POINT ( 'NONE',  ( -3.250000000000000444, 0.000000000000000000, 21.10000000000000142 ) ) ;
#403 = ORIENTED_EDGE ( 'NONE', *, *, #13, .F. ) ;
#404 = FILL_AREA_STYLE ('',( #529 ) ) ;
#405 = DIRECTION ( 'NONE',  ( 0.000000000000000000, 0.000000000000000000, -1.000000000000000000 ) ) ;
#406 = FACE_OUTER_BOUND ( 'NONE', #421, .T. ) ;
#407 = ADVANCED_FACE ( 'NONE', ( #111 ), #211, .T. ) ;
#408 = AXIS2_PLACEMENT_3D ( 'NONE', #121, #128, #459 ) ;
#409 = DIRECTION ( 'NONE',  ( -0.000000000000000000, -0.000000000000000000, 1.000000000000000000 ) ) ;
#410 = VECTOR ( 'NONE', #71, 1000.000000000000000 ) ;
#411 = DIRECTION ( 'NONE',  ( 1.000000000000000000, 0.000000000000000000, 0.000000000000000000 ) ) ;
#412 = CARTESIAN_POINT ( 'NONE',  ( 6.000000000000000888, 7.347880794884120722E-16, -15.19999999999999751 ) ) ;
#413 = ORIENTED_EDGE ( 'NONE', *, *, #431, .T. ) ;
#414 = DIRECTION ( 'NONE',  ( -0.7071067811865443531, 8.659560562354895880E-17, 0.7071067811865506814 ) ) ;
#415 = CARTESIAN_POINT ( 'NONE',  ( 0.000000000000000000, 0.000000000000000000, 21.10000000000000142 ) ) ;
#416 = ORIENTED_EDGE ( 'NONE', *, *, #486, .F. ) ;
#417 = DIRECTION ( 'NONE',  ( -1.000000000000000000, 0.000000000000000000, 0.000000000000000000 ) ) ;
#418 = EDGE_CURVE ( 'NONE', #527, #230, #521, .T. ) ;
#419 = DIRECTION ( 'NONE',  ( -0.000000000000000000, -0.000000000000000000, -1.000000000000000000 ) ) ;
#420 = CARTESIAN_POINT ( 'NONE',  ( 0.000000000000000000, 0.000000000000000000, 21.10000000000000142 ) ) ;
#421 = EDGE_LOOP ( 'NONE', ( #203, #464, #313, #190 ) ) ;
#422 = AXIS2_PLACEMENT_3D ( 'NONE', #96, #50, #226 ) ;
#423 = LINE ( 'NONE', #514, #221 ) ;
#424 = LINE ( 'NONE', #27, #440 ) ;
#425 = DIRECTION ( 'NONE',  ( -1.000000000000000000, 0.000000000000000000, 0.000000000000000000 ) ) ;
#426 = EDGE_LOOP ( 'NONE', ( #261, #156, #332, #159 ) ) ;
#427 = CARTESIAN_POINT ( 'NONE',  ( 0.000000000000000000, 0.000000000000000000, -19.09999999999999787 ) ) ;
#428 = ORIENTED_EDGE ( 'NONE', *, *, #431, .F. ) ;
#429 = PRODUCT_CONTEXT ( 'NONE', #266, 'mechanical' ) ;
#430 = DIRECTION ( 'NONE',  ( 0.7071067811865486830, 8.659560562354945184E-17, -0.7071067811865464625 ) ) ;
#431 = EDGE_CURVE ( 'NONE', #316, #534, #137, .T. ) ;
#432 = VECTOR ( 'NONE', #381, 999.9999999999998863 ) ;
#433 = ORIENTED_EDGE ( 'NONE', *, *, #135, .T. ) ;
#434 = CIRCLE ( 'NONE', #422, 2.250000000000000444 ) ;
#435 = CARTESIAN_POINT ( 'NONE',  ( -5.699999999999996625, 7.164183775012013464E-16, -19.09999999999999787 ) ) ;
#436 = EDGE_LOOP ( 'NONE', ( #337, #296 ) ) ;
#437 = EDGE_CURVE ( 'NONE', #537, #300, #343, .T. ) ;
#438 = VERTEX_POINT ( 'NONE', #255 ) ;
#439 = ORIENTED_EDGE ( 'NONE', *, *, #437, .T. ) ;
#440 = VECTOR ( 'NONE', #127, 1000.000000000000000 ) ;
#441 = CARTESIAN_POINT ( 'NONE',  ( -2.949999999999987299, 3.796405077356787029E-16, -21.10000000000000142 ) ) ;
#442 = LINE ( 'NONE', #100, #136 ) ;
#443 = ORIENTED_EDGE ( 'NONE', *, *, #181, .F. ) ;
#444 = DIRECTION ( 'NONE',  ( 0.000000000000000000, 0.000000000000000000, 1.000000000000000000 ) ) ;
#445 = AXIS2_PLACEMENT_3D ( 'NONE', #369, #238, #145 ) ;
#446 = AXIS2_PLACEMENT_3D ( 'NONE', #247, #212, #158 ) ;
#447 = CARTESIAN_POINT ( 'NONE',  ( 0.000000000000000000, 0.000000000000000000, -20.79999999999998650 ) ) ;
#448 = DIRECTION ( 'NONE',  ( 1.000000000000000000, 0.000000000000000000, 0.000000000000000000 ) ) ;
#449 = EDGE_CURVE ( 'NONE', #10, #551, #424, .T. ) ;
#450 = CYLINDRICAL_SURFACE ( 'NONE', #353, 2.250000000000000444 ) ;
#451 = DIRECTION ( 'NONE',  ( -1.000000000000000000, 0.000000000000000000, 0.000000000000000000 ) ) ;
#452 = AXIS2_PLACEMENT_3D ( 'NONE', #241, #4, #528 ) ;
#453 = LINE ( 'NONE', #278, #227 ) ;
#454 = LINE ( 'NONE', #64, #99 ) ;
#455 = FACE_OUTER_BOUND ( 'NONE', #169, .T. ) ;
#456 = ADVANCED_FACE ( 'NONE', ( #326 ), #66, .T. ) ;
#457 = ORIENTED_EDGE ( 'NONE', *, *, #115, .F. ) ;
#458 = DIRECTION ( 'NONE',  ( 0.000000000000000000, 0.000000000000000000, 1.000000000000000000 ) ) ;
#459 = DIRECTION ( 'NONE',  ( -1.000000000000000000, 0.000000000000000000, -0.000000000000000000 ) ) ;
#460 = ORIENTED_EDGE ( 'NONE', *, *, #110, .T. ) ;
#461 = SHAPE_DEFINITION_REPRESENTATION ( #34, #49 ) ;
#462 = DIRECTION ( 'NONE',  ( -0.000000000000000000, -0.000000000000000000, -1.000000000000000000 ) ) ;
#463 = FACE_BOUND ( 'NONE', #436, .T. ) ;
#464 = ORIENTED_EDGE ( 'NONE', *, *, #144, .F. ) ;
#465 = AXIS2_PLACEMENT_3D ( 'NONE', #361, #444, #448 ) ;
#466 = CARTESIAN_POINT ( 'NONE',  ( 0.000000000000000000, 0.000000000000000000, -15.50000000000000178 ) ) ;
#467 = CARTESIAN_POINT ( 'NONE',  ( -3.250000000000000444, 0.000000000000000000, 20.79999999999999716 ) ) ;
#468 = ORIENTED_EDGE ( 'NONE', *, *, #547, .T. ) ;
#469 = DIRECTION ( 'NONE',  ( 0.000000000000000000, 0.000000000000000000, -1.000000000000000000 ) ) ;
#470 = EDGE_CURVE ( 'NONE', #176, #257, #214, .T. ) ;
#471 = DIRECTION ( 'NONE',  ( 0.000000000000000000, 0.000000000000000000, -1.000000000000000000 ) ) ;
#472 = ORIENTED_EDGE ( 'NONE', *, *, #437, .F. ) ;
#473 = APPLICATION_PROTOCOL_DEFINITION ( 'draft international standard', 'automotive_design', 1998, #266 ) ;
#474 = UNCERTAINTY_MEASURE_WITH_UNIT (LENGTH_MEASURE( 1.000000000000000082E-05 ), #148, 'distance_accuracy_value', 'NONE');
#475 = ORIENTED_EDGE ( 'NONE', *, *, #530, .T. ) ;
#476 = EDGE_CURVE ( 'NONE', #551, #540, #496, .T. ) ;
#477 = CARTESIAN_POINT ( 'NONE',  ( 0.000000000000000000, 0.000000000000000000, 21.10000000000000142 ) ) ;
#478 = CARTESIAN_POINT ( 'NONE',  ( -3.250000000000000444, 0.000000000000000000, -20.79999999999998650 ) ) ;
#479 = CYLINDRICAL_SURFACE ( 'NONE', #557, 3.250000000000000444 ) ;
#480 = CIRCLE ( 'NONE', #101, 2.250000000000000444 ) ;
#481 = AXIS2_PLACEMENT_3D ( 'NONE', #415, #24, #207 ) ;
#482 = EDGE_LOOP ( 'NONE', ( #106, #208 ) ) ;
#483 = CIRCLE ( 'NONE', #555, 2.949999999999987299 ) ;
#484 = DIRECTION ( 'NONE',  ( -0.000000000000000000, -0.000000000000000000, -1.000000000000000000 ) ) ;
#485 = ORIENTED_EDGE ( 'NONE', *, *, #146, .F. ) ;
#486 = EDGE_CURVE ( 'NONE', #62, #1, #454, .T. ) ;
#487 = DIRECTION ( 'NONE',  ( 1.000000000000000000, 0.000000000000000000, 0.000000000000000000 ) ) ;
#488 = ORIENTED_EDGE ( 'NONE', *, *, #319, .F. ) ;
#489 = DIRECTION ( 'NONE',  ( -0.000000000000000000, -0.000000000000000000, 1.000000000000000000 ) ) ;
#490 = AXIS2_PLACEMENT_3D ( 'NONE', #325, #192, #187 ) ;
#491 = AXIS2_PLACEMENT_3D ( 'NONE', #157, #368, #538 ) ;
#492 = EDGE_CURVE ( 'NONE', #527, #21, #124, .T. ) ;
#493 = DIRECTION ( 'NONE',  ( -0.000000000000000000, -0.000000000000000000, -1.000000000000000000 ) ) ;
#494 = DIRECTION ( 'NONE',  ( 1.000000000000000000, 0.000000000000000000, 0.000000000000000000 ) ) ;
#495 = DIRECTION ( 'NONE',  ( -1.000000000000000000, 0.000000000000000000, 0.000000000000000000 ) ) ;
#496 = CIRCLE ( 'NONE', #265, 6.000000000000000888 ) ;
#497 = EDGE_CURVE ( 'NONE', #230, #229, #246, .T. ) ;
#498 = DIRECTION ( 'NONE',  ( -1.000000000000000000, 0.000000000000000000, 0.000000000000000000 ) ) ;
#499 = AXIS2_PLACEMENT_3D ( 'NONE', #263, #387, #42 ) ;
#500 = DIRECTION ( 'NONE',  ( 0.000000000000000000, 0.000000000000000000, -1.000000000000000000 ) ) ;
#501 = ORIENTED_EDGE ( 'NONE', *, *, #110, .F. ) ;
#502 = FACE_OUTER_BOUND ( 'NONE', #511, .T. ) ;
#503 = FACE_BOUND ( 'NONE', #213, .T. ) ;
#504 = ORIENTED_EDGE ( 'NONE', *, *, #133, .F. ) ;
#505 = CARTESIAN_POINT ( 'NONE',  ( 0.000000000000000000, 0.000000000000000000, -18.79999999999999361 ) ) ;
#506 = DIRECTION ( 'NONE',  ( 1.000000000000000000, 0.000000000000000000, 0.000000000000000000 ) ) ;
#507 = VERTEX_POINT ( 'NONE', #166 ) ;
#508 = DIRECTION ( 'NONE',  ( 0.000000000000000000, 0.000000000000000000, -1.000000000000000000 ) ) ;
#509 = PLANE ( 'NONE',  #408 ) ;
#510 = CIRCLE ( 'NONE', #160, 5.699999999999996625 ) ;
#511 = EDGE_LOOP ( 'NONE', ( #396, #395, #73, #103 ) ) ;
#512 = AXIS2_PLACEMENT_3D ( 'NONE', #559, #140, #276 ) ;
#513 = CONICAL_SURFACE ( 'NONE', #393, 5.699999999999996625, 0.7853981633974468357 ) ;
#514 = CARTESIAN_POINT ( 'NONE',  ( 3.250000000000000444, 3.980102097228898231E-16, 21.10000000000000142 ) ) ;
#515 = EDGE_CURVE ( 'NONE', #540, #551, #152, .T. ) ;
#516 = FACE_OUTER_BOUND ( 'NONE', #219, .T. ) ;
#517 = EDGE_LOOP ( 'NONE', ( #433, #264, #164, #403 ) ) ;
#518 = CARTESIAN_POINT ( 'NONE',  ( 6.000000000000000888, 7.347880794884120722E-16, -15.50000000000000178 ) ) ;
#519 = ADVANCED_FACE ( 'NONE', ( #85 ), #513, .T. ) ;
#520 = ORIENTED_EDGE ( 'NONE', *, *, #77, .T. ) ;
#521 = CIRCLE ( 'NONE', #376, 2.250000000000000444 ) ;
#522 = FACE_OUTER_BOUND ( 'NONE', #271, .T. ) ;
#523 = ORIENTED_EDGE ( 'NONE', *, *, #77, .F. ) ;
#524 = ORIENTED_EDGE ( 'NONE', *, *, #115, .T. ) ;
#525 = ADVANCED_FACE ( 'NONE', ( #502 ), #312, .T. ) ;
#526 = CIRCLE ( 'NONE', #531, 3.250000000000000444 ) ;
#527 = VERTEX_POINT ( 'NONE', #258 ) ;
#528 = DIRECTION ( 'NONE',  ( -1.000000000000000000, 0.000000000000000000, 0.000000000000000000 ) ) ;
#529 = FILL_AREA_STYLE_COLOUR ( '', #54 ) ;
#530 = EDGE_CURVE ( 'NONE', #229, #21, #480, .T. ) ;
#531 = AXIS2_PLACEMENT_3D ( 'NONE', #153, #59, #70 ) ;
#532 = DIRECTION ( 'NONE',  ( -1.000000000000000000, 0.000000000000000000, 0.000000000000000000 ) ) ;
#533 = CARTESIAN_POINT ( 'NONE',  ( 0.000000000000000000, 0.000000000000000000, -15.50000000000000178 ) ) ;
#534 = VERTEX_POINT ( 'NONE', #177 ) ;
#535 = CARTESIAN_POINT ( 'NONE',  ( 0.000000000000000000, 0.000000000000000000, -18.79999999999999361 ) ) ;
#536 = DIRECTION ( 'NONE',  ( 0.000000000000000000, 0.000000000000000000, 1.000000000000000000 ) ) ;
#537 = VERTEX_POINT ( 'NONE', #204 ) ;
#538 = DIRECTION ( 'NONE',  ( -1.000000000000000000, 0.000000000000000000, -0.000000000000000000 ) ) ;
#539 = PLANE ( 'NONE',  #446 ) ;
#540 = VERTEX_POINT ( 'NONE', #37 ) ;
#541 = FACE_OUTER_BOUND ( 'NONE', #517, .T. ) ;
#542 = CARTESIAN_POINT ( 'NONE',  ( -2.949999999999994404, 0.000000000000000000, 21.10000000000000142 ) ) ;
#543 = DIRECTION ( 'NONE',  ( -1.000000000000000000, 0.000000000000000000, 0.000000000000000000 ) ) ;
#544 = ORIENTED_EDGE ( 'NONE', *, *, #69, .F. ) ;
#545 = CARTESIAN_POINT ( 'NONE',  ( 0.000000000000000000, 0.000000000000000000, 21.10000000000000142 ) ) ;
#546 = LINE ( 'NONE', #86, #550 ) ;
#547 = EDGE_CURVE ( 'NONE', #316, #300, #423, .T. ) ;
#548 = ORIENTED_EDGE ( 'NONE', *, *, #189, .T. ) ;
#549 = AXIS2_PLACEMENT_3D ( 'NONE', #466, #119, #417 ) ;
#550 = VECTOR ( 'NONE', #83, 1000.000000000000000 ) ;
#551 = VERTEX_POINT ( 'NONE', #338 ) ;
#552 = ORIENTED_EDGE ( 'NONE', *, *, #492, .T. ) ;
#553 = ADVANCED_FACE ( 'NONE', ( #541 ), #22, .T. ) ;
#554 = DIRECTION ( 'NONE',  ( 0.000000000000000000, 0.000000000000000000, -1.000000000000000000 ) ) ;
#555 = AXIS2_PLACEMENT_3D ( 'NONE', #196, #283, #487 ) ;
#556 = CARTESIAN_POINT ( 'NONE',  ( -2.250000000000000444, 2.755455298081544778E-16, 21.10000000000000142 ) ) ;
#557 = AXIS2_PLACEMENT_3D ( 'NONE', #57, #309, #274 ) ;
#558 = AXIS2_PLACEMENT_3D ( 'NONE', #218, #35, #292 ) ;
#559 = CARTESIAN_POINT ( 'NONE',  ( 0.000000000000000000, 0.000000000000000000, -15.50000000000000178 ) ) ;
ENDSEC;
END-ISO-10303-21;
