ISO-10303-21;
HEADER;
FILE_DESCRIPTION (( 'STEP AP214' ),
    '1' );
FILE_NAME ('LQ26-05HGI-01-014.STEP',
    '2026-05-07T08:55:13',
    ( '' ),
    ( '' ),
    'SwSTEP 2.0',
    'SolidWorks 2025',
    '' );
FILE_SCHEMA (( 'AUTOMOTIVE_DESIGN' ));
ENDSEC;

DATA;
#1 = CARTESIAN_POINT ( 'NONE',  ( -3.400000000000135802, 19.89999999999997726, 4.163799117101088320E-16 ) ) ;
#2 = ADVANCED_FACE ( 'NONE', ( #291, #395 ), #160, .T. ) ;
#3 = PLANE ( 'NONE',  #194 ) ;
#4 = ORIENTED_EDGE ( 'NONE', *, *, #79, .F. ) ;
#5 = AXIS2_PLACEMENT_3D ( 'NONE', #276, #445, #374 ) ;
#6 = AXIS2_PLACEMENT_3D ( 'NONE', #335, #430, #234 ) ;
#7 = DIRECTION ( 'NONE',  ( 1.000000000000000000, 3.083952846180946696E-15, 0.000000000000000000 ) ) ;
#8 = EDGE_LOOP ( 'NONE', ( #439, #259, #280, #182 ) ) ;
#9 = APPLICATION_CONTEXT ( 'automotive_design' ) ;
#10 = ADVANCED_FACE ( 'NONE', ( #289, #426 ), #125, .T. ) ;
#11 = DIRECTION ( 'NONE',  ( 3.430248998885767753E-15, -1.000000000000000000, -0.000000000000000000 ) ) ;
#12 = ORIENTED_EDGE ( 'NONE', *, *, #93, .F. ) ;
#13 = DIRECTION ( 'NONE',  ( 1.000000000000000000, 4.081702296415926067E-15, 0.000000000000000000 ) ) ;
#14 = ORIENTED_EDGE ( 'NONE', *, *, #20, .F. ) ;
#15 = CARTESIAN_POINT ( 'NONE',  ( -6.826195507782684507E-14, 19.89999999999998792, 0.000000000000000000 ) ) ;
#16 = AXIS2_PLACEMENT_3D ( 'NONE', #151, #215, #413 ) ;
#17 = ORIENTED_EDGE ( 'NONE', *, *, #372, .F. ) ;
#18 = CARTESIAN_POINT ( 'NONE',  ( 2.550000000000000711, 22.00000000000000355, 0.000000000000000000 ) ) ;
#19 = ORIENTED_EDGE ( 'NONE', *, *, #140, .T. ) ;
#20 = EDGE_CURVE ( 'NONE', #52, #301, #327, .T. ) ;
#21 = CARTESIAN_POINT ( 'NONE',  ( 4.500000000000345501, -82.24900704190434908, 0.000000000000000000 ) ) ;
#22 = ORIENTED_EDGE ( 'NONE', *, *, #405, .T. ) ;
#23 = DIRECTION ( 'NONE',  ( 3.430248998885767753E-15, -1.000000000000000000, -0.000000000000000000 ) ) ;
#24 = VERTEX_POINT ( 'NONE', #316 ) ;
#25 = CIRCLE ( 'NONE', #320, 3.400000000000067857 ) ;
#26 = EDGE_CURVE ( 'NONE', #301, #52, #32, .T. ) ;
#27 = CARTESIAN_POINT ( 'NONE',  ( -1.406402089543176561E-14, 4.100000000000006750, 0.000000000000000000 ) ) ;
#28 = LINE ( 'NONE', #266, #200 ) ;
#29 = CARTESIAN_POINT ( 'NONE',  ( -2.500000000000119460, 17.49999999999998224, 3.061616997868484214E-16 ) ) ;
#30 = AXIS2_PLACEMENT_3D ( 'NONE', #360, #190, #91 ) ;
#31 = ADVANCED_FACE ( 'NONE', ( #273, #96 ), #60, .T. ) ;
#32 = CIRCLE ( 'NONE', #334, 2.550000000000076206 ) ;
#33 = EDGE_LOOP ( 'NONE', ( #353, #145, #244, #350 ) ) ;
#34 = DIRECTION ( 'NONE',  ( 3.430248998885767753E-15, -1.000000000000000000, -0.000000000000000000 ) ) ;
#35 = ORIENTED_EDGE ( 'NONE', *, *, #57, .T. ) ;
#36 = CARTESIAN_POINT ( 'NONE',  ( -2.550000000000151701, 21.99999999999998224, 3.122849337825845576E-16 ) ) ;
#37 = DIRECTION ( 'NONE',  ( 3.430248998885767753E-15, -1.000000000000000000, -0.000000000000000000 ) ) ;
#38 = AXIS2_PLACEMENT_3D ( 'NONE', #256, #191, #55 ) ;
#39 = AXIS2_PLACEMENT_3D ( 'NONE', #315, #321, #13 ) ;
#40 = FACE_OUTER_BOUND ( 'NONE', #361, .T. ) ;
#41 = DIRECTION ( 'NONE',  ( 3.430248998885767753E-15, -1.000000000000000000, -0.000000000000000000 ) ) ;
#42 = FACE_OUTER_BOUND ( 'NONE', #8, .T. ) ;
#43 = ORIENTED_EDGE ( 'NONE', *, *, #140, .F. ) ;
#44 = EDGE_CURVE ( 'NONE', #196, #406, #119, .T. ) ;
#45 = CARTESIAN_POINT ( 'NONE',  ( 4.500000000000000000, 19.90000000000000213, 0.000000000000000000 ) ) ;
#46 = VERTEX_POINT ( 'NONE', #133 ) ;
#47 = CARTESIAN_POINT ( 'NONE',  ( 2.000000000000000000, 4.099999999999998757, 0.000000000000000000 ) ) ;
#48 = DIRECTION ( 'NONE',  ( 3.430248998885767753E-15, -1.000000000000000000, -0.000000000000000000 ) ) ;
#49 = DIRECTION ( 'NONE',  ( 3.430248998885767753E-15, -1.000000000000000000, -0.000000000000000000 ) ) ;
#50 = PLANE ( 'NONE',  #185 ) ;
#51 = COLOUR_RGB ( '',0.7921568627450980005, 0.8196078431372548767, 0.9333333333333333481 ) ;
#52 = VERTEX_POINT ( 'NONE', #36 ) ;
#53 = EDGE_CURVE ( 'NONE', #196, #282, #434, .T. ) ;
#54 = DIRECTION ( 'NONE',  ( 3.430248998885767753E-15, -1.000000000000000000, -0.000000000000000000 ) ) ;
#55 = DIRECTION ( 'NONE',  ( -1.000000000000000000, -3.430248998885767753E-15, 0.000000000000000000 ) ) ;
#56 = DIRECTION ( 'NONE',  ( 3.430248998885767753E-15, -1.000000000000000000, -0.000000000000000000 ) ) ;
#57 = EDGE_CURVE ( 'NONE', #193, #298, #68, .T. ) ;
#58 = VECTOR ( 'NONE', #208, 1000.000000000000000 ) ;
#59 = AXIS2_PLACEMENT_3D ( 'NONE', #274, #107, #304 ) ;
#60 = PLANE ( 'NONE',  #147 ) ;
#61 = AXIS2_PLACEMENT_3D ( 'NONE', #392, #49, #90 ) ;
#62 = DIRECTION ( 'NONE',  ( 3.430248998885767753E-15, -1.000000000000000000, -0.000000000000000000 ) ) ;
#63 = PRODUCT_DEFINITION_SHAPE ( 'NONE', 'NONE',  #437 ) ;
#64 = DIRECTION ( 'NONE',  ( -3.430248998885767753E-15, 1.000000000000000000, 0.000000000000000000 ) ) ;
#65 =( NAMED_UNIT ( * ) PLANE_ANGLE_UNIT ( ) SI_UNIT ( $, .RADIAN. ) );
#66 = DIRECTION ( 'NONE',  ( 3.430248998885767753E-15, -1.000000000000000000, -0.000000000000000000 ) ) ;
#67 = CIRCLE ( 'NONE', #214, 2.500000000000013767 ) ;
#68 = CIRCLE ( 'NONE', #102, 4.500000000000068390 ) ;
#69 = ORIENTED_EDGE ( 'NONE', *, *, #292, .F. ) ;
#70 = CARTESIAN_POINT ( 'NONE',  ( -8.232597597325850497E-14, 23.99999999999999289, 0.000000000000000000 ) ) ;
#71 = CARTESIAN_POINT ( 'NONE',  ( -6.002935748050101477E-14, 17.49999999999998934, 0.000000000000000000 ) ) ;
#72 = EDGE_CURVE ( 'NONE', #136, #184, #28, .T. ) ;
#73 = CARTESIAN_POINT ( 'NONE',  ( 3.399999999999999911, 19.89999999999999858, 0.000000000000000000 ) ) ;
#74 = CIRCLE ( 'NONE', #328, 3.400000000000082068 ) ;
#75 = CARTESIAN_POINT ( 'NONE',  ( 2.550000000000000711, 22.00000000000000355, 0.000000000000000000 ) ) ;
#76 = ORIENTED_EDGE ( 'NONE', *, *, #380, .T. ) ;
#77 = CARTESIAN_POINT ( 'NONE',  ( -6.002935748050101477E-14, 17.49999999999998934, 0.000000000000000000 ) ) ;
#78 = ORIENTED_EDGE ( 'NONE', *, *, #351, .T. ) ;
#79 = EDGE_CURVE ( 'NONE', #381, #175, #186, .T. ) ;
#80 = DIRECTION ( 'NONE',  ( 3.430248998885767753E-15, -1.000000000000000000, -0.000000000000000000 ) ) ;
#81 = ORIENTED_EDGE ( 'NONE', *, *, #93, .T. ) ;
#82 = AXIS2_PLACEMENT_3D ( 'NONE', #77, #80, #178 ) ;
#83 = LINE ( 'NONE', #21, #155 ) ;
#84 = DIRECTION ( 'NONE',  ( 1.000000000000000000, 3.430248998885767753E-15, 0.000000000000000000 ) ) ;
#85 = ADVANCED_FACE ( 'NONE', ( #137 ), #231, .T. ) ;
#86 = DIRECTION ( 'NONE',  ( 3.430248998885767753E-15, -1.000000000000000000, -0.000000000000000000 ) ) ;
#87 = EDGE_LOOP ( 'NONE', ( #429, #78, #252, #242 ) ) ;
#88 = DIRECTION ( 'NONE',  ( 3.430248998885767753E-15, -1.000000000000000000, -0.000000000000000000 ) ) ;
#89 = AXIS2_PLACEMENT_3D ( 'NONE', #71, #379, #240 ) ;
#90 = DIRECTION ( 'NONE',  ( 1.000000000000000000, 4.081702296415894512E-15, 0.000000000000000000 ) ) ;
#91 = DIRECTION ( 'NONE',  ( 1.000000000000000000, 3.430248998885767753E-15, 0.000000000000000000 ) ) ;
#92 = EDGE_LOOP ( 'NONE', ( #153, #403 ) ) ;
#93 = EDGE_CURVE ( 'NONE', #220, #312, #347, .T. ) ;
#94 = DIRECTION ( 'NONE',  ( 1.000000000000000000, 3.469446951953590129E-15, 0.000000000000000000 ) ) ;
#95 = AXIS2_PLACEMENT_3D ( 'NONE', #192, #288, #390 ) ;
#96 = FACE_OUTER_BOUND ( 'NONE', #150, .T. ) ;
#97 = CARTESIAN_POINT ( 'NONE',  ( -8.232597597325850497E-14, 23.99999999999999289, 0.000000000000000000 ) ) ;
#98 = EDGE_CURVE ( 'NONE', #406, #308, #367, .T. ) ;
#99 = DIRECTION ( 'NONE',  ( 1.000000000000000000, 5.551115123125700661E-15, 0.000000000000000000 ) ) ;
#100 = ORIENTED_EDGE ( 'NONE', *, *, #351, .F. ) ;
#101 = DIRECTION ( 'NONE',  ( 3.430248998885767753E-15, -1.000000000000000000, -0.000000000000000000 ) ) ;
#102 = AXIS2_PLACEMENT_3D ( 'NONE', #177, #205, #296 ) ;
#103 = VECTOR ( 'NONE', #195, 1000.000000000000000 ) ;
#104 = FACE_OUTER_BOUND ( 'NONE', #388, .T. ) ;
#105 = EDGE_CURVE ( 'NONE', #220, #301, #302, .T. ) ;
#106 = FACE_OUTER_BOUND ( 'NONE', #172, .T. ) ;
#107 = DIRECTION ( 'NONE',  ( 3.430248998885767753E-15, -1.000000000000000000, -0.000000000000000000 ) ) ;
#108 = ORIENTED_EDGE ( 'NONE', *, *, #418, .T. ) ;
#109 = VECTOR ( 'NONE', #86, 1000.000000000000000 ) ;
#110 = ADVANCED_FACE ( 'NONE', ( #207 ), #202, .T. ) ;
#111 = FACE_OUTER_BOUND ( 'NONE', #223, .T. ) ;
#112 = ORIENTED_EDGE ( 'NONE', *, *, #309, .T. ) ;
#113 = CYLINDRICAL_SURFACE ( 'NONE', #421, 4.500000000000063949 ) ;
#114 = ORIENTED_EDGE ( 'NONE', *, *, #154, .T. ) ;
#115 =( LENGTH_UNIT ( ) NAMED_UNIT ( * ) SI_UNIT ( .MILLI., .METRE. ) );
#116 = EDGE_LOOP ( 'NONE', ( #100, #19, #114, #318 ) ) ;
#117 = CLOSED_SHELL ( 'NONE', ( #128, #319, #236, #85, #110, #216, #161, #2, #299, #228, #247, #10, #204, #31, #176, #366 ) ) ;
#118 = AXIS2_PLACEMENT_3D ( 'NONE', #197, #48, #255 ) ;
#119 = CIRCLE ( 'NONE', #6, 3.400000000000082068 ) ;
#120 = CARTESIAN_POINT ( 'NONE',  ( -6.826195507782684507E-14, 19.89999999999998792, 0.000000000000000000 ) ) ;
#121 = EDGE_LOOP ( 'NONE', ( #221, #225, #422, #198 ) ) ;
#122 = SURFACE_STYLE_USAGE ( .BOTH. , #229 ) ;
#123 = EDGE_LOOP ( 'NONE', ( #130, #12, #369, #322 ) ) ;
#124 = LINE ( 'NONE', #251, #109 ) ;
#125 = PLANE ( 'NONE',  #38 ) ;
#126 = DIRECTION ( 'NONE',  ( 3.430248998885767753E-15, -1.000000000000000000, -0.000000000000000000 ) ) ;
#127 = CIRCLE ( 'NONE', #82, 4.500000000000059508 ) ;
#128 = ADVANCED_FACE ( 'NONE', ( #337 ), #139, .F. ) ;
#129 = EDGE_LOOP ( 'NONE', ( #227, #14 ) ) ;
#130 = ORIENTED_EDGE ( 'NONE', *, *, #148, .F. ) ;
#131 = CARTESIAN_POINT ( 'NONE',  ( -3.399999999999792966, -82.24900704190437750, 4.163799117101093250E-16 ) ) ;
#132 = CIRCLE ( 'NONE', #433, 4.500000000000068390 ) ;
#133 = CARTESIAN_POINT ( 'NONE',  ( -2.000000000000000000, -6.860497997771533929E-15, 2.449293598294710852E-16 ) ) ;
#134 = APPLICATION_PROTOCOL_DEFINITION ( 'draft international standard', 'automotive_design', 1998, #9 ) ;
#135 = LINE ( 'NONE', #267, #441 ) ;
#136 = VERTEX_POINT ( 'NONE', #29 ) ;
#137 = FACE_OUTER_BOUND ( 'NONE', #246, .T. ) ;
#138 = ORIENTED_EDGE ( 'NONE', *, *, #275, .T. ) ;
#139 = CYLINDRICAL_SURFACE ( 'NONE', #265, 2.550000000000079314 ) ;
#140 = EDGE_CURVE ( 'NONE', #175, #381, #399, .T. ) ;
#141 = AXIS2_PLACEMENT_3D ( 'NONE', #210, #173, #333 ) ;
#142 = CARTESIAN_POINT ( 'NONE',  ( 2.499999999999999556, 17.49999999999999645, 0.000000000000000000 ) ) ;
#143 = CARTESIAN_POINT ( 'NONE',  ( -2.500000000000027978, 4.099999999999983658, 3.061616997868413710E-16 ) ) ;
#144 = DIRECTION ( 'NONE',  ( 3.430248998885767753E-15, -1.000000000000000000, -0.000000000000000000 ) ) ;
#145 = ORIENTED_EDGE ( 'NONE', *, *, #148, .T. ) ;
#146 = AXIS2_PLACEMENT_3D ( 'NONE', #438, #101, #371 ) ;
#147 = AXIS2_PLACEMENT_3D ( 'NONE', #168, #64, #440 ) ;
#148 = EDGE_CURVE ( 'NONE', #312, #52, #135, .T. ) ;
#149 = DIRECTION ( 'NONE',  ( 1.000000000000000000, 4.081702296415926067E-15, 0.000000000000000000 ) ) ;
#150 = EDGE_LOOP ( 'NONE', ( #436, #314 ) ) ;
#151 = CARTESIAN_POINT ( 'NONE',  ( -9.860761315262647568E-29, 0.000000000000000000, 0.000000000000000000 ) ) ;
#152 = CARTESIAN_POINT ( 'NONE',  ( 2.000000000000000000, 6.860497997771535507E-15, 0.000000000000000000 ) ) ;
#153 = ORIENTED_EDGE ( 'NONE', *, *, #305, .F. ) ;
#154 = EDGE_CURVE ( 'NONE', #381, #324, #362, .T. ) ;
#155 = VECTOR ( 'NONE', #88, 1000.000000000000000 ) ;
#156 = VECTOR ( 'NONE', #167, 1000.000000000000000 ) ;
#157 = CARTESIAN_POINT ( 'NONE',  ( -1.999999999999724665, -82.24900704190436329, 2.449293598294714796E-16 ) ) ;
#158 = ORIENTED_EDGE ( 'NONE', *, *, #53, .F. ) ;
#159 = CARTESIAN_POINT ( 'NONE',  ( 4.500000000000000000, 17.50000000000000000, 0.000000000000000000 ) ) ;
#160 = PLANE ( 'NONE',  #420 ) ;
#161 = ADVANCED_FACE ( 'NONE', ( #174 ), #300, .T. ) ;
#162 = CARTESIAN_POINT ( 'NONE',  ( -3.400000000000164668, 23.99999999999996803, 4.163799117101110507E-16 ) ) ;
#163 = ORIENTED_EDGE ( 'NONE', *, *, #305, .T. ) ;
#164 =( GEOMETRIC_REPRESENTATION_CONTEXT ( 3 ) GLOBAL_UNCERTAINTY_ASSIGNED_CONTEXT ( ( #435 ) ) GLOBAL_UNIT_ASSIGNED_CONTEXT ( ( #203, #65, #166 ) ) REPRESENTATION_CONTEXT ( 'NONE', 'WORKASPACE' ) );
#165 = ORIENTED_EDGE ( 'NONE', *, *, #44, .T. ) ;
#166 =( NAMED_UNIT ( * ) SI_UNIT ( $, .STERADIAN. ) SOLID_ANGLE_UNIT ( ) );
#167 = DIRECTION ( 'NONE',  ( 3.430248998885767753E-15, -1.000000000000000000, -0.000000000000000000 ) ) ;
#168 = CARTESIAN_POINT ( 'NONE',  ( 3.400000000000000355, 24.00000000000000000, 0.000000000000000000 ) ) ;
#169 = EDGE_CURVE ( 'NONE', #312, #220, #407, .T. ) ;
#170 = CIRCLE ( 'NONE', #393, 2.500000000000059508 ) ;
#171 = CARTESIAN_POINT ( 'NONE',  ( 3.400000000000357403, -82.24900704190434908, 0.000000000000000000 ) ) ;
#172 = EDGE_LOOP ( 'NONE', ( #249, #35, #76, #417 ) ) ;
#173 = DIRECTION ( 'NONE',  ( 0.000000000000000000, 0.000000000000000000, 1.000000000000000000 ) ) ;
#174 = FACE_OUTER_BOUND ( 'NONE', #116, .T. ) ;
#175 = VERTEX_POINT ( 'NONE', #313 ) ;
#176 = ADVANCED_FACE ( 'NONE', ( #183 ), #408, .F. ) ;
#177 = CARTESIAN_POINT ( 'NONE',  ( -6.826195507782684507E-14, 19.89999999999998792, 0.000000000000000000 ) ) ;
#178 = DIRECTION ( 'NONE',  ( 1.000000000000000000, 3.083952846180949457E-15, 0.000000000000000000 ) ) ;
#179 = AXIS2_PLACEMENT_3D ( 'NONE', #401, #62, #94 ) ;
#180 = CARTESIAN_POINT ( 'NONE',  ( -6.002935748050101477E-14, 17.49999999999998934, 0.000000000000000000 ) ) ;
#181 = FACE_BOUND ( 'NONE', #92, .T. ) ;
#182 = ORIENTED_EDGE ( 'NONE', *, *, #418, .F. ) ;
#183 = FACE_OUTER_BOUND ( 'NONE', #123, .T. ) ;
#184 = VERTEX_POINT ( 'NONE', #143 ) ;
#185 = AXIS2_PLACEMENT_3D ( 'NONE', #18, #427, #281 ) ;
#186 = CIRCLE ( 'NONE', #179, 2.000000000000013767 ) ;
#187 = DIRECTION ( 'NONE',  ( 1.000000000000000000, 2.775557561562825481E-15, 0.000000000000000000 ) ) ;
#188 = ORIENTED_EDGE ( 'NONE', *, *, #98, .T. ) ;
#189 = PRODUCT_RELATED_PRODUCT_CATEGORY ( 'part', '', ( #411 ) ) ;
#190 = DIRECTION ( 'NONE',  ( 3.430248998885767753E-15, -1.000000000000000000, -0.000000000000000000 ) ) ;
#191 = DIRECTION ( 'NONE',  ( -3.430248998885767753E-15, 1.000000000000000000, 0.000000000000000000 ) ) ;
#192 = CARTESIAN_POINT ( 'NONE',  ( -6.826195507782684507E-14, 19.89999999999998792, 0.000000000000000000 ) ) ;
#193 = VERTEX_POINT ( 'NONE', #212 ) ;
#194 = AXIS2_PLACEMENT_3D ( 'NONE', #142, #346, #373 ) ;
#195 = DIRECTION ( 'NONE',  ( 3.430248998885767753E-15, -1.000000000000000000, -0.000000000000000000 ) ) ;
#196 = VERTEX_POINT ( 'NONE', #239 ) ;
#197 = CARTESIAN_POINT ( 'NONE',  ( -6.002935748050101477E-14, 17.49999999999998934, 0.000000000000000000 ) ) ;
#198 = ORIENTED_EDGE ( 'NONE', *, *, #380, .F. ) ;
#199 = DIRECTION ( 'NONE',  ( 1.000000000000000000, 4.081702296415894512E-15, 0.000000000000000000 ) ) ;
#200 = VECTOR ( 'NONE', #402, 1000.000000000000000 ) ;
#201 = CIRCLE ( 'NONE', #89, 2.500000000000059508 ) ;
#202 = CYLINDRICAL_SURFACE ( 'NONE', #364, 2.000000000000007105 ) ;
#203 =( LENGTH_UNIT ( ) NAMED_UNIT ( * ) SI_UNIT ( .MILLI., .METRE. ) );
#204 = ADVANCED_FACE ( 'NONE', ( #42 ), #410, .T. ) ;
#205 = DIRECTION ( 'NONE',  ( 3.430248998885767753E-15, -1.000000000000000000, -0.000000000000000000 ) ) ;
#206 = PRODUCT_CONTEXT ( 'NONE', #389, 'mechanical' ) ;
#207 = FACE_OUTER_BOUND ( 'NONE', #87, .T. ) ;
#208 = DIRECTION ( 'NONE',  ( 3.430248998885767753E-15, -1.000000000000000000, -0.000000000000000000 ) ) ;
#209 = UNCERTAINTY_MEASURE_WITH_UNIT (LENGTH_MEASURE( 1.000000000000000082E-05 ), #115, 'distance_accuracy_value', 'NONE');
#210 = CARTESIAN_POINT ( 'NONE',  ( 0.000000000000000000, 0.000000000000000000, 0.000000000000000000 ) ) ;
#211 = DIRECTION ( 'NONE',  ( 3.430248998885767753E-15, -1.000000000000000000, -0.000000000000000000 ) ) ;
#212 = CARTESIAN_POINT ( 'NONE',  ( -4.500000000000136779, 19.89999999999997371, 5.510910596163178302E-16 ) ) ;
#213 = DIRECTION ( 'NONE',  ( 1.000000000000000000, 4.081702296415885835E-15, 0.000000000000000000 ) ) ;
#214 = AXIS2_PLACEMENT_3D ( 'NONE', #357, #222, #394 ) ;
#215 = DIRECTION ( 'NONE',  ( 3.430248998885767753E-15, -1.000000000000000000, -0.000000000000000000 ) ) ;
#216 = ADVANCED_FACE ( 'NONE', ( #104 ), #279, .T. ) ;
#217 = ORIENTED_EDGE ( 'NONE', *, *, #72, .T. ) ;
#218 = DIRECTION ( 'NONE',  ( 3.430248998885767753E-15, -1.000000000000000000, -0.000000000000000000 ) ) ;
#219 = FACE_OUTER_BOUND ( 'NONE', #428, .T. ) ;
#220 = VERTEX_POINT ( 'NONE', #310 ) ;
#221 = ORIENTED_EDGE ( 'NONE', *, *, #431, .T. ) ;
#222 = DIRECTION ( 'NONE',  ( 3.430248998885767753E-15, -1.000000000000000000, -0.000000000000000000 ) ) ;
#223 = EDGE_LOOP ( 'NONE', ( #165, #188, #17, #158 ) ) ;
#224 = CARTESIAN_POINT ( 'NONE',  ( -4.499999999999781508, -82.24900704190437750, 5.510910596163167456E-16 ) ) ;
#225 = ORIENTED_EDGE ( 'NONE', *, *, #391, .T. ) ;
#226 = DIRECTION ( 'NONE',  ( 1.000000000000000000, 3.061276722311938436E-15, 0.000000000000000000 ) ) ;
#227 = ORIENTED_EDGE ( 'NONE', *, *, #26, .F. ) ;
#228 = ADVANCED_FACE ( 'NONE', ( #219, #181 ), #3, .T. ) ;
#229 = SURFACE_SIDE_STYLE ('',( #258 ) ) ;
#230 = DIRECTION ( 'NONE',  ( 3.430248998885767753E-15, -1.000000000000000000, -0.000000000000000000 ) ) ;
#231 = CYLINDRICAL_SURFACE ( 'NONE', #250, 2.500000000000036859 ) ;
#232 = CIRCLE ( 'NONE', #264, 2.500000000000013767 ) ;
#233 = DIRECTION ( 'NONE',  ( 3.430248998885767753E-15, -1.000000000000000000, -0.000000000000000000 ) ) ;
#234 = DIRECTION ( 'NONE',  ( 1.000000000000000000, 3.061276722311938436E-15, 0.000000000000000000 ) ) ;
#235 = DIRECTION ( 'NONE',  ( 3.430248998885767753E-15, -1.000000000000000000, -0.000000000000000000 ) ) ;
#236 = ADVANCED_FACE ( 'NONE', ( #277 ), #409, .T. ) ;
#237 =( GEOMETRIC_REPRESENTATION_CONTEXT ( 3 ) GLOBAL_UNCERTAINTY_ASSIGNED_CONTEXT ( ( #209 ) ) GLOBAL_UNIT_ASSIGNED_CONTEXT ( ( #115, #384, #349 ) ) REPRESENTATION_CONTEXT ( 'NONE', 'WORKASPACE' ) );
#238 = DIRECTION ( 'NONE',  ( 3.430248998885767753E-15, -1.000000000000000000, -0.000000000000000000 ) ) ;
#239 = CARTESIAN_POINT ( 'NONE',  ( 3.399999999999999911, 23.99999999999998934, 0.000000000000000000 ) ) ;
#240 = DIRECTION ( 'NONE',  ( 1.000000000000000000, 2.775557561562825481E-15, 0.000000000000000000 ) ) ;
#241 = CARTESIAN_POINT ( 'NONE',  ( 2.821345740648408095E-13, -82.24900704190436329, 0.000000000000000000 ) ) ;
#242 = ORIENTED_EDGE ( 'NONE', *, *, #154, .F. ) ;
#243 = CARTESIAN_POINT ( 'NONE',  ( 1.176660819435681153E-29, -3.430248998885767753E-15, 0.000000000000000000 ) ) ;
#244 = ORIENTED_EDGE ( 'NONE', *, *, #20, .T. ) ;
#245 = CARTESIAN_POINT ( 'NONE',  ( -2.550000000000164135, 23.99999999999998224, 3.122849337825855437E-16 ) ) ;
#246 = EDGE_LOOP ( 'NONE', ( #163, #217, #69, #387 ) ) ;
#247 = ADVANCED_FACE ( 'NONE', ( #106 ), #113, .T. ) ;
#248 = LINE ( 'NONE', #157, #103 ) ;
#249 = ORIENTED_EDGE ( 'NONE', *, *, #391, .F. ) ;
#250 = AXIS2_PLACEMENT_3D ( 'NONE', #432, #330, #99 ) ;
#251 = CARTESIAN_POINT ( 'NONE',  ( 2.500000000000319300, -82.24900704190434908, 0.000000000000000000 ) ) ;
#252 = ORIENTED_EDGE ( 'NONE', *, *, #309, .F. ) ;
#253 = PRESENTATION_STYLE_ASSIGNMENT (( #122 ) ) ;
#254 = ORIENTED_EDGE ( 'NONE', *, *, #400, .T. ) ;
#255 = DIRECTION ( 'NONE',  ( 1.000000000000000000, 3.083952846180949457E-15, 0.000000000000000000 ) ) ;
#256 = CARTESIAN_POINT ( 'NONE',  ( 4.500000000000000000, 19.90000000000000568, 0.000000000000000000 ) ) ;
#257 = CIRCLE ( 'NONE', #16, 2.000000000000000000 ) ;
#258 = SURFACE_STYLE_FILL_AREA ( #416 ) ;
#259 = ORIENTED_EDGE ( 'NONE', *, *, #359, .T. ) ;
#260 = APPLICATION_PROTOCOL_DEFINITION ( 'draft international standard', 'automotive_design', 1998, #389 ) ;
#261 = EDGE_LOOP ( 'NONE', ( #424, #287 ) ) ;
#262 = EDGE_CURVE ( 'NONE', #415, #355, #127, .T. ) ;
#263 = DIRECTION ( 'NONE',  ( 1.000000000000000000, 4.081702296415885835E-15, 0.000000000000000000 ) ) ;
#264 = AXIS2_PLACEMENT_3D ( 'NONE', #342, #341, #377 ) ;
#265 = AXIS2_PLACEMENT_3D ( 'NONE', #365, #34, #295 ) ;
#266 = CARTESIAN_POINT ( 'NONE',  ( -2.499999999999754419, -82.24900704190437750, 3.061616997868428008E-16 ) ) ;
#267 = CARTESIAN_POINT ( 'NONE',  ( -2.549999999999796874, -82.24900704190437750, 3.122849337825847548E-16 ) ) ;
#268 = PRODUCT_DEFINITION_CONTEXT ( 'detailed design', #9, 'design' ) ;
#269 = ORIENTED_EDGE ( 'NONE', *, *, #262, .T. ) ;
#270 = DIRECTION ( 'NONE',  ( 1.000000000000000000, 3.469446951953590129E-15, 0.000000000000000000 ) ) ;
#271 = ORIENTED_EDGE ( 'NONE', *, *, #338, .T. ) ;
#272 = MECHANICAL_DESIGN_GEOMETRIC_PRESENTATION_REPRESENTATION (  '', ( #412 ), #237 ) ;
#273 = FACE_BOUND ( 'NONE', #378, .T. ) ;
#274 = CARTESIAN_POINT ( 'NONE',  ( 2.821345740648408095E-13, -82.24900704190436329, 0.000000000000000000 ) ) ;
#275 = EDGE_CURVE ( 'NONE', #136, #24, #201, .T. ) ;
#276 = CARTESIAN_POINT ( 'NONE',  ( 2.821345740648408095E-13, -82.24900704190436329, 0.000000000000000000 ) ) ;
#277 = FACE_OUTER_BOUND ( 'NONE', #121, .T. ) ;
#278 = ORIENTED_EDGE ( 'NONE', *, *, #292, .T. ) ;
#279 = PLANE ( 'NONE',  #311 ) ;
#280 = ORIENTED_EDGE ( 'NONE', *, *, #53, .T. ) ;
#281 = DIRECTION ( 'NONE',  ( -1.000000000000000000, -3.430248998885767753E-15, 0.000000000000000000 ) ) ;
#282 = VERTEX_POINT ( 'NONE', #73 ) ;
#283 = CARTESIAN_POINT ( 'NONE',  ( 2.000000000000000000, 4.100000000000012967, 0.000000000000000000 ) ) ;
#284 = ORIENTED_EDGE ( 'NONE', *, *, #400, .F. ) ;
#285 = CIRCLE ( 'NONE', #118, 4.500000000000059508 ) ;
#286 = AXIS2_PLACEMENT_3D ( 'NONE', #97, #66, #263 ) ;
#287 = ORIENTED_EDGE ( 'NONE', *, *, #57, .F. ) ;
#288 = DIRECTION ( 'NONE',  ( 3.430248998885767753E-15, -1.000000000000000000, -0.000000000000000000 ) ) ;
#289 = FACE_BOUND ( 'NONE', #336, .T. ) ;
#290 = DIRECTION ( 'NONE',  ( 1.000000000000000000, 3.061276722311951452E-15, 0.000000000000000000 ) ) ;
#291 = FACE_OUTER_BOUND ( 'NONE', #358, .T. ) ;
#292 = EDGE_CURVE ( 'NONE', #396, #184, #232, .T. ) ;
#293 = ORIENTED_EDGE ( 'NONE', *, *, #72, .F. ) ;
#294 = ADVANCED_BREP_SHAPE_REPRESENTATION ( 'LQ26-05HGI-01-014', ( #444, #141 ), #164 ) ;
#295 = DIRECTION ( 'NONE',  ( 1.000000000000000000, 5.442269728554519705E-15, 0.000000000000000000 ) ) ;
#296 = DIRECTION ( 'NONE',  ( 1.000000000000000000, 3.083952846180943540E-15, 0.000000000000000000 ) ) ;
#297 = DIRECTION ( 'NONE',  ( 3.430248998885767753E-15, -1.000000000000000000, -0.000000000000000000 ) ) ;
#298 = VERTEX_POINT ( 'NONE', #45 ) ;
#299 = ADVANCED_FACE ( 'NONE', ( #40 ), #414, .T. ) ;
#300 = CYLINDRICAL_SURFACE ( 'NONE', #146, 2.000000000000007105 ) ;
#301 = VERTEX_POINT ( 'NONE', #75 ) ;
#302 = LINE ( 'NONE', #368, #442 ) ;
#303 = CIRCLE ( 'NONE', #95, 3.400000000000067857 ) ;
#304 = DIRECTION ( 'NONE',  ( 1.000000000000000000, 3.083952846180946696E-15, 0.000000000000000000 ) ) ;
#305 = EDGE_CURVE ( 'NONE', #24, #136, #170, .T. ) ;
#306 = DIRECTION ( 'NONE',  ( 1.000000000000000000, 3.430248998885767753E-15, 0.000000000000000000 ) ) ;
#307 = CARTESIAN_POINT ( 'NONE',  ( 2.821345740648408095E-13, -82.24900704190436329, 0.000000000000000000 ) ) ;
#308 = VERTEX_POINT ( 'NONE', #1 ) ;
#309 = EDGE_CURVE ( 'NONE', #324, #46, #257, .T. ) ;
#310 = CARTESIAN_POINT ( 'NONE',  ( 2.549999999999999378, 24.00000000000000355, 0.000000000000000000 ) ) ;
#311 = AXIS2_PLACEMENT_3D ( 'NONE', #243, #11, #306 ) ;
#312 = VERTEX_POINT ( 'NONE', #245 ) ;
#313 = CARTESIAN_POINT ( 'NONE',  ( -2.000000000000027978, 4.099999999999999645, 2.449293598294731559E-16 ) ) ;
#314 = ORIENTED_EDGE ( 'NONE', *, *, #359, .F. ) ;
#315 = CARTESIAN_POINT ( 'NONE',  ( 2.821345740648408095E-13, -82.24900704190436329, 0.000000000000000000 ) ) ;
#316 = CARTESIAN_POINT ( 'NONE',  ( 2.499999999999999556, 17.49999999999999645, 0.000000000000000000 ) ) ;
#317 = FACE_OUTER_BOUND ( 'NONE', #129, .T. ) ;
#318 = ORIENTED_EDGE ( 'NONE', *, *, #405, .F. ) ;
#319 = ADVANCED_FACE ( 'NONE', ( #111 ), #382, .T. ) ;
#320 = AXIS2_PLACEMENT_3D ( 'NONE', #15, #54, #290 ) ;
#321 = DIRECTION ( 'NONE',  ( 3.430248998885767753E-15, -1.000000000000000000, -0.000000000000000000 ) ) ;
#322 = ORIENTED_EDGE ( 'NONE', *, *, #26, .T. ) ;
#323 = CARTESIAN_POINT ( 'NONE',  ( 2.500000000000000000, 4.100000000000001421, 0.000000000000000000 ) ) ;
#324 = VERTEX_POINT ( 'NONE', #152 ) ;
#325 = EDGE_CURVE ( 'NONE', #24, #396, #124, .T. ) ;
#326 = CARTESIAN_POINT ( 'NONE',  ( -7.546547797548694816E-14, 21.99999999999999289, 0.000000000000000000 ) ) ;
#327 = CIRCLE ( 'NONE', #61, 2.550000000000076206 ) ;
#328 = AXIS2_PLACEMENT_3D ( 'NONE', #423, #425, #226 ) ;
#329 = CARTESIAN_POINT ( 'NONE',  ( 2.000000000000289102, -82.24900704190436329, 0.000000000000000000 ) ) ;
#330 = DIRECTION ( 'NONE',  ( 3.430248998885767753E-15, -1.000000000000000000, -0.000000000000000000 ) ) ;
#331 = SHAPE_DEFINITION_REPRESENTATION ( #63, #294 ) ;
#332 = CARTESIAN_POINT ( 'NONE',  ( 2.821345740648408095E-13, -82.24900704190436329, 0.000000000000000000 ) ) ;
#333 = DIRECTION ( 'NONE',  ( 1.000000000000000000, 0.000000000000000000, 0.000000000000000000 ) ) ;
#334 = AXIS2_PLACEMENT_3D ( 'NONE', #326, #56, #199 ) ;
#335 = CARTESIAN_POINT ( 'NONE',  ( -8.232597597325845448E-14, 23.99999999999997868, 0.000000000000000000 ) ) ;
#336 = EDGE_LOOP ( 'NONE', ( #348, #108 ) ) ;
#337 = FACE_OUTER_BOUND ( 'NONE', #33, .T. ) ;
#338 = EDGE_CURVE ( 'NONE', #355, #415, #285, .T. ) ;
#339 = DIRECTION ( 'NONE',  ( 1.000000000000000000, 5.551115123125700661E-15, 0.000000000000000000 ) ) ;
#340 = VECTOR ( 'NONE', #23, 1000.000000000000000 ) ;
#341 = DIRECTION ( 'NONE',  ( 3.430248998885767753E-15, -1.000000000000000000, -0.000000000000000000 ) ) ;
#342 = CARTESIAN_POINT ( 'NONE',  ( -1.406402089543171670E-14, 4.099999999999992539, 0.000000000000000000 ) ) ;
#343 = ORIENTED_EDGE ( 'NONE', *, *, #169, .T. ) ;
#344 = CARTESIAN_POINT ( 'NONE',  ( 2.821345740648408095E-13, -82.24900704190436329, 0.000000000000000000 ) ) ;
#345 = ORIENTED_EDGE ( 'NONE', *, *, #325, .T. ) ;
#346 = DIRECTION ( 'NONE',  ( 3.430248998885767753E-15, -1.000000000000000000, -0.000000000000000000 ) ) ;
#347 = CIRCLE ( 'NONE', #286, 2.550000000000081535 ) ;
#348 = ORIENTED_EDGE ( 'NONE', *, *, #372, .T. ) ;
#349 =( NAMED_UNIT ( * ) SI_UNIT ( $, .STERADIAN. ) SOLID_ANGLE_UNIT ( ) );
#350 = ORIENTED_EDGE ( 'NONE', *, *, #105, .F. ) ;
#351 = EDGE_CURVE ( 'NONE', #175, #46, #248, .T. ) ;
#352 = DIRECTION ( 'NONE',  ( 1.000000000000000000, 3.083952846180943540E-15, 0.000000000000000000 ) ) ;
#353 = ORIENTED_EDGE ( 'NONE', *, *, #169, .F. ) ;
#354 = FILL_AREA_STYLE_COLOUR ( '', #51 ) ;
#355 = VERTEX_POINT ( 'NONE', #159 ) ;
#356 = CIRCLE ( 'NONE', #30, 2.000000000000000000 ) ;
#357 = CARTESIAN_POINT ( 'NONE',  ( -1.406402089543171670E-14, 4.099999999999992539, 0.000000000000000000 ) ) ;
#358 = EDGE_LOOP ( 'NONE', ( #278, #254 ) ) ;
#359 = EDGE_CURVE ( 'NONE', #406, #196, #74, .T. ) ;
#360 = CARTESIAN_POINT ( 'NONE',  ( -9.860761315262647568E-29, 0.000000000000000000, 0.000000000000000000 ) ) ;
#361 = EDGE_LOOP ( 'NONE', ( #293, #138, #345, #284 ) ) ;
#362 = LINE ( 'NONE', #329, #58 ) ;
#363 = AXIS2_PLACEMENT_3D ( 'NONE', #307, #144, #339 ) ;
#364 = AXIS2_PLACEMENT_3D ( 'NONE', #332, #233, #404 ) ;
#365 = CARTESIAN_POINT ( 'NONE',  ( 2.821345740648408095E-13, -82.24900704190436329, 0.000000000000000000 ) ) ;
#366 = ADVANCED_FACE ( 'NONE', ( #317 ), #50, .T. ) ;
#367 = LINE ( 'NONE', #131, #156 ) ;
#368 = CARTESIAN_POINT ( 'NONE',  ( 2.550000000000361311, -82.24900704190434908, 0.000000000000000000 ) ) ;
#369 = ORIENTED_EDGE ( 'NONE', *, *, #105, .T. ) ;
#370 = PRESENTATION_LAYER_ASSIGNMENT (  '', '', ( #412 ) ) ;
#371 = DIRECTION ( 'NONE',  ( 1.000000000000000000, 0.000000000000000000, 0.000000000000000000 ) ) ;
#372 = EDGE_CURVE ( 'NONE', #282, #308, #303, .T. ) ;
#373 = DIRECTION ( 'NONE',  ( 1.000000000000000000, 3.430248998885767753E-15, 0.000000000000000000 ) ) ;
#374 = DIRECTION ( 'NONE',  ( 1.000000000000000000, 5.442269728554519705E-15, 0.000000000000000000 ) ) ;
#375 = AXIS2_PLACEMENT_3D ( 'NONE', #344, #41, #149 ) ;
#376 = AXIS2_PLACEMENT_3D ( 'NONE', #27, #297, #270 ) ;
#377 = DIRECTION ( 'NONE',  ( 1.000000000000000000, 3.469446951953595256E-15, 0.000000000000000000 ) ) ;
#378 = EDGE_LOOP ( 'NONE', ( #81, #343 ) ) ;
#379 = DIRECTION ( 'NONE',  ( 3.430248998885767753E-15, -1.000000000000000000, -0.000000000000000000 ) ) ;
#380 = EDGE_CURVE ( 'NONE', #298, #355, #83, .T. ) ;
#381 = VERTEX_POINT ( 'NONE', #283 ) ;
#382 = CYLINDRICAL_SURFACE ( 'NONE', #39, 3.400000000000075406 ) ;
#383 = EDGE_LOOP ( 'NONE', ( #4, #43 ) ) ;
#384 =( NAMED_UNIT ( * ) PLANE_ANGLE_UNIT ( ) SI_UNIT ( $, .RADIAN. ) );
#385 = VECTOR ( 'NONE', #238, 1000.000000000000000 ) ;
#386 = LINE ( 'NONE', #224, #340 ) ;
#387 = ORIENTED_EDGE ( 'NONE', *, *, #325, .F. ) ;
#388 = EDGE_LOOP ( 'NONE', ( #112, #22 ) ) ;
#389 = APPLICATION_CONTEXT ( 'automotive_design' ) ;
#390 = DIRECTION ( 'NONE',  ( 1.000000000000000000, 3.061276722311951452E-15, 0.000000000000000000 ) ) ;
#391 = EDGE_CURVE ( 'NONE', #193, #415, #386, .T. ) ;
#392 = CARTESIAN_POINT ( 'NONE',  ( -7.546547797548694816E-14, 21.99999999999999289, 0.000000000000000000 ) ) ;
#393 = AXIS2_PLACEMENT_3D ( 'NONE', #180, #37, #187 ) ;
#394 = DIRECTION ( 'NONE',  ( 1.000000000000000000, 3.469446951953595256E-15, 0.000000000000000000 ) ) ;
#395 = FACE_BOUND ( 'NONE', #383, .T. ) ;
#396 = VERTEX_POINT ( 'NONE', #323 ) ;
#397 = DIRECTION ( 'NONE',  ( 3.430248998885767753E-15, -1.000000000000000000, -0.000000000000000000 ) ) ;
#398 = AXIS2_PLACEMENT_3D ( 'NONE', #70, #211, #213 ) ;
#399 = CIRCLE ( 'NONE', #376, 2.000000000000013767 ) ;
#400 = EDGE_CURVE ( 'NONE', #184, #396, #67, .T. ) ;
#401 = CARTESIAN_POINT ( 'NONE',  ( -1.406402089543176561E-14, 4.100000000000006750, 0.000000000000000000 ) ) ;
#402 = DIRECTION ( 'NONE',  ( 3.430248998885767753E-15, -1.000000000000000000, -0.000000000000000000 ) ) ;
#403 = ORIENTED_EDGE ( 'NONE', *, *, #275, .F. ) ;
#404 = DIRECTION ( 'NONE',  ( 1.000000000000000000, 0.000000000000000000, 0.000000000000000000 ) ) ;
#405 = EDGE_CURVE ( 'NONE', #46, #324, #356, .T. ) ;
#406 = VERTEX_POINT ( 'NONE', #162 ) ;
#407 = CIRCLE ( 'NONE', #398, 2.550000000000081535 ) ;
#408 = CYLINDRICAL_SURFACE ( 'NONE', #5, 2.550000000000079314 ) ;
#409 = CYLINDRICAL_SURFACE ( 'NONE', #59, 4.500000000000063949 ) ;
#410 = CYLINDRICAL_SURFACE ( 'NONE', #375, 3.400000000000075406 ) ;
#411 = PRODUCT ( 'LQ26-05HGI-01-014', 'LQ26-05HGI-01-014', '', ( #206 ) ) ;
#412 = STYLED_ITEM ( 'NONE', ( #253 ), #444 ) ;
#413 = DIRECTION ( 'NONE',  ( 1.000000000000000000, 3.430248998885767753E-15, 0.000000000000000000 ) ) ;
#414 = CYLINDRICAL_SURFACE ( 'NONE', #363, 2.500000000000036859 ) ;
#415 = VERTEX_POINT ( 'NONE', #419 ) ;
#416 = FILL_AREA_STYLE ('',( #354 ) ) ;
#417 = ORIENTED_EDGE ( 'NONE', *, *, #262, .F. ) ;
#418 = EDGE_CURVE ( 'NONE', #308, #282, #25, .T. ) ;
#419 = CARTESIAN_POINT ( 'NONE',  ( -4.500000000000119016, 17.49999999999997513, 5.510910596163164497E-16 ) ) ;
#420 = AXIS2_PLACEMENT_3D ( 'NONE', #47, #230, #84 ) ;
#421 = AXIS2_PLACEMENT_3D ( 'NONE', #241, #218, #7 ) ;
#422 = ORIENTED_EDGE ( 'NONE', *, *, #338, .F. ) ;
#423 = CARTESIAN_POINT ( 'NONE',  ( -8.232597597325845448E-14, 23.99999999999997868, 0.000000000000000000 ) ) ;
#424 = ORIENTED_EDGE ( 'NONE', *, *, #431, .F. ) ;
#425 = DIRECTION ( 'NONE',  ( 3.430248998885767753E-15, -1.000000000000000000, -0.000000000000000000 ) ) ;
#426 = FACE_OUTER_BOUND ( 'NONE', #261, .T. ) ;
#427 = DIRECTION ( 'NONE',  ( -3.430248998885767753E-15, 1.000000000000000000, 0.000000000000000000 ) ) ;
#428 = EDGE_LOOP ( 'NONE', ( #271, #269 ) ) ;
#429 = ORIENTED_EDGE ( 'NONE', *, *, #79, .T. ) ;
#430 = DIRECTION ( 'NONE',  ( 3.430248998885767753E-15, -1.000000000000000000, -0.000000000000000000 ) ) ;
#431 = EDGE_CURVE ( 'NONE', #298, #193, #132, .T. ) ;
#432 = CARTESIAN_POINT ( 'NONE',  ( 2.821345740648408095E-13, -82.24900704190436329, 0.000000000000000000 ) ) ;
#433 = AXIS2_PLACEMENT_3D ( 'NONE', #120, #126, #352 ) ;
#434 = LINE ( 'NONE', #171, #385 ) ;
#435 = UNCERTAINTY_MEASURE_WITH_UNIT (LENGTH_MEASURE( 1.000000000000000082E-05 ), #203, 'distance_accuracy_value', 'NONE');
#436 = ORIENTED_EDGE ( 'NONE', *, *, #44, .F. ) ;
#437 = PRODUCT_DEFINITION ( '普通', '', #443, #268 ) ;
#438 = CARTESIAN_POINT ( 'NONE',  ( 2.821345740648408095E-13, -82.24900704190436329, 0.000000000000000000 ) ) ;
#439 = ORIENTED_EDGE ( 'NONE', *, *, #98, .F. ) ;
#440 = DIRECTION ( 'NONE',  ( -1.000000000000000000, -3.430248998885767753E-15, 0.000000000000000000 ) ) ;
#441 = VECTOR ( 'NONE', #235, 1000.000000000000000 ) ;
#442 = VECTOR ( 'NONE', #397, 1000.000000000000000 ) ;
#443 = PRODUCT_DEFINITION_FORMATION_WITH_SPECIFIED_SOURCE ( '对称', '', #411, .NOT_KNOWN. ) ;
#444 = MANIFOLD_SOLID_BREP ( '\X2\65cb8f6c\X0\1', #117 ) ;
#445 = DIRECTION ( 'NONE',  ( 3.430248998885767753E-15, -1.000000000000000000, -0.000000000000000000 ) ) ;
ENDSEC;
END-ISO-10303-21;
