ISO-10303-21;
HEADER;
FILE_DESCRIPTION (( 'STEP AP214' ),
    '1' );
FILE_NAME ('LuoKe-M12Y011-12MP.STEP',
    '2026-05-07T08:55:13',
    ( '' ),
    ( '' ),
    'SwSTEP 2.0',
    'SolidWorks 2025',
    '' );
FILE_SCHEMA (( 'AUTOMOTIVE_DESIGN' ));
ENDSEC;

DATA;
#1 = PRODUCT_RELATED_PRODUCT_CATEGORY ( 'part', '', ( #190 ) ) ;
#2 = VERTEX_POINT ( 'NONE', #381 ) ;
#3 = ORIENTED_EDGE ( 'NONE', *, *, #413, .T. ) ;
#4 = AXIS2_PLACEMENT_3D ( 'NONE', #218, #351, #117 ) ;
#5 = CIRCLE ( 'NONE', #150, 7.000000000000041744 ) ;
#6 = VERTEX_POINT ( 'NONE', #321 ) ;
#7 = ADVANCED_FACE ( 'NONE', ( #16, #121 ), #251, .T. ) ;
#8 = ORIENTED_EDGE ( 'NONE', *, *, #205, .T. ) ;
#9 = DIRECTION ( 'NONE',  ( 1.000000000000000000, 3.965082230804105371E-15, 0.000000000000000000 ) ) ;
#10 = ORIENTED_EDGE ( 'NONE', *, *, #378, .T. ) ;
#11 = CIRCLE ( 'NONE', #4, 2.147156570634774830 ) ;
#12 = PLANE ( 'NONE',  #35 ) ;
#13 = DIRECTION ( 'NONE',  ( 3.430248998885766570E-15, -1.000000000000000000, -0.000000000000000000 ) ) ;
#14 = ADVANCED_FACE ( 'NONE', ( #227, #80 ), #12, .T. ) ;
#15 = DIRECTION ( 'NONE',  ( 3.430248998885766570E-15, -1.000000000000000000, -0.000000000000000000 ) ) ;
#16 = FACE_OUTER_BOUND ( 'NONE', #176, .T. ) ;
#17 = DIRECTION ( 'NONE',  ( 0.000000000000000000, -0.000000000000000000, 1.000000000000000000 ) ) ;
#18 = PRODUCT_DEFINITION_FORMATION_WITH_SPECIFIED_SOURCE ( '对称', '', #190, .NOT_KNOWN. ) ;
#19 = VERTEX_POINT ( 'NONE', #386 ) ;
#20 = EDGE_CURVE ( 'NONE', #145, #324, #337, .T. ) ;
#21 = CARTESIAN_POINT ( 'NONE',  ( 6.846700142908287161E-13, -199.5977593793415963, 0.000000000000000000 ) ) ;
#22 = DIRECTION ( 'NONE',  ( 3.430248998885766570E-15, -1.000000000000000000, -0.000000000000000000 ) ) ;
#23 = FACE_OUTER_BOUND ( 'NONE', #39, .T. ) ;
#24 = CARTESIAN_POINT ( 'NONE',  ( -6.181308695992142011E-14, 18.01999999999998181, 0.000000000000000000 ) ) ;
#25 = DIRECTION ( 'NONE',  ( -0.9538479273495182875, -0.3002900789087579736, 1.168126811101926019E-16 ) ) ;
#26 = VECTOR ( 'NONE', #253, 1000.000000000000000 ) ;
#27 = EDGE_CURVE ( 'NONE', #346, #294, #390, .T. ) ;
#28 = AXIS2_PLACEMENT_3D ( 'NONE', #49, #13, #257 ) ;
#29 = FACE_OUTER_BOUND ( 'NONE', #277, .T. ) ;
#30 = DIRECTION ( 'NONE',  ( 3.430248998885766570E-15, -1.000000000000000000, -0.000000000000000000 ) ) ;
#31 = PRODUCT_DEFINITION_CONTEXT ( 'detailed design', #146, 'design' ) ;
#32 = SPHERICAL_SURFACE ( 'NONE', #72, 7.150274755787604519 ) ;
#33 = CARTESIAN_POINT ( 'NONE',  ( -6.181308695992142011E-14, 18.01999999999998181, 0.000000000000000000 ) ) ;
#34 = DIRECTION ( 'NONE',  ( 1.000000000000000000, 3.430248998885766570E-15, 0.000000000000000000 ) ) ;
#35 = AXIS2_PLACEMENT_3D ( 'NONE', #152, #157, #83 ) ;
#36 = CARTESIAN_POINT ( 'NONE',  ( -4.877814076415547480E-14, 14.21999999999998288, 0.000000000000000000 ) ) ;
#37 = ADVANCED_FACE ( 'NONE', ( #196, #339 ), #166, .T. ) ;
#38 = ORIENTED_EDGE ( 'NONE', *, *, #116, .T. ) ;
#39 = EDGE_LOOP ( 'NONE', ( #217, #343, #140, #40 ) ) ;
#40 = ORIENTED_EDGE ( 'NONE', *, *, #387, .F. ) ;
#41 = EDGE_CURVE ( 'NONE', #294, #2, #5, .T. ) ;
#42 = COLOUR_RGB ( '',0.7921568627450980005, 0.8196078431372548767, 0.9333333333333333481 ) ;
#43 = VERTEX_POINT ( 'NONE', #133 ) ;
#44 = CARTESIAN_POINT ( 'NONE',  ( 0.000000000000000000, 13.19972524421239513, 0.000000000000000000 ) ) ;
#45 = VERTEX_POINT ( 'NONE', #369 ) ;
#46 = AXIS2_PLACEMENT_3D ( 'NONE', #364, #325, #184 ) ;
#47 = FACE_OUTER_BOUND ( 'NONE', #422, .T. ) ;
#48 = ADVANCED_FACE ( 'NONE', ( #431 ), #232, .T. ) ;
#49 = CARTESIAN_POINT ( 'NONE',  ( -6.181308695992142011E-14, 18.01999999999998181, 0.000000000000000000 ) ) ;
#50 =( NAMED_UNIT ( * ) SI_UNIT ( $, .STERADIAN. ) SOLID_ANGLE_UNIT ( ) );
#51 = ORIENTED_EDGE ( 'NONE', *, *, #224, .T. ) ;
#52 = CARTESIAN_POINT ( 'NONE',  ( -3.848739376749815222E-14, 11.21999999999997932, 0.000000000000000000 ) ) ;
#53 = ORIENTED_EDGE ( 'NONE', *, *, #256, .F. ) ;
#54 = CARTESIAN_POINT ( 'NONE',  ( 6.846700142908287161E-13, -199.5977593793415963, 0.000000000000000000 ) ) ;
#55 = EDGE_CURVE ( 'NONE', #346, #175, #398, .T. ) ;
#56 = CIRCLE ( 'NONE', #365, 6.000000000000039080 ) ;
#57 = CYLINDRICAL_SURFACE ( 'NONE', #102, 8.500000000000056843 ) ;
#58 = AXIS2_PLACEMENT_3D ( 'NONE', #264, #62, #60 ) ;
#59 = AXIS2_PLACEMENT_3D ( 'NONE', #403, #234, #240 ) ;
#60 = DIRECTION ( 'NONE',  ( -1.000000000000000000, -3.430248998885766570E-15, 0.000000000000000000 ) ) ;
#61 = CARTESIAN_POINT ( 'NONE',  ( 2.147156570634706441, 20.02000000000001734, 0.000000000000000000 ) ) ;
#62 = DIRECTION ( 'NONE',  ( -3.430248998885766570E-15, 1.000000000000000000, 0.000000000000000000 ) ) ;
#63 = LINE ( 'NONE', #429, #439 ) ;
#64 = DIRECTION ( 'NONE',  ( 1.000000000000000000, 3.469446951953594073E-15, 0.000000000000000000 ) ) ;
#65 = STYLED_ITEM ( 'NONE', ( #228 ), #168 ) ;
#66 = AXIS2_PLACEMENT_3D ( 'NONE', #332, #130, #304 ) ;
#67 = DIRECTION ( 'NONE',  ( 3.430248998885766570E-15, -1.000000000000000000, -0.000000000000000000 ) ) ;
#68 = CARTESIAN_POINT ( 'NONE',  ( -8.500000000000124345, 18.01999999999995339, 1.040949779275258423E-15 ) ) ;
#69 = ORIENTED_EDGE ( 'NONE', *, *, #205, .F. ) ;
#70 = EDGE_CURVE ( 'NONE', #324, #145, #179, .T. ) ;
#71 = ORIENTED_EDGE ( 'NONE', *, *, #27, .F. ) ;
#72 = AXIS2_PLACEMENT_3D ( 'NONE', #136, #260, #389 ) ;
#73 = EDGE_LOOP ( 'NONE', ( #220, #185, #357, #53 ) ) ;
#74 = ADVANCED_FACE ( 'NONE', ( #95 ), #285, .T. ) ;
#75 = ORIENTED_EDGE ( 'NONE', *, *, #211, .T. ) ;
#76 = ORIENTED_EDGE ( 'NONE', *, *, #170, .T. ) ;
#77 = AXIS2_PLACEMENT_3D ( 'NONE', #188, #388, #417 ) ;
#78 = EDGE_LOOP ( 'NONE', ( #374, #142 ) ) ;
#79 = DIRECTION ( 'NONE',  ( 1.000000000000000000, 3.469446951953593678E-15, 0.000000000000000000 ) ) ;
#80 = FACE_BOUND ( 'NONE', #78, .T. ) ;
#81 = EDGE_CURVE ( 'NONE', #212, #6, #158, .T. ) ;
#82 = CARTESIAN_POINT ( 'NONE',  ( -2.147156570634843664, 20.02000000000000313, 6.519503107124332176E-16 ) ) ;
#83 = DIRECTION ( 'NONE',  ( 1.000000000000000000, 3.430248998885766570E-15, 0.000000000000000000 ) ) ;
#84 = AXIS2_PLACEMENT_3D ( 'NONE', #33, #171, #307 ) ;
#85 = LINE ( 'NONE', #292, #249 ) ;
#86 = CARTESIAN_POINT ( 'NONE',  ( 7.000000000000728306, -199.5977593793415679, 0.000000000000000000 ) ) ;
#87 = DIRECTION ( 'NONE',  ( 3.430248998885766570E-15, -1.000000000000000000, -0.000000000000000000 ) ) ;
#88 = APPLICATION_PROTOCOL_DEFINITION ( 'draft international standard', 'automotive_design', 1998, #146 ) ;
#89 = EDGE_CURVE ( 'NONE', #208, #324, #400, .T. ) ;
#90 = EDGE_LOOP ( 'NONE', ( #377, #288 ) ) ;
#91 = FACE_OUTER_BOUND ( 'NONE', #416, .T. ) ;
#92 = DIRECTION ( 'NONE',  ( 1.000000000000000000, 3.265361837132789526E-15, 0.000000000000000000 ) ) ;
#93 = LINE ( 'NONE', #231, #194 ) ;
#94 = AXIS2_PLACEMENT_3D ( 'NONE', #372, #137, #274 ) ;
#95 = FACE_OUTER_BOUND ( 'NONE', #180, .T. ) ;
#96 = CARTESIAN_POINT ( 'NONE',  ( -8.500000000000126121, 18.01999999999995339, 1.040949779275258028E-15 ) ) ;
#97 = EDGE_CURVE ( 'NONE', #43, #316, #193, .T. ) ;
#98 = DIRECTION ( 'NONE',  ( 1.000000000000000000, 3.265361837132791498E-15, 0.000000000000000000 ) ) ;
#99 = DIRECTION ( 'NONE',  ( 1.000000000000000000, 3.469446951953589734E-15, 0.000000000000000000 ) ) ;
#100 = DIRECTION ( 'NONE',  ( 1.000000000000000000, 5.046468293750675116E-15, 0.000000000000000000 ) ) ;
#101 = AXIS2_PLACEMENT_3D ( 'NONE', #266, #134, #272 ) ;
#102 = AXIS2_PLACEMENT_3D ( 'NONE', #21, #383, #98 ) ;
#103 = CYLINDRICAL_SURFACE ( 'NONE', #331, 7.000000000000044409 ) ;
#104 = EDGE_CURVE ( 'NONE', #324, #19, #63, .T. ) ;
#105 = ORIENTED_EDGE ( 'NONE', *, *, #413, .F. ) ;
#106 = ORIENTED_EDGE ( 'NONE', *, *, #20, .F. ) ;
#107 = CIRCLE ( 'NONE', #246, 5.500000000000039080 ) ;
#108 = EDGE_CURVE ( 'NONE', #19, #407, #114, .T. ) ;
#109 = ORIENTED_EDGE ( 'NONE', *, *, #256, .T. ) ;
#110 = ORIENTED_EDGE ( 'NONE', *, *, #211, .F. ) ;
#111 = DIRECTION ( 'NONE',  ( 3.430248998885766570E-15, -1.000000000000000000, -0.000000000000000000 ) ) ;
#112 = ORIENTED_EDGE ( 'NONE', *, *, #89, .F. ) ;
#113 = CLOSED_SHELL ( 'NONE', ( #436, #74, #263, #399, #147, #371, #311, #296, #37, #428, #14, #280, #7, #48, #327, #235 ) ) ;
#114 = CIRCLE ( 'NONE', #174, 8.500000000000049738 ) ;
#115 = ORIENTED_EDGE ( 'NONE', *, *, #170, .F. ) ;
#116 = EDGE_CURVE ( 'NONE', #145, #407, #396, .T. ) ;
#117 = DIRECTION ( 'NONE',  ( 1.000000000000000000, 3.231666474073591883E-15, 0.000000000000000000 ) ) ;
#118 = LINE ( 'NONE', #352, #26 ) ;
#119 = EDGE_LOOP ( 'NONE', ( #241, #210 ) ) ;
#120 = PRODUCT_DEFINITION_SHAPE ( 'NONE', 'NONE',  #305 ) ;
#121 = FACE_BOUND ( 'NONE', #373, .T. ) ;
#122 = AXIS2_PLACEMENT_3D ( 'NONE', #54, #172, #100 ) ;
#123 = EDGE_CURVE ( 'NONE', #282, #45, #376, .T. ) ;
#124 = DIRECTION ( 'NONE',  ( 1.000000000000000000, 3.469446951953591706E-15, 0.000000000000000000 ) ) ;
#125 = PRODUCT_CONTEXT ( 'NONE', #276, 'mechanical' ) ;
#126 = EDGE_LOOP ( 'NONE', ( #392, #279, #38, #345 ) ) ;
#127 = CARTESIAN_POINT ( 'NONE',  ( -6.000000000000077272, 11.21999999999995978, 7.347880794884190734E-16 ) ) ;
#128 = CARTESIAN_POINT ( 'NONE',  ( -4.877814076415547480E-14, 14.21999999999998288, 0.000000000000000000 ) ) ;
#129 = CARTESIAN_POINT ( 'NONE',  ( 6.846700142908287161E-13, -199.5977593793415963, 0.000000000000000000 ) ) ;
#130 = DIRECTION ( 'NONE',  ( 3.430248998885766570E-15, -1.000000000000000000, -0.000000000000000000 ) ) ;
#131 = CARTESIAN_POINT ( 'NONE',  ( 6.846700142908287161E-13, -199.5977593793415963, 0.000000000000000000 ) ) ;
#132 = CIRCLE ( 'NONE', #303, 7.000000000000049738 ) ;
#133 = CARTESIAN_POINT ( 'NONE',  ( 5.999999999999983125, -7.174081622314372466E-15, 0.000000000000000000 ) ) ;
#134 = DIRECTION ( 'NONE',  ( 3.430248998885766570E-15, -1.000000000000000000, -0.000000000000000000 ) ) ;
#135 = CARTESIAN_POINT ( 'NONE',  ( -5.500000000000077272, 11.21999999999996156, 6.735557395310490341E-16 ) ) ;
#136 = CARTESIAN_POINT ( 'NONE',  ( 0.000000000000000000, 13.19972524421239513, 0.000000000000000000 ) ) ;
#137 = DIRECTION ( 'NONE',  ( 3.430248998885766570E-15, -1.000000000000000000, -0.000000000000000000 ) ) ;
#138 = EDGE_CURVE ( 'NONE', #248, #281, #56, .T. ) ;
#139 = AXIS2_PLACEMENT_3D ( 'NONE', #199, #197, #333 ) ;
#140 = ORIENTED_EDGE ( 'NONE', *, *, #409, .T. ) ;
#141 = ORIENTED_EDGE ( 'NONE', *, *, #216, .F. ) ;
#142 = ORIENTED_EDGE ( 'NONE', *, *, #341, .F. ) ;
#143 = CIRCLE ( 'NONE', #215, 8.500000000000049738 ) ;
#144 = AXIS2_PLACEMENT_3D ( 'NONE', #368, #434, #167 ) ;
#145 = VERTEX_POINT ( 'NONE', #437 ) ;
#146 = APPLICATION_CONTEXT ( 'automotive_design' ) ;
#147 = ADVANCED_FACE ( 'NONE', ( #299 ), #229, .T. ) ;
#148 = ORIENTED_EDGE ( 'NONE', *, *, #55, .F. ) ;
#149 = AXIS2_PLACEMENT_3D ( 'NONE', #370, #67, #34 ) ;
#150 = AXIS2_PLACEMENT_3D ( 'NONE', #394, #302, #425 ) ;
#151 = CARTESIAN_POINT ( 'NONE',  ( 5.500000000000000888, 12.22000000000000064, 0.000000000000000000 ) ) ;
#152 = CARTESIAN_POINT ( 'NONE',  ( 5.500000000000000000, 12.22000000000000064, 0.000000000000000000 ) ) ;
#153 = DIRECTION ( 'NONE',  ( 1.000000000000000000, 3.469446951953589734E-15, 0.000000000000000000 ) ) ;
#154 = EDGE_LOOP ( 'NONE', ( #110, #314, #318, #329 ) ) ;
#155 = EDGE_CURVE ( 'NONE', #212, #45, #118, .T. ) ;
#156 = SURFACE_STYLE_USAGE ( .BOTH. , #323 ) ;
#157 = DIRECTION ( 'NONE',  ( 3.430248998885766570E-15, -1.000000000000000000, -0.000000000000000000 ) ) ;
#158 = CIRCLE ( 'NONE', #101, 5.500000000000041744 ) ;
#159 = PRESENTATION_LAYER_ASSIGNMENT (  '', '', ( #65 ) ) ;
#160 = DIRECTION ( 'NONE',  ( 1.000000000000000000, 3.396530831772237004E-15, 0.000000000000000000 ) ) ;
#161 = ORIENTED_EDGE ( 'NONE', *, *, #55, .T. ) ;
#162 = DIRECTION ( 'NONE',  ( 1.000000000000000000, 3.231666474073591883E-15, 0.000000000000000000 ) ) ;
#163 = DIRECTION ( 'NONE',  ( 1.000000000000000000, 3.265361837132788737E-15, 0.000000000000000000 ) ) ;
#164 = DIRECTION ( 'NONE',  ( 1.000000000000000000, 3.965082230804105371E-15, 0.000000000000000000 ) ) ;
#165 = EDGE_CURVE ( 'NONE', #45, #282, #107, .T. ) ;
#166 = PLANE ( 'NONE',  #58 ) ;
#167 = DIRECTION ( 'NONE',  ( 1.000000000000000000, 3.469446951953589734E-15, 0.000000000000000000 ) ) ;
#168 = MANIFOLD_SOLID_BREP ( '\X2\65cb8f6c\X0\1', #113 ) ;
#169 = DIRECTION ( 'NONE',  ( 1.000000000000000000, 3.469446951953591706E-15, 0.000000000000000000 ) ) ;
#170 = EDGE_CURVE ( 'NONE', #414, #380, #275, .T. ) ;
#171 = DIRECTION ( 'NONE',  ( 3.430248998885766570E-15, -1.000000000000000000, -0.000000000000000000 ) ) ;
#172 = DIRECTION ( 'NONE',  ( 3.430248998885766570E-15, -1.000000000000000000, -0.000000000000000000 ) ) ;
#173 = LINE ( 'NONE', #206, #284 ) ;
#174 = AXIS2_PLACEMENT_3D ( 'NONE', #128, #30, #64 ) ;
#175 = VERTEX_POINT ( 'NONE', #262 ) ;
#176 = EDGE_LOOP ( 'NONE', ( #187, #242 ) ) ;
#177 = ORIENTED_EDGE ( 'NONE', *, *, #97, .F. ) ;
#178 =( GEOMETRIC_REPRESENTATION_CONTEXT ( 3 ) GLOBAL_UNCERTAINTY_ASSIGNED_CONTEXT ( ( #435 ) ) GLOBAL_UNIT_ASSIGNED_CONTEXT ( ( #356, #363, #358 ) ) REPRESENTATION_CONTEXT ( 'NONE', 'WORKASPACE' ) );
#179 = CIRCLE ( 'NONE', #239, 8.500000000000062172 ) ;
#180 = EDGE_LOOP ( 'NONE', ( #3, #408, #106, #243 ) ) ;
#181 = EDGE_CURVE ( 'NONE', #208, #380, #258, .T. ) ;
#182 = ADVANCED_BREP_SHAPE_REPRESENTATION ( 'LuoKe-M12Y011-12MP', ( #168, #421 ), #178 ) ;
#183 = EDGE_LOOP ( 'NONE', ( #51, #10, #177, #348 ) ) ;
#184 = DIRECTION ( 'NONE',  ( 1.000000000000000000, 5.046468293750675116E-15, 0.000000000000000000 ) ) ;
#185 = ORIENTED_EDGE ( 'NONE', *, *, #216, .T. ) ;
#186 = DIRECTION ( 'NONE',  ( 1.000000000000000000, 0.000000000000000000, -1.224646799147353207E-16 ) ) ;
#187 = ORIENTED_EDGE ( 'NONE', *, *, #404, .T. ) ;
#188 = CARTESIAN_POINT ( 'NONE',  ( 0.000000000000000000, 13.19972524421239513, 0.000000000000000000 ) ) ;
#189 = ORIENTED_EDGE ( 'NONE', *, *, #41, .F. ) ;
#190 = PRODUCT ( 'LuoKe-M12Y011-12MP', 'LuoKe-M12Y011-12MP', '', ( #125 ) ) ;
#191 = LINE ( 'NONE', #297, #410 ) ;
#192 = EDGE_LOOP ( 'NONE', ( #161, #286, #189, #71 ) ) ;
#193 = CIRCLE ( 'NONE', #347, 5.999999999999983125 ) ;
#194 = VECTOR ( 'NONE', #366, 1000.000000000000000 ) ;
#195 = CARTESIAN_POINT ( 'NONE',  ( -6.867358495769302741E-14, 20.02000000000001023, 0.000000000000000000 ) ) ;
#196 = FACE_BOUND ( 'NONE', #90, .T. ) ;
#197 = DIRECTION ( 'NONE',  ( 3.430248998885766570E-15, -1.000000000000000000, -0.000000000000000000 ) ) ;
#198 = CARTESIAN_POINT ( 'NONE',  ( -3.848739376749815222E-14, 11.21999999999997932, 0.000000000000000000 ) ) ;
#199 = CARTESIAN_POINT ( 'NONE',  ( 9.860761315262647568E-29, -2.775557561562891351E-14, 0.000000000000000000 ) ) ;
#200 = DIRECTION ( 'NONE',  ( 3.430248998885766570E-15, -1.000000000000000000, -0.000000000000000000 ) ) ;
#201 = FACE_OUTER_BOUND ( 'NONE', #73, .T. ) ;
#202 = CIRCLE ( 'NONE', #355, 7.150274755787604519 ) ;
#203 = DIRECTION ( 'NONE',  ( 3.430248998885766570E-15, -1.000000000000000000, -0.000000000000000000 ) ) ;
#204 = UNCERTAINTY_MEASURE_WITH_UNIT (LENGTH_MEASURE( 1.000000000000000082E-05 ), #362, 'distance_accuracy_value', 'NONE');
#205 = EDGE_CURVE ( 'NONE', #414, #208, #202, .T. ) ;
#206 = CARTESIAN_POINT ( 'NONE',  ( 8.500000000000000000, 18.02000000000000668, 0.000000000000000000 ) ) ;
#207 = FACE_OUTER_BOUND ( 'NONE', #183, .T. ) ;
#208 = VERTEX_POINT ( 'NONE', #82 ) ;
#209 = AXIS2_PLACEMENT_3D ( 'NONE', #131, #382, #9 ) ;
#210 = ORIENTED_EDGE ( 'NONE', *, *, #138, .F. ) ;
#211 = EDGE_CURVE ( 'NONE', #6, #282, #85, .T. ) ;
#212 = VERTEX_POINT ( 'NONE', #151 ) ;
#213 = EDGE_LOOP ( 'NONE', ( #353, #109 ) ) ;
#214 = EDGE_LOOP ( 'NONE', ( #441, #75, #313, #261 ) ) ;
#215 = AXIS2_PLACEMENT_3D ( 'NONE', #36, #111, #221 ) ;
#216 = EDGE_CURVE ( 'NONE', #175, #346, #132, .T. ) ;
#217 = ORIENTED_EDGE ( 'NONE', *, *, #378, .F. ) ;
#218 = CARTESIAN_POINT ( 'NONE',  ( -6.867358495769302741E-14, 20.02000000000001023, 0.000000000000000000 ) ) ;
#219 = SURFACE_STYLE_FILL_AREA ( #385 ) ;
#220 = ORIENTED_EDGE ( 'NONE', *, *, #244, .F. ) ;
#221 = DIRECTION ( 'NONE',  ( 1.000000000000000000, 3.469446951953594073E-15, 0.000000000000000000 ) ) ;
#222 = CARTESIAN_POINT ( 'NONE',  ( -4.877814076415547480E-14, 14.21999999999998288, 0.000000000000000000 ) ) ;
#223 = ORIENTED_EDGE ( 'NONE', *, *, #97, .T. ) ;
#224 = EDGE_CURVE ( 'NONE', #281, #248, #375, .T. ) ;
#225 = ORIENTED_EDGE ( 'NONE', *, *, #116, .F. ) ;
#226 = DIRECTION ( 'NONE',  ( 1.224646799147353207E-16, 4.200843456763866711E-31, 1.000000000000000000 ) ) ;
#227 = FACE_OUTER_BOUND ( 'NONE', #213, .T. ) ;
#228 = PRESENTATION_STYLE_ASSIGNMENT (( #156 ) ) ;
#229 = CYLINDRICAL_SURFACE ( 'NONE', #46, 5.500000000000039968 ) ;
#230 = CIRCLE ( 'NONE', #440, 7.000000000000041744 ) ;
#231 = CARTESIAN_POINT ( 'NONE',  ( -5.999999999999325873, -199.5977593793416247, 7.347880794884131569E-16 ) ) ;
#232 = CYLINDRICAL_SURFACE ( 'NONE', #66, 8.500000000000056843 ) ;
#233 = CARTESIAN_POINT ( 'NONE',  ( 9.860761315262647568E-29, -2.775557561562891351E-14, 0.000000000000000000 ) ) ;
#234 = DIRECTION ( 'NONE',  ( 3.430248998885766570E-15, -1.000000000000000000, -0.000000000000000000 ) ) ;
#235 = ADVANCED_FACE ( 'NONE', ( #47 ), #328, .T. ) ;
#236 = CARTESIAN_POINT ( 'NONE',  ( -3.848739376749815222E-14, 11.21999999999997932, 0.000000000000000000 ) ) ;
#237 = FACE_OUTER_BOUND ( 'NONE', #412, .T. ) ;
#238 = PLANE ( 'NONE',  #149 ) ;
#239 = AXIS2_PLACEMENT_3D ( 'NONE', #24, #22, #92 ) ;
#240 = DIRECTION ( 'NONE',  ( 1.000000000000000000, 4.625929269271477434E-15, 0.000000000000000000 ) ) ;
#241 = ORIENTED_EDGE ( 'NONE', *, *, #224, .F. ) ;
#242 = ORIENTED_EDGE ( 'NONE', *, *, #108, .T. ) ;
#243 = ORIENTED_EDGE ( 'NONE', *, *, #315, .F. ) ;
#244 = EDGE_CURVE ( 'NONE', #175, #2, #191, .T. ) ;
#245 = ORIENTED_EDGE ( 'NONE', *, *, #404, .F. ) ;
#246 = AXIS2_PLACEMENT_3D ( 'NONE', #319, #259, #153 ) ;
#247 = VECTOR ( 'NONE', #359, 1000.000000000000000 ) ;
#248 = VERTEX_POINT ( 'NONE', #127 ) ;
#249 = VECTOR ( 'NONE', #87, 1000.000000000000000 ) ;
#250 = CARTESIAN_POINT ( 'NONE',  ( 0.000000000000000000, 13.19972524421239513, 0.000000000000000000 ) ) ;
#251 = PLANE ( 'NONE',  #415 ) ;
#252 = FACE_OUTER_BOUND ( 'NONE', #154, .T. ) ;
#253 = DIRECTION ( 'NONE',  ( 3.430248998885766570E-15, -1.000000000000000000, -0.000000000000000000 ) ) ;
#254 = ORIENTED_EDGE ( 'NONE', *, *, #20, .T. ) ;
#255 = CYLINDRICAL_SURFACE ( 'NONE', #122, 5.500000000000039968 ) ;
#256 = EDGE_CURVE ( 'NONE', #2, #294, #230, .T. ) ;
#257 = DIRECTION ( 'NONE',  ( 1.000000000000000000, 3.265361837132789526E-15, 0.000000000000000000 ) ) ;
#258 = CIRCLE ( 'NONE', #320, 2.147156570634774830 ) ;
#259 = DIRECTION ( 'NONE',  ( 3.430248998885766570E-15, -1.000000000000000000, -0.000000000000000000 ) ) ;
#260 = DIRECTION ( 'NONE',  ( 0.000000000000000000, -0.000000000000000000, 1.000000000000000000 ) ) ;
#261 = ORIENTED_EDGE ( 'NONE', *, *, #155, .F. ) ;
#262 = CARTESIAN_POINT ( 'NONE',  ( -7.000000000000098588, 14.21999999999995801, 8.572527594031538271E-16 ) ) ;
#263 = ADVANCED_FACE ( 'NONE', ( #91 ), #57, .T. ) ;
#264 = CARTESIAN_POINT ( 'NONE',  ( 6.000000000000000000, 11.22000000000000064, 0.000000000000000000 ) ) ;
#265 = DIRECTION ( 'NONE',  ( 3.430248998885766570E-15, -1.000000000000000000, -0.000000000000000000 ) ) ;
#266 = CARTESIAN_POINT ( 'NONE',  ( -4.191764276638396217E-14, 12.21999999999998110, 0.000000000000000000 ) ) ;
#267 = AXIS2_PLACEMENT_3D ( 'NONE', #44, #17, #160 ) ;
#268 = VECTOR ( 'NONE', #402, 1000.000000000000000 ) ;
#269 = DIRECTION ( 'NONE',  ( 0.9538479273495202859, -0.3002900789087514233, 0.000000000000000000 ) ) ;
#270 = CARTESIAN_POINT ( 'NONE',  ( -6.181308695992142011E-14, 18.01999999999998181, 0.000000000000000000 ) ) ;
#271 = CARTESIAN_POINT ( 'NONE',  ( 6.000000000000000888, 11.22000000000000064, 0.000000000000000000 ) ) ;
#272 = DIRECTION ( 'NONE',  ( 1.000000000000000000, 3.469446951953587762E-15, 0.000000000000000000 ) ) ;
#273 = CYLINDRICAL_SURFACE ( 'NONE', #59, 6.000000000000010658 ) ;
#274 = DIRECTION ( 'NONE',  ( 1.000000000000000000, 3.469446951953587762E-15, 0.000000000000000000 ) ) ;
#275 = CIRCLE ( 'NONE', #77, 7.150274755787604519 ) ;
#276 = APPLICATION_CONTEXT ( 'automotive_design' ) ;
#277 = EDGE_LOOP ( 'NONE', ( #223, #326 ) ) ;
#278 = CIRCLE ( 'NONE', #94, 5.500000000000041744 ) ;
#279 = ORIENTED_EDGE ( 'NONE', *, *, #70, .T. ) ;
#280 = ADVANCED_FACE ( 'NONE', ( #201 ), #103, .T. ) ;
#281 = VERTEX_POINT ( 'NONE', #271 ) ;
#282 = VERTEX_POINT ( 'NONE', #135 ) ;
#283 = CARTESIAN_POINT ( 'NONE',  ( 8.500000000000000000, 14.22000000000001130, 0.000000000000000000 ) ) ;
#284 = VECTOR ( 'NONE', #269, 1000.000000000000227 ) ;
#285 = CONICAL_SURFACE ( 'NONE', #310, 8.500000000000063949, 1.265799572912018833 ) ;
#286 = ORIENTED_EDGE ( 'NONE', *, *, #244, .T. ) ;
#287 =( NAMED_UNIT ( * ) PLANE_ANGLE_UNIT ( ) SI_UNIT ( $, .RADIAN. ) );
#288 = ORIENTED_EDGE ( 'NONE', *, *, #123, .T. ) ;
#289 = CARTESIAN_POINT ( 'NONE',  ( -2.408939476816363109E-14, 20.35000000000000142, 0.000000000000000000 ) ) ;
#290 = FILL_AREA_STYLE_COLOUR ( '', #42 ) ;
#291 = DIRECTION ( 'NONE',  ( 3.430248998885766570E-15, -1.000000000000000000, -0.000000000000000000 ) ) ;
#292 = CARTESIAN_POINT ( 'NONE',  ( -5.499999999999355182, -199.5977593793416247, 6.735557395310491327E-16 ) ) ;
#293 = CARTESIAN_POINT ( 'NONE',  ( 0.000000000000000000, 0.000000000000000000, 0.000000000000000000 ) ) ;
#294 = VERTEX_POINT ( 'NONE', #401 ) ;
#295 = MECHANICAL_DESIGN_GEOMETRIC_PRESENTATION_REPRESENTATION (  '', ( #65 ), #308 ) ;
#296 = ADVANCED_FACE ( 'NONE', ( #23 ), #273, .T. ) ;
#297 = CARTESIAN_POINT ( 'NONE',  ( -6.999999999999359623, -199.5977593793416247, 8.572527594031526438E-16 ) ) ;
#298 = APPLICATION_PROTOCOL_DEFINITION ( 'draft international standard', 'automotive_design', 1998, #276 ) ;
#299 = FACE_OUTER_BOUND ( 'NONE', #214, .T. ) ;
#300 = DIRECTION ( 'NONE',  ( 1.000000000000000000, 3.430248998885766570E-15, 0.000000000000000000 ) ) ;
#301 = FACE_OUTER_BOUND ( 'NONE', #192, .T. ) ;
#302 = DIRECTION ( 'NONE',  ( 3.430248998885766570E-15, -1.000000000000000000, -0.000000000000000000 ) ) ;
#303 = AXIS2_PLACEMENT_3D ( 'NONE', #222, #420, #360 ) ;
#304 = DIRECTION ( 'NONE',  ( 1.000000000000000000, 3.265361837132791498E-15, 0.000000000000000000 ) ) ;
#305 = PRODUCT_DEFINITION ( '普通', '', #18, #31 ) ;
#306 = DIRECTION ( 'NONE',  ( 3.430248998885766570E-15, -1.000000000000000000, -0.000000000000000000 ) ) ;
#307 = DIRECTION ( 'NONE',  ( 1.000000000000000000, 3.265361837132788737E-15, 0.000000000000000000 ) ) ;
#308 =( GEOMETRIC_REPRESENTATION_CONTEXT ( 3 ) GLOBAL_UNCERTAINTY_ASSIGNED_CONTEXT ( ( #204 ) ) GLOBAL_UNIT_ASSIGNED_CONTEXT ( ( #362, #287, #50 ) ) REPRESENTATION_CONTEXT ( 'NONE', 'WORKASPACE' ) );
#309 = CARTESIAN_POINT ( 'NONE',  ( -5.999999999999983125, -4.833706960894345140E-14, 7.347880794884114806E-16 ) ) ;
#310 = AXIS2_PLACEMENT_3D ( 'NONE', #270, #306, #163 ) ;
#311 = ADVANCED_FACE ( 'NONE', ( #29 ), #238, .T. ) ;
#312 = ORIENTED_EDGE ( 'NONE', *, *, #70, .F. ) ;
#313 = ORIENTED_EDGE ( 'NONE', *, *, #165, .F. ) ;
#314 = ORIENTED_EDGE ( 'NONE', *, *, #341, .T. ) ;
#315 = EDGE_CURVE ( 'NONE', #380, #145, #173, .T. ) ;
#316 = VERTEX_POINT ( 'NONE', #309 ) ;
#317 = DIRECTION ( 'NONE',  ( 3.430248998885766570E-15, -1.000000000000000000, -0.000000000000000000 ) ) ;
#318 = ORIENTED_EDGE ( 'NONE', *, *, #155, .T. ) ;
#319 = CARTESIAN_POINT ( 'NONE',  ( -3.848739376749815222E-14, 11.21999999999997932, 0.000000000000000000 ) ) ;
#320 = AXIS2_PLACEMENT_3D ( 'NONE', #195, #15, #162 ) ;
#321 = CARTESIAN_POINT ( 'NONE',  ( -5.500000000000084377, 12.21999999999996156, 6.735557395310497243E-16 ) ) ;
#322 = LINE ( 'NONE', #349, #397 ) ;
#323 = SURFACE_SIDE_STYLE ('',( #219 ) ) ;
#324 = VERTEX_POINT ( 'NONE', #68 ) ;
#325 = DIRECTION ( 'NONE',  ( 3.430248998885766570E-15, -1.000000000000000000, -0.000000000000000000 ) ) ;
#326 = ORIENTED_EDGE ( 'NONE', *, *, #387, .T. ) ;
#327 = ADVANCED_FACE ( 'NONE', ( #340 ), #344, .T. ) ;
#328 = SPHERICAL_SURFACE ( 'NONE', #267, 7.150274755787604519 ) ;
#329 = ORIENTED_EDGE ( 'NONE', *, *, #123, .F. ) ;
#330 = VECTOR ( 'NONE', #25, 1000.000000000000000 ) ;
#331 = AXIS2_PLACEMENT_3D ( 'NONE', #338, #433, #164 ) ;
#332 = CARTESIAN_POINT ( 'NONE',  ( 6.846700142908287161E-13, -199.5977593793415963, 0.000000000000000000 ) ) ;
#333 = DIRECTION ( 'NONE',  ( 1.000000000000000000, 3.430248998885766570E-15, 0.000000000000000000 ) ) ;
#334 = DIRECTION ( 'NONE',  ( 3.430248998885766570E-15, -1.000000000000000000, -0.000000000000000000 ) ) ;
#335 = CARTESIAN_POINT ( 'NONE',  ( 8.500000000000740741, -199.5977593793415679, 0.000000000000000000 ) ) ;
#336 = CIRCLE ( 'NONE', #139, 5.999999999999983125 ) ;
#337 = CIRCLE ( 'NONE', #28, 8.500000000000062172 ) ;
#338 = CARTESIAN_POINT ( 'NONE',  ( 6.846700142908287161E-13, -199.5977593793415963, 0.000000000000000000 ) ) ;
#339 = FACE_OUTER_BOUND ( 'NONE', #119, .T. ) ;
#340 = FACE_OUTER_BOUND ( 'NONE', #379, .T. ) ;
#341 = EDGE_CURVE ( 'NONE', #6, #212, #278, .T. ) ;
#342 = CYLINDRICAL_SURFACE ( 'NONE', #405, 6.000000000000010658 ) ;
#343 = ORIENTED_EDGE ( 'NONE', *, *, #138, .T. ) ;
#344 = CONICAL_SURFACE ( 'NONE', #84, 8.500000000000063949, 1.265799572912018833 ) ;
#345 = ORIENTED_EDGE ( 'NONE', *, *, #108, .F. ) ;
#346 = VERTEX_POINT ( 'NONE', #406 ) ;
#347 = AXIS2_PLACEMENT_3D ( 'NONE', #233, #367, #300 ) ;
#348 = ORIENTED_EDGE ( 'NONE', *, *, #409, .F. ) ;
#349 = CARTESIAN_POINT ( 'NONE',  ( 6.000000000000694556, -199.5977593793415679, 0.000000000000000000 ) ) ;
#350 = ORIENTED_EDGE ( 'NONE', *, *, #181, .T. ) ;
#351 = DIRECTION ( 'NONE',  ( 3.430248998885766570E-15, -1.000000000000000000, -0.000000000000000000 ) ) ;
#352 = CARTESIAN_POINT ( 'NONE',  ( 5.500000000000723865, -199.5977593793415679, 0.000000000000000000 ) ) ;
#353 = ORIENTED_EDGE ( 'NONE', *, *, #41, .T. ) ;
#354 = DIRECTION ( 'NONE',  ( 3.430248998885766570E-15, -1.000000000000000000, -0.000000000000000000 ) ) ;
#355 = AXIS2_PLACEMENT_3D ( 'NONE', #250, #226, #186 ) ;
#356 =( LENGTH_UNIT ( ) NAMED_UNIT ( * ) SI_UNIT ( .MILLI., .METRE. ) );
#357 = ORIENTED_EDGE ( 'NONE', *, *, #27, .T. ) ;
#358 =( NAMED_UNIT ( * ) SI_UNIT ( $, .STERADIAN. ) SOLID_ANGLE_UNIT ( ) );
#359 = DIRECTION ( 'NONE',  ( 3.430248998885766570E-15, -1.000000000000000000, -0.000000000000000000 ) ) ;
#360 = DIRECTION ( 'NONE',  ( 1.000000000000000000, 3.469446951953589734E-15, 0.000000000000000000 ) ) ;
#361 = ORIENTED_EDGE ( 'NONE', *, *, #315, .T. ) ;
#362 =( LENGTH_UNIT ( ) NAMED_UNIT ( * ) SI_UNIT ( .MILLI., .METRE. ) );
#363 =( NAMED_UNIT ( * ) PLANE_ANGLE_UNIT ( ) SI_UNIT ( $, .RADIAN. ) );
#364 = CARTESIAN_POINT ( 'NONE',  ( 6.846700142908287161E-13, -199.5977593793415963, 0.000000000000000000 ) ) ;
#365 = AXIS2_PLACEMENT_3D ( 'NONE', #236, #203, #169 ) ;
#366 = DIRECTION ( 'NONE',  ( 3.430248998885766570E-15, -1.000000000000000000, -0.000000000000000000 ) ) ;
#367 = DIRECTION ( 'NONE',  ( 3.430248998885766570E-15, -1.000000000000000000, -0.000000000000000000 ) ) ;
#368 = CARTESIAN_POINT ( 'NONE',  ( -4.877814076415547480E-14, 14.21999999999998288, 0.000000000000000000 ) ) ;
#369 = CARTESIAN_POINT ( 'NONE',  ( 5.500000000000000888, 11.21999999999999886, 0.000000000000000000 ) ) ;
#370 = CARTESIAN_POINT ( 'NONE',  ( 3.529982458307030567E-29, -1.029074699665727052E-14, 0.000000000000000000 ) ) ;
#371 = ADVANCED_FACE ( 'NONE', ( #207 ), #342, .T. ) ;
#372 = CARTESIAN_POINT ( 'NONE',  ( -4.191764276638396217E-14, 12.21999999999998110, 0.000000000000000000 ) ) ;
#373 = EDGE_LOOP ( 'NONE', ( #148, #141 ) ) ;
#374 = ORIENTED_EDGE ( 'NONE', *, *, #81, .F. ) ;
#375 = CIRCLE ( 'NONE', #432, 6.000000000000039080 ) ;
#376 = CIRCLE ( 'NONE', #438, 5.500000000000039080 ) ;
#377 = ORIENTED_EDGE ( 'NONE', *, *, #165, .T. ) ;
#378 = EDGE_CURVE ( 'NONE', #248, #316, #93, .T. ) ;
#379 = EDGE_LOOP ( 'NONE', ( #112, #350, #361, #312 ) ) ;
#380 = VERTEX_POINT ( 'NONE', #61 ) ;
#381 = CARTESIAN_POINT ( 'NONE',  ( -7.000000000000083489, 12.21999999999995623, 8.572527594031525452E-16 ) ) ;
#382 = DIRECTION ( 'NONE',  ( 3.430248998885766570E-15, -1.000000000000000000, -0.000000000000000000 ) ) ;
#383 = DIRECTION ( 'NONE',  ( 3.430248998885766570E-15, -1.000000000000000000, -0.000000000000000000 ) ) ;
#384 = DIRECTION ( 'NONE',  ( 1.000000000000000000, 3.430248998885766570E-15, 0.000000000000000000 ) ) ;
#385 = FILL_AREA_STYLE ('',( #290 ) ) ;
#386 = CARTESIAN_POINT ( 'NONE',  ( -8.500000000000097700, 14.21999999999995268, 1.040949779275256845E-15 ) ) ;
#387 = EDGE_CURVE ( 'NONE', #316, #43, #336, .T. ) ;
#388 = DIRECTION ( 'NONE',  ( 0.000000000000000000, 0.000000000000000000, -1.000000000000000000 ) ) ;
#389 = DIRECTION ( 'NONE',  ( 1.000000000000000000, 3.396530831772237004E-15, 0.000000000000000000 ) ) ;
#390 = LINE ( 'NONE', #86, #247 ) ;
#391 = DIRECTION ( 'NONE',  ( 1.000000000000000000, 0.000000000000000000, 0.000000000000000000 ) ) ;
#392 = ORIENTED_EDGE ( 'NONE', *, *, #104, .F. ) ;
#393 = DIRECTION ( 'NONE',  ( 3.430248998885766570E-15, -1.000000000000000000, -0.000000000000000000 ) ) ;
#394 = CARTESIAN_POINT ( 'NONE',  ( -4.191764276638396217E-14, 12.21999999999998110, 0.000000000000000000 ) ) ;
#395 = DIRECTION ( 'NONE',  ( 1.000000000000000000, 4.625929269271477434E-15, 0.000000000000000000 ) ) ;
#396 = LINE ( 'NONE', #335, #268 ) ;
#397 = VECTOR ( 'NONE', #317, 1000.000000000000000 ) ;
#398 = CIRCLE ( 'NONE', #144, 7.000000000000049738 ) ;
#399 = ADVANCED_FACE ( 'NONE', ( #301 ), #430, .T. ) ;
#400 = LINE ( 'NONE', #96, #330 ) ;
#401 = CARTESIAN_POINT ( 'NONE',  ( 7.000000000000000000, 12.22000000000000597, 0.000000000000000000 ) ) ;
#402 = DIRECTION ( 'NONE',  ( 3.430248998885766570E-15, -1.000000000000000000, -0.000000000000000000 ) ) ;
#403 = CARTESIAN_POINT ( 'NONE',  ( 6.846700142908287161E-13, -199.5977593793415963, 0.000000000000000000 ) ) ;
#404 = EDGE_CURVE ( 'NONE', #407, #19, #143, .T. ) ;
#405 = AXIS2_PLACEMENT_3D ( 'NONE', #129, #265, #395 ) ;
#406 = CARTESIAN_POINT ( 'NONE',  ( 7.000000000000000888, 14.22000000000000774, 0.000000000000000000 ) ) ;
#407 = VERTEX_POINT ( 'NONE', #283 ) ;
#408 = ORIENTED_EDGE ( 'NONE', *, *, #89, .T. ) ;
#409 = EDGE_CURVE ( 'NONE', #281, #43, #322, .T. ) ;
#410 = VECTOR ( 'NONE', #423, 1000.000000000000000 ) ;
#411 = ORIENTED_EDGE ( 'NONE', *, *, #181, .F. ) ;
#412 = EDGE_LOOP ( 'NONE', ( #115, #8, #105 ) ) ;
#413 = EDGE_CURVE ( 'NONE', #380, #208, #11, .T. ) ;
#414 = VERTEX_POINT ( 'NONE', #289 ) ;
#415 = AXIS2_PLACEMENT_3D ( 'NONE', #418, #291, #384 ) ;
#416 = EDGE_LOOP ( 'NONE', ( #254, #419, #245, #225 ) ) ;
#417 = DIRECTION ( 'NONE',  ( -1.000000000000000000, 0.000000000000000000, 0.000000000000000000 ) ) ;
#418 = CARTESIAN_POINT ( 'NONE',  ( 7.000000000000000000, 14.22000000000000064, 0.000000000000000000 ) ) ;
#419 = ORIENTED_EDGE ( 'NONE', *, *, #104, .T. ) ;
#420 = DIRECTION ( 'NONE',  ( 3.430248998885766570E-15, -1.000000000000000000, -0.000000000000000000 ) ) ;
#421 = AXIS2_PLACEMENT_3D ( 'NONE', #293, #427, #391 ) ;
#422 = EDGE_LOOP ( 'NONE', ( #69, #76, #411 ) ) ;
#423 = DIRECTION ( 'NONE',  ( 3.430248998885766570E-15, -1.000000000000000000, -0.000000000000000000 ) ) ;
#424 = SHAPE_DEFINITION_REPRESENTATION ( #120, #182 ) ;
#425 = DIRECTION ( 'NONE',  ( 1.000000000000000000, 3.469446951953593678E-15, 0.000000000000000000 ) ) ;
#426 = CARTESIAN_POINT ( 'NONE',  ( -4.191764276638396217E-14, 12.21999999999998110, 0.000000000000000000 ) ) ;
#427 = DIRECTION ( 'NONE',  ( 0.000000000000000000, 0.000000000000000000, 1.000000000000000000 ) ) ;
#428 = ADVANCED_FACE ( 'NONE', ( #252 ), #255, .T. ) ;
#429 = CARTESIAN_POINT ( 'NONE',  ( -8.499999999999371170, -199.5977593793416247, 1.040949779275257240E-15 ) ) ;
#430 = CYLINDRICAL_SURFACE ( 'NONE', #209, 7.000000000000044409 ) ;
#431 = FACE_OUTER_BOUND ( 'NONE', #126, .T. ) ;
#432 = AXIS2_PLACEMENT_3D ( 'NONE', #52, #354, #124 ) ;
#433 = DIRECTION ( 'NONE',  ( 3.430248998885766570E-15, -1.000000000000000000, -0.000000000000000000 ) ) ;
#434 = DIRECTION ( 'NONE',  ( 3.430248998885766570E-15, -1.000000000000000000, -0.000000000000000000 ) ) ;
#435 = UNCERTAINTY_MEASURE_WITH_UNIT (LENGTH_MEASURE( 1.000000000000000082E-05 ), #356, 'distance_accuracy_value', 'NONE');
#436 = ADVANCED_FACE ( 'NONE', ( #237 ), #32, .T. ) ;
#437 = CARTESIAN_POINT ( 'NONE',  ( 8.499999999999998224, 18.02000000000000668, 0.000000000000000000 ) ) ;
#438 = AXIS2_PLACEMENT_3D ( 'NONE', #198, #334, #99 ) ;
#439 = VECTOR ( 'NONE', #200, 1000.000000000000000 ) ;
#440 = AXIS2_PLACEMENT_3D ( 'NONE', #426, #393, #79 ) ;
#441 = ORIENTED_EDGE ( 'NONE', *, *, #81, .T. ) ;
ENDSEC;
END-ISO-10303-21;
