ISO-10303-21;
HEADER;
FILE_DESCRIPTION (( 'STEP AP214' ),
    '1' );
FILE_NAME ('ÓãÑÛÏà»ú.',
    '2026-05-07T08:55:13',
    ( '' ),
    ( '' ),
    'SwSTEP 2.0',
    'SolidWorks 2025',
    '' );
FILE_SCHEMA (( 'AUTOMOTIVE_DESIGN' ));
ENDSEC;

DATA;
#1 = ROLE_ASSOCIATION ( #102, #74 ) ;
#2 = AXIS2_PLACEMENT_3D ( 'NONE', #40, #80, #98 ) ;
#3 = IDENTIFICATION_ROLE ( 'external document id and location', $) ;
#4 = PRODUCT_DEFINITION ( 'æ™®é€š', '', #51, #91 ) ;
#5 = OBJECT_ROLE ('mandatory',$ ) ;
#6 = PRODUCT_DEFINITION_SHAPE ( 'NONE', 'NONE',  #4 ) ;
#7 = UNCERTAINTY_MEASURE_WITH_UNIT (LENGTH_MEASURE( 1.000000000000000082E-05 ), #90, 'distance_accuracy_value', 'NONE');
#8 = CARTESIAN_POINT ( 'NONE',  ( 0.000000000000000000, 0.000000000000000000, 0.000000000000000000 ) ) ;
#9 = ITEM_DEFINED_TRANSFORMATION ( 'NONE', 'NONE', #77,  #30 ) ;
#10 = PRODUCT_RELATED_PRODUCT_CATEGORY ( 'part', '', ( #66 ) ) ;
#11 = DOCUMENT_TYPE ( 'geometry' ) ;
#12 = PRODUCT_DEFINITION ( 'æ™®é€š', '', #14, #23 ) ;
#13 = APPLICATION_CONTEXT ( 'automotive_design' ) ;
#14 = PRODUCT_DEFINITION_FORMATION_WITH_SPECIFIED_SOURCE ( 'å¯¹ç§°', '', #88, .NOT_KNOWN. ) ;
#15 = DIRECTION ( 'NONE',  ( 1.000000000000000000, 0.000000000000000000, 0.000000000000000000 ) ) ;
#16 = PRODUCT_CONTEXT ( 'NONE', #103, 'mechanical' ) ;
#17 = PRODUCT_RELATED_PRODUCT_CATEGORY ( 'part', '', ( #88 ) ) ;
#18 = CONTEXT_DEPENDENT_SHAPE_REPRESENTATION ( #72, #95 ) ;
#19 = SHAPE_DEFINITION_REPRESENTATION ( #65, #62 ) ;
#20 = PRODUCT_DEFINITION_SHAPE ( 'NONE', 'NONE',  #12 ) ;
#21 = EXTERNAL_SOURCE (IDENTIFIER('') ) ;
#22 = PROPERTY_DEFINITION ('document property','', #82 ) ;
#23 = PRODUCT_DEFINITION_CONTEXT ( 'detailed design', #37, 'design' ) ;
#24 =( GEOMETRIC_REPRESENTATION_CONTEXT ( 3 ) GLOBAL_UNCERTAINTY_ASSIGNED_CONTEXT ( ( #7 ) ) GLOBAL_UNIT_ASSIGNED_CONTEXT ( ( #90, #60, #69 ) ) REPRESENTATION_CONTEXT ( 'NONE', 'WORKASPACE' ) );
#25 = EXTERNAL_SOURCE (IDENTIFIER('') ) ;
#26 = PROPERTY_DEFINITION_REPRESENTATION ( #86, #44 ) ;
#27 = PROPERTY_DEFINITION_REPRESENTATION ( #22, #62 ) ;
#28 = CONTEXT_DEPENDENT_SHAPE_REPRESENTATION ( #43, #76 ) ;
#29 = APPLICATION_PROTOCOL_DEFINITION ( 'draft international standard', 'automotive_design', 1998, #13 ) ;
#30 = AXIS2_PLACEMENT_3D ( 'NONE', #36, #105, #57 ) ;
#31 = DIRECTION ( 'NONE',  ( 0.000000000000000000, 0.000000000000000000, 1.000000000000000000 ) ) ;
#32 = IDENTIFICATION_ROLE ( 'external document id and location', $) ;
#33 =( NAMED_UNIT ( * ) SI_UNIT ( $, .STERADIAN. ) SOLID_ANGLE_UNIT ( ) );
#34 = DIRECTION ( 'NONE',  ( 1.000000000000000000, 0.000000000000000000, 0.000000000000000000 ) ) ;
#35 = DOCUMENT_FILE ( 'LQ25-11FCMB-01-02.STEP' , '', '', #56, '' ,$ ) ;
#36 = CARTESIAN_POINT ( 'NONE',  ( 0.000000000000000000, 0.000000000000000000, 0.000000000000000000 ) ) ;
#37 = APPLICATION_CONTEXT ( 'automotive_design' ) ;
#38 = CARTESIAN_POINT ( 'NONE',  ( 0.000000000000000000, 0.000000000000000000, 0.000000000000000000 ) ) ;
#39 = PRODUCT_DEFINITION ( 'æ™®é€š', '', #54, #46 ) ;
#40 = CARTESIAN_POINT ( 'NONE',  ( -3.252606517456513302E-16, 0.000000000000000000, 2.999999999999992450 ) ) ;
#41 =( GEOMETRIC_REPRESENTATION_CONTEXT ( 3 ) GLOBAL_UNCERTAINTY_ASSIGNED_CONTEXT ( ( #104 ) ) GLOBAL_UNIT_ASSIGNED_CONTEXT ( ( #67, #97, #50 ) ) REPRESENTATION_CONTEXT ( 'NONE', 'WORKASPACE' ) );
#42 = SHAPE_DEFINITION_REPRESENTATION ( #6, #44 ) ;
#43 =( REPRESENTATION_RELATIONSHIP ('NONE','NONE', #47, #44 ) REPRESENTATION_RELATIONSHIP_WITH_TRANSFORMATION ( #63 )SHAPE_REPRESENTATION_RELATIONSHIP( ) );
#44 = SHAPE_REPRESENTATION ( 'LQ25-11FCMB-01-02', ( #85 ), #41 ) ;
#45 =( GEOMETRIC_REPRESENTATION_CONTEXT ( 3 ) GLOBAL_UNCERTAINTY_ASSIGNED_CONTEXT ( ( #58 ) ) GLOBAL_UNIT_ASSIGNED_CONTEXT ( ( #92, #81, #33 ) ) REPRESENTATION_CONTEXT ( 'NONE', 'WORKASPACE' ) );
#46 = PRODUCT_DEFINITION_CONTEXT ( 'detailed design', #79, 'design' ) ;
#47 = SHAPE_REPRESENTATION ( '\X2\9c7c773c76f8673a\X0\', ( #106, #77, #2 ), #45 ) ;
#48 = SHAPE_DEFINITION_REPRESENTATION ( #20, #47 ) ;
#49 = PROPERTY_DEFINITION ('document property','', #35 ) ;
#50 =( NAMED_UNIT ( * ) SI_UNIT ( $, .STERADIAN. ) SOLID_ANGLE_UNIT ( ) );
#51 = PRODUCT_DEFINITION_FORMATION_WITH_SPECIFIED_SOURCE ( 'å¯¹ç§°', '', #66, .NOT_KNOWN. ) ;
#52 = APPLICATION_PROTOCOL_DEFINITION ( 'draft international standard', 'automotive_design', 1998, #103 ) ;
#53 = APPLICATION_PROTOCOL_DEFINITION ( 'draft international standard', 'automotive_design', 1998, #75 ) ;
#54 = PRODUCT_DEFINITION_FORMATION_WITH_SPECIFIED_SOURCE ( 'å¯¹ç§°', '', #94, .NOT_KNOWN. ) ;
#55 = PROPERTY_DEFINITION ('external definition','', #82 ) ;
#56 = DOCUMENT_TYPE ( 'geometry' ) ;
#57 = DIRECTION ( 'NONE',  ( 1.000000000000000000, 0.000000000000000000, 0.000000000000000000 ) ) ;
#58 = UNCERTAINTY_MEASURE_WITH_UNIT (LENGTH_MEASURE( 1.000000000000000082E-05 ), #92, 'distance_accuracy_value', 'NONE');
#59 = DIRECTION ( 'NONE',  ( 0.000000000000000000, 0.000000000000000000, 1.000000000000000000 ) ) ;
#60 =( NAMED_UNIT ( * ) PLANE_ANGLE_UNIT ( ) SI_UNIT ( $, .RADIAN. ) );
#61 = ROLE_ASSOCIATION ( #5, #100 ) ;
#62 = SHAPE_REPRESENTATION ( 'LQ25-11FCMB-01-001', ( #30 ), #24 ) ;
#63 = ITEM_DEFINED_TRANSFORMATION ( 'NONE', 'NONE', #2,  #85 ) ;
#64 = PROPERTY_DEFINITION_REPRESENTATION ( #49, #44 ) ;
#65 = PRODUCT_DEFINITION_SHAPE ( 'NONE', 'NONE',  #39 ) ;
#66 = PRODUCT ( 'LQ25-11FCMB-01-02', 'LQ25-11FCMB-01-02', '', ( #99 ) ) ;
#67 =( LENGTH_UNIT ( ) NAMED_UNIT ( * ) SI_UNIT ( .MILLI., .METRE. ) );
#68 = CARTESIAN_POINT ( 'NONE',  ( 0.000000000000000000, 0.000000000000000000, 0.000000000000000000 ) ) ;
#69 =( NAMED_UNIT ( * ) SI_UNIT ( $, .STERADIAN. ) SOLID_ANGLE_UNIT ( ) );
#70 = DIRECTION ( 'NONE',  ( 0.000000000000000000, 0.000000000000000000, 1.000000000000000000 ) ) ;
#71 = APPLIED_EXTERNAL_IDENTIFICATION_ASSIGNMENT ( 'LQ25-11FCMB-01-001.STEP' , #32, #21,( #82) ) ;
#72 =( REPRESENTATION_RELATIONSHIP ('NONE','NONE', #47, #62 ) REPRESENTATION_RELATIONSHIP_WITH_TRANSFORMATION ( #9 )SHAPE_REPRESENTATION_RELATIONSHIP( ) );
#73 = APPLICATION_PROTOCOL_DEFINITION ( 'draft international standard', 'automotive_design', 1998, #79 ) ;
#74 = APPLIED_DOCUMENT_REFERENCE ( #82,'',( #39) ) ;
#75 = APPLICATION_CONTEXT ( 'automotive_design' ) ;
#76 = PRODUCT_DEFINITION_SHAPE ( 'NONE', 'NONE',  #108 ) ;
#77 = AXIS2_PLACEMENT_3D ( 'NONE', #68, #59, #15 ) ;
#78 = PRODUCT_RELATED_PRODUCT_CATEGORY ( 'part', '', ( #94 ) ) ;
#79 = APPLICATION_CONTEXT ( 'automotive_design' ) ;
#80 = DIRECTION ( 'NONE',  ( 1.734723475976412664E-18, -1.110223024625156540E-16, 0.9999999999999998890 ) ) ;
#81 =( NAMED_UNIT ( * ) PLANE_ANGLE_UNIT ( ) SI_UNIT ( $, .RADIAN. ) );
#82 = DOCUMENT_FILE ( 'LQ25-11FCMB-01-001.STEP' , '', '', #11, '' ,$ ) ;
#83 = DIRECTION ( 'NONE',  ( 1.000000000000000000, 0.000000000000000000, 0.000000000000000000 ) ) ;
#84 = APPLICATION_PROTOCOL_DEFINITION ( 'draft international standard', 'automotive_design', 1998, #96 ) ;
#85 = AXIS2_PLACEMENT_3D ( 'NONE', #38, #70, #34 ) ;
#86 = PROPERTY_DEFINITION ('external definition','', #35 ) ;
#87 = APPLIED_EXTERNAL_IDENTIFICATION_ASSIGNMENT ( 'LQ25-11FCMB-01-02.STEP' , #3, #25,( #35) ) ;
#88 = PRODUCT ( '\X2\9c7c773c76f8673a\X0\', '\X2\9c7c773c76f8673a\X0\', '', ( #16 ) ) ;
#89 = APPLICATION_PROTOCOL_DEFINITION ( 'draft international standard', 'automotive_design', 1998, #37 ) ;
#90 =( LENGTH_UNIT ( ) NAMED_UNIT ( * ) SI_UNIT ( .MILLI., .METRE. ) );
#91 = PRODUCT_DEFINITION_CONTEXT ( 'detailed design', #13, 'design' ) ;
#92 =( LENGTH_UNIT ( ) NAMED_UNIT ( * ) SI_UNIT ( .MILLI., .METRE. ) );
#93 = PROPERTY_DEFINITION_REPRESENTATION ( #55, #62 ) ;
#94 = PRODUCT ( 'LQ25-11FCMB-01-001', 'LQ25-11FCMB-01-001', '', ( #101 ) ) ;
#95 = PRODUCT_DEFINITION_SHAPE ( 'NONE', 'NONE',  #107 ) ;
#96 = APPLICATION_CONTEXT ( 'automotive_design' ) ;
#97 =( NAMED_UNIT ( * ) PLANE_ANGLE_UNIT ( ) SI_UNIT ( $, .RADIAN. ) );
#98 = DIRECTION ( 'NONE',  ( -1.000000000000000000, 6.938893903906833947E-18, 1.734723475977004310E-18 ) ) ;
#99 = PRODUCT_CONTEXT ( 'NONE', #96, 'mechanical' ) ;
#100 = APPLIED_DOCUMENT_REFERENCE ( #35,'',( #4) ) ;
#101 = PRODUCT_CONTEXT ( 'NONE', #75, 'mechanical' ) ;
#102 = OBJECT_ROLE ('mandatory',$ ) ;
#103 = APPLICATION_CONTEXT ( 'automotive_design' ) ;
#104 = UNCERTAINTY_MEASURE_WITH_UNIT (LENGTH_MEASURE( 1.000000000000000082E-05 ), #67, 'distance_accuracy_value', 'NONE');
#105 = DIRECTION ( 'NONE',  ( 0.000000000000000000, 0.000000000000000000, 1.000000000000000000 ) ) ;
#106 = AXIS2_PLACEMENT_3D ( 'NONE', #8, #31, #83 ) ;
#107 = NEXT_ASSEMBLY_USAGE_OCCURRENCE ( 'NAUO2', ' ', ' ', #12, #39, $ ) ;
#108 = NEXT_ASSEMBLY_USAGE_OCCURRENCE ( 'NAUO3', ' ', ' ', #12, #4, $ ) ;
ENDSEC;
END-ISO-10303-21;
